<svg viewBox="186.3616751269036 346.20000000000005 172.6903553299491 201.95000000000002" xmlns="http://www.w3.org/2000/svg" overflow="visible" xmlns:xlink="http://www.w3.org/1999/xlink" width="172.6903553299491px" height="201.95000000000002px"><g id="Master/Character/Torso" stroke="none" stroke-width="1" fill="none" fill-rule="evenodd"><g id="Torso" transform="translate(139.000000, 391.000000) scale(1 1)"><g id="Torso/Coffee Color" stroke="none" stroke-width="1" fill="none" fill-rule="evenodd"><g id="Group-6" transform="translate(49.000000, 31.000000)"><path d="M0.9962,93.6277 C0.9962,93.6277 15.5172,23.9137 32.4302,13.7867 C40.9112,8.7077 62.4532,3.0117 62.4532,3.0117 C62.4532,3.0117 73.7092,24.8047 85.5292,18.6937 C93.9512,14.3407 93.5292,4.2017 93.5292,4.2017 C93.5292,4.2017 130.3872,4.1717 136.7592,7.6517 C138.1462,8.4107 148.6982,29.6047 157.3032,51.2247 C158.5702,54.4097 166.3562,67.2807 159.1832,69.3207 C153.9242,71.6227 132.4342,74.1247 132.4342,74.1247 C132.4342,74.1247 134.1832,88.5917 132.9282,89.3357 C129.0052,91.6587 111.1132,90.7147 103.3492,91.3477 C102.1932,91.4407 104.4082,81.6317 105.3212,76.7367 C107.5712,75.8607 109.7442,72.8727 109.4372,73.0457 C107.8952,73.9147 104.7052,61.2247 103.1462,62.0867 C101.9332,62.7587 68.2972,63.3227 67.0812,63.9837 C60.3522,78.8717 73.4412,121.0117 67.8122,119.4357 C49.0422,114.1807 34.5162,111.7977 34.5162,111.7977 C34.5162,111.7977 32.7462,96.7647 29.5102,96.2727 C22.6822,95.2327 0.9962,93.6277 0.9962,93.6277" id="Fill-1" fill="#b8cb76"/><g id="Group-5" transform="translate(0.000000, 0.749000)" fill="#632603"><path d="M73.2892,62.114 C75.7212,62.591 78.2622,62.312 80.2282,61.382 C79.9352,61.019 79.7272,60.51 79.3862,60.39 C78.4432,60.062 74.5002,61.181 73.2892,62.114 M69.7912,64.931 C76.0342,67.37 96.5262,66.355 100.5292,63.423 C90.2032,62.94 80.2482,63.371 69.7912,64.931 M71.0362,110.887 C71.2702,112.802 71.5022,114.449 71.6662,116.103 C71.7772,117.236 72.4322,117.767 73.4642,118.001 C76.2562,118.633 79.0212,119.439 81.8442,119.872 C84.6932,120.308 87.6002,120.426 90.4702,119.623 C89.8992,119.331 89.3172,119.15 88.7252,119.101 C87.4552,118.998 86.1742,119.014 84.9062,118.888 C80.9302,118.493 79.4322,119.101 80.3192,113.396 C78.2062,113.249 76.6172,112.207 75.6452,110.243 C74.1282,110.455 72.7292,110.65 71.0362,110.887 M132.4352,73.376 C133.7562,73.376 134.7322,73.519 135.6512,73.352 C142.4652,72.116 149.2842,70.901 156.0622,69.491 C158.3802,69.009 160.5912,68.005 162.8392,67.206 C163.5432,66.956 164.1672,66.52 164.0462,65.644 C163.8102,63.937 163.5122,62.238 163.2172,60.39 C152.4542,62.738 141.9952,65.02 131.2912,67.355 C131.6532,69.265 132.0342,71.27 132.4352,73.376 M29.3892,93.49 C29.1262,90.589 28.8862,87.938 28.6302,85.111 C19.4672,85.499 10.5802,85.67 1.6442,82.473 C1.8602,85.439 2.0752,87.968 2.2192,90.5 C2.2982,91.916 3.0802,92.74 4.3402,93.051 C6.1142,93.487 7.9112,93.898 9.7242,94.097 C15.2252,94.702 20.7202,94.115 26.2132,93.836 C27.1582,93.787 28.0992,93.634 29.3892,93.49 M101.9552,85.731 C102.9892,81.678 103.3982,77.738 102.9912,75.988 C91.2492,78.743 79.4182,80.777 67.0812,79.988 C67.5142,82.51 67.8872,84.682 68.2752,86.952 C79.6502,87.871 90.7932,88.259 101.9552,85.731 M68.4732,88.784 C68.6702,90.642 68.8212,92.207 69.0032,93.768 C69.5202,98.21 70.0442,102.65 70.5792,107.09 C70.7792,108.752 71.0632,108.961 72.7452,108.76 C73.4592,108.675 74.1912,108.632 74.8712,108.425 C75.4022,108.263 75.8662,107.88 76.3882,107.579 C73.5862,103.699 75.0162,102.954 77.7152,101.062 C76.7592,98.998 78.2422,96.452 80.2282,96.276 C82.3832,96.086 93.6842,95.968 101.1282,94.388 C101.3532,92.079 101.5582,89.995 101.7912,87.606 C90.6522,89.98 79.8052,89.46 68.4732,88.784 M66.8142,67.001 C65.9592,70.565 65.1472,73.949 64.3392,77.32 C72.9882,79.72 100.5072,76.366 106.7192,72.174 C105.4392,69.768 104.1502,67.345 102.9162,65.024 C90.9472,69.446 78.9962,68.022 66.8142,67.001 M101.8102,106.369 C101.1732,106.625 100.6592,106.95 100.1102,107.028 C98.2132,107.302 96.3042,107.492 94.3972,107.707 C89.4692,108.263 84.5382,108.771 79.5792,108.052 C78.8502,107.946 78.0642,107.819 77.7482,108.704 C77.4042,109.666 77.7362,110.547 78.6852,110.872 C79.9462,111.305 81.2752,111.693 82.5972,111.779 C87.8782,112.123 93.1432,111.989 98.3272,110.746 C98.7902,110.635 99.2752,110.458 99.7262,110.511 C100.0462,110.55 100.5212,110.893 100.5652,111.159 C100.6092,111.432 100.2792,111.947 99.9972,112.057 C99.2602,112.344 98.4642,112.497 97.6832,112.654 C93.6702,113.46 89.6212,113.851 85.5262,113.66 C84.4672,113.611 81.5892,113.357 81.7612,115.784 C81.8022,116.365 82.7582,116.574 83.2822,116.612 C87.9722,116.952 92.6652,117.308 97.3632,117.445 C99.4202,117.505 101.4902,117.064 103.5562,116.855 C106.1712,116.591 107.3262,114.34 107.5222,112.187 C107.7002,110.236 107.3992,108.351 106.6002,106.573 C105.5432,104.226 105.2102,101.733 105.7832,99.302 C106.6822,95.493 105.5672,95.127 102.0652,96.019 C95.6632,97.652 89.1612,98.213 82.5682,97.774 C81.9352,97.732 81.2862,97.729 80.6592,97.816 C79.0192,98.042 78.7372,98.489 78.9292,100.746 C82.4542,100.903 86.0282,101.169 89.6042,101.189 C92.3962,101.205 95.1892,100.894 97.9842,100.779 C98.7132,100.749 99.4492,100.905 100.3192,100.989 C99.8492,102.734 98.6522,102.526 97.7142,102.541 C92.6042,102.62 87.4942,102.619 82.3852,102.667 C80.7892,102.681 79.1762,102.629 77.6052,102.849 C76.1452,103.055 75.8602,104.237 76.9452,105.241 C77.3362,105.603 77.8822,105.898 78.4012,106 C79.7272,106.261 81.0732,106.485 82.4202,106.568 C88.0402,106.913 93.5742,105.919 99.1392,105.41 C100.0602,105.326 101.0302,104.969 101.8102,106.369 M132.9802,75.814 C133.4462,81.085 135.0532,86.434 135.3502,91.874 C133.4782,92.471 133.8542,90.517 133.0802,90.303 C131.7722,90.447 130.6672,90.63 129.5562,90.679 C125.7232,90.851 121.8882,90.983 118.0542,91.12 C113.7402,91.273 109.4272,91.405 105.1132,91.566 C103.3022,91.634 103.1872,91.801 103.4612,93.695 C103.8552,93.695 104.2562,93.666 104.6512,93.7 C107.0402,93.912 108.2792,95.188 107.7922,97.51 C107.0702,100.945 107.5652,104.112 108.7672,107.35 C109.3812,109.006 109.3522,110.9 109.6472,112.923 C113.8952,112.518 118.1032,112.201 122.2902,111.702 C131.0142,110.661 139.7322,109.569 148.4392,108.402 C151.5202,107.989 154.5842,107.388 157.6172,106.7 C160.2472,106.103 162.0142,104.464 162.4542,101.688 C162.6672,100.352 162.8292,98.999 162.8812,97.648 C163.2042,89.285 161.8952,81.083 160.3132,72.917 C160.1562,72.105 159.7092,71.351 159.5182,70.874 C150.5002,72.552 141.8102,74.171 132.9802,75.814 M91.9122,0.986 C93.2602,1.225 94.4002,1.548 95.5562,1.613 C100.9022,1.918 106.2512,2.218 111.6032,2.391 C117.8432,2.593 124.0522,2.947 130.1702,4.324 C136.0892,5.656 140.6542,8.857 143.9562,13.927 C147.2452,18.977 149.6752,24.466 151.9542,30.005 C155.5702,38.797 158.9852,47.672 162.4812,56.512 C162.8262,57.385 162.9262,58.398 164.0402,58.766 C164.3022,58.852 164.6202,59.186 164.6632,59.447 C165.0622,61.868 165.5132,64.29 165.690534,66.731 C165.7292,67.286 164.8612,68.048 164.2462,68.476 C163.4102,69.057 162.4162,69.411 161.4182,69.896 C162.8302,75.67 163.8152,81.483 164.2492,87.357 C164.5542,91.492 164.6912,95.672 164.4632,99.806 C164.1542,105.382 161.8962,107.851 156.3572,108.876 C151.2572,109.819 146.1012,110.477 140.9572,111.177 C135.2582,111.951 129.5502,112.669 123.8362,113.336 C119.5512,113.836 115.2552,114.262 110.9552,114.621 C109.7422,114.721 108.8282,114.952 108.2452,116.144 C107.6052,117.455 106.3582,118.14 105.0042,118.402 C102.8932,118.809 100.7502,119.065 98.6122,119.307 C97.5892,119.424 96.7322,119.706 95.7672,120.172 C93.9452,121.051 91.8512,121.522 89.8222,121.78 C83.6572,122.566 77.7522,121.125 71.9132,119.343 C70.7032,118.973 70.1352,118.131 69.9902,116.879 C69.6232,113.705 69.1842,110.539 68.7942,107.368 C67.7902,99.199 66.8082,91.028 65.7902,82.861 C65.6632,81.841 65.3732,80.84 65.1482,79.779 C64.1282,79.461 63.1562,79.158 62.0712,78.82 C62.7292,76.101 63.3652,73.476 64.0002,70.85 C64.3192,69.531 64.6062,68.204 64.9632,66.894 C65.5042,64.907 66.4992,63.42 68.8422,63.313 C69.6932,63.274 70.5312,62.958 71.4742,62.747 L71.4742,60.012 C74.2872,59.38 77.0262,58.609 79.8642,58.381 C80.3672,58.34 81.0632,59.059 81.4432,59.591 C81.8452,60.149 81.9742,60.903 82.1772,61.45 C85.0702,61.45 87.8552,61.384 90.6362,61.467 C94.5412,61.582 98.4452,61.767 102.3442,62.03 C102.9392,62.07 103.7552,62.548 104.0292,63.058 C105.6872,66.151 107.2182,69.313 108.7842,72.438 C108.3072,74.095 106.8842,74.51 105.4402,75.082 C104.8102,79.85 104.1792,84.635 103.5012,89.769 C113.5082,89.541 123.1282,89.203 132.9282,88.587 C132.8532,87.608 132.8602,86.989 132.7522,86.389 C131.5172,79.551 130.2662,72.715 129.0132,65.88 C128.7192,64.276 128.7092,64.278 130.0932,63.463 C130.4322,63.96 130.7752,64.465 131.1872,65.07 C141.2612,63.885 151.0262,61.185 161.0102,58.814 C160.9042,58.153 160.9042,57.597 160.7252,57.109 C156.0592,44.434 151.1652,31.854 145.1662,19.735 C143.6702,16.713 141.8582,13.91 139.5452,11.426 C136.8712,8.552 133.4792,7.077 129.7822,6.146 C124.5562,4.831 119.2062,4.537 113.8552,4.277 C107.4682,3.968 101.0792,3.686 94.6902,3.4 C94.3072,3.384 93.9202,3.434 93.5292,3.453 C92.7692,5.729 92.0862,7.93 91.2932,10.092 C90.8272,11.363 90.2802,12.624 89.6092,13.797 C86.6472,18.972 81.4312,20.375 76.3072,17.321 C72.3512,14.963 69.0152,11.862 66.2252,8.205 C65.1612,6.81 64.2742,5.283 63.3042,3.818 C63.0032,3.364 62.6922,2.917 62.3122,2.358 C58.8042,3.345 55.3362,4.251 51.9132,5.301 C45.6522,7.221 39.3252,9.015 33.5632,12.22 C30.6382,13.847 27.8912,15.796 25.0602,17.594 C20.5992,20.429 17.7462,24.518 16.2722,29.492 C14.8912,34.156 13.7162,38.892 12.6792,43.647 C10.5172,53.558 8.4952,63.501 6.4382,73.435 C5.8922,76.08 5.4272,78.742 4.8792,81.635 C12.6412,84.075 20.4152,83.588 28.3982,83.376 C28.3982,81.847 28.3992,80.595 28.3982,79.343 C28.3952,77.985 28.3632,76.626 28.3982,75.268 C28.4162,74.559 28.4402,73.64 29.3872,73.637 C30.4362,73.634 30.1952,74.573 30.2302,75.265 C30.4752,80.134 30.7712,84.999 30.9722,89.869 C31.2132,95.736 32.8592,101.365 33.8032,107.112 C34.0192,108.435 34.2792,109.752 34.5162,111.049 C33.4672,111.736 32.8982,111.415 32.6752,110.409 C32.3622,109.006 32.1582,107.578 31.8222,106.181 C31.3772,104.336 30.7862,102.523 30.3752,100.671 C30.0152,99.049 29.8162,97.389 29.5102,95.523 C21.1002,95.781 12.7522,97.078 4.1852,95.082 C4.2642,96.608 4.2432,97.869 4.4082,99.105 C4.9872,103.457 5.6512,107.799 6.2182,112.152 C6.2732,112.579 5.8772,113.064 5.6912,113.523 C5.2742,113.232 4.5702,113.006 4.4902,112.64 C4.0952,110.851 3.8412,109.029 3.5832,107.212 C3.0812,103.657 2.4962,100.107 2.1832,96.535 C2.0612,95.158 2.1402,93.864 0.9962,92.879 C0.9382,92.83 0.8952,92.747 0.8782,92.672 C-0.1188,88.459 -0.1098,84.212 0.1452,79.608 C1.2852,80.086 2.0332,80.4 3.0772,80.837 C3.3902,79.376 3.6712,78.083 3.9412,76.789 C6.8032,63.106 9.6312,49.416 12.5422,35.744 C13.3572,31.913 14.5392,28.181 16.3102,24.65 C17.7702,21.735 19.7742,19.325 22.3362,17.304 C29.1342,11.945 36.6742,8.019 44.9402,5.504 C50.5932,3.783 56.2742,2.16 61.9522,0.526 C63.6852,0.027 63.6652,0.091 64.3692,1.7 C64.7832,2.647 65.2682,3.576 65.8232,4.449 C68.5152,8.692 71.9802,12.197 76.1182,15.034 C76.9042,15.572 77.7452,16.064 78.6212,16.432 C82.3062,17.983 85.6972,16.918 87.6962,13.49 C89.4782,10.434 90.6522,7.121 91.3732,3.654 C91.5482,2.811 91.7142,1.968 91.9122,0.986" id="Fill-3"/></g></g></g></g><g id="Head" transform="translate(250.000000, 368.000000) scale(1 1)" fill="#632603"><g id="Head/Curly Short" stroke="none" stroke-width="1" fill="none" fill-rule="evenodd"><g id="Group-3" transform="translate(-4.000000, -16.000000)" fill="#632603"><path d="M30.0414,7.2277 C29.1184,6.5757 27.9304,6.9467 26.3464,7.0867 C28.6804,5.8967 30.9764,6.3127 32.3224,9.3737 C31.3444,8.3187 30.8654,7.8097 30.0414,7.2277 M12.4094,9.4207 C12.3314,9.0477 12.2304,8.6487 12.1984,8.3087 C12.0214,6.4707 12.3534,4.4157 13.5004,2.7347 C13.9164,2.1247 14.7464,1.1957 15.4714,0.9757 C17.1254,0.4707 17.8774,0.1527 19.7544,1.1617 C14.9594,1.9277 13.5344,5.4277 12.4094,9.4207 M5.3654,28.4727 C4.7804,28.1417 1.9134,26.2127 0.7594,24.5327 C0.3154,23.8857 0.0004,22.2797 1.7734,19.5477 C1.8884,20.0527 2.0064,20.3137 1.9984,20.5717 C1.8834,24.4487 3.9364,26.8407 7.3264,28.2627 C8.4334,28.7277 9.4344,29.2107 10.1404,30.8117 C8.0904,30.2777 6.7774,29.2707 5.3654,28.4727 M5.9114,13.3637 C6.8144,10.9967 7.6634,10.4047 9.6164,10.7067 C8.2564,11.2577 7.1474,13.4577 7.7804,15.0117 C7.2004,14.5307 6.7774,14.2667 5.5834,15.1587 C5.7004,14.4837 5.7114,13.8877 5.9114,13.3637 M42.1334,15.9877 C42.5584,14.7687 43.0064,13.6607 43.3284,12.5177 C43.8574,10.6427 43.4774,8.8467 42.5074,7.2137 C40.8784,4.4697 36.3074,4.9407 34.8524,6.8647 C34.0944,7.8717 33.8194,8.8347 33.8694,9.8017 C33.0214,8.3657 32.3354,7.4557 31.0514,6.4707 C29.4514,5.2447 27.0904,5.8897 25.4664,6.6577 C25.6434,5.7857 25.1124,4.3687 24.5514,3.6377 C23.8484,2.7227 22.5454,1.3857 20.3494,0.5757 C17.5604,-0.4533 15.5014,-0.1933 13.4674,2.0887 C12.3734,3.3157 11.7004,4.8817 11.4824,6.2777 C11.3034,7.4277 11.4794,8.6427 11.2424,9.8297 C10.7934,9.8677 10.4844,9.9397 10.1874,9.9117 C7.6804,9.6717 6.8954,10.0537 5.8034,12.1907 C5.4424,12.8947 5.1104,13.6367 4.9244,14.3997 C4.4684,16.2637 3.2034,17.6177 1.8714,18.7657 C-0.1516,20.5097 -0.2556,23.3897 0.2674,24.6027 C0.2664,24.6027 1.3224,27.0197 6.7234,29.9427 C7.4914,30.3587 8.2384,30.8437 9.0464,31.1797 C10.3164,31.7087 10.2024,33.0457 9.0104,33.7897 C8.6344,34.0237 8.1054,34.0217 7.6454,34.1107 C5.3454,34.5527 4.1994,35.9637 4.2544,38.3067 C4.3054,40.4897 5.3694,42.0907 7.1474,43.2617 C7.6664,43.6027 8.2224,43.8867 8.8874,44.2687 C8.5394,47.6457 8.3244,50.9957 7.8224,54.3007 C7.1264,58.8757 6.2074,63.4157 5.4014,67.9747 C5.2774,68.6757 5.1744,69.3997 5.2164,70.1047 C5.2344,70.4097 5.6114,70.8767 5.8914,70.9307 C6.1784,70.9847 6.6714,70.7037 6.8454,70.4257 C7.0854,70.0417 7.1354,69.5287 7.2254,69.0627 C8.0254,64.9087 8.9304,60.7697 9.5784,56.5917 C10.1644,52.8067 10.5174,48.9827 10.8794,45.1677 C11.0894,42.9547 10.9714,42.8397 8.9514,41.9367 C7.5294,41.3007 6.6044,40.3007 6.3424,38.7537 C6.1174,37.4347 6.6894,35.5867 8.4554,36.0297 C9.8974,36.3907 10.4494,38.3527 10.8024,39.7077 C10.9994,39.6667 11.1964,39.6257 11.3934,39.5847 C11.5784,38.8747 11.8284,38.1747 11.9374,37.4547 C12.2604,35.3227 12.3924,33.1527 12.8474,31.0517 C13.5744,27.6887 15.7374,25.3327 18.9644,24.3667 C21.3604,23.6477 23.9514,23.5767 26.4574,23.2297 C26.6044,23.2087 26.7764,23.2727 26.9204,23.3357 C29.0924,24.2817 31.1394,23.7547 33.0914,22.7467 C34.9184,23.8037 35.6514,25.2567 35.6314,27.3257 C35.5694,33.2717 34.8424,39.1317 33.3584,44.8707 C32.7044,47.3987 31.5364,49.7947 30.5764,52.2427 C30.0024,53.7087 28.7914,54.2867 27.3284,54.1867 C26.3114,54.1177 25.2264,53.9377 24.3254,53.4937 C22.4074,52.5467 20.6094,51.3597 18.7164,50.3577 C18.3214,50.1497 17.7284,50.3177 17.2264,50.3117 C17.2944,50.8037 17.1794,51.5137 17.4614,51.7497 C18.5534,52.6667 19.7024,53.5637 20.9584,54.2257 C23.5884,55.6147 26.3764,56.5377 29.5734,56.0357 C30.8074,60.4047 31.9704,64.5477 33.1494,68.6857 C33.3674,69.4497 33.5894,70.2267 33.9374,70.9337 C34.0654,71.1937 34.6194,71.4567 34.8814,71.3797 C35.1454,71.3017 35.4404,70.8127 35.4524,70.4947 C35.4714,69.9527 35.3174,69.3917 35.1694,68.8577 C34.0784,64.9347 32.9964,61.0087 31.8534,57.1007 C31.4804,55.8277 31.4964,54.7877 32.1494,53.4987 C33.4024,51.0207 34.5904,48.4227 35.2214,45.7377 C36.2024,41.5537 36.7364,37.2607 37.3784,33.0017 C37.6274,31.3547 37.6544,29.6747 37.7824,28.0117 C38.1414,27.8117 38.3994,27.6207 38.6894,27.5127 C40.8204,26.7207 42.2464,25.4127 42.2154,22.9387 C42.2104,22.5717 42.3844,22.1417 42.6104,21.8427 C44.2214,19.7207 44.1884,17.7437 42.1334,15.9877" id="Fill-1"/></g></g></g><g id="Face" transform="translate(264.000000, 380.000000) scale(1 1)" fill="#632603"><g id="Face/Happy" stroke="none" stroke-width="1" fill="none" fill-rule="evenodd"><g id="Happy" fill="#632603"><polygon id="Fill-1" points="9.6244 5.4505 11.1524 11.4955 8.9234 11.7185"/><g id="Group-22" transform="translate(0.000000, 0.652400)"><path d="M9.6283,4.8567 L8.9363,11.0537 L11.1393,10.8337 L9.6283,4.8567 Z M8.9233,11.0767 C8.9213,11.0767 8.9183,11.0757 8.9163,11.0737 C8.9143,11.0707 8.9133,11.0677 8.9133,11.0647 L9.6133,4.7967 C9.6143,4.7917 9.6183,4.7877 9.6233,4.7877 C9.6283,4.7877 9.6333,4.7907 9.6343,4.7947 L11.1623,10.8397 C11.1633,10.8427 11.1623,10.8467 11.1613,10.8487 C11.1593,10.8517 11.1563,10.8527 11.1533,10.8537 L8.9253,11.0767 L8.9233,11.0767 Z" id="Fill-2"/><path d="M7.8626,0.3586 C7.8626,0.3586 7.9546,2.2096 7.5446,2.5976 C5.8246,2.4076 1.9526,3.0466 0.0106,3.9036 C0.7746,2.1306 7.8626,0.3586 7.8626,0.3586" id="Fill-4"/><g id="Group-8"><path d="M7.8524,0.3713 C7.6894,0.4133 5.9904,0.8483 4.2264,1.4753 C1.8134,2.3353 0.3654,3.1663 0.0314,3.8823 C1.9254,3.0563 5.7694,2.3923 7.5404,2.5873 C7.9214,2.2163 7.8594,0.5363 7.8524,0.3713 M0.0104,3.9143 C0.0074,3.9143 0.0054,3.9123 0.0034,3.9103 C-0.0006,3.9073 -0.0006,3.9033 0.0004,3.8983 C0.3184,3.1613 1.7384,2.3393 4.2194,1.4563 C6.0664,0.7993 7.8424,0.3523 7.8594,0.3483 C7.8634,0.3473 7.8664,0.3483 7.8684,0.3503 C7.8714,0.3513 7.8734,0.3543 7.8734,0.3573 C7.8764,0.4333 7.9614,2.2183 7.5514,2.6053 C7.5494,2.6073 7.5454,2.6093 7.5424,2.6083 C5.7684,2.4113 1.8994,3.0823 0.0154,3.9133 C0.0134,3.9133 0.0124,3.9143 0.0104,3.9143" id="Fill-6"/></g><path d="M4.8997,8.6438 C4.3457,8.6778 3.7937,8.5748 3.2787,8.4048 C3.4687,8.4608 3.6717,8.4918 3.8827,8.4918 C4.9357,8.4918 5.7927,7.7398 5.7927,6.8168 C5.7927,6.4448 5.5037,5.9998 5.2307,5.6918 C6.5807,5.8158 7.7657,6.5188 8.2027,6.8078 C7.8117,7.2718 6.5937,8.5398 4.8997,8.6438 M2.0237,6.3568 C1.9927,6.5158 1.9737,6.6898 1.9737,6.8168 C1.9737,7.4868 2.4247,8.0658 3.0737,8.3328 C2.0807,7.9648 1.2587,7.3728 0.9077,7.0968 C1.1117,6.9228 1.4927,6.6308 2.0237,6.3568 M8.6377,6.5928 C8.5667,6.5398 6.8727,5.2738 4.8837,5.2478 C2.1497,5.2168 0.5007,6.8868 0.4307,6.9578 C0.3907,6.9988 0.3697,7.0558 0.3717,7.1138 C0.3737,7.1708 0.3997,7.2258 0.4427,7.2638 C0.5297,7.3408 2.5167,9.0748 4.6817,9.0748 C4.7627,9.0748 4.8447,9.0718 4.9257,9.0668 C7.1967,8.9258 8.6227,6.9688 8.6827,6.8858 C8.7497,6.7918 8.7297,6.6628 8.6377,6.5928" id="Fill-9"/><path d="M14.221,8.217 C13.735,8.251 13.248,8.132 12.802,7.946 C12.879,7.961 12.957,7.971 13.035,7.971 C13.884,7.971 14.573,7.281 14.573,6.433 C14.573,6.062 14.443,5.714 14.209,5.439 C14.303,5.433 14.399,5.43 14.495,5.43 L14.496,5.43 C15.566,5.43 16.546,6.185 16.889,6.482 C16.584,6.905 15.595,8.118 14.221,8.217 M11.018,6.776 C11.129,6.681 11.296,6.548 11.511,6.402 C11.553,6.758 11.706,7.116 11.948,7.407 C12.013,7.487 12.083,7.556 12.156,7.619 C11.641,7.315 11.231,6.969 11.018,6.776 M17.318,6.298 C17.264,6.245 15.997,5.006 14.496,5.006 L14.495,5.006 C12.172,5.006 10.62,6.558 10.555,6.624 C10.474,6.706 10.474,6.838 10.554,6.921 C10.573,6.94 11.013,7.389 11.684,7.826 C12.519,8.371 13.313,8.647 14.046,8.647 C14.115,8.647 14.183,8.645 14.251,8.64 C16.129,8.505 17.3,6.639 17.349,6.56 C17.401,6.476 17.388,6.367 17.318,6.298" id="Fill-11"/><path d="M10.8109,0.3586 C10.8109,0.3586 10.7179,2.2096 11.1289,2.5976 C12.8479,2.4076 15.6169,2.8636 17.5589,3.7196 C16.7949,1.9476 10.8109,0.3586 10.8109,0.3586" id="Fill-13"/><g id="Group-17" transform="translate(10.000000, 0.000000)"><path d="M1.9872,2.5442 C3.7012,2.5442 5.9272,2.9942 7.5382,3.6992 C7.2082,2.9832 5.9502,2.1842 3.8942,1.3842 C2.3992,0.8032 0.9702,0.4122 0.8202,0.3722 C0.8142,0.5382 0.7522,2.2162 1.1332,2.5872 C1.3972,2.5582 1.6842,2.5442 1.9872,2.5442 M7.5582,3.7312 C7.5572,3.7312 7.5552,3.7312 7.5542,3.7302 C5.6592,2.8952 2.8982,2.4122 1.1302,2.6082 C1.1272,2.6092 1.1242,2.6072 1.1222,2.6062 C0.9492,2.4422 0.8432,2.0152 0.8052,1.3332 C0.7772,0.8272 0.8002,0.3622 0.8002,0.3572 C0.8002,0.3552 0.8022,0.3522 0.8042,0.3502 C0.8072,0.3482 0.8102,0.3472 0.8142,0.3482 C0.8282,0.3522 2.3282,0.7522 3.9022,1.3642 C5.3562,1.9302 7.1722,2.7972 7.5682,3.7162 C7.5702,3.7202 7.56924052,3.7252 7.5662,3.7282 C7.5642,3.7302 7.5612,3.7312 7.5582,3.7312" id="Fill-15"/></g><path d="M5.974,13.3127 C7.031,14.3127 7.89,14.8687 9.322,14.9637 C10.754,15.0597 11.757,14.5357 11.757,14.5357 C11.757,14.5357 10.611,16.4807 9.226,16.8417 C6.362,17.5907 6.497,15.3437 5.974,13.3127" id="Fill-18"/><path d="M5.993,13.3459 C6.075,13.6659 6.14,13.9919 6.203,14.3069 C6.411,15.3389 6.607,16.3149 7.294,16.7429 C7.744,17.0249 8.375,17.0539 9.223,16.8319 C10.493,16.4999 11.575,14.8109 11.729,14.5609 C11.544,14.6489 10.597,15.0589 9.321,14.9749 C7.881,14.8779 7.035,14.3279 5.993,13.3459 M8.224,16.9999 C7.849,16.9999 7.537,16.9199 7.283,16.7609 C6.588,16.3269 6.391,15.3479 6.182,14.3109 C6.117,13.9849 6.049,13.6469 5.964,13.3159 C5.962,13.3109 5.965,13.3069 5.969,13.3039 C5.972,13.3019 5.978,13.3019 5.981,13.3059 C7.033,14.2999 7.876,14.8569 9.323,14.9529 C10.736,15.0479 11.742,14.5319 11.752,14.5269 C11.757,14.5239 11.762,14.5249 11.764,14.5289 C11.768,14.5319 11.768,14.5369 11.766,14.5409 C11.755,14.5609 10.602,16.4929 9.229,16.8529 C8.853,16.9499 8.519,16.9999 8.224,16.9999" id="Fill-20"/></g></g></g></g><g id="Glasses" transform="translate(261.000000, 385.000000) scale(1 1)"><g id="Glasses/None" stroke="none" stroke-width="1" fill="none" fill-rule="evenodd" fill-opacity="0"/></g></g></svg>