<svg version="1.1" xmlns="http://www.w3.org/2000/svg" viewBox="0 0 1186.3981536515228 752.3177386527491" width="2372.7963073030455" height="1504.6354773054982">
  <!-- svg-source:excalidraw -->
  
  <defs>
    <style>
      @font-face {
        font-family: "Virgil";
        src: url("https://excalidraw.com/Virgil.woff2");
      }
      @font-face {
        font-family: "Cascadia";
        src: url("https://excalidraw.com/Cascadia.woff2");
      }
    </style>
  </defs>
  <g stroke-opacity="0.4" fill-opacity="0.4" stroke-linecap="round" transform="translate(10 253.00000000000003) rotate(0 288.5 98.5)"><path d="M15.51 9.51 C15.51 9.51, 15.51 9.51, 15.51 9.51 M15.51 9.51 C15.51 9.51, 15.51 9.51, 15.51 9.51 M7.38 24.96 C11.36 20.03, 19.55 6.84, 25.09 4.59 M7.38 24.96 C13.67 16.59, 21.29 11.5, 25.09 4.59 M1.21 38.15 C12.79 26.73, 23.79 15.23, 30.08 4.95 M1.21 38.15 C9.64 28.16, 17.83 17.9, 30.08 4.95 M0.95 44.55 C11.67 30.78, 22.83 16.99, 35.72 4.55 M0.95 44.55 C11.13 31.96, 20.89 21.92, 35.72 4.55 M1.34 50.19 C18.05 33.86, 26.91 21.37, 42.02 3.4 M1.34 50.19 C14.66 33.76, 28.78 19.71, 42.02 3.4 M1.08 56.59 C16.51 43.41, 30.33 25.55, 49.63 0.74 M1.08 56.59 C20.52 35.79, 36.05 15.4, 49.63 0.74 M1.48 62.24 C19.13 46.69, 35.06 25.53, 55.27 0.35 M1.48 62.24 C17.72 44.27, 33.84 26.53, 55.27 0.35 M1.22 68.63 C23.36 45.14, 39.14 22.67, 60.26 0.71 M1.22 68.63 C21.72 48.1, 38.64 27.66, 60.26 0.71 M0.95 75.03 C30.37 41.99, 48.98 13.38, 65.9 0.31 M0.95 75.03 C22.24 52.42, 40.22 28.58, 65.9 0.31 M1.35 80.67 C23.71 57.47, 37.48 38.45, 70.89 0.67 M1.35 80.67 C15.19 63.88, 30.22 45.67, 70.89 0.67 M1.09 87.07 C16.89 72.86, 34.98 51.94, 76.53 0.28 M1.09 87.07 C24.32 59.03, 48.83 28.24, 76.53 0.28 M1.48 92.71 C33.22 59.91, 58.99 28.63, 81.52 0.64 M1.48 92.71 C26.11 65.53, 50.72 37.38, 81.52 0.64 M1.22 99.11 C27.28 71.37, 49.2 40.63, 87.16 0.25 M1.22 99.11 C27.24 71.94, 49.92 40.99, 87.16 0.25 M0.96 105.51 C30.49 72.47, 54.73 39.31, 92.15 0.61 M0.96 105.51 C29.41 80.27, 52.97 48.64, 92.15 0.61 M1.35 111.15 C25.8 80.01, 52.87 56.7, 97.79 0.21 M1.35 111.15 C36.2 70.28, 69.99 32.53, 97.79 0.21 M1.09 117.55 C29.24 85.52, 63.79 53.77, 102.78 0.57 M1.09 117.55 C34.42 78.04, 67.25 40.4, 102.78 0.57 M1.49 123.19 C45.17 73.11, 84.41 29.19, 108.42 0.18 M1.49 123.19 C38.02 84.23, 70.58 47.38, 108.42 0.18 M1.23 129.59 C23.54 97.27, 57.14 66.04, 113.41 0.54 M1.23 129.59 C26.3 98.88, 51.98 68.72, 113.41 0.54 M0.96 135.99 C40.09 92.82, 75.05 49.31, 119.06 0.14 M0.96 135.99 C46.02 87.46, 87.07 40.33, 119.06 0.14 M1.36 141.63 C44.23 98.13, 78.96 54.83, 124.04 0.5 M1.36 141.63 C47.72 87.69, 96.92 34.8, 124.04 0.5 M1.1 148.03 C36.8 105.74, 78.69 64.71, 129.03 0.86 M1.1 148.03 C36.42 109.39, 71.14 70.87, 129.03 0.86 M1.49 153.67 C28.79 118.54, 62.24 87.41, 134.67 0.47 M1.49 153.67 C53.87 93.9, 107.93 30.25, 134.67 0.47 M1.23 160.07 C39.91 119.27, 77.01 70.06, 139.66 0.83 M1.23 160.07 C39.57 113.84, 78.58 71.14, 139.66 0.83 M2.94 164.21 C43.28 124.12, 79.05 76.77, 145.3 0.43 M2.94 164.21 C41.93 117.34, 83.8 70.76, 145.3 0.43 M4.64 168.34 C48.47 115.37, 91.07 66.66, 150.29 0.79 M4.64 168.34 C61.29 103.16, 120.16 36.39, 150.29 0.79 M6.35 172.47 C53.92 115.06, 103.14 56.73, 155.93 0.4 M6.35 172.47 C50.25 123.25, 93.85 73.05, 155.93 0.4 M8.06 176.61 C64.36 116.57, 119.92 47.59, 160.92 0.76 M8.06 176.61 C51.04 129.84, 92.91 77.63, 160.92 0.76 M9.76 180.74 C59.25 122.55, 113.56 62.72, 166.56 0.36 M9.76 180.74 C50.79 137.2, 91.69 89.51, 166.56 0.36 M12.13 184.12 C44.25 147.07, 76.27 103.69, 171.55 0.72 M12.13 184.12 C72.32 116.97, 133.16 50.17, 171.55 0.72 M15.15 186.74 C61.84 127.72, 113.39 70.79, 177.19 0.33 M15.15 186.74 C52.27 141.33, 90.03 95.36, 177.19 0.33 M18.16 189.37 C56.88 141.57, 96.56 96.45, 182.18 0.69 M18.16 189.37 C74.48 123.29, 130.8 58.22, 182.18 0.69 M21.18 191.99 C75.16 132.35, 130.83 63.43, 187.82 0.3 M21.18 191.99 C69.25 135.7, 118.51 75.38, 187.82 0.3 M24.86 193.86 C87.6 116.46, 158.66 40.63, 192.81 0.66 M24.86 193.86 C70.18 143.21, 112.75 91.92, 192.81 0.66 M29.19 194.98 C72.28 150.45, 117.42 96.4, 198.45 0.26 M29.19 194.98 C88.39 125.86, 146.91 59.67, 198.45 0.26 M33.52 196.09 C97.98 115.78, 165.34 36.2, 203.44 0.62 M33.52 196.09 C69.03 149.67, 108.89 106.5, 203.44 0.62 M38.51 196.45 C90.38 142.57, 141.38 83.47, 209.08 0.23 M38.51 196.45 C80.14 149.25, 120.5 102.29, 209.08 0.23 M43.49 196.81 C106.46 125.1, 173.46 49.74, 214.07 0.59 M43.49 196.81 C101.07 132.18, 156.89 66.66, 214.07 0.59 M47.83 197.93 C96.22 143.22, 144.12 85.84, 219.71 0.19 M47.83 197.93 C100.69 138.76, 157.19 77.71, 219.71 0.19 M52.16 199.04 C101.05 145.1, 148.85 90.1, 224.7 0.55 M52.16 199.04 C103.43 141.86, 151.69 80.98, 224.7 0.55 M57.14 199.4 C95.49 155.97, 130.63 117.2, 230.34 0.16 M57.14 199.4 C101.22 145.39, 150.17 87.75, 230.34 0.16 M62.79 199.01 C127.66 124.32, 186.43 52.43, 235.33 0.52 M62.79 199.01 C106.65 148.75, 146.8 104.54, 235.33 0.52 M67.77 199.37 C114.64 139.41, 165.22 83.7, 240.32 0.88 M67.77 199.37 C116.9 142.54, 165.72 88.87, 240.32 0.88 M73.42 198.97 C129.65 130.19, 187.55 63.66, 245.96 0.48 M73.42 198.97 C124.64 139.9, 176.95 79.19, 245.96 0.48 M78.4 199.33 C126.33 143.09, 175.5 82.35, 250.95 0.84 M78.4 199.33 C121.14 148.4, 161.55 101.94, 250.95 0.84 M84.05 198.94 C131.06 146.31, 181.28 90.82, 256.59 0.45 M84.05 198.94 C121.74 150.75, 166.13 101.48, 256.59 0.45 M89.03 199.3 C158.04 124.44, 222.71 48.3, 261.58 0.81 M89.03 199.3 C143.59 135.26, 203.22 67.21, 261.58 0.81 M94.02 199.66 C134.33 153.77, 179.45 100.77, 267.22 0.41 M94.02 199.66 C136.37 154.94, 174.18 111.36, 267.22 0.41 M99.66 199.26 C159.77 132.44, 219.61 58.15, 272.21 0.77 M99.66 199.26 C156.85 134.59, 216.69 70.34, 272.21 0.77 M104.65 199.62 C153.87 139, 203.28 81.36, 277.85 0.38 M104.65 199.62 C141.47 154.47, 181.76 108.59, 277.85 0.38 M110.29 199.23 C161.17 141.06, 212.75 81.15, 282.84 0.74 M110.29 199.23 C148.32 156.09, 185.72 113.98, 282.84 0.74 M115.28 199.59 C159.5 145.92, 205.76 100.7, 288.48 0.34 M115.28 199.59 C151.97 156.6, 191.88 114.13, 288.48 0.34 M120.92 199.19 C189.64 123.86, 256.97 44.04, 293.47 0.7 M120.92 199.19 C186.21 126.54, 249.26 51.86, 293.47 0.7 M125.91 199.55 C188.71 127.97, 249.09 53.03, 299.11 0.31 M125.91 199.55 C163.51 153.74, 202.95 109.67, 299.11 0.31 M131.55 199.16 C188.79 134.47, 252.16 60.96, 304.1 0.67 M131.55 199.16 C168.53 155.31, 205.66 113.14, 304.1 0.67 M136.54 199.52 C179.11 155.09, 214.95 109.21, 309.74 0.28 M136.54 199.52 C177.24 150.46, 224.26 99.21, 309.74 0.28 M142.18 199.12 C188.05 150.39, 231.82 99.42, 314.73 0.64 M142.18 199.12 C205.9 124.25, 268.72 52.44, 314.73 0.64 M147.17 199.48 C192.12 145.72, 238.8 93.66, 320.37 0.24 M147.17 199.48 C206.18 133.07, 263.24 66, 320.37 0.24 M152.81 199.09 C189.43 157.09, 225.3 118.21, 325.36 0.6 M152.81 199.09 C197.9 148.45, 242.68 96.49, 325.36 0.6 M157.8 199.45 C202.07 146.66, 243.96 100.18, 331 0.21 M157.8 199.45 C205.77 143.89, 256.32 83.49, 331 0.21 M163.44 199.06 C218.02 137.8, 270.16 76.46, 335.99 0.57 M163.44 199.06 C222.16 133.22, 281.33 61.29, 335.99 0.57 M168.43 199.42 C231.37 127.44, 294.26 55.43, 341.63 0.17 M168.43 199.42 C234.71 120.93, 301.94 41.82, 341.63 0.17 M174.07 199.02 C215.13 155.86, 255.34 107.92, 346.62 0.53 M174.07 199.02 C223.79 142.36, 270.09 90.32, 346.62 0.53 M179.06 199.38 C237.38 133.39, 298.05 63.09, 352.26 0.14 M179.06 199.38 C231.16 138.76, 285.75 78.39, 352.26 0.14 M184.7 198.99 C223.46 158.81, 253.51 120.32, 357.25 0.5 M184.7 198.99 C241.16 136.13, 293.32 73.39, 357.25 0.5 M189.69 199.35 C256.91 121.85, 322.66 49.27, 362.24 0.86 M189.69 199.35 C236.25 146.81, 286.43 89.99, 362.24 0.86 M195.33 198.95 C248.99 137.17, 295.71 81.15, 367.88 0.46 M195.33 198.95 C258.61 127.01, 317.63 58, 367.88 0.46 M200.32 199.31 C265.44 120.79, 338.04 45.78, 372.87 0.82 M200.32 199.31 C243.71 154.44, 284.57 106.67, 372.87 0.82 M205.96 198.92 C261.05 133.71, 320.61 71.34, 378.51 0.43 M205.96 198.92 C253.34 143.95, 301.51 89.77, 378.51 0.43 M210.95 199.28 C267.25 138.59, 321.05 74.49, 383.5 0.79 M210.95 199.28 C258.35 148.04, 301.65 97.15, 383.5 0.79 M216.59 198.88 C274.02 138.31, 331.54 69.05, 389.14 0.39 M216.59 198.88 C252.06 157.64, 289.61 117.07, 389.14 0.39 M221.58 199.24 C267.5 144.31, 313.78 93.2, 394.13 0.75 M221.58 199.24 C265.63 143.96, 314 93.88, 394.13 0.75 M226.57 199.6 C274.28 142.09, 327.32 81.33, 399.77 0.36 M226.57 199.6 C273.87 146.27, 318.13 93.07, 399.77 0.36 M232.21 199.21 C288.34 134.9, 341.34 70.98, 404.76 0.72 M232.21 199.21 C300.55 123.1, 368.26 48.55, 404.76 0.72 M237.2 199.57 C279.1 155.26, 322.18 105.76, 410.4 0.33 M237.2 199.57 C297.77 127.97, 363.05 54.97, 410.4 0.33 M242.84 199.17 C315.02 119.38, 380.77 43.87, 415.39 0.69 M242.84 199.17 C306.15 129.89, 364.96 59.63, 415.39 0.69 M247.83 199.53 C305.23 134.8, 362.9 73.99, 421.03 0.29 M247.83 199.53 C297.31 144.29, 343.79 87.63, 421.03 0.29 M253.47 199.14 C311.84 126.54, 373.23 57.46, 426.02 0.65 M253.47 199.14 C309.46 134.52, 366.17 69.46, 426.02 0.65 M258.46 199.5 C317.4 132.01, 372.63 69.04, 431.66 0.26 M258.46 199.5 C318.08 131.98, 376.75 65.09, 431.66 0.26 M264.1 199.11 C307 148.74, 356.15 96.4, 436.65 0.62 M264.1 199.11 C311.73 145.12, 356.73 92.37, 436.65 0.62 M269.09 199.47 C306.48 153.57, 345.79 111.01, 442.29 0.22 M269.09 199.47 C326.23 129.89, 384.47 61.53, 442.29 0.22 M274.73 199.07 C342.12 122.03, 406.37 51.8, 447.28 0.58 M274.73 199.07 C335.2 132.11, 398.21 62.81, 447.28 0.58 M279.72 199.43 C336.78 135.26, 398.35 65.52, 452.92 0.19 M279.72 199.43 C321.77 149.19, 366.49 100.1, 452.92 0.19 M285.36 199.04 C340.4 135.73, 402.09 70.58, 457.91 0.55 M285.36 199.04 C348.17 126.24, 412.34 52.46, 457.91 0.55 M290.35 199.4 C360.26 116.66, 427.82 43.07, 463.55 0.15 M290.35 199.4 C335.38 148.4, 380.33 96.34, 463.55 0.15 M295.99 199 C351.85 131.62, 411.48 60.89, 468.54 0.51 M295.99 199 C349.45 138.73, 403.87 74.48, 468.54 0.51 M300.98 199.36 C354.71 131.04, 415.2 66.33, 473.52 0.87 M300.98 199.36 C365.18 123.58, 434.06 47.27, 473.52 0.87 M306.62 198.97 C348.85 150.6, 392.12 99.19, 479.17 0.48 M306.62 198.97 C346.45 157.67, 381.99 113.24, 479.17 0.48 M311.61 199.33 C356.47 149.83, 401.45 96.01, 484.15 0.84 M311.61 199.33 C352.77 149.17, 397.1 98.18, 484.15 0.84 M317.25 198.93 C358.05 157.49, 397.25 115.31, 489.8 0.44 M317.25 198.93 C367.75 140.68, 420.06 83.64, 489.8 0.44 M322.24 199.29 C367.28 151.52, 409.05 103.37, 494.78 0.8 M322.24 199.29 C373.25 138.8, 424.75 82.41, 494.78 0.8 M327.88 198.9 C375.74 141.88, 419.45 86.93, 500.43 0.41 M327.88 198.9 C394.19 122.16, 460.97 47.88, 500.43 0.41 M332.87 199.26 C371.42 153.58, 406.58 115.06, 505.41 0.77 M332.87 199.26 C391.26 131.02, 447.95 65.11, 505.41 0.77 M338.51 198.86 C402.38 124.13, 472.39 50.43, 511.06 0.38 M338.51 198.86 C396.3 130.68, 455.31 63.09, 511.06 0.38 M343.5 199.22 C379.21 158.14, 414.69 117.9, 516.04 0.74 M343.5 199.22 C389.56 147.62, 433.81 98.53, 516.04 0.74 M349.14 198.83 C395.49 144.74, 445.61 85.43, 521.69 0.34 M349.14 198.83 C387.82 152.49, 430.41 108.24, 521.69 0.34 M354.13 199.19 C405.12 146.09, 455.98 86.31, 526.67 0.7 M354.13 199.19 C406.53 137.03, 463.49 73.34, 526.67 0.7 M359.12 199.55 C419.09 133.47, 480.6 63.83, 530.35 2.57 M359.12 199.55 C418.27 132.8, 472.87 70, 530.35 2.57 M364.76 199.15 C420.12 141.95, 465.94 81.2, 535.34 2.93 M364.76 199.15 C401.08 158.27, 436.92 114.22, 535.34 2.93 M369.75 199.51 C428.26 132.67, 479.71 71.44, 539.67 4.05 M369.75 199.51 C426.19 138.64, 480.09 75.66, 539.67 4.05 M375.39 199.12 C422.44 143.2, 473.06 91.26, 544.65 4.41 M375.39 199.12 C410.42 156.2, 448.5 112.29, 544.65 4.41 M380.38 199.48 C436.14 134.89, 495.65 67.52, 550.3 4.01 M380.38 199.48 C432.15 136.8, 483.54 76.85, 550.3 4.01 M386.02 199.09 C426.47 150.99, 467.63 99.53, 553.97 5.88 M386.02 199.09 C429.72 151.08, 473.35 99.07, 553.97 5.88 M391.01 199.45 C438.14 144.47, 480.52 92.49, 558.3 7 M391.01 199.45 C427.06 158.73, 464.28 115.59, 558.3 7 M396.65 199.05 C431.26 161.66, 467.08 119.17, 561.32 9.62 M396.65 199.05 C437.45 154, 478.62 107.12, 561.32 9.62 M401.64 199.41 C443.23 152.04, 491.22 102.57, 564.34 12.24 M401.64 199.41 C459.91 130.26, 518.8 63.66, 564.34 12.24 M407.28 199.02 C460.21 132.81, 518.16 63.54, 567.36 14.87 M407.28 199.02 C461.01 141.25, 512.97 80.02, 567.36 14.87 M412.27 199.38 C476.78 128.32, 539.46 57.26, 570.38 17.49 M412.27 199.38 C458.6 148.32, 505.23 94.18, 570.38 17.49 M417.91 198.98 C456.86 145.62, 501.57 96.75, 572.08 21.63 M417.91 198.98 C449.64 159.88, 484.26 120.55, 572.08 21.63 M422.9 199.34 C471.61 149.65, 516.57 91.82, 573.13 26.51 M422.9 199.34 C474.07 140.01, 526.46 82.19, 573.13 26.51 M428.54 198.95 C477.54 143.95, 530.33 87.26, 574.84 30.65 M428.54 198.95 C473.89 148.91, 518.11 95.88, 574.84 30.65 M433.53 199.31 C475.43 147.82, 525.31 93.7, 576.55 34.78 M433.53 199.31 C475.48 150.87, 515.47 102.85, 576.55 34.78 M439.17 198.91 C479.29 149.93, 523.51 103.83, 578.26 38.91 M439.17 198.91 C486.19 143.41, 534.31 87.58, 578.26 38.91 M444.16 199.27 C475.93 159.24, 508.3 123.9, 577.99 45.31 M444.16 199.27 C485.46 152.93, 526.56 104.67, 577.99 45.31 M449.8 198.88 C491.57 151.88, 528.17 110.7, 578.39 50.96 M449.8 198.88 C489.12 147.89, 532.19 98.62, 578.39 50.96 M454.79 199.24 C493.42 152.79, 529.21 105.59, 578.13 57.35 M454.79 199.24 C502.56 143.93, 550.96 92.08, 578.13 57.35 M460.43 198.84 C491.54 164.79, 526.47 121.86, 577.87 63.75 M460.43 198.84 C488.7 164.5, 519.28 131.22, 577.87 63.75 M465.42 199.2 C488.01 173.43, 515.68 142.98, 578.26 69.39 M465.42 199.2 C505.6 157.17, 542.59 112.92, 578.26 69.39 M471.06 198.81 C512.25 151.56, 555.43 106.74, 578 75.79 M471.06 198.81 C503.15 158.73, 537.52 121.33, 578 75.79 M476.05 199.17 C502.56 161.97, 533.34 134.97, 578.39 81.44 M476.05 199.17 C512.04 154.23, 548.24 113.37, 578.39 81.44 M481.69 198.78 C506.75 168.88, 534.4 140.48, 578.13 87.83 M481.69 198.78 C514.03 162.96, 545.57 125.58, 578.13 87.83 M486.68 199.14 C518.71 159.75, 552.97 125.46, 578.53 93.48 M486.68 199.14 C515.31 167.22, 542.17 137.49, 578.53 93.48 M491.66 199.5 C516.59 171.59, 534.35 147.74, 578.26 99.87 M491.66 199.5 C519.91 160.39, 553.32 125.17, 578.26 99.87 M497.31 199.1 C521.45 176.53, 539.98 150.37, 578.66 105.52 M497.31 199.1 C524.55 164.87, 555.1 131.03, 578.66 105.52 M502.3 199.46 C516.64 183.44, 531.54 164.73, 578.4 111.91 M502.3 199.46 C521.1 181.38, 536.09 159.31, 578.4 111.91 M507.94 199.07 C530.13 177.86, 544.68 151.34, 578.79 117.56 M507.94 199.07 C525.72 179.81, 538.95 163.06, 578.79 117.56 M512.93 199.43 C532.92 179.23, 547.06 158.38, 578.53 123.96 M512.93 199.43 C539.36 170.26, 566.01 138.66, 578.53 123.96 M518.57 199.03 C535.36 184.13, 551.84 161.51, 578.93 129.6 M518.57 199.03 C540.9 177.92, 561.41 154.65, 578.93 129.6 M523.56 199.39 C542.89 177.48, 565.63 151.72, 578.66 136 M523.56 199.39 C543.06 177.67, 559.92 157.18, 578.66 136 M529.2 199 C545.21 180.58, 560.72 161.53, 578.4 142.39 M529.2 199 C549.21 177.48, 568.19 155.21, 578.4 142.39 M535.5 197.85 C546.77 186.82, 557.39 174.45, 578.14 148.79 M535.5 197.85 C548.4 183.02, 564.37 167.07, 578.14 148.79 M541.8 196.7 C548 190.95, 560.28 180.48, 577.22 155.94 M541.8 196.7 C551.02 183.38, 560.11 171.53, 577.22 155.94 M549.41 194.04 C560.46 179.59, 565.55 172.34, 576.31 163.1 M549.41 194.04 C555.25 188.15, 561.08 179.08, 576.31 163.1 M558.99 189.12 C561.72 188.01, 564.02 181.51, 575.39 170.25 M558.99 189.12 C561.93 184.23, 569.04 180.01, 575.39 170.25" stroke="#ced4da" stroke-width="0.5" fill="none"></path><path d="M49.25 0 M49.25 0 C158.89 1.85, 265.75 3.78, 527.75 0 M49.25 0 C171.84 -2.82, 296.64 -2.41, 527.75 0 M527.75 0 C562.16 2.45, 578.91 16.48, 577 49.25 M527.75 0 C557.26 1.9, 580.28 18.33, 577 49.25 M577 49.25 C575.51 83.55, 575.84 123.25, 577 147.75 M577 49.25 C579.16 83.37, 576.29 115.14, 577 147.75 M577 147.75 C580.01 179.37, 559.13 200.66, 527.75 197 M577 147.75 C573.32 176.79, 556.12 192.64, 527.75 197 M527.75 197 C410.95 197.19, 293.95 196.06, 49.25 197 M527.75 197 C402.94 196.94, 278.57 197.74, 49.25 197 M49.25 197 C16.39 194.8, 2.22 177.04, 0 147.75 M49.25 197 C13.25 197.87, -1.08 185, 0 147.75 M0 147.75 C-0.65 110.04, -0.07 70.88, 0 49.25 M0 147.75 C-1.56 119.5, 0.82 90.03, 0 49.25 M0 49.25 C1.94 13.13, 18.2 -1.23, 49.25 0 M0 49.25 C1.95 14.37, 16.83 2.37, 49.25 0" stroke="#000000" stroke-width="1" fill="none"></path></g><g transform="translate(41 272) rotate(0 54 13)"><text x="0" y="18" font-family="Virgil, Segoe UI Emoji" font-size="20px" fill="#000000" text-anchor="start" style="white-space: pre;" direction="ltr">Kubernetes</text></g><g stroke-opacity="0.6" fill-opacity="0.6" stroke-linecap="round" transform="translate(267 296) rotate(0 60.5 60.5)"><path d="M12.12 3.91 C12.12 3.91, 12.12 3.91, 12.12 3.91 M12.12 3.91 C12.12 3.91, 12.12 3.91, 12.12 3.91 M3.98 19.36 C6.82 11, 16.51 8.34, 18.42 2.76 M3.98 19.36 C6.13 14.14, 9.78 12.3, 18.42 2.76 M3.07 26.51 C11.31 15.87, 20.11 4.78, 25.37 0.85 M3.07 26.51 C9.87 15.72, 20.97 8.23, 25.37 0.85 M2.8 32.91 C16.83 18.72, 21.91 11.03, 31.01 0.46 M2.8 32.91 C14.23 20.73, 21.11 13.05, 31.01 0.46 M3.2 38.56 C12.97 26.29, 20.03 22.75, 36 0.82 M3.2 38.56 C15.56 23.61, 27.18 9.72, 36 0.82 M2.94 44.95 C14.53 34.93, 26.76 17.15, 41.64 0.43 M2.94 44.95 C17.73 30.73, 31.68 14.27, 41.64 0.43 M2.68 51.35 C19.23 37.17, 28.71 20.14, 46.63 0.79 M2.68 51.35 C17.36 35.08, 29.46 18.76, 46.63 0.79 M3.07 56.99 C13.74 36.57, 35.02 24.59, 52.27 0.39 M3.07 56.99 C16.17 42.96, 30.3 27.6, 52.27 0.39 M2.81 63.39 C22.41 40.32, 42.25 13.69, 57.26 0.75 M2.81 63.39 C20.64 46.41, 33.02 29.42, 57.26 0.75 M3.2 69.04 C13.99 55.36, 32.03 36.22, 62.25 1.11 M3.2 69.04 C21.42 49.96, 36.54 35.05, 62.25 1.11 M2.94 75.43 C23.77 50.32, 49.04 19.57, 67.89 0.72 M2.94 75.43 C15.96 56.96, 29.7 41.9, 67.89 0.72 M2.68 81.83 C17.61 63.87, 38.57 40.63, 72.88 1.08 M2.68 81.83 C25.58 54.45, 48.68 26.45, 72.88 1.08 M0.45 90.49 C26.07 66.59, 52.66 32.34, 78.52 0.68 M0.45 90.49 C17.42 68.52, 37.07 47.69, 78.52 0.68 M1.5 95.38 C20.93 76.02, 44.89 46.8, 83.51 1.04 M1.5 95.38 C20.08 73.64, 39.5 54.79, 83.51 1.04 M2.55 100.27 C36.77 58.86, 61.08 23.94, 89.15 0.65 M2.55 100.27 C27.93 73.47, 48.37 47.36, 89.15 0.65 M3.6 105.16 C25.67 81.27, 43.12 58.02, 94.14 1.01 M3.6 105.16 C33 69.88, 60.3 36.79, 94.14 1.01 M4.65 110.05 C41.44 69.59, 74.01 36.23, 99.13 1.37 M4.65 110.05 C38.02 70.17, 69.41 33.18, 99.13 1.37 M7.67 112.67 C33.83 80.07, 61.46 43.04, 102.8 3.24 M7.67 112.67 C34.76 81.54, 61.52 48.64, 102.8 3.24 M10.69 115.29 C36.34 83.32, 57.9 56.47, 107.13 4.35 M10.69 115.29 C30.26 89.73, 53.33 63.79, 107.13 4.35 M13.71 117.92 C40.93 85.71, 71.41 53.67, 110.81 6.22 M13.71 117.92 C47.43 78.84, 79.04 42.41, 110.81 6.22 M17.38 119.79 C51.08 78.05, 86.95 41.82, 113.83 8.85 M17.38 119.79 C48.17 85.1, 78.42 49.23, 113.83 8.85 M21.72 120.9 C47.84 88.2, 78.23 53.65, 116.84 11.47 M21.72 120.9 C51.09 85.68, 81.12 49.85, 116.84 11.47 M25.39 122.77 C48.98 95.64, 61.53 74.95, 119.86 14.09 M25.39 122.77 C58.02 84.45, 88.5 50.37, 119.86 14.09 M31.03 122.38 C54.86 99.34, 76.38 74.77, 120.91 18.98 M31.03 122.38 C61.28 82.32, 95.51 42.86, 120.91 18.98 M36.02 122.74 C69.1 85.48, 98.93 48.13, 121.96 23.87 M36.02 122.74 C57.32 99.21, 77.67 76.25, 121.96 23.87 M41.66 122.34 C57.71 102.46, 76.94 78.7, 121.7 30.27 M41.66 122.34 C68.59 90.38, 95.25 60.93, 121.7 30.27 M46.65 122.7 C59.65 102.71, 80.8 86.72, 121.44 36.67 M46.65 122.7 C74.86 92.01, 101.82 60.6, 121.44 36.67 M51.64 123.06 C73.58 97.18, 94.14 71.32, 121.18 43.06 M51.64 123.06 C73.37 94.05, 99.07 65.98, 121.18 43.06 M57.28 122.67 C75.41 100.15, 98.56 80.17, 121.57 48.71 M57.28 122.67 C71.78 105.51, 87.14 87.98, 121.57 48.71 M62.27 123.03 C83.13 98.65, 100.42 82.48, 121.31 55.11 M62.27 123.03 C74.55 110.31, 87.71 97.02, 121.31 55.11 M67.91 122.63 C84.39 108.14, 93.6 93.52, 121.05 61.5 M67.91 122.63 C85.07 102.84, 100.18 81.16, 121.05 61.5 M72.9 122.99 C87.41 102.59, 104.64 86.95, 121.45 67.15 M72.9 122.99 C83.25 109.39, 93.37 98.28, 121.45 67.15 M78.54 122.6 C83.46 113.41, 98.15 104.47, 121.18 73.54 M78.54 122.6 C95.79 105.29, 110.4 85.72, 121.18 73.54 M83.53 122.96 C101.76 109.85, 114.3 89.42, 120.92 79.94 M83.53 122.96 C99.06 105.48, 111.99 90.45, 120.92 79.94 M88.52 123.32 C99.27 115.8, 108.53 98.98, 121.32 85.59 M88.52 123.32 C100.41 107.28, 114.5 93.44, 121.32 85.59 M93.5 123.68 C101.68 110.15, 111.26 101.54, 121.06 91.98 M93.5 123.68 C104.11 114.97, 110.98 104.53, 121.06 91.98 M100.46 121.78 C102.23 113.72, 110.99 112.85, 120.8 98.38 M100.46 121.78 C105.72 112.89, 114.44 103.66, 120.8 98.38 M110.04 116.85 C114.54 114.6, 115.3 113.89, 117.91 107.8 M110.04 116.85 C111.96 114.89, 114.74 111.87, 117.91 107.8 M12.19 117.07 C12.19 117.07, 12.19 117.07, 12.19 117.07 M12.19 117.07 C12.19 117.07, 12.19 117.07, 12.19 117.07 M21.6 119.95 C13.21 116.61, 14.97 113.96, 6.51 106.83 M21.6 119.95 C19.64 117.93, 15.05 112.63, 6.51 106.83 M25.74 118.25 C20.93 113.57, 9.79 105.91, 4.6 99.88 M25.74 118.25 C18.67 111.37, 16.06 108.71, 4.6 99.88 M31.38 117.85 C18.61 108.16, 11.47 100.12, 0.44 90.95 M31.38 117.85 C21.81 108.6, 7.94 99.17, 0.44 90.95 M37.78 118.11 C31.61 110.53, 21.25 100.57, 0.04 85.31 M37.78 118.11 C27.09 105.57, 14.21 95.18, 0.04 85.31 M44.17 118.37 C29.71 100.9, 12.42 86.79, 0.4 80.32 M44.17 118.37 C32.59 108.17, 18.5 96.43, 0.4 80.32 M49.82 117.98 C36.77 103.67, 20.15 91.21, 0.01 74.68 M49.82 117.98 C36.6 108.52, 26.66 95.48, 0.01 74.68 M56.22 118.24 C48.3 110.52, 35.38 99.97, 0.37 69.69 M56.22 118.24 C40.31 102.64, 22.95 85.85, 0.37 69.69 M62.61 118.5 C41.99 100.96, 18.48 79.96, -0.03 64.05 M62.61 118.5 C39.62 97.77, 13.26 75.24, -0.03 64.05 M68.26 118.11 C52.21 101.86, 29.11 81.71, 0.33 59.06 M68.26 118.11 C52.44 103.89, 36.29 91.84, 0.33 59.06 M74.65 118.37 C54.54 101.01, 33.48 77.64, -0.06 53.42 M74.65 118.37 C48.53 92.3, 19.48 70.25, -0.06 53.42 M81.05 118.63 C58.72 100.19, 33.74 81.71, 0.3 48.43 M81.05 118.63 C50.8 93.83, 26.58 71.37, 0.3 48.43 M86.7 118.24 C53.57 90.42, 25.65 65.11, -0.1 42.79 M86.7 118.24 C53.7 89.56, 23.12 64.52, -0.1 42.79 M93.09 118.5 C68.67 99.21, 50.84 81.85, 0.26 37.8 M93.09 118.5 C76.21 101.93, 57.5 86.68, 0.26 37.8 M97.98 117.45 C64.34 93.87, 38.42 63.42, -0.13 32.16 M97.98 117.45 C63.84 89.14, 29.57 60.7, -0.13 32.16 M102.87 116.4 C71.62 89.33, 42.34 65.97, 1.74 28.48 M102.87 116.4 C72.54 88.14, 43.84 64.02, 1.74 28.48 M109.27 116.66 C88.55 92.4, 60.96 76.15, 2.1 23.5 M109.27 116.66 C81.88 93.35, 57.96 70.2, 2.1 23.5 M111.89 113.64 C79.74 83.36, 42.14 54.34, 3.21 19.17 M111.89 113.64 C74.37 78.11, 34.85 43.21, 3.21 19.17 M115.27 111.28 C72.71 76.89, 39.73 37.89, 4.33 14.84 M115.27 111.28 C88.34 88.44, 59.01 62.31, 4.33 14.84 M117.89 108.26 C90.85 83.9, 71.1 59.22, 6.2 11.16 M117.89 108.26 C90.16 85.93, 65.32 60.26, 6.2 11.16 M119.01 103.93 C82.83 68.23, 42.38 33.22, 8.82 8.14 M119.01 103.93 C91.96 79.03, 63.12 56, 8.82 8.14 M120.12 99.6 C85.1 70.68, 47.92 38.24, 11.45 5.12 M120.12 99.6 C89.69 72.98, 63.58 49.98, 11.45 5.12 M121.99 95.92 C80.81 67.88, 48.19 30.45, 14.07 2.1 M121.99 95.92 C98.55 75.77, 76.57 60.31, 14.07 2.1 M122.35 90.93 C85.22 55.46, 42.88 19.2, 18.96 1.05 M122.35 90.93 C98.09 68.68, 72.03 50.74, 18.96 1.05 M121.96 85.29 C86.42 55.58, 58.74 26.94, 23.85 0 M121.96 85.29 C83.06 53.55, 47.23 20.56, 23.85 0 M122.32 80.3 C96.99 56.37, 64.16 24.79, 27.98 -1.7 M122.32 80.3 C96.5 58.36, 75.44 39.13, 27.98 -1.7 M121.93 74.66 C92.4 53.84, 68.84 26.52, 32.87 -2.75 M121.93 74.66 C97.9 51.66, 69.88 30.84, 32.87 -2.75 M122.29 69.67 C96.72 49.56, 73.8 23.35, 38.51 -3.15 M122.29 69.67 C98.35 45.67, 74.97 24.51, 38.51 -3.15 M122.65 64.69 C93.99 45.07, 69.04 19.08, 44.91 -2.89 M122.65 64.69 C91.45 37.72, 58.71 12.09, 44.91 -2.89 M122.25 59.04 C100.2 43.12, 87.77 25.59, 51.31 -2.63 M122.25 59.04 C105.54 42.96, 84.94 28.52, 51.31 -2.63 M122.61 54.06 C94.42 36.57, 73.16 17.68, 56.95 -3.02 M122.61 54.06 C111.35 44.31, 96.94 29.74, 56.95 -3.02 M122.22 48.41 C105.66 31.69, 85.3 19.07, 63.35 -2.76 M122.22 48.41 C105.63 33.15, 89.14 18.37, 63.35 -2.76 M122.58 43.43 C108.7 31.76, 87 19.19, 69.75 -2.5 M122.58 43.43 C104.87 27.18, 86.6 14.25, 69.75 -2.5 M122.18 37.78 C106.38 24.95, 95.54 20.39, 75.39 -2.89 M122.18 37.78 C109.39 26.53, 98.14 17.07, 75.39 -2.89 M122.54 32.8 C111.18 23.62, 89.04 9.81, 81.79 -2.63 M122.54 32.8 C109.88 23.23, 99.24 14.24, 81.79 -2.63 M122.9 27.81 C111.18 21.04, 108.49 12.77, 88.19 -2.37 M122.9 27.81 C114.63 17.91, 104.04 12.99, 88.19 -2.37 M121.75 21.51 C113.01 16.84, 111.42 9.04, 93.83 -2.76 M121.75 21.51 C110.37 10.21, 99.17 0.36, 93.83 -2.76 M119.85 14.56 C117.37 5.63, 108.36 3.92, 100.23 -2.5 M119.85 14.56 C114.31 9.74, 104.43 3.08, 100.23 -2.5" stroke="#4c6ef5" stroke-width="0.5" fill="none"></path><path d="M30.25 0 M30.25 0 C39.38 -2.04, 52.46 0.87, 90.75 0 M30.25 0 C53.69 -0.8, 75.9 -0.89, 90.75 0 M90.75 0 C113.73 0.29, 117.39 11.93, 121 30.25 M90.75 0 C112.62 -3.45, 117.5 8.74, 121 30.25 M121 30.25 C122.33 50.91, 119.03 66.78, 121 90.75 M121 30.25 C122.87 53.62, 119.14 77.65, 121 90.75 M121 90.75 C119.52 112.67, 108.02 120.98, 90.75 121 M121 90.75 C120.86 113.74, 113.56 124.66, 90.75 121 M90.75 121 C65.64 119.25, 49.23 123.67, 30.25 121 M90.75 121 C67.99 122.92, 49.37 120.48, 30.25 121 M30.25 121 C12.2 121.32, -1.26 108.23, 0 90.75 M30.25 121 C12.07 116.6, -2.1 107.26, 0 90.75 M0 90.75 C-0.24 75.84, 1.45 56.88, 0 30.25 M0 90.75 C1.32 77.04, -0.61 60.9, 0 30.25 M0 30.25 C-0.01 13.4, 7.58 0.81, 30.25 0 M0 30.25 C2.43 14.43, 9.51 3.5, 30.25 0" stroke="#000000" stroke-width="1" fill="none"></path></g><g transform="translate(305 343) rotate(0 28.5 12)"><text x="0" y="19" font-family="Helvetica, Segoe UI Emoji" font-size="20px" fill="#000000" text-anchor="start" style="white-space: pre;" direction="ltr">FLUX</text></g><g stroke-linecap="round"><g transform="translate(321.8793684882122 282.3177607359945) rotate(0 0.692857199518869 -46.90906836245448)"><path d="M-0.89 1.12 C-0.33 -14.42, 1.77 -77.37, 2.28 -93.2 M0.84 0.66 C1.42 -15.23, 1.67 -79.42, 1.84 -94.94" stroke="#000000" stroke-width="1" fill="none"></path></g><g transform="translate(321.8793684882122 282.3177607359945) rotate(0 0.692857199518869 -46.90906836245448)"><path d="M13.76 -65.07 C11 -71.25, 7.87 -79.84, -0.02 -94.26 M12.27 -67.08 C8.95 -75.78, 5.47 -85.44, 1.28 -94.09" stroke="#000000" stroke-width="1" fill="none"></path></g><g transform="translate(321.8793684882122 282.3177607359945) rotate(0 0.692857199518869 -46.90906836245448)"><path d="M-6.76 -65.22 C-5.25 -71.22, -4.12 -79.78, -0.02 -94.26 M-8.25 -67.23 C-4.99 -75.74, -1.9 -85.35, 1.28 -94.09" stroke="#000000" stroke-width="1" fill="none"></path></g></g><g transform="translate(333 224.00000000000003) rotate(0 8 9.5)"><text x="0" y="15" font-family="Helvetica, Segoe UI Emoji" font-size="16px" fill="#000000" text-anchor="start" style="white-space: pre;" direction="ltr">1)</text></g><g stroke-linecap="round"><g transform="translate(258 346) rotate(0 -53.457004746491975 1.8089453434851066)"><path d="M0.66 1.17 C-16.94 1.51, -88.5 1.48, -106.41 1.57 M-0.46 0.74 C-18.18 1.29, -90.26 2.52, -107.57 2.87" stroke="#000000" stroke-width="1" fill="none"></path></g><g transform="translate(258 346) rotate(0 -53.457004746491975 1.8089453434851066)"><path d="M-77.62 -8.59 C-86.88 -6.55, -93.21 -2.31, -108.81 0.93 M-79.49 -7.63 C-89.97 -5.29, -98.45 -0.5, -107.52 3.26" stroke="#000000" stroke-width="1" fill="none"></path></g><g transform="translate(258 346) rotate(0 -53.457004746491975 1.8089453434851066)"><path d="M-77.24 11.93 C-86.51 9.18, -92.93 8.63, -108.81 0.93 M-79.11 12.89 C-89.51 8.4, -98.12 6.35, -107.52 3.26" stroke="#000000" stroke-width="1" fill="none"></path></g></g><g transform="translate(209 325.5) rotate(0 8 9.5)"><text x="0" y="15" font-family="Helvetica, Segoe UI Emoji" font-size="16px" fill="#000000" text-anchor="start" style="white-space: pre;" direction="ltr">2)</text></g><g stroke-linecap="round" transform="translate(612.3768204358748 565.8389523897574) rotate(0 100.46347669685952 57.31965234851492)"><path d="M0.72 0.81 C61.52 0.82, 122.07 -0.86, 200.62 0.65 M-0.2 -0.73 C74.16 0.59, 149.53 1.42, 200.72 -0.78 M199.66 -1.34 C201.48 26.81, 203.07 54.42, 199.09 115.31 M201.06 0.26 C199.45 24.91, 199.35 48.24, 200.6 113.79 M199.84 113.51 C149.59 115.45, 97.06 114.84, -1.41 113.08 M201.16 115.49 C127.79 112.6, 53.58 112.27, -0.47 113.94 M-1.72 112.97 C-0.46 80.45, -1.48 44.86, 1.27 0.95 M-0.47 114.81 C0.48 89.18, 0.83 63.54, 0.48 -0.5" stroke="#000000" stroke-width="1" fill="none"></path></g><g stroke-linecap="round" transform="translate(601.2826941748681 551.046784041753) rotate(0 111.5576029578624 70.87914000085175)"><path d="M0.78 1.26 C50.45 0.82, 99.36 -1.07, 223.74 1.23 M-0.7 -0.43 C70.33 0.74, 141.68 0.24, 222.37 -0.52 M221.78 0.23 C223.57 48.32, 223.67 91.16, 223.79 140.02 M223.37 -0.5 C225 29.87, 223.92 60.61, 222.27 141.37 M222.03 142.77 C144.94 141.47, 64.89 139.24, -1.49 142.93 M223.94 142.56 C164.56 142.83, 106.02 141.8, -0.67 141.79 M-1.67 141.71 C1.38 93.01, 0.65 47.67, 0.95 -1.62 M0.18 141.65 C0 106.82, -0.51 71.89, -0.5 0.44" stroke="#000000" stroke-width="1" fill="none"></path></g><g stroke-linecap="round"><g transform="translate(612.9931607836998 703.6937435218482) rotate(0 6.020204366748658 -0.13763643152356053)"><path d="M0.84 -0.06 C3.93 -1.19, 5.54 0.37, 12.33 0.19 M-0.29 -0.15 C3.13 0.47, 5.71 -0.4, 11.16 0.16" stroke="#000000" stroke-width="4" fill="none"></path></g></g><g stroke-linecap="round"><g transform="translate(709.1422550457323 702.8719563914038) rotate(0 5.768463555649305 0.26664289699601795)"><path d="M-0.06 1.06 C2.78 -0.28, 8.24 0.74, 11.69 -0.53 M-0.15 0.2 C3.57 -0.07, 5.89 -0.29, 11.67 0.47" stroke="#000000" stroke-width="4" fill="none"></path></g></g><g stroke-linecap="round"><g transform="translate(659.8350272190569 702.8719563914034) rotate(0 6.092088202974082 -0.3786220374406355)"><path d="M1.06 -1.13 C3.77 0.42, 8.77 0.19, 10.98 -0.26 M0.2 0.38 C2.39 -0.47, 4.7 0.19, 11.98 -0.36" stroke="#000000" stroke-width="4" fill="none"></path></g></g><g stroke-linecap="round"><g transform="translate(755.9841214810776 702.0501692609597) rotate(0 5.055609227192917 -0.41396165102975147)"><path d="M-1.13 -0.2 C4.71 0.71, 8.77 -0.64, 11.25 -0.93 M0.38 -0.13 C2.38 -0.39, 5.92 0.43, 11.14 -0.38" stroke="#000000" stroke-width="4" fill="none"></path></g></g><g stroke-linecap="round"><g transform="translate(636.8249875665992 703.6937435218472) rotate(0 5.460188124215847 -0.07635957428021811)"><path d="M-0.2 0.42 C4.22 0.3, 6.26 -0.15, 10.57 -0.57 M-0.13 -0.5 C2.8 0.09, 6.76 -0.44, 11.12 0.07" stroke="#000000" stroke-width="4" fill="none"></path></g></g><g stroke-linecap="round"><g transform="translate(732.9740818286245 702.8719563914011) rotate(0 5.537185814881582 0.11902913687833916)"><path d="M0.42 0.82 C4.7 -0.51, 8.77 -0.91, 10.93 -0.31 M-0.5 -0.34 C4.02 0.5, 7.36 -0.36, 11.57 -0.2" stroke="#000000" stroke-width="4" fill="none"></path></g></g><g stroke-linecap="round"><g transform="translate(683.6668540019477 702.8719563914035) rotate(0 5.477875216510824 0.12830097309910116)"><path d="M0.82 0.19 C1.79 -0.3, 3.7 -0.61, 11.2 0.41 M-0.34 0.16 C4.68 -0.26, 8.02 0.17, 11.3 0.52" stroke="#000000" stroke-width="4" fill="none"></path></g></g><g stroke-linecap="round"><g transform="translate(779.8159482639785 702.0501692609591) rotate(0 6.095416014715852 0.030632553483258107)"><path d="M0.19 -0.53 C2.99 -1.01, 5.93 -0.39, 11.91 0.75 M0.16 0.47 C2.83 -0.32, 6.45 -0.14, 12.03 -0.18" stroke="#000000" stroke-width="4" fill="none"></path></g></g><g stroke-linecap="round"><g transform="translate(802.8259879164257 702.8719563914025) rotate(0 5.864239373171358 -0.2206729314853817)"><path d="M-0.53 -0.26 C2.94 -0.59, 7.43 0.39, 12.26 -0.26 M0.47 -0.36 C2.07 0.03, 4.71 0.49, 11.33 -0.53" stroke="#000000" stroke-width="4" fill="none"></path></g></g><g stroke-linecap="round"><g transform="translate(625.319967740375 716.0205504785166) rotate(0 5.440243425004269 -0.3996765672640663)"><path d="M-0.26 -0.93 C3.7 -0.26, 8.95 0.81, 11.24 -0.99 M-0.36 -0.38 C2.83 -0.3, 6.05 -0.27, 10.98 0.19" stroke="#000000" stroke-width="4" fill="none"></path></g></g><g stroke-linecap="round"><g transform="translate(604.7752894792607 716.0205504785174) rotate(0 5.383819077977591 -0.2369939414510327)"><path d="M-0.93 -0.57 C3.33 0.43, 8.03 -0.24, 10.51 -0.69 M-0.38 0.07 C3.57 0.6, 7.37 -0.45, 11.7 -0.5" stroke="#000000" stroke-width="4" fill="none"></path></g></g><g stroke-linecap="round"><g transform="translate(721.4690620024012 715.198763348074) rotate(0 5.217125306795197 -0.08361860220895778)"><path d="M-0.57 -0.31 C3.33 0.85, 5.58 -0.9, 10.82 0.32 M0.07 -0.2 C4.93 -0.1, 8.28 0.27, 11 -0.49" stroke="#000000" stroke-width="4" fill="none"></path></g></g><g stroke-linecap="round"><g transform="translate(672.1618341757171 715.1987633480743) rotate(0 5.758649379171175 0.34538342998098415)"><path d="M-0.31 0.41 C3.94 -0.2, 5.39 -0.63, 11.83 0.95 M-0.2 0.52 C2.55 -0.54, 5.64 -0.51, 11.02 0.57" stroke="#000000" stroke-width="4" fill="none"></path></g></g><g stroke-linecap="round"><g transform="translate(768.3109284377442 714.3769762176308) rotate(0 6.431666492835575 0.01326498438115209)"><path d="M0.41 0.75 C2.26 -0.96, 4.35 0.35, 12.45 -0.73 M0.52 -0.18 C2.15 0.23, 4.86 -0.45, 12.07 0.08" stroke="#000000" stroke-width="4" fill="none"></path></g></g><g stroke-linecap="round"><g transform="translate(649.1517945232677 716.0205504785196) rotate(0 5.7026566962748575 -0.28347011549629997)"><path d="M0.75 -0.26 C1.89 -0.73, 6.08 0.91, 10.78 -0.77 M-0.18 -0.53 C3.78 -0.61, 6.68 0.46, 11.58 0.15" stroke="#000000" stroke-width="4" fill="none"></path></g></g><g stroke-linecap="round"><g transform="translate(745.3008887853007 715.1987633480733) rotate(0 5.5627765939995015 -0.3996765672640663)"><path d="M-0.26 -0.99 C2.45 0.25, 7.23 -0.8, 10.74 0.13 M-0.53 0.19 C2.54 -0.45, 6.65 0.11, 11.65 -0.29" stroke="#000000" stroke-width="4" fill="none"></path></g></g><g stroke-linecap="round"><g transform="translate(695.9936609586143 715.1987633480725) rotate(0 5.321861716650574 -0.1788805024025919)"><path d="M-0.99 -0.69 C4.18 0.98, 6.99 -0.74, 11.64 -0.41 M0.19 -0.5 C4.01 0.67, 9.08 0.25, 11.22 0.28" stroke="#000000" stroke-width="4" fill="none"></path></g></g><g stroke-linecap="round"><g transform="translate(792.1427552206428 714.3769762176274) rotate(0 5.548893864371621 0.2801258457044469)"><path d="M-0.69 0.32 C5.15 -0.63, 7.64 0.23, 11.1 1.05 M-0.5 -0.49 C3.66 0.04, 6.34 -0.32, 11.79 -0.35" stroke="#000000" stroke-width="4" fill="none"></path></g></g><g stroke-linecap="round"><g transform="translate(815.1527948730895 715.1987633480733) rotate(0 6.032635758817037 0.2854310205182742)"><path d="M0.32 0.95 C2.46 -0.7, 6.51 -0.34, 12.55 -0.36 M-0.49 0.57 C2.48 0.25, 4.51 0.38, 11.16 -0.34" stroke="#000000" stroke-width="4" fill="none"></path></g></g><g stroke-linecap="round"><g transform="translate(637.6467746970484 728.347357435189) rotate(0 5.864589214156354 -0.42926832214726574)"><path d="M0.95 -0.73 C1.69 0.1, 4.51 1.02, 11.15 -1.05 M0.57 0.08 C3.99 -0.19, 7.96 -0.25, 11.16 -0.19" stroke="#000000" stroke-width="4" fill="none"></path></g></g><g stroke-linecap="round"><g transform="translate(617.1020964359282 728.3473574351871) rotate(0 5.294295787834244 -0.19094499684683797)"><path d="M-0.73 -0.77 C2.89 -0.5, 6.57 -0.45, 10.45 0.39 M0.08 0.15 C2.16 0.17, 4.55 -0.46, 11.32 -0.49" stroke="#000000" stroke-width="4" fill="none"></path></g></g><g stroke-linecap="round"><g transform="translate(780.6377353944149 726.7037831742992) rotate(0 5.561564916265752 -0.30246556486252985)"><path d="M-0.77 0.13 C3.36 1.12, 7.19 -0.98, 11.89 -1 M0.15 -0.29 C2.76 -0.36, 4.6 -0.21, 11.02 -0.23" stroke="#000000" stroke-width="4" fill="none"></path></g></g><g stroke-linecap="round"><g transform="translate(672.3845887360189 729.1211007772215) rotate(0 42.16986992147838 -1.4951350585039336)"><path d="M0.23 -0.71 C34.44 -0.73, 63.39 -0.12, 83.49 -3.48 M-0.5 0.49 C33.35 -1.52, 67.58 -2.48, 84.84 -1.22" stroke="#000000" stroke-width="4" fill="none"></path></g></g><g stroke-linecap="round"><g transform="translate(804.4695621773117 726.7037831742982) rotate(0 5.709641204571994 0.3118863410363133)"><path d="M-0.41 1.05 C2.37 -1.07, 5.84 -1.01, 10.53 1.13 M0.28 -0.35 C3.27 -0.13, 6.73 -0.17, 11.83 -0.17" stroke="#000000" stroke-width="4" fill="none"></path></g></g><g stroke-linecap="round"><g transform="translate(578.0540361107073 738.238099484775) rotate(0 142.27816463995748 -22.78599547450554)"><path d="M1.39 -0.47 C64.69 1.28, 130.84 -0.53, 285.01 0.21 M-0.46 -0.45 C92.1 -1.7, 184.39 -0.63, 283.29 -0.46 M284.54 0.84 C274.09 -12.01, 269.43 -21.57, 249.59 -43.86 M284.19 -0.75 C269.92 -18.43, 257.81 -34.83, 250.96 -45.24 M250.55 -44.44 C203.71 -43.18, 152.39 -45.16, 25.49 -46.41 M251.67 -45.1 C180.24 -45.84, 108.58 -46.03, 25.6 -46.18 M26.04 -44.78 C21.67 -37.8, 14.11 -27.36, 0.77 -0.12 M26.13 -45.44 C17.27 -30, 8.86 -15.69, 1 -0.5" stroke="#000000" stroke-width="1" fill="none"></path></g></g><g stroke-linecap="round" transform="translate(575.6018463484775 736.5652287396365) rotate(0 141.75828000170338 2.876254956556295)"><path d="M-0.47 -1.39 C88.82 -3.29, 175.33 -0.47, 283.72 0.39 M-0.45 -0.25 C70.31 1, 142.34 1.07, 283.06 -0.48 M283.76 -0.45 C283.06 2.46, 283.34 3.59, 283.66 6.3 M283.3 -0.15 C283.27 2.27, 283.6 4.37, 283.27 5.51 M283.46 6.72 C199.83 3.37, 113.9 4.25, -0.71 6.02 M282.87 6.11 C201.29 6.6, 119.62 6.01, -0.51 5.09 M0.24 6.07 C-0.42 3.52, -0.22 2.04, -0.03 0.22 M0.05 5.69 C0.18 3.59, -0.14 1.65, -0.14 0.22" stroke="#000000" stroke-width="1" fill="none"></path></g><g stroke-opacity="0.7" fill-opacity="0.7" stroke-linecap="round" transform="translate(622.3981536515225 593.6822613472509) rotate(0 83 30)"><path d="M3.99 3.47 C3.99 3.47, 3.99 3.47, 3.99 3.47 M3.99 3.47 C3.99 3.47, 3.99 3.47, 3.99 3.47 M1.11 12.89 C5.61 9.03, 4.73 5.03, 10.95 1.57 M1.11 12.89 C5.09 7.55, 6.7 5.69, 10.95 1.57 M1.5 18.53 C9.57 17.63, 8.16 12.07, 16.59 1.17 M1.5 18.53 C5.15 15.59, 7.45 9.25, 16.59 1.17 M1.24 24.93 C3.52 19.58, 12.61 16.57, 21.58 1.53 M1.24 24.93 C5.01 20.25, 10.17 14.1, 21.58 1.53 M1.63 30.57 C8.43 22.57, 17.66 9.95, 27.22 1.14 M1.63 30.57 C6.13 23.64, 14.92 17.73, 27.22 1.14 M1.37 36.97 C9.92 29.33, 16.61 25.14, 32.21 1.5 M1.37 36.97 C6.94 30.59, 13.86 21.21, 32.21 1.5 M1.11 43.37 C12.67 26.83, 30.71 10.75, 37.85 1.1 M1.11 43.37 C12.06 31.99, 19.53 20.55, 37.85 1.1 M1.51 49.01 C12.63 34.12, 21.39 20.02, 42.84 1.46 M1.51 49.01 C16.87 27.57, 32.66 12.04, 42.84 1.46 M3.21 53.14 C15.6 37.72, 33.27 18.25, 47.83 1.82 M3.21 53.14 C16.55 38.78, 29.79 23.42, 47.83 1.82 M4.92 57.28 C19.88 39.58, 31.78 22.76, 53.47 1.43 M4.92 57.28 C22.99 36, 44.42 14.18, 53.47 1.43 M8.59 59.15 C22.49 37.25, 45.03 19.1, 58.46 1.79 M8.59 59.15 C22.7 44.93, 39.24 26.72, 58.46 1.79 M13.58 59.51 C27.73 45.13, 44.08 20.57, 64.1 1.39 M13.58 59.51 C25.99 44.3, 38.47 29.6, 64.1 1.39 M19.22 59.11 C28.69 41.15, 47.61 23.69, 69.09 1.75 M19.22 59.11 C27.56 49.63, 37.55 35.81, 69.09 1.75 M24.21 59.47 C37.12 43.89, 57.23 28.89, 74.73 1.36 M24.21 59.47 C38.95 41.57, 57.08 21.28, 74.73 1.36 M29.85 59.08 C46.11 42.46, 64.82 23.4, 79.72 1.72 M29.85 59.08 C39.06 47.86, 49.98 32.62, 79.72 1.72 M34.84 59.44 C47.78 44.69, 58.33 32.71, 84.7 2.08 M34.84 59.44 C48.6 44.74, 59.46 26.32, 84.7 2.08 M40.49 59.04 C48.79 43.69, 64.46 33.14, 90.35 1.69 M40.49 59.04 C50.18 43.14, 61.77 31.26, 90.35 1.69 M45.47 59.4 C66.12 37.18, 78.65 23.53, 95.33 2.05 M45.47 59.4 C55.31 47.24, 66.86 34.18, 95.33 2.05 M50.46 59.76 C67.72 38.35, 83.06 17.69, 100.98 1.65 M50.46 59.76 C63.29 47.44, 72.05 33.1, 100.98 1.65 M56.1 59.37 C68.14 40.93, 86.22 27.33, 105.96 2.01 M56.1 59.37 C72.1 39.14, 92.87 18.81, 105.96 2.01 M61.09 59.73 C70.62 40.8, 88.87 22.44, 111.61 1.62 M61.09 59.73 C71.03 48.82, 82.17 35.07, 111.61 1.62 M66.73 59.33 C76.39 45.28, 97.35 26.26, 116.59 1.98 M66.73 59.33 C79.92 46.04, 91.68 34.23, 116.59 1.98 M71.72 59.69 C83.56 41.46, 96.67 27.25, 121.58 2.34 M71.72 59.69 C82.61 46.59, 92.68 35.52, 121.58 2.34 M77.36 59.3 C93.26 39.96, 111.84 15.87, 127.22 1.94 M77.36 59.3 C88.95 47.49, 98.96 33.54, 127.22 1.94 M82.35 59.66 C93.02 43.6, 107.5 33.08, 132.21 2.3 M82.35 59.66 C93.49 48.86, 103.09 32.17, 132.21 2.3 M87.34 60.02 C97.71 48.64, 113.88 37.44, 137.85 1.91 M87.34 60.02 C104.61 38.27, 126.32 14.72, 137.85 1.91 M92.98 59.63 C110.3 42.03, 120.29 26.56, 142.84 2.27 M92.98 59.63 C112.03 38.06, 133.7 16.61, 142.84 2.27 M97.97 59.99 C117.08 42.15, 133.2 19.49, 148.48 1.87 M97.97 59.99 C117.53 40.17, 132.19 21.04, 148.48 1.87 M103.61 59.59 C118.67 39.75, 141.84 15.32, 153.47 2.23 M103.61 59.59 C118.13 40.74, 130.96 25.74, 153.47 2.23 M108.6 59.95 C125.08 35.63, 149.86 17.51, 159.11 1.84 M108.6 59.95 C125.51 43.61, 141.31 24.05, 159.11 1.84 M114.24 59.56 C129.3 47.94, 136.1 32.05, 162.79 3.71 M114.24 59.56 C127.19 45.26, 138.76 31.25, 162.79 3.71 M119.23 59.92 C135.15 46.88, 149.57 25.63, 164.49 7.84 M119.23 59.92 C129.79 48.9, 140.75 36.81, 164.49 7.84 M124.21 60.28 C136.22 47.98, 148.67 31.67, 166.2 11.98 M124.21 60.28 C134.66 46.29, 144.72 33.87, 166.2 11.98 M129.86 59.88 C145.23 41.17, 151.69 29.7, 165.94 18.37 M129.86 59.88 C141.28 46.57, 153.57 30.18, 165.94 18.37 M134.84 60.24 C145.38 50.77, 156.36 35.04, 166.33 24.02 M134.84 60.24 C148.18 43.89, 160.19 31.68, 166.33 24.02 M140.49 59.85 C152.22 49.69, 152.84 42.49, 166.07 30.41 M140.49 59.85 C148.66 46.91, 158.09 36.63, 166.07 30.41 M145.47 60.21 C150.22 47.68, 163.42 43.52, 165.81 36.81 M145.47 60.21 C155.27 51.65, 162.66 43.53, 165.81 36.81 M151.12 59.81 C152.14 52.88, 161.62 51.2, 165.55 43.21 M151.12 59.81 C156.36 53.34, 159.56 48.32, 165.55 43.21 M154.14 62.44 C158.48 60.22, 157.53 55.22, 165.29 49.61 M154.14 62.44 C156.17 59.12, 159.55 53.27, 165.29 49.61" stroke="#15aabf" stroke-width="0.5" fill="none"></path><path d="M15 0 M15 0 C50.13 0.78, 84.29 2.41, 151 0 M15 0 C54.24 -2.25, 95.46 -1.38, 151 0 M151 0 C161.09 -0.48, 162.68 8.37, 166 15 M151 0 C164.69 -3.67, 166.8 5.94, 166 15 M166 15 C165.5 28.56, 167.26 40.47, 166 45 M166 15 C165.22 23.69, 166.19 29.21, 166 45 M166 45 C163.38 56.75, 159.62 63.44, 151 60 M166 45 C163.54 54.99, 157.18 56.91, 151 60 M151 60 C101.75 58.65, 42.24 56.45, 15 60 M151 60 C106.41 59.58, 64.5 62.44, 15 60 M15 60 C1.28 62.31, -3.68 51.8, 0 45 M15 60 C9.51 58.17, 0.33 53.78, 0 45 M0 45 C-3.93 34.79, -3.73 23.96, 0 15 M0 45 C-0.76 38.95, -1.4 31.53, 0 15 M0 15 C-0.46 3.14, 3.36 0.06, 15 0 M0 15 C0.98 4.22, 3.62 -1.58, 15 0" stroke="#000000" stroke-width="1" fill="none"></path></g><g transform="translate(650.8981536515225 610.6822613472509) rotate(0 55 12)"><text x="55" y="19" font-family="Helvetica, Segoe UI Emoji" font-size="20px" fill="#000000" text-anchor="middle" style="white-space: pre;" direction="ltr">Gimlet CLI</text></g><g stroke-opacity="0.7" fill-opacity="0.7" stroke-linecap="round" transform="translate(600.3981536515225 28.682261347250943) rotate(0 126.5 65.5)"><path d="M8.06 8.33 C8.06 8.33, 8.06 8.33, 8.06 8.33 M8.06 8.33 C8.06 8.33, 8.06 8.33, 8.06 8.33 M2.55 20.77 C4.19 13.43, 13.24 14.04, 18.95 1.9 M2.55 20.77 C6.42 15.76, 13.13 5.9, 18.95 1.9 M2.29 27.17 C7.52 21.07, 13.31 7.95, 24.6 1.51 M2.29 27.17 C6.22 19.57, 10.54 15.53, 24.6 1.51 M2.68 32.81 C14.98 23.92, 18.6 9.13, 30.9 0.36 M2.68 32.81 C10.56 23.06, 19.07 13.07, 30.9 0.36 M2.42 39.21 C12.93 24.74, 22.47 9.74, 34.57 2.23 M2.42 39.21 C14.99 27.62, 23.49 12.92, 34.57 2.23 M2.82 44.85 C13.46 37.3, 17.41 24.16, 40.21 1.83 M2.82 44.85 C15.11 29.53, 28.69 16.28, 40.21 1.83 M2.56 51.25 C19.25 34.34, 34.45 15.48, 45.2 2.19 M2.56 51.25 C15.03 35.01, 30.44 18.81, 45.2 2.19 M2.29 57.65 C15.5 37.4, 36.71 26.18, 50.84 1.8 M2.29 57.65 C19.5 39.34, 39.47 15.68, 50.84 1.8 M2.69 63.29 C21.4 41.72, 41.92 15.64, 55.83 2.16 M2.69 63.29 C22.35 40.92, 40.89 20.27, 55.83 2.16 M2.43 69.69 C20.54 46.19, 44.75 25.43, 61.47 1.76 M2.43 69.69 C18.02 54.24, 30.64 40, 61.47 1.76 M2.82 75.33 C30.61 48.26, 51.28 19.98, 66.46 2.12 M2.82 75.33 C19.59 57.32, 33.33 40.97, 66.46 2.12 M2.56 81.73 C17.62 59.89, 32.12 45.64, 72.1 1.73 M2.56 81.73 C27.47 52.69, 51.87 24.76, 72.1 1.73 M2.3 88.12 C35.35 50.99, 58.68 21.94, 77.09 2.09 M2.3 88.12 C22.81 62.44, 44.86 37.21, 77.09 2.09 M2.69 93.77 C25.62 74.15, 40.78 53.11, 82.73 1.69 M2.69 93.77 C30.64 62.33, 57.49 32.03, 82.73 1.69 M2.43 100.17 C31.69 70.28, 50.77 40.78, 87.72 2.05 M2.43 100.17 C28 68.26, 53.98 38.16, 87.72 2.05 M1.52 107.32 C26.75 77.82, 52.25 49.53, 93.36 1.66 M1.52 107.32 C34.76 63.24, 70.67 21.25, 93.36 1.66 M3.22 111.45 C37.3 76.34, 61.63 47.85, 98.35 2.02 M3.22 111.45 C40.88 69.63, 80.45 25.41, 98.35 2.02 M4.93 115.59 C27.24 90.67, 50.97 58.57, 103.99 1.62 M4.93 115.59 C33.56 82.95, 61.17 53.78, 103.99 1.62 M6.64 119.72 C38.91 79.26, 71.68 40.53, 108.98 1.98 M6.64 119.72 C39.21 77.6, 74.31 38.98, 108.98 1.98 M9.65 122.34 C46.16 85.78, 81.38 45.39, 114.62 1.59 M9.65 122.34 C35.24 96.95, 56.43 72.67, 114.62 1.59 M12.02 125.72 C57.44 73.71, 97.52 29.33, 119.61 1.95 M12.02 125.72 C34.43 99.17, 57.56 72.59, 119.61 1.95 M15.04 128.35 C61.06 79.8, 94.17 35.14, 125.25 1.56 M15.04 128.35 C49.32 90.18, 81.5 47.26, 125.25 1.56 M19.37 129.46 C46.12 97.03, 72.15 72.08, 130.24 1.92 M19.37 129.46 C57.41 85.91, 97.97 41.05, 130.24 1.92 M23.7 130.58 C64.35 81.6, 104.2 34.51, 135.88 1.52 M23.7 130.58 C64.69 80.52, 105.56 32.43, 135.88 1.52 M28.03 131.69 C67.59 90.99, 100.3 48.96, 140.87 1.88 M28.03 131.69 C50.71 99.7, 75.57 71.87, 140.87 1.88 M33.67 131.3 C66.65 100.58, 96.58 67.91, 146.51 1.49 M33.67 131.3 C68.27 93.35, 100.63 56.34, 146.51 1.49 M38.66 131.66 C60.04 103.71, 88.07 75.46, 151.5 1.85 M38.66 131.66 C79.08 88.71, 115.92 45.54, 151.5 1.85 M44.3 131.26 C70.91 98.39, 99.62 63.82, 156.49 2.21 M44.3 131.26 C66.55 103, 94.74 74.83, 156.49 2.21 M49.29 131.62 C94.62 81.58, 137.31 31.08, 162.13 1.81 M49.29 131.62 C83.75 92, 123.77 49.95, 162.13 1.81 M54.93 131.23 C88.85 100.37, 118.46 59.2, 167.12 2.17 M54.93 131.23 C83.21 96.97, 108.99 66.84, 167.12 2.17 M59.92 131.59 C80.49 101.93, 104.68 75.98, 172.76 1.78 M59.92 131.59 C90.77 95.12, 123.01 57.02, 172.76 1.78 M64.91 131.95 C108.95 78.82, 147.19 31.95, 177.75 2.14 M64.91 131.95 C100.53 91.19, 133.94 50.9, 177.75 2.14 M70.55 131.55 C97.91 98.6, 119.51 74.41, 183.39 1.74 M70.55 131.55 C93.99 104.05, 120.65 77.69, 183.39 1.74 M75.54 131.91 C107.87 90.09, 151.2 49.78, 188.38 2.1 M75.54 131.91 C103.41 97.71, 133.64 68.67, 188.38 2.1 M81.18 131.52 C106.03 101.18, 136.4 67.6, 194.02 1.71 M81.18 131.52 C125.89 81.7, 170.75 30.5, 194.02 1.71 M86.17 131.88 C103.01 106.98, 132.48 79.7, 199.01 2.07 M86.17 131.88 C129.58 83.23, 176.53 32.64, 199.01 2.07 M91.81 131.48 C134.88 90.15, 176.11 39.15, 204.65 1.67 M91.81 131.48 C113.65 106.22, 135.12 79.72, 204.65 1.67 M96.8 131.84 C143.12 85.71, 183.4 39.76, 209.64 2.03 M96.8 131.84 C132.22 89.63, 169.9 47.15, 209.64 2.03 M102.44 131.45 C123.52 101.23, 153.41 75.14, 215.28 1.64 M102.44 131.45 C134.28 92.94, 166.66 59.61, 215.28 1.64 M107.43 131.81 C146.66 90.39, 182.16 46.83, 220.92 1.24 M107.43 131.81 C153.25 82.08, 195.65 30.27, 220.92 1.24 M113.07 131.42 C132.18 102.13, 160.68 77.17, 225.91 1.61 M113.07 131.42 C158.75 83.39, 201.3 33.14, 225.91 1.61 M118.06 131.78 C154.63 93.38, 184.79 50.85, 230.24 2.72 M118.06 131.78 C156.44 85.48, 194.42 39.77, 230.24 2.72 M123.7 131.38 C168.01 80.23, 203.95 28.72, 234.57 3.83 M123.7 131.38 C157.05 87.78, 195.18 49.29, 234.57 3.83 M128.69 131.74 C146.83 111.46, 171.25 81.58, 238.9 4.95 M128.69 131.74 C156.31 93.71, 187.77 59.13, 238.9 4.95 M134.33 131.35 C166.89 89.89, 204.65 49.63, 242.58 6.82 M134.33 131.35 C159.76 102.52, 186.97 72.28, 242.58 6.82 M139.32 131.71 C169.25 97.41, 197.3 66.25, 245.6 9.44 M139.32 131.71 C173.18 90.9, 211.21 48.68, 245.6 9.44 M144.96 131.31 C175.06 98.16, 201.45 65.66, 248.62 12.07 M144.96 131.31 C175.95 94.38, 209.2 52.16, 248.62 12.07 M149.95 131.67 C173.99 104.02, 203.77 77.07, 250.98 15.45 M149.95 131.67 C192.2 88.05, 230.95 42.87, 250.98 15.45 M155.59 131.28 C187.63 94.33, 221.54 62.06, 252.69 19.58 M155.59 131.28 C184.56 97.34, 214 64.61, 252.69 19.58 M160.58 131.64 C201.33 88.74, 232.45 46.14, 253.08 25.22 M160.58 131.64 C195.54 93.23, 228.43 53.51, 253.08 25.22 M166.22 131.24 C190.31 101.03, 217.67 75.81, 252.82 31.62 M166.22 131.24 C192.46 102.36, 220.42 71.7, 252.82 31.62 M171.21 131.6 C195.7 106.96, 220.11 78.52, 253.21 37.26 M171.21 131.6 C198.02 105.14, 220.97 78.13, 253.21 37.26 M176.85 131.21 C197.29 108.12, 216.63 79.51, 252.95 43.66 M176.85 131.21 C195.71 113.18, 212.12 93.09, 252.95 43.66 M181.84 131.57 C210.84 99.12, 240 68.66, 253.35 49.3 M181.84 131.57 C200.45 111.99, 221.68 89.04, 253.35 49.3 M186.82 131.93 C198.85 115.51, 213.36 96.96, 253.09 55.7 M186.82 131.93 C200.6 113.07, 218.26 97.23, 253.09 55.7 M192.47 131.53 C210.31 112.29, 232.21 87.86, 253.48 61.35 M192.47 131.53 C214.11 108.3, 229.82 87.06, 253.48 61.35 M197.45 131.89 C219.98 108.1, 232.86 90.67, 253.22 67.74 M197.45 131.89 C214.3 110.87, 235.73 89.27, 253.22 67.74 M203.1 131.5 C222.05 110.81, 237.87 88.09, 252.96 74.14 M203.1 131.5 C218.49 114.27, 231.01 97.44, 252.96 74.14 M208.08 131.86 C228.21 113.85, 242.55 87.16, 253.35 79.78 M208.08 131.86 C221.86 118.07, 235.73 98.91, 253.35 79.78 M213.73 131.46 C221.14 119.4, 229.62 111.36, 253.09 86.18 M213.73 131.46 C219.48 122.45, 230.1 111.61, 253.09 86.18 M218.71 131.82 C231.94 124.3, 240.28 108.98, 253.49 91.83 M218.71 131.82 C229.87 120.76, 243.09 106.12, 253.49 91.83 M223.05 132.94 C230.6 121.9, 246.09 110.36, 253.22 98.22 M223.05 132.94 C234.25 121.51, 240.37 110.58, 253.22 98.22 M228.69 132.55 C236.23 124.77, 240.79 118.3, 250.99 106.88 M228.69 132.55 C238.05 123.36, 242.37 113.29, 250.99 106.88 M236.3 129.89 C241.51 122.52, 243.81 122.7, 249.42 114.79 M236.3 129.89 C238.97 123.98, 246.59 118.3, 249.42 114.79" stroke="#15aabf" stroke-width="0.5" fill="none"></path><path d="M32.75 0 M32.75 0 C81.72 -3.08, 133.36 2.56, 220.25 0 M32.75 0 C93.26 -0.45, 151.27 -0.03, 220.25 0 M220.25 0 C242.68 -0.79, 249.95 11.18, 253 32.75 M220.25 0 C246.35 -0.35, 256.87 12.05, 253 32.75 M253 32.75 C254.13 43.72, 250.06 58.12, 253 98.25 M253 32.75 C254.41 49.55, 252.31 67.79, 253 98.25 M253 98.25 C256.75 118.99, 238.33 127.05, 220.25 131 M253 98.25 C257.23 115.91, 238.81 126.67, 220.25 131 M220.25 131 C149.78 130.88, 80.56 132.15, 32.75 131 M220.25 131 C163.11 128.77, 107.6 131.71, 32.75 131 M32.75 131 C9.25 129.35, 2.61 117.15, 0 98.25 M32.75 131 C10.8 134.11, -3.56 117.26, 0 98.25 M0 98.25 C-3.56 84.83, 0.85 74.99, 0 32.75 M0 98.25 C2.2 81.92, 1.22 68.06, 0 32.75 M0 32.75 C-0.39 8.9, 8.07 -0.61, 32.75 0 M0 32.75 C0.36 7.98, 13.67 1.54, 32.75 0" stroke="#000000" stroke-width="1" fill="none"></path></g><g transform="translate(684.8981536515225 82.18226134725094) rotate(0 42 12)"><text x="42" y="19" font-family="Helvetica, Segoe UI Emoji" font-size="20px" fill="#000000" text-anchor="middle" style="white-space: pre;" direction="ltr">GimletD</text></g><g stroke-opacity="0.7" fill-opacity="0.7" stroke-linecap="round" transform="translate(250 10) rotate(0 85.5 85.50000000000001)"><path d="M-0.06 86.07 C-0.06 86.07, -0.06 86.07, -0.06 86.07 M-0.06 86.07 C-0.06 86.07, -0.06 86.07, -0.06 86.07 M-0.18 90.82 C8.63 82.63, 20.66 67.94, 43 43.26 M1.04 88.24 C16.86 74.71, 28.56 58.9, 39.73 47.01 M3.7 88.31 C22.89 70.02, 46.87 46.67, 82.95 8.52 M4.49 93.19 C26.73 72.28, 44.05 51.05, 80.08 2.67 M5.53 96.2 C33.05 64.96, 61.45 33.21, 86.09 0.39 M9.37 95.24 C38.08 58.63, 69.46 23.51, 86.75 3.5 M8.46 98.71 C38.54 69.69, 61.78 39.1, 92.39 5.43 M11.97 99.28 C30.21 73.2, 51.12 46.18, 92.17 4.14 M14.88 96.58 C36.03 75.8, 55.99 49.78, 95.8 11.63 M15.25 100.05 C38.9 75.45, 59.15 48.03, 93.64 6.55 M16.03 101.12 C34.72 75.87, 59.12 50.31, 93.54 11.82 M17.96 100.65 C32.08 83.56, 50.66 65.27, 98.19 11.79 M17.75 108.64 C45.7 75.95, 69.7 48.94, 100.42 12.84 M19.84 107.53 C49.04 75.26, 72.1 45.87, 100.32 13.83 M22.05 110.49 C50.64 79.27, 72.35 54.18, 106.41 13.58 M22.73 109.02 C43.5 82.28, 68.23 55.7, 103.14 17.95 M26.18 110.53 C55 77.4, 77.1 49.63, 107.74 22.44 M25.14 109.28 C51.93 83.38, 76.53 50.06, 104.94 18.83 M28.29 111.2 C47.28 85.45, 72.33 59.51, 111.86 20.12 M27.41 114.87 C50.85 90.21, 70.31 67.4, 107.63 23.73 M29.06 119.93 C52.78 94.68, 73.62 65.44, 110.4 26.33 M32.81 117.67 C62.91 81.21, 91.59 47.24, 109.25 23.78 M37.4 119.18 C56.72 92.85, 86.82 56.72, 110.25 29.34 M32.77 121.43 C62.38 91.55, 84.95 64.01, 114.51 27.97 M37.42 123.98 C57.26 92.66, 84.88 71.69, 114.52 28.69 M37.37 123.78 C55.95 100.45, 69.88 83.28, 115.26 30.41 M42.15 127.84 C64.19 94.79, 88.31 72.72, 119.49 29.93 M40.47 126.69 C58.33 106.68, 74.06 89.82, 118.94 33.54 M39.16 125.36 C59.97 105.91, 79.53 83.06, 121.7 38.17 M40.95 127.49 C68.88 97.78, 95.46 69.06, 123.19 38.19 M44.2 130.1 C72.58 105.63, 93.41 79.51, 122.93 36.8 M43.77 129.37 C72.23 104.54, 96.83 73.21, 124.28 38.79 M52.29 136.22 C79.34 106.3, 100.81 72.28, 127.12 46.2 M50.58 135.39 C68.92 112.41, 83.8 95.18, 129.57 42.61 M50.66 137.13 C67.98 120.04, 86.21 102.23, 131.46 45.34 M52.16 135.71 C78.89 106.71, 104.58 77.03, 132.13 43.81 M55.72 136.25 C76.66 106.4, 105.45 79.74, 132.02 45.68 M52.9 138.84 C84.44 109.44, 111.62 79.1, 135.8 45.9 M56.14 140.57 C87.48 107.38, 118.32 72.54, 133.46 49.74 M57.37 141.68 C74.81 120.01, 92.47 99.84, 136.4 52.74 M58.47 146.59 C84.07 122.02, 104.31 98.31, 138.58 53.03 M59.43 143.95 C76.37 127.09, 94.07 104.71, 138.89 55.04 M64.8 146.85 C89.96 111.45, 117.58 82.14, 139.46 53.64 M63.43 147.26 C82.99 122.76, 102.46 99.74, 143.86 56.4 M62.43 147.91 C80.07 130.71, 97.07 110.59, 146.39 62.92 M65.32 149.57 C86.95 126.5, 103.61 104, 144.08 60.51 M70.91 155.88 C89.72 135.47, 106.49 112.97, 144.86 60.23 M67.23 155.19 C94.94 120.1, 126.68 84, 148.9 62.42 M67.64 154.38 C90.82 129.93, 115.2 104.09, 150.58 66.5 M70.59 157.3 C99.26 127.5, 123.95 95.45, 150.85 66.54 M77.62 159.08 C95.35 133.16, 112.29 117.53, 150.52 66.91 M73.3 160.95 C91.43 139.68, 106.88 121.5, 154.12 69.9 M74.99 163.67 C108.08 122.59, 141.05 87.53, 155.8 69.69 M74.88 161.52 C97.6 142.6, 115.34 120.29, 154.99 69.37 M78.19 165.36 C107.3 134.8, 130.3 112.15, 160.82 75.59 M79.02 166.76 C106.18 137.39, 127.63 109.11, 160.41 71.69 M83.51 166.92 C107.55 140.72, 126.13 117, 164.82 79.91 M82.7 167.3 C99.46 143.5, 117.89 122.38, 161.13 75.96 M82.79 167.14 C103.23 152.12, 126.37 134.35, 165.65 78.95 M85.41 171.61 C105.88 146.83, 126.13 124.5, 164.89 80.65 M85.09 170.82 C109.86 145.85, 139.37 121.01, 165.29 80.07 M90.21 172.52 C110.03 147.34, 134.62 119.56, 169.54 82.06 M129.73 130.54 C144.27 117.08, 159.41 96.43, 169.03 87.14 M128.42 133.46 C145.18 114.22, 159.73 95.84, 169.59 84.37 M85.93 170.94 C85.93 170.94, 85.93 170.94, 85.93 170.94 M85.93 170.94 C85.93 170.94, 85.93 170.94, 85.93 170.94 M89.9 166.16 C76.01 158.2, 62.86 147.63, 41.57 130.3 M87.31 167.93 C76.55 158.95, 66.26 147.31, 41.87 127.71 M92.64 169.53 C62.08 146.97, 35.66 123.78, 1.33 83.48 M92.24 165.28 C57.93 133.2, 21.92 100.46, -1.83 83.55 M92.91 163.26 C60.36 134.79, 24.36 107.9, 2.32 81.31 M94.81 162.64 C64.62 137.4, 34.11 113.62, 4.26 83.46 M93.5 157.03 C79.58 145.12, 64.12 131.13, 3.51 77.31 M95.88 158.15 C58.96 125.59, 25.95 96.4, 3.98 81.4 M100.68 155.12 C79.85 134.7, 55.76 117.33, 9.87 73.95 M98.71 158.41 C62.8 125.92, 29.82 94.64, 9.6 78.61 M104.68 154.74 C72.33 123.4, 41.5 95.39, 12.63 70.98 M104.95 153.28 C73.82 127.45, 39.5 101.05, 13.55 76.43 M103.69 148.44 C85.38 130.24, 61.67 109.65, 13.92 68.48 M106.11 150.77 C79.44 128.37, 54.11 105.5, 12.6 71.85 M111.38 149 C83.13 122.89, 52.79 103.97, 18.41 67.76 M106.64 146.46 C85.4 129.19, 63.79 110.27, 18.95 66.95 M109.65 144.49 C81.34 123.95, 55.66 97.04, 17.17 65.76 M112.09 147.05 C78.04 120.85, 48.88 91.97, 19.68 63.74 M113.32 141.29 C93 121.13, 63.92 100.02, 24.31 61.37 M113.41 141.86 C83.85 115.37, 52.75 87.01, 24.78 63.01 M113.75 141.03 C96.03 121.03, 68.19 94.16, 28.84 57.77 M117.96 140.32 C99.03 121.24, 79.07 107.1, 26.58 59.19 M118.7 134.96 C90.76 115.11, 58.85 84.9, 26.29 55.41 M120.97 134.78 C98.68 116.21, 76.75 96.42, 26.85 57.79 M124.96 134.28 C103.11 120.69, 84.92 99.44, 34.63 54.35 M121.58 135.38 C90.7 103.72, 58.54 76.17, 32.24 54.25 M126.25 132.49 C102.23 109.92, 82.57 91.1, 34.82 52.61 M126.29 132.89 C92.18 101.1, 57.86 72.38, 34.27 52.81 M128.75 130.35 C105.8 107.42, 82.68 88.97, 34.76 48.49 M128.01 128.15 C107.31 110.41, 86.9 90.55, 36.87 49.33 M127.9 122.89 C103.61 101.9, 69.62 77.26, 36.84 49.56 M130.31 127.62 C103.11 102.42, 77.76 79.99, 39.35 44.76 M133.08 126.46 C112.73 96.12, 82.49 75.12, 46.68 43.68 M135.6 122.91 C106.93 101, 82.37 79.24, 44.67 44.64 M135.14 123.66 C117.01 102.87, 94.02 81.1, 41.84 42.01 M136.23 120.19 C117.66 101.1, 95.64 83.1, 43.68 38.66 M138.4 113.71 C117.92 97.81, 99.38 81.88, 51.36 39.95 M137.92 115.09 C115.26 97.82, 88.9 71.38, 50.11 38.11 M141.16 110.77 C122.06 93.99, 98.77 75.55, 51.76 35.54 M143.78 115.51 C113.4 91.6, 86.81 66.69, 52.09 34.7 M143.68 114.33 C122.17 88.09, 102.48 72.89, 51.51 35.76 M145.8 112.48 C116.57 86.8, 86.53 60.61, 56.14 31.43 M147.68 110.09 C120.7 85.42, 101.2 70.84, 59.07 26.89 M147.89 109.62 C120.46 83.85, 93.45 57.54, 58.67 29.41 M149.12 105.07 C128.18 85.1, 104.89 69.02, 58.34 23.46 M150.09 106.65 C123.24 78.92, 89.42 54.38, 60.97 25.37 M154.92 106.59 C124.26 79.01, 92.4 50.8, 65.47 23.3 M152.8 102.94 C123.01 76.86, 91.97 47.33, 61.49 23.12 M158.45 99.21 C134.45 79, 113.95 62.79, 65.56 18.54 M155.85 98.93 C124.41 71.79, 93.51 44.68, 64.05 21.12 M155.57 95.11 C141.46 75.02, 119.84 61.12, 68.18 20.55 M157.94 99.02 C121.08 69.12, 85.78 36.94, 68.88 17.91 M165.11 92.45 C128.98 68.63, 98.91 45.37, 67.38 14.35 M164.67 94.36 C134.04 70.76, 104.08 46.67, 72.09 14.96 M164.86 93.65 C140.69 71.77, 119.67 48.72, 70.17 12.86 M164.03 89.77 C136.89 65.82, 110.57 42.68, 73.69 11.55 M171.07 90.4 C130.07 59.13, 95.29 30.54, 80.51 11.35 M169.39 89.11 C151.83 70, 130.11 55.04, 77.06 7.57 M174.49 82.04 C153.13 73.14, 135.34 52.77, 82.88 4.32 M171.02 86.23 C147.19 65.71, 122.26 43.61, 79.99 4.98 M136.8 47.03 C120.52 33.18, 103.82 18.23, 82.92 4.57 M132.08 48.95 C116.91 33.91, 98.08 18.64, 82.9 3.38 M95.18 9.96 C93.93 6.76, 91.48 4.03, 84.56 -1.16 M96.27 10.39 C92.38 6.88, 90.83 4.36, 85.18 -0.17" stroke="#fa5252" stroke-width="0.5" fill="none"></path><path d="M85.32 1.82 C105.87 24.44, 128.72 43.53, 169.46 85.99 M87.2 1.66 C112.66 31.09, 140.16 59.49, 171.22 85.01 M172.79 86.47 C153.54 101.39, 133.44 123.32, 82.03 170.49 M171.31 86.56 C150.49 109.67, 127.94 132.68, 85.91 171.85 M89.04 170.37 C58.79 142.9, 24.05 109.59, -3.78 88.31 M86.76 172.57 C60.2 144.34, 35.82 117.83, 0.46 87.93 M3.8 89.83 C34.66 54.44, 62.31 21.67, 86.74 0.3 M-0.17 85.5 C29.75 56.41, 59.11 24.1, 87.92 0.57" stroke="#000000" stroke-width="1" fill="none"></path></g><g transform="translate(278 74.00000000000003) rotate(0 59 12)"><text x="59" y="19" font-family="Helvetica, Segoe UI Emoji" font-size="20px" fill="#000000" text-anchor="middle" style="white-space: pre;" direction="ltr">Gitops repo</text></g><g stroke-opacity="0.7" fill-opacity="0.7" transform="translate(324.5 134.00000000000003) rotate(0 11 9.5)"><text x="0" y="15" font-family="Helvetica, Segoe UI Emoji" font-size="16px" fill="#000000" text-anchor="start" style="white-space: pre;" direction="ltr">git</text></g><g stroke-opacity="0.7" fill-opacity="0.7" stroke-linecap="round" transform="translate(759 289) rotate(0 126.5 65.5)"><path d="M8.06 8.33 C8.06 8.33, 8.06 8.33, 8.06 8.33 M8.06 8.33 C8.06 8.33, 8.06 8.33, 8.06 8.33 M2.55 20.77 C11.61 12.9, 14.09 8.72, 18.95 1.9 M2.55 20.77 C4.87 14.66, 10.04 10.05, 18.95 1.9 M2.29 27.17 C9.86 14.8, 20.91 7.91, 24.6 1.51 M2.29 27.17 C7.74 21.5, 11.59 17.16, 24.6 1.51 M2.68 32.81 C11.78 23.71, 19.45 10.7, 30.9 0.36 M2.68 32.81 C10.16 23.26, 20.37 15.15, 30.9 0.36 M2.42 39.21 C12.88 23, 23.67 8.53, 34.57 2.23 M2.42 39.21 C11.95 29.07, 17.38 18.96, 34.57 2.23 M2.82 44.85 C13.09 34.64, 17.34 28.72, 40.21 1.83 M2.82 44.85 C17.66 31.74, 28.23 17.63, 40.21 1.83 M2.56 51.25 C15.72 28.56, 32.31 13.36, 45.2 2.19 M2.56 51.25 C13.34 38, 25.61 22.82, 45.2 2.19 M2.29 57.65 C18.33 46.36, 28.37 32.72, 50.84 1.8 M2.29 57.65 C18.12 43.24, 31.63 24.09, 50.84 1.8 M2.69 63.29 C18.66 44.36, 40.46 22.27, 55.83 2.16 M2.69 63.29 C22.7 36.62, 43.41 14.1, 55.83 2.16 M2.43 69.69 C27.88 47.8, 51.29 16.91, 61.47 1.76 M2.43 69.69 C17.81 49.43, 37.37 30.98, 61.47 1.76 M2.82 75.33 C24.89 55.34, 40.92 34.35, 66.46 2.12 M2.82 75.33 C26.07 47.79, 50.81 21.21, 66.46 2.12 M2.56 81.73 C22.8 61.32, 44.75 32.75, 72.1 1.73 M2.56 81.73 C29.42 50.05, 55.86 21.52, 72.1 1.73 M2.3 88.12 C18.2 69.01, 32.92 54.27, 77.09 2.09 M2.3 88.12 C30.34 55.98, 55.84 28.72, 77.09 2.09 M2.69 93.77 C30.54 64.6, 63.85 30.67, 82.73 1.69 M2.69 93.77 C30.85 60.77, 53.94 30.7, 82.73 1.69 M2.43 100.17 C27.51 67.32, 58.19 36.64, 87.72 2.05 M2.43 100.17 C31.67 65.52, 60.54 32.8, 87.72 2.05 M1.52 107.32 C30.11 75.08, 51.11 48.26, 93.36 1.66 M1.52 107.32 C24.17 83.79, 49.7 54.11, 93.36 1.66 M3.22 111.45 C27.72 82.2, 57.21 55.14, 98.35 2.02 M3.22 111.45 C32.82 76.79, 62.91 41.34, 98.35 2.02 M4.93 115.59 C26.97 89.42, 48.91 71.9, 103.99 1.62 M4.93 115.59 C36.3 79.73, 67.06 42.84, 103.99 1.62 M6.64 119.72 C40.74 84.74, 72.41 45.8, 108.98 1.98 M6.64 119.72 C40.61 84.28, 69.88 50.14, 108.98 1.98 M9.65 122.34 C48.86 78.15, 91.72 33.29, 114.62 1.59 M9.65 122.34 C38.14 96.23, 62.69 64.74, 114.62 1.59 M12.02 125.72 C52.5 81.83, 83.05 43.76, 119.61 1.95 M12.02 125.72 C38.38 94.44, 69.93 62.91, 119.61 1.95 M15.04 128.35 C50.26 95.62, 82.21 57.77, 125.25 1.56 M15.04 128.35 C43.19 93.85, 72.53 60.55, 125.25 1.56 M19.37 129.46 C47.14 93.13, 81.65 56.8, 130.24 1.92 M19.37 129.46 C52.43 90.92, 86.12 55.29, 130.24 1.92 M23.7 130.58 C51.33 107.23, 73.36 78.76, 135.88 1.52 M23.7 130.58 C54.85 96.43, 89.14 59.99, 135.88 1.52 M28.03 131.69 C54.47 101.46, 84.61 68.13, 140.87 1.88 M28.03 131.69 C72.52 84.85, 112 36.64, 140.87 1.88 M33.67 131.3 C58.31 102.55, 88.1 71.18, 146.51 1.49 M33.67 131.3 C73.43 84.36, 118.75 34.69, 146.51 1.49 M38.66 131.66 C77.91 81.59, 124.02 33.29, 151.5 1.85 M38.66 131.66 C61.64 104.26, 84.86 75.78, 151.5 1.85 M44.3 131.26 C80.02 92.31, 122.41 46.68, 156.49 2.21 M44.3 131.26 C75.13 91.89, 106.46 56.07, 156.49 2.21 M49.29 131.62 C80.31 91.22, 118.15 56.65, 162.13 1.81 M49.29 131.62 C74.29 102.9, 98.83 77.7, 162.13 1.81 M54.93 131.23 C96.19 76.87, 138.89 28.72, 167.12 2.17 M54.93 131.23 C87.2 90.28, 122.92 53.3, 167.12 2.17 M59.92 131.59 C100.35 91.74, 130.05 49.7, 172.76 1.78 M59.92 131.59 C93.62 91.38, 129.1 48.17, 172.76 1.78 M64.91 131.95 C84.89 103.66, 109.35 78.84, 177.75 2.14 M64.91 131.95 C88.88 105.41, 111.21 78.07, 177.75 2.14 M70.55 131.55 C101.22 91.07, 137.5 52.97, 183.39 1.74 M70.55 131.55 C110.76 84.91, 152.96 36.96, 183.39 1.74 M75.54 131.91 C97.14 101.48, 123.49 75.57, 188.38 2.1 M75.54 131.91 C105.07 96.07, 137.45 60.96, 188.38 2.1 M81.18 131.52 C114.95 99.89, 147.54 64.43, 194.02 1.71 M81.18 131.52 C111.82 90.8, 147.38 55.3, 194.02 1.71 M86.17 131.88 C123.74 85.49, 161.73 41.33, 199.01 2.07 M86.17 131.88 C124.5 89.12, 165.22 47.2, 199.01 2.07 M91.81 131.48 C127.64 94.96, 156.58 54.74, 204.65 1.67 M91.81 131.48 C113.48 102.47, 136.58 77.96, 204.65 1.67 M96.8 131.84 C129.75 96.47, 159.25 65.05, 209.64 2.03 M96.8 131.84 C131.79 88, 166.47 52.2, 209.64 2.03 M102.44 131.45 C144.85 85.26, 190.36 31.42, 215.28 1.64 M102.44 131.45 C126.19 103.5, 155.27 71.23, 215.28 1.64 M107.43 131.81 C130.78 99.81, 163.53 62.83, 220.92 1.24 M107.43 131.81 C132.62 103.14, 155.06 75.63, 220.92 1.24 M113.07 131.42 C148.82 84.32, 184.08 47.11, 225.91 1.61 M113.07 131.42 C147.03 88.44, 180.33 49.7, 225.91 1.61 M118.06 131.78 C155.1 88.05, 198.54 43.5, 230.24 2.72 M118.06 131.78 C144.16 100.88, 172.28 71.27, 230.24 2.72 M123.7 131.38 C169.58 82.39, 214.9 28.78, 234.57 3.83 M123.7 131.38 C145.13 102.47, 166.41 78.44, 234.57 3.83 M128.69 131.74 C158.87 106.7, 182.22 75.92, 238.9 4.95 M128.69 131.74 C170.09 80.14, 212.53 32.35, 238.9 4.95 M134.33 131.35 C164.46 92.13, 199.23 54.3, 242.58 6.82 M134.33 131.35 C165.48 97.85, 190.33 66.53, 242.58 6.82 M139.32 131.71 C168.35 98.54, 194.71 62.62, 245.6 9.44 M139.32 131.71 C170.25 101.69, 196.2 68.24, 245.6 9.44 M144.96 131.31 C171.22 97.39, 203.29 71.41, 248.62 12.07 M144.96 131.31 C174.22 99.21, 202.71 63.04, 248.62 12.07 M149.95 131.67 C182.23 95.68, 215.26 53.46, 250.98 15.45 M149.95 131.67 C183.18 93.91, 218.78 52.41, 250.98 15.45 M155.59 131.28 C180.27 103.49, 196 80.27, 252.69 19.58 M155.59 131.28 C175.33 106.66, 198.09 84.37, 252.69 19.58 M160.58 131.64 C181.5 109.19, 204.22 87.81, 253.08 25.22 M160.58 131.64 C184.39 103.63, 205.76 78.09, 253.08 25.22 M166.22 131.24 C196.89 94.61, 228.14 60.88, 252.82 31.62 M166.22 131.24 C196.56 98.98, 224.14 63.81, 252.82 31.62 M171.21 131.6 C197.04 103.14, 223 72.79, 253.21 37.26 M171.21 131.6 C192.36 108.43, 215.09 84.64, 253.21 37.26 M176.85 131.21 C202.26 100.71, 224.28 76.09, 252.95 43.66 M176.85 131.21 C204.22 98.68, 233.19 67.18, 252.95 43.66 M181.84 131.57 C198.88 111.43, 213.09 96.87, 253.35 49.3 M181.84 131.57 C206.88 99.62, 237.37 66.77, 253.35 49.3 M186.82 131.93 C211.78 105.71, 235.52 75.74, 253.09 55.7 M186.82 131.93 C202.79 112.36, 220 97.65, 253.09 55.7 M192.47 131.53 C205.78 108.22, 221.86 96.68, 253.48 61.35 M192.47 131.53 C205.67 114.41, 217.75 101.17, 253.48 61.35 M197.45 131.89 C214.15 110.97, 228.9 96.22, 253.22 67.74 M197.45 131.89 C214.22 115.41, 233.78 93.3, 253.22 67.74 M203.1 131.5 C211.38 120.63, 225.88 107.57, 252.96 74.14 M203.1 131.5 C221.7 110.25, 236.14 93.9, 252.96 74.14 M208.08 131.86 C219.9 118.09, 236.78 103.82, 253.35 79.78 M208.08 131.86 C221.56 116.5, 234.05 103.27, 253.35 79.78 M213.73 131.46 C226.78 121.56, 235.39 105.52, 253.09 86.18 M213.73 131.46 C227.35 117.82, 241.88 100.81, 253.09 86.18 M218.71 131.82 C230.76 114.87, 240.27 103, 253.49 91.83 M218.71 131.82 C231.84 116.73, 246.33 102.61, 253.49 91.83 M223.05 132.94 C228.31 120.41, 240.53 115.05, 253.22 98.22 M223.05 132.94 C230.5 119.8, 241.15 111.31, 253.22 98.22 M228.69 132.55 C233.37 125.72, 243.76 121.93, 250.99 106.88 M228.69 132.55 C236.82 124.46, 243.36 114.4, 250.99 106.88 M236.3 129.89 C239.12 129.19, 242.52 126.37, 249.42 114.79 M236.3 129.89 C238.08 125.19, 239.99 125.45, 249.42 114.79" stroke="#15aabf" stroke-width="0.5" fill="none"></path><path d="M32.75 0 M32.75 0 C101.54 2.6, 169.3 3.68, 220.25 0 M32.75 0 C103.19 -3.49, 175.35 -4.1, 220.25 0 M220.25 0 C243.9 -2.54, 256.22 8.14, 253 32.75 M220.25 0 C240.49 -3.61, 252.78 12.47, 253 32.75 M253 32.75 C255.53 52.06, 255.26 66.18, 253 98.25 M253 32.75 C252.85 59.26, 255.96 83.78, 253 98.25 M253 98.25 C256.79 121.14, 242.32 133.07, 220.25 131 M253 98.25 C254.05 117.41, 238.07 131.49, 220.25 131 M220.25 131 C160.84 127.45, 94.29 131.05, 32.75 131 M220.25 131 C156.63 131.64, 93.5 133.83, 32.75 131 M32.75 131 C9.99 129.01, -2.14 120.73, 0 98.25 M32.75 131 C10.98 129.96, 0.31 116.08, 0 98.25 M0 98.25 C-0.42 70.16, -0.27 43.92, 0 32.75 M0 98.25 C0.09 74.56, 2.87 53.52, 0 32.75 M0 32.75 C2.05 13.39, 11.03 -0.07, 32.75 0 M0 32.75 C0.86 8.57, 14.9 -3.07, 32.75 0" stroke="#000000" stroke-width="1" fill="none"></path></g><g transform="translate(823 342.5) rotate(0 62.5 12)"><text x="62.5" y="19" font-family="Helvetica, Segoe UI Emoji" font-size="20px" fill="#000000" text-anchor="middle" style="white-space: pre;" direction="ltr">Gimlet Dash</text></g><g stroke-opacity="0.7" fill-opacity="0.7" stroke-linecap="round" transform="translate(422.5 346.5) rotate(0 64 35.5)"><path d="M2.23 7.24 C2.23 7.24, 2.23 7.24, 2.23 7.24 M2.23 7.24 C2.23 7.24, 2.23 7.24, 2.23 7.24 M1.31 14.39 C3.81 12.02, 4.18 9.77, 9.84 4.58 M1.31 14.39 C4.83 10.35, 8.02 6.29, 9.84 4.58 M1.05 20.79 C7.18 10.91, 14.27 3.98, 18.77 0.41 M1.05 20.79 C5.15 15.79, 8.36 12.66, 18.77 0.41 M1.45 26.43 C8.48 17.89, 14.55 9.92, 23.75 0.77 M1.45 26.43 C8.56 20.36, 14.09 13.64, 23.75 0.77 M1.18 32.83 C11.17 22.81, 17.48 12.77, 29.4 0.38 M1.18 32.83 C9.49 23.4, 16.92 14.16, 29.4 0.38 M1.58 38.47 C11.23 24.61, 20.61 12.38, 34.38 0.74 M1.58 38.47 C13.72 25.42, 25.78 10.31, 34.38 0.74 M1.32 44.87 C13.78 32.56, 24.13 17.33, 40.03 0.34 M1.32 44.87 C8.78 35.91, 17.2 26.79, 40.03 0.34 M1.06 51.27 C13.03 37.56, 25.31 21.87, 45.01 0.7 M1.06 51.27 C17.42 33.21, 34.41 13.25, 45.01 0.7 M0.79 57.67 C15.39 43.28, 26.5 27.53, 50.66 0.31 M0.79 57.67 C14.17 42.86, 29.16 26.52, 50.66 0.31 M1.85 62.55 C13.63 45.77, 27.47 29.92, 55.64 0.67 M1.85 62.55 C17.7 44.02, 33.16 27.21, 55.64 0.67 M4.21 65.93 C21.2 45.44, 40.16 24.51, 60.63 1.03 M4.21 65.93 C24.7 43.27, 44.8 19.28, 60.63 1.03 M7.23 68.56 C24.97 47.83, 40.33 27.63, 66.27 0.63 M7.23 68.56 C30.01 40.72, 54.2 15.25, 66.27 0.63 M11.56 69.67 C33.92 45.88, 54.23 19.59, 71.26 0.99 M11.56 69.67 C34.97 42.32, 58.78 15.95, 71.26 0.99 M15.89 70.79 C33.71 47.5, 55.1 28.74, 76.9 0.6 M15.89 70.79 C31.1 52.24, 47.32 33.86, 76.9 0.6 M19.56 72.66 C43.04 45.13, 61.76 19.8, 81.89 0.96 M19.56 72.66 C43.5 46.22, 67.37 19.82, 81.89 0.96 M25.21 72.26 C48.99 47.98, 68.12 22.79, 87.53 0.57 M25.21 72.26 C47.47 48.89, 67.98 25.16, 87.53 0.57 M30.19 72.62 C45.85 55.14, 56.83 43.4, 92.52 0.93 M30.19 72.62 C53.83 43.86, 78.35 15.78, 92.52 0.93 M35.18 72.98 C58.77 45.63, 80.54 19.43, 98.16 0.53 M35.18 72.98 C57.53 45.85, 82.08 18.2, 98.16 0.53 M40.82 72.59 C63.04 49, 82.72 22.94, 103.15 0.89 M40.82 72.59 C56.85 53.62, 73.34 36.33, 103.15 0.89 M45.81 72.95 C57.69 57.1, 74.59 42.96, 108.79 0.5 M45.81 72.95 C71.03 43.75, 94.09 15.57, 108.79 0.5 M51.45 72.55 C66.76 54.23, 81.56 38.45, 112.47 2.37 M51.45 72.55 C64.62 55.74, 78.13 40.4, 112.47 2.37 M56.44 72.91 C73.8 52.5, 93.7 30.59, 116.8 3.48 M56.44 72.91 C76.89 50.48, 94.16 27.85, 116.8 3.48 M62.08 72.52 C75.64 58.19, 87.38 45.63, 122.44 3.09 M62.08 72.52 C78.09 55.19, 94.66 35.33, 122.44 3.09 M67.07 72.88 C84.38 54.92, 100.7 36.72, 124.8 6.47 M67.07 72.88 C87.88 49.65, 107.58 27.03, 124.8 6.47 M72.71 72.48 C89.32 51.25, 106.95 32.64, 127.82 9.09 M72.71 72.48 C84.27 58.17, 98.47 43.29, 127.82 9.09 M77.7 72.84 C96.98 48.8, 117.64 27.7, 128.87 13.98 M77.7 72.84 C98.57 48.98, 117.57 26.45, 128.87 13.98 M83.34 72.45 C95.08 58.37, 107.97 45.01, 128.61 20.38 M83.34 72.45 C96.57 59.45, 107.82 46.06, 128.61 20.38 M88.33 72.81 C100.06 57.39, 113.94 46.09, 128.35 26.77 M88.33 72.81 C97.78 61.94, 106.19 52.8, 128.35 26.77 M93.97 72.42 C100.76 63.67, 110.22 55.11, 128.75 32.42 M93.97 72.42 C106.41 57.26, 119.14 41.83, 128.75 32.42 M98.96 72.78 C108.36 63.87, 114.28 53.07, 128.48 38.81 M98.96 72.78 C108.06 62.96, 117.43 50.68, 128.48 38.81 M104.6 72.38 C109.99 66.46, 115.59 57.7, 128.88 44.46 M104.6 72.38 C112.38 64.13, 118.46 56.12, 128.88 44.46 M110.9 71.23 C115.26 66.82, 120.59 61.19, 128.62 50.85 M110.9 71.23 C114.91 67.74, 118.71 63.46, 128.62 50.85 M117.2 70.08 C121.53 64.07, 127.88 59.55, 130.32 54.99 M117.2 70.08 C123.26 64.41, 127.13 57.95, 130.32 54.99" stroke="#15aabf" stroke-width="0.5" fill="none"></path><path d="M17.75 0 M17.75 0 C46.13 -0.59, 74.71 -1.25, 110.25 0 M17.75 0 C51.13 -0.4, 84.47 -0.11, 110.25 0 M110.25 0 C122.36 0.44, 129.9 7.17, 128 17.75 M110.25 0 C123.55 1.31, 127.76 7.89, 128 17.75 M128 17.75 C128.66 26.17, 129.06 39.45, 128 53.25 M128 17.75 C127.91 27.1, 129.34 36.23, 128 53.25 M128 53.25 C129.08 65.3, 121.87 69.88, 110.25 71 M128 53.25 C130.19 66.95, 121.05 69.31, 110.25 71 M110.25 71 C89.59 73.64, 67.93 72.21, 17.75 71 M110.25 71 C75.52 71.06, 40.05 71.59, 17.75 71 M17.75 71 C6.35 72.97, 1.18 63.17, 0 53.25 M17.75 71 C7.92 69.6, -0.46 64.05, 0 53.25 M0 53.25 C-1.14 46.94, -1.79 39.7, 0 17.75 M0 53.25 C-0.3 38.28, -0.35 25.88, 0 17.75 M0 17.75 C-1.64 5.47, 6.92 -1.45, 17.75 0 M0 17.75 C1.32 5.49, 7.7 -0.86, 17.75 0" stroke="#000000" stroke-width="1" fill="none"></path></g><g transform="translate(432 372.5) rotate(0 53.5 9.5)"><text x="53.5" y="15" font-family="Helvetica, Segoe UI Emoji" font-size="16px" fill="#000000" text-anchor="middle" style="white-space: pre;" direction="ltr">Gimlet Agent</text></g><g stroke-opacity="0.7" fill-opacity="0.7" stroke-linecap="round" transform="translate(1002.3981536515228 447.682261347251) rotate(0 87 86.99999999999997)"><path d="M-0.22 87.26 C-0.22 87.26, -0.22 87.26, -0.22 87.26 M-0.22 87.26 C-0.22 87.26, -0.22 87.26, -0.22 87.26 M5.83 88.08 C12.35 80.08, 17.13 73.13, 40.83 47.73 M4.26 90.51 C15.86 75.22, 27.03 60.81, 42.67 46.37 M9.1 92.33 C25.33 75.07, 43.82 50.61, 79.77 8.62 M4.49 91.92 C30.41 68.19, 51.51 41.01, 82.24 4.18 M6.01 93.1 C29.64 73.14, 50.5 45.72, 89.4 1.62 M7.08 94.24 C30.9 66.95, 49.33 44.64, 89.1 0.76 M10.34 95.39 C41.92 59.64, 76.97 28.64, 93.59 6.04 M12.66 98.47 C36.7 70.38, 62.75 40.39, 92.92 5.69 M15.14 101.18 C42.77 68.63, 74.5 26.78, 92.86 4.27 M13.91 101.01 C36.52 75.95, 62.01 49.34, 97.3 5.59 M17.75 100.93 C34.93 85.58, 55.46 57.7, 101.07 14.74 M17.17 104.64 C37.67 80.8, 60.16 57.15, 97.07 12.52 M18.8 106.29 C37.79 84.98, 55.13 70.19, 102.36 13.83 M17.89 106.78 C43.84 83.6, 66.09 55.61, 99.63 13.39 M21.17 110.91 C49.45 83.75, 73.65 48.45, 100.17 15.39 M24.07 111.75 C48.68 77.08, 78.65 43.92, 102.5 17.06 M23.05 113.88 C42.12 91.98, 62.7 68.84, 108.23 23.51 M25.89 113.76 C47.71 90.47, 69.87 64.42, 104.83 18.49 M25.58 111.78 C54.02 94.73, 72.6 69.45, 109.5 25.21 M27.78 116.4 C56.31 79.28, 85.72 44.82, 110.86 23.04 M28.5 119.17 C62.59 82.51, 89.59 50.23, 113.28 22.01 M32.6 116.66 C58.54 84.7, 86.92 53.21, 111.43 25.46 M37.83 120.53 C59.28 87.15, 92.72 51.52, 114.79 29.9 M33.83 120.41 C51.42 100.96, 67.92 81.07, 116.19 29.4 M34.87 125.85 C68.01 88.53, 95.68 55.42, 114.87 27.82 M37.06 125.42 C68.81 91.45, 96.15 56.78, 117.72 31.39 M39.24 123.35 C59.5 99.2, 90.93 71.01, 119.63 29.68 M39.49 125.61 C59.09 102.08, 82.06 78.19, 119.68 32.36 M43.77 128.16 C71.88 93.44, 102.71 61.52, 125.48 35.87 M41.43 131.27 C67.05 103.63, 91.41 73.27, 122.37 36.61 M47.64 133.95 C68.81 104.53, 92.39 74.89, 126.1 42.01 M43.78 132.09 C61.34 110.59, 78.83 93.09, 126.2 40.12 M47.92 136.8 C82.26 100.35, 108.01 70.01, 127.45 39.65 M48.25 136.65 C76.06 102.22, 108.33 65.78, 131.16 42.71 M51.37 139.8 C63.92 122.07, 83.82 94.62, 132.77 47.84 M49.48 136.42 C72.4 114.31, 95.11 86.21, 130.38 43.14 M49.93 136.98 C83.3 108.05, 109.77 78.34, 134.26 49.09 M55.19 141.27 C85.89 108.54, 116.06 73.14, 134.27 46.52 M53.91 144.85 C80.85 114.61, 101.47 93.49, 140.74 49.89 M55.76 142.45 C75.77 125.22, 92.44 104.89, 138.66 52.37 M58.86 147.15 C84.34 120.34, 104.79 90.73, 137.27 56.68 M59.64 148.85 C93.21 109.24, 122.12 76.24, 140.98 54.11 M60.61 151.57 C83.2 123.44, 101.06 103.52, 142.23 59.37 M60.91 151.25 C83.8 128, 104.02 103.94, 141.81 54.03 M64.28 149.29 C93.29 124.32, 112.34 93.66, 142.29 56.11 M64.74 153.33 C99.58 114.05, 128.51 78.41, 144.32 59.57 M67.95 154.92 C81.35 134.88, 99 116.45, 147.35 61.99 M67.61 155.15 C94.74 124.98, 120.34 96.09, 149.77 63.57 M74.3 155.1 C89.38 135.24, 106.18 114.26, 151.64 60.6 M69.41 157.18 C98.42 123.39, 122.75 92.91, 151.04 63.24 M74.28 164.37 C93.21 132.26, 119.67 111.43, 157.32 67.97 M73.64 159.75 C102.35 131.8, 125.73 101.92, 156.81 67.69 M80.14 160.78 C99.37 139.46, 121.78 106.91, 154.18 73.11 M76.93 162.1 C93.05 144.26, 109.72 123.05, 155.69 69.94 M77.08 165.86 C96.06 144.72, 120.21 119.95, 159.25 70 M81.18 165.85 C111.14 126.12, 142.97 92.78, 160.37 74.36 M82.91 169.07 C108.63 137.79, 129.17 110.44, 161.88 73.1 M81.73 171.04 C111.55 134.29, 142.11 99.67, 165.18 75.75 M83.7 175.86 C110.07 149.28, 125.23 125.15, 163.36 77.31 M83.51 171.57 C108.56 147.02, 128.07 124.81, 166.23 78.78 M90.83 175.16 C110.2 151.47, 127.87 127.05, 172.6 78.53 M86.6 174.22 C110.8 149.97, 127.9 128.99, 169.56 82.02 M130.01 136.32 C147.13 120.07, 160.24 101.5, 173.76 81.6 M127.71 135.19 C142.23 116.29, 156.7 102.81, 171.31 85.41" stroke="#fa5252" stroke-width="0.5" fill="none"></path><path d="M83.6 3.94 C106.26 20.67, 121.85 39.72, 171.6 84.62 M88.12 -0.61 C107.54 22.65, 133.16 48.65, 175.02 87.84 M172.44 83.26 C154.23 111.28, 137.62 125.22, 89.68 170.98 M174.73 85.99 C149.39 106.95, 129.51 130.84, 85.94 173.93 M84.93 173.07 C52.66 141.65, 22.43 107.96, 0.95 83.62 M86.48 173.34 C56.29 142.79, 28.23 112.3, 0.16 87.83 M-1.9 88.53 C32.15 58.39, 66.6 21.96, 87.98 0.67 M-1.38 88.99 C22.34 64.2, 45.67 39.05, 86.9 0.86" stroke="#000000" stroke-width="1" fill="none"></path></g><g transform="translate(1023.3981536515228 516.1822613472509) rotate(0 67 9.5)"><text x="67" y="15" font-family="Helvetica, Segoe UI Emoji" font-size="16px" fill="#000000" text-anchor="middle" style="white-space: pre;" direction="ltr">Application repo</text></g><g stroke-opacity="0.7" fill-opacity="0.7" transform="translate(1077.5 581) rotate(0 11 9.5)"><text x="0" y="15" font-family="Helvetica, Segoe UI Emoji" font-size="16px" fill="#000000" text-anchor="start" style="white-space: pre;" direction="ltr">git</text></g><g stroke-linecap="round"><g transform="translate(636.5 600.5) rotate(0 0.7145163430319599 -216.79160550185014)"><path d="M0.79 -0.94 C1.02 -73.38, 1.45 -362.54, 1.68 -434.76 M-0.25 1.17 C-0.19 -71.08, 0.57 -361.08, 0.91 -433.42" stroke="#000000" stroke-width="1" fill="none"></path></g><g transform="translate(636.5 600.5) rotate(0 0.7145163430319599 -216.79160550185014)"><path d="M9.5 -404.63 C7.13 -413.06, 4.64 -423.13, 1.38 -431.99 M11.1 -406.03 C8.09 -415.4, 4.96 -424.91, 1.47 -433" stroke="#000000" stroke-width="1" fill="none"></path></g><g transform="translate(636.5 600.5) rotate(0 0.7145163430319599 -216.79160550185014)"><path d="M-11.02 -404.7 C-6.65 -413.24, -2.39 -423.29, 1.38 -431.99 M-9.42 -406.1 C-5.26 -415.4, -1.22 -424.89, 1.47 -433" stroke="#000000" stroke-width="1" fill="none"></path></g></g><g stroke-linecap="round"><g transform="translate(809.5 664.5) rotate(0 103.93118215419827 -46.23912871778009)"><path d="M0.91 0.86 C35.37 -14.61, 173.5 -77.67, 207.93 -93.34 M-0.07 0.27 C34.12 -14.98, 172.52 -76.62, 206.94 -91.98" stroke="#000000" stroke-width="1" fill="none"></path></g><g transform="translate(809.5 664.5) rotate(0 103.93118215419827 -46.23912871778009)"><path d="M186.8 -71.25 C193.52 -80.45, 202.47 -89.04, 206.85 -92.48 M184.47 -71.38 C192.97 -77.77, 200.3 -84.46, 206.99 -92.72" stroke="#000000" stroke-width="1" fill="none"></path></g><g transform="translate(809.5 664.5) rotate(0 103.93118215419827 -46.23912871778009)"><path d="M178.45 -89.99 C188.42 -91.76, 200.71 -92.86, 206.85 -92.48 M176.12 -90.12 C187.58 -90.17, 197.72 -90.57, 206.99 -92.72" stroke="#000000" stroke-width="1" fill="none"></path></g></g><g stroke-linecap="round"><g transform="translate(802.5 577.5) rotate(0 1.0148164150165258 -85.65240575373173)"><path d="M1.01 -0.15 C0.9 -28.76, 0.02 -142.6, -0.06 -171.15 M0.09 -1.27 C0.28 -29.75, 2.19 -141.51, 2.09 -169.7" stroke="#000000" stroke-width="1" fill="none"></path></g><g transform="translate(802.5 577.5) rotate(0 1.0148164150165258 -85.65240575373173)"><path d="M11.87 -143.2 C8.23 -152.06, 4.17 -162.7, 0.93 -169.91 M12.19 -141.69 C8.51 -151.1, 3.89 -161.35, 1.57 -169.56" stroke="#000000" stroke-width="1" fill="none"></path></g><g transform="translate(802.5 577.5) rotate(0 1.0148164150165258 -85.65240575373173)"><path d="M-8.65 -143.36 C-5.11 -152.34, -1.98 -162.92, 0.93 -169.91 M-8.33 -141.85 C-4.54 -151.05, -1.68 -161.25, 1.57 -169.56" stroke="#000000" stroke-width="1" fill="none"></path></g></g><g stroke-linecap="round"><g transform="translate(967.5 409.5) rotate(0 36.89009896226685 36.247007586951355)"><path d="M0.44 -0.04 C12.96 12.25, 62.43 61.35, 74.57 73.6 M-0.79 -1.11 C11.69 10.85, 61.85 59.81, 74.04 71.9" stroke="#000000" stroke-width="1" fill="none"></path></g><g transform="translate(967.5 409.5) rotate(0 36.89009896226685 36.247007586951355)"><path d="M46.67 60.77 C54.97 61.72, 61.64 66.4, 74.71 71.48 M47.69 59.7 C53.29 61.09, 58.87 63.68, 73.53 72.85" stroke="#000000" stroke-width="1" fill="none"></path></g><g transform="translate(967.5 409.5) rotate(0 36.89009896226685 36.247007586951355)"><path d="M61.05 46.14 C65.7 50.84, 68.73 59.22, 74.71 71.48 M62.07 45.06 C64.58 49.76, 67.04 55.52, 73.53 72.85" stroke="#000000" stroke-width="1" fill="none"></path></g></g><g stroke-linecap="round"><g transform="translate(536.5 401.5) rotate(0 120.0869078658568 -2.4123674541711893)"><path d="M-0.22 -0.44 C39.91 -1.18, 201.86 -3.6, 241.98 -4.39 M-1.8 -1.72 C38.17 -2.29, 201.34 -2.59, 241.54 -3.05" stroke="#000000" stroke-width="1" fill="none"></path></g><g transform="translate(536.5 401.5) rotate(0 120.0869078658568 -2.4123674541711893)"><path d="M212.68 9.01 C223.87 2.39, 233.68 -0.29, 241 -2.73 M213.9 6.5 C224.27 4.36, 234.89 -1.05, 241.58 -2.36" stroke="#000000" stroke-width="1" fill="none"></path></g><g transform="translate(536.5 401.5) rotate(0 120.0869078658568 -2.4123674541711893)"><path d="M212.56 -11.51 C223.8 -10.03, 233.66 -4.61, 241 -2.73 M213.77 -14.02 C224.12 -8.41, 234.78 -6.06, 241.58 -2.36" stroke="#000000" stroke-width="1" fill="none"></path></g></g><g stroke-linecap="round"><g transform="translate(791.5 297.5) rotate(0 0.6813954979181744 -65.93768230222632)"><path d="M-0.57 1.19 C-0.12 -20.78, 1.84 -109.05, 1.93 -131.31 M1.34 0.77 C1.78 -21.58, 1.31 -111.07, 1.47 -133.07" stroke="#000000" stroke-width="1" fill="none"></path></g><g transform="translate(791.5 297.5) rotate(0 0.6813954979181744 -65.93768230222632)"><path d="M13.7 -103.32 C10.34 -113.3, 6.17 -120.08, 2.16 -133.66 M12.32 -105.27 C10.02 -112.18, 6.55 -120.74, 2.2 -133.06" stroke="#000000" stroke-width="1" fill="none"></path></g><g transform="translate(791.5 297.5) rotate(0 0.6813954979181744 -65.93768230222632)"><path d="M-6.82 -103.33 C-5.35 -113.21, -4.68 -119.99, 2.16 -133.66 M-8.2 -105.28 C-5.01 -112.15, -2.98 -120.71, 2.2 -133.06" stroke="#000000" stroke-width="1" fill="none"></path></g></g><g stroke-linecap="round"><g transform="translate(592.5 86.50000000000003) rotate(0 -84.93263524158863 -0.6457467222306903)"><path d="M-1.05 -0.5 C-29.21 -0.51, -141.48 -0.86, -169.69 -1.01 M0.61 -1.81 C-27.63 -1.53, -141.84 0.26, -170.47 0.52" stroke="#000000" stroke-width="1" fill="none"></path></g><g transform="translate(592.5 86.50000000000003) rotate(0 -84.93263524158863 -0.6457467222306903)"><path d="M-143.25 -9.58 C-149.34 -8.2, -156.8 -5.56, -169.32 0.34 M-143.22 -10.96 C-147.42 -8.51, -153.95 -5.4, -170.95 1.24" stroke="#000000" stroke-width="1" fill="none"></path></g><g transform="translate(592.5 86.50000000000003) rotate(0 -84.93263524158863 -0.6457467222306903)"><path d="M-142.99 10.94 C-148.98 7.32, -156.5 4.98, -169.32 0.34 M-142.96 9.56 C-147.07 7.75, -153.66 6.6, -170.95 1.24" stroke="#000000" stroke-width="1" fill="none"></path></g></g><g transform="translate(504.5 60.00000000000003) rotate(0 8 9.5)"><text x="0" y="15" font-family="Helvetica, Segoe UI Emoji" font-size="16px" fill="#000000" text-anchor="start" style="white-space: pre;" direction="ltr">3)</text></g><g transform="translate(645.5 505) rotate(0 8 9.5)"><text x="0" y="15" font-family="Helvetica, Segoe UI Emoji" font-size="16px" fill="#000000" text-anchor="start" style="white-space: pre;" direction="ltr">4)</text></g><g transform="translate(808.5 478) rotate(0 8 9.5)"><text x="0" y="15" font-family="Helvetica, Segoe UI Emoji" font-size="16px" fill="#000000" text-anchor="start" style="white-space: pre;" direction="ltr">5)</text></g><g transform="translate(927.5 582) rotate(0 8 9.5)"><text x="0" y="15" font-family="Helvetica, Segoe UI Emoji" font-size="16px" fill="#000000" text-anchor="start" style="white-space: pre;" direction="ltr">6)</text></g><g transform="translate(711.5 375) rotate(0 8 9.5)"><text x="0" y="15" font-family="Helvetica, Segoe UI Emoji" font-size="16px" fill="#000000" text-anchor="start" style="white-space: pre;" direction="ltr">7)</text></g><g transform="translate(1009.3930641815066 427.4011055067182) rotate(0 8 9.5)"><text x="8" y="15" font-family="Helvetica, Segoe UI Emoji" font-size="16px" fill="#000000" text-anchor="middle" style="white-space: pre;" direction="ltr">8)</text></g><g transform="translate(798.5 211.00000000000003) rotate(0 8 9.5)"><text x="0" y="15" font-family="Helvetica, Segoe UI Emoji" font-size="16px" fill="#000000" text-anchor="start" style="white-space: pre;" direction="ltr">9)</text></g></svg>