<svg viewBox="114.40736040609136 346.20000000000005 215.86294416243658 238.0124999999999" xmlns="http://www.w3.org/2000/svg" overflow="visible" xmlns:xlink="http://www.w3.org/1999/xlink" width="215.86294416243658px" height="238.0124999999999px"><g id="Master/Character/Sitting On Floor" stroke="none" stroke-width="1" fill="none" fill-rule="evenodd"><g id="Sitting Body/On Floor" transform="translate(14.000000, 367.000000) scale(1 1)"><g id="Sitting Body/On Floor/SItting with notebook" stroke="none" stroke-width="1" fill="none" fill-rule="evenodd"><g id="Group-34" transform="translate(104.000000, 29.000000)"><g id="Group-3" transform="translate(0.000000, 0.846000)" fill="#331c55"><path d="M65.7538,69.8875 L65.3028,69.7145 C64.5058,71.3355 63.7008,72.9515 62.9198,74.5795 C62.6028,75.2415 62.6638,75.8405 63.4408,76.1305 C64.2738,76.4415 64.6088,75.9305 64.7468,75.2245 C65.0928,73.4475 65.4198,71.6665 65.7538,69.8875 M50.9518,169.3415 C54.2078,169.4845 62.9618,166.5645 64.3728,164.9455 C62.3798,163.9085 60.4188,162.8885 58.1688,161.7185 C56.7048,165.1295 54.1258,167.3285 50.9518,169.3415 M138.9968,156.3715 C135.3868,154.7215 134.5658,155.1835 134.6108,158.8965 C134.6698,163.6665 134.8418,168.4355 134.9928,173.2035 C135.0198,174.0345 134.8458,175.1995 136.1408,175.1495 C137.4188,175.1005 137.1018,173.9205 137.1948,173.1075 C137.6248,169.3965 138.0498,165.6845 138.4548,161.9715 C138.6608,160.0875 138.8218,158.1985 138.9968,156.3715 M44.8808,153.4475 C44.3338,158.9435 44.0068,163.8645 45.1598,168.9665 C47.9588,168.1715 50.1868,166.9555 52.1228,165.2755 C53.2548,164.2925 54.2318,163.1105 55.1708,161.9315 C55.9038,161.0135 55.6758,160.1715 54.6318,159.5465 C53.3328,158.7675 52.0638,157.9355 50.7788,157.1305 C48.9708,155.9985 47.1598,154.8695 44.8808,153.4475 M133.1118,94.3885 C130.8968,94.5495 129.1588,94.7375 127.4168,94.7925 C116.7278,95.1315 106.0368,95.4545 95.3468,95.7545 C86.7288,95.9955 78.1098,96.1935 69.4918,96.4245 C68.9968,96.4385 68.5048,96.5905 68.0118,96.6775 C68.9448,97.3955 69.9018,97.7465 70.8848,98.0045 C76.8088,99.5615 82.7748,98.8015 88.7328,98.2855 C93.1808,97.9015 97.6328,97.1195 102.0728,97.1835 C109.3228,97.2855 116.5688,97.8715 123.8088,98.3765 C127.4278,98.6285 130.5958,98.0605 133.1118,94.3885 M137.3028,89.7765 C136.3558,89.7285 135.6628,89.6435 134.9748,89.6665 C132.0248,89.7665 129.0768,89.9285 126.1268,90.0105 C119.4268,90.1955 112.7248,90.3655 106.0228,90.5055 C95.3308,90.7305 84.6388,90.9105 73.9478,91.1455 C71.5568,91.1985 69.1688,91.3795 66.7798,91.5325 C65.7908,91.5955 65.3698,92.1985 65.5028,93.1585 C65.6208,94.0135 66.2518,94.0405 66.9408,94.0125 C72.5198,93.7825 78.0978,93.5275 83.6788,93.3515 C95.0028,92.9945 106.3278,92.6885 117.6528,92.3485 C123.0748,92.1865 128.4968,91.9775 133.9198,91.8325 C135.2968,91.7955 136.4218,91.4395 137.3028,89.7765 M131.8538,167.9275 C131.8938,167.9265 131.9338,167.9255 131.9738,167.9255 C131.8158,164.2635 131.6828,160.6005 131.4898,156.9405 C131.3988,155.1985 131.2108,155.0185 129.5238,154.9335 C128.0108,154.8585 126.4928,154.8565 124.9788,154.8725 C122.7028,154.8985 122.5668,155.0655 122.4658,157.3235 C122.2288,162.6545 121.9828,167.9855 121.7268,173.3155 C121.6468,174.9825 121.8308,175.2535 123.5808,175.3115 C125.4918,175.3745 127.4088,175.3735 129.3208,175.3315 C131.2648,175.2885 131.6898,174.9275 131.8288,172.9485 C131.9458,171.2825 131.8538,169.6015 131.8538,167.9275 M151.7848,153.3945 C151.6458,153.2115 151.5048,153.0305 151.3638,152.8475 C148.7238,153.3505 146.0898,153.8875 143.4408,154.3415 C142.1688,154.5595 141.7828,155.2865 141.6828,156.4825 C141.4808,158.8635 141.1378,161.2315 140.8688,163.6065 C140.5108,166.7735 140.0998,169.9365 139.8398,173.1115 C139.6468,175.4725 139.8558,175.6295 142.0618,176.3345 C144.1108,176.9895 146.1468,177.6895 148.1928,178.3495 C150.3908,179.0595 152.5878,179.7695 154.8008,180.4245 C155.2418,180.5555 155.7548,180.4445 156.2348,180.4445 C151.7248,177.1865 148.8498,173.1525 147.8178,167.8405 C146.7628,162.4065 148.0658,157.5955 151.7848,153.3945 M162.6928,179.8965 C162.8598,178.8295 163.0928,177.9245 163.1318,177.0105 C163.5848,166.2375 163.2278,154.0685 162.3978,151.9195 C160.2378,151.8145 158.1248,152.0455 156.2388,153.2745 C152.0188,156.0255 149.8458,159.9405 150.0198,164.9755 C150.2648,172.0805 155.1748,177.9385 162.6928,179.8965 M69.2378,100.7505 C78.5868,109.3675 87.5608,118.3835 97.3158,126.7335 C107.5418,118.9175 116.6248,110.2345 126.1648,101.3485 C125.1728,101.1715 124.7328,101.0505 124.2868,101.0195 C119.8248,100.7085 115.3478,100.5575 110.9048,100.0785 C104.4978,99.3885 98.1518,99.7465 91.7888,100.5405 C88.2258,100.9865 84.6348,101.4355 81.0538,101.4585 C77.1788,101.4845 73.3008,101.0165 69.2378,100.7505 M66.3328,88.7905 C68.0278,88.7075 69.5188,88.6065 71.0118,88.5665 C77.4798,88.3965 83.9468,88.2385 90.4148,88.0855 C98.4008,87.8985 106.3868,87.7185 114.3728,87.5425 C122.4398,87.3645 130.5048,87.1955 138.5708,87.0215 C138.7318,87.0185 138.8928,86.9995 139.0508,87.0125 C140.4218,87.1185 141.0348,86.3595 141.4098,85.1385 C142.6058,81.2465 143.8668,77.3755 145.0998,73.4955 C147.8068,64.9695 150.5138,56.4445 153.2048,47.9125 C153.2668,47.7185 153.1398,47.4655 153.0568,46.9815 C152.2748,46.9815 151.4928,46.9595 150.7128,46.9855 C147.7598,47.0805 144.8098,47.2405 141.8568,47.2885 C129.7148,47.4905 117.5728,47.6535 105.4318,47.8425 C97.7648,47.9625 90.0968,48.0875 82.4298,48.2485 C79.7588,48.3045 79.7518,48.3555 78.9018,50.8875 C74.8858,62.8525 70.8738,74.8195 66.8678,86.7875 C66.6718,87.3715 66.5468,87.9795 66.3328,88.7905 M99.3098,128.6215 C101.4138,130.4185 103.1598,132.0425 105.0418,133.4915 C110.2338,137.4855 115.4558,141.4415 120.7288,145.3275 C121.9438,146.2255 122.6428,147.1895 122.5038,148.7085 C122.4678,149.1055 122.4958,149.5075 122.5088,149.9075 C122.5778,152.0275 122.7468,152.1775 124.8618,152.2755 C127.6518,152.4055 130.4428,152.5295 133.2298,152.7195 C137.2048,152.9915 140.9998,152.6635 144.5098,150.4385 C148.0838,148.1715 151.8368,146.1915 155.4428,143.9735 C167.7448,136.4065 179.2548,127.8355 189.0618,117.1355 C193.2258,112.5935 197.1478,107.8835 200.4208,102.6275 C204.9508,95.3565 205.7988,87.5285 204.2328,79.3295 C203.6598,76.3285 202.5138,73.4365 200.0258,71.4335 C197.2308,69.1805 194.4028,66.9375 191.4028,64.9745 C188.2098,62.8845 184.6078,62.3975 180.8158,63.1075 C176.8708,63.8455 173.4688,65.7855 170.1318,67.8075 C162.4528,72.4585 155.3588,77.9415 148.6968,83.9245 C140.7328,91.0765 133.0568,98.5485 125.1858,105.8055 C119.1948,111.3285 113.1168,116.7575 107.0308,122.1755 C104.6558,124.2885 102.1528,126.2565 99.3098,128.6215 M119.6738,160.5375 C119.6738,157.5945 119.4228,155.2465 119.7308,152.9755 C120.2238,149.3345 119.0308,147.0945 115.8778,144.9515 C103.4828,136.5315 92.5878,126.2675 81.6498,116.0835 C73.9878,108.9505 66.4468,101.6845 58.6658,94.6855 C51.6468,88.3705 44.1588,82.6245 35.9578,77.8885 C34.0288,76.7755 31.9848,75.8245 29.9128,75.0005 C24.4948,72.8495 19.3988,73.6635 14.6988,77.0205 C12.7488,78.4125 10.9328,79.9955 8.9618,81.3545 C6.2328,83.2355 4.7538,85.9015 3.8938,88.9725 C2.5098,93.9095 2.5258,98.9175 3.3798,103.9325 C4.2788,109.2065 7.0298,113.6345 10.1018,117.8435 C16.6888,126.8685 24.4758,134.7755 33.2188,141.7095 C42.5038,149.0755 52.4568,155.4435 62.8078,161.2135 C71.3738,165.9895 80.5078,169.3345 89.8088,172.2925 C91.1758,172.7275 92.5888,173.0495 94.0038,173.2885 C97.1528,173.8235 100.3098,174.3285 103.4768,174.7405 C107.7488,175.2945 112.0268,175.8465 116.3188,176.2105 C118.8208,176.4225 118.9288,176.2095 119.0548,173.7915 C119.2958,169.1665 119.4888,164.5395 119.6738,160.5375 M144.9318,83.1695 C145.0648,83.2205 145.1978,83.2705 145.3308,83.3215 C147.9028,81.1815 150.4398,78.9945 153.0558,76.9105 C159.6818,71.6315 166.3618,66.4495 174.1918,62.9615 C178.1578,61.1955 179.7208,57.7355 178.7188,53.4675 C178.2638,51.5315 177.6108,49.6265 176.8908,47.7695 C174.9828,42.8535 172.9718,37.9775 171.0348,33.0725 C168.6208,26.9575 165.5938,21.1515 162.1428,15.5725 C158.1118,9.0555 157.9268,9.0035 150.7148,6.6185 C149.6708,6.2735 148.5248,5.8835 147.7428,5.1685 C145.7078,3.3085 143.3958,2.6455 140.7058,2.7725 C138.0728,2.8965 135.4328,2.8765 132.7958,2.8965 C130.0868,2.9155 127.3728,3.0165 124.6718,2.8725 C122.8698,2.7765 121.6118,3.1605 120.3168,4.6115 C115.8728,9.5875 110.2768,11.4765 103.6648,10.0665 C99.5828,9.1955 95.9928,7.3455 92.9038,4.5665 C92.0308,3.7815 91.3158,3.5545 90.1468,3.9815 C82.4908,6.7725 74.7968,9.4555 67.1288,12.2115 C64.9508,12.9945 62.7858,13.8305 60.6728,14.7735 C59.0548,15.4955 50.5568,23.3445 49.6748,24.8945 C47.0678,29.4775 44.2698,33.9755 42.0148,38.7295 C38.2168,46.7395 34.7718,54.9155 31.1948,63.0315 C30.5198,64.5655 29.8438,66.1095 29.3148,67.6975 C28.7028,69.5335 29.7348,71.6795 31.3998,72.5595 C33.9308,73.8975 36.4878,75.2015 38.9308,76.6915 C46.3848,81.2385 53.2978,86.5265 59.8648,92.2735 C60.5378,92.8625 61.3108,93.3365 62.2098,93.9895 C62.5038,91.6795 62.7368,89.7885 62.9858,87.9005 C63.2688,85.7625 63.5688,83.6265 63.8518,81.4905 C64.0368,80.0935 63.7118,79.1275 62.2208,78.4615 C59.5608,77.2735 59.2558,76.2485 60.5648,73.5395 C62.2328,70.0885 63.9868,66.6765 65.7738,63.2845 C66.5778,61.7585 67.1798,60.3275 66.5318,58.5245 C66.2768,57.8145 66.5318,56.7795 66.8698,56.0345 C67.2628,55.1675 68.3348,55.2815 68.7158,56.1615 C68.9238,56.6415 68.9538,57.1985 69.1208,57.9895 C69.4908,57.5995 69.6518,57.3055 69.8948,57.1995 C70.3578,56.9945 71.1258,56.6355 71.3028,56.8105 C71.6858,57.1885 71.9878,57.8855 71.9328,58.4105 C71.8598,59.0885 71.5608,59.8845 71.0858,60.3495 C69.7718,61.6345 69.5438,63.2505 69.3078,64.9195 C69.0518,66.7385 68.7358,68.5485 68.4158,70.3575 C68.1078,72.0935 67.7598,73.8235 67.4308,75.5555 C67.8978,75.1785 68.0598,74.7365 68.2098,74.2905 C71.0568,65.8065 73.8918,57.3185 76.7538,48.8385 C77.7818,45.7905 78.2898,45.4345 81.3768,45.3795 C90.0828,45.2255 98.7898,45.0625 107.4968,44.9285 C119.6408,44.7415 131.7848,44.5825 143.9288,44.4005 C144.7828,44.3875 145.6358,44.2745 146.8958,44.1765 C146.5508,43.1885 146.3798,42.4665 146.0478,41.8275 C145.8378,41.4245 145.2348,41.2025 145.0828,40.7965 C144.8858,40.2715 144.8108,39.5885 144.9918,39.0865 C145.0688,38.8725 145.9428,38.8595 146.4388,38.9105 C146.9668,38.9655 147.4958,39.3835 147.9868,39.3255 C148.7798,39.2315 149.5308,38.1565 150.3558,39.1095 C151.3488,40.2595 150.0438,40.9435 149.6648,41.8185 C149.0738,43.1815 149.6618,44.1805 151.1518,44.3145 C151.8658,44.3775 152.5898,44.3315 153.3088,44.3345 C157.2938,44.3495 157.4638,44.6605 156.0278,48.4785 C155.0238,51.1465 154.1658,53.8675 153.1508,56.8345 C154.3748,56.8345 155.2258,56.8235 156.0758,56.8385 C156.9518,56.8545 157.8558,56.7725 158.6968,56.9575 C159.8828,57.2195 160.1378,58.2845 159.2518,59.1095 C158.8578,59.4765 158.3228,59.7205 157.8158,59.9365 C156.7878,60.3725 155.7188,60.7175 154.6938,61.1625 C152.4848,62.1245 150.8888,63.5335 150.1958,66.0455 C149.0098,70.3565 147.5258,74.5845 146.1868,78.8545 C145.7378,80.2835 145.3478,81.7315 144.9318,83.1695 M26.9558,71.3695 C25.9008,68.5935 26.9958,66.1745 28.0728,63.7735 C33.0418,52.6905 38.0248,41.6135 43.0208,30.5415 C44.4418,27.3915 46.2828,24.4955 48.5378,21.8705 C48.5898,21.8105 48.6278,21.7365 48.6858,21.6825 C53.7698,17.0205 58.4538,12.0215 65.5148,9.9105 C73.8448,7.4215 81.9388,4.1335 90.1028,1.1055 C91.6178,0.5435 92.6478,0.8505 93.7508,1.9095 C96.8158,4.8515 100.3778,6.8835 104.6328,7.5935 C110.5198,8.5745 115.3758,6.8205 119.0458,2.0995 C119.9988,0.8725 120.9338,0.1325 122.5968,0.154022792 C128.8308,0.2345 135.0668,0.2285 141.3018,0.1575 C144.1468,0.1245 146.6588,0.7485 148.7768,2.7635 C149.3288,3.2875 150.1348,3.5815 150.8658,3.8705 C153.3898,4.8685 155.9458,5.7835 158.4588,6.8065 C159.0958,7.0665 159.6988,7.5275 160.1788,8.0285 C163.3558,11.3505 165.9048,15.0485 167.5738,19.3995 C168.7728,22.5195 170.5818,25.4015 171.8648,28.4935 C174.6818,35.2835 177.3918,42.1195 180.0408,48.9785 C181.6698,53.1965 181.6878,54.3555 181.1098,60.2065 C182.8358,60.3235 184.5638,60.4285 186.2878,60.5605 C188.9088,60.7595 191.2838,61.7045 193.3958,63.2105 C196.3218,65.2975 199.2158,67.4385 202.0288,69.6735 C204.0938,71.3145 205.3068,73.6315 206.0508,76.0965 C208.8338,85.3115 208.2868,94.2355 203.4248,102.7145 C200.5458,107.7335 196.9368,112.2005 193.1458,116.5475 C183.0078,128.1745 170.9118,137.4055 157.8918,145.5165 C155.5908,146.9505 153.2878,148.3785 150.6488,150.0195 C151.2288,150.1605 151.4878,150.3015 151.7248,150.2695 C154.7288,149.8565 157.7298,149.4175 160.7318,148.9895 C161.3638,148.8985 161.9978,148.7595 162.6328,148.7545 C164.0518,148.7435 164.8848,149.3325 165.3008,150.6995 C165.5058,151.3765 165.6028,152.1125 165.6078,152.8225 C165.6648,160.8165 165.7218,168.8095 165.7088,176.8025 C165.7068,178.2285 165.5098,179.6795 165.1908,181.0715 C164.6608,183.3785 163.5608,184.1905 161.2368,183.9635 C156.6968,183.5205 152.2148,182.8255 147.9108,181.1575 C145.0108,180.0335 142.0118,179.1575 139.0368,178.2325 C138.2908,178.0005 137.4698,177.9225 136.6828,177.9195 C132.6938,177.9065 128.7068,177.9375 124.7198,177.9575 C123.1308,177.9665 121.5558,177.8415 120.0318,178.6275 C119.3828,178.9635 118.4588,178.8845 117.6738,178.8235 C114.0128,178.5325 110.3448,178.2655 106.6988,177.8265 C103.2908,177.4165 99.9138,176.7535 96.5118,176.2885 C90.3588,175.4485 84.5698,173.3715 78.8198,171.1655 C76.2088,170.1645 73.6158,169.1115 71.0468,168.0065 C69.5818,167.3755 68.1728,167.1985 66.6388,167.7625 C64.6908,168.4795 62.6378,168.9375 60.7408,169.7605 C56.1928,171.7345 51.3778,172.4025 46.5248,172.9215 C44.3078,173.1585 43.1518,172.4305 42.6478,170.2715 C42.2148,168.4155 41.9178,166.4895 41.8878,164.5875 C41.8288,160.8365 41.9268,157.0775 42.1098,153.3295 C42.1738,152.0245 41.7178,151.2805 40.7228,150.5465 C37.0558,147.8465 33.3198,145.2175 29.8358,142.2935 C20.4268,134.4015 11.8768,125.6995 5.2238,115.2805 C0.1268,107.2965 -1.0962,98.6665 0.9288,89.5155 C1.8758,85.2325 3.9838,81.6635 7.6708,79.1075 C9.8368,77.6065 11.8938,75.9485 14.0468,74.4285 C17.6698,71.8705 21.7358,71.0455 26.1038,71.4965 C26.3208,71.5195 26.5488,71.4345 26.9558,71.3695" id="Fill-1"/></g><path d="M144.9315,84.0157 C145.3475,82.5777 145.7385,81.1287 146.1865,79.7007 C147.5265,75.4307 149.0095,71.2027 150.1965,66.8917 C150.8885,64.3797 152.4855,62.9707 154.6945,62.0087 C155.7185,61.5637 156.7875,61.2187 157.8165,60.7827 C158.3235,60.5667 158.8575,60.3227 159.2515,59.9547 C160.1375,59.1307 159.8825,58.0657 158.6975,57.8037 C157.8555,57.6187 156.9525,57.7007 156.0765,57.6847 C155.2255,57.6687 154.3745,57.6807 153.1515,57.6807 C154.1655,54.7137 155.0245,51.9927 156.0285,49.3247 C157.4635,45.5067 157.2935,45.1957 153.3085,45.1807 C152.5895,45.1777 151.8665,45.2237 151.1525,45.1607 C149.6615,45.0267 149.0745,44.0277 149.6645,42.6637 C150.0435,41.7887 151.3485,41.1057 150.3555,39.9547 C149.5315,39.0017 148.7805,40.0777 147.9875,40.1707 C147.4955,40.2297 146.9665,39.8117 146.4385,39.7567 C145.9435,39.7047 145.0695,39.7187 144.9925,39.9327 C144.8105,40.4347 144.8855,41.1177 145.0825,41.6427 C145.2355,42.0487 145.8375,42.2707 146.0475,42.6737 C146.3795,43.3127 146.5505,44.0347 146.8955,45.0227 C145.6355,45.1197 144.7835,45.2337 143.9285,45.2457 C131.7855,45.4287 119.6405,45.5877 107.4965,45.7747 C98.7895,45.9087 90.0825,46.0717 81.3765,46.2257 C78.2895,46.2807 77.7815,46.6367 76.7535,49.6847 C73.8915,58.1637 71.0565,66.6527 68.2095,75.1367 C68.0595,75.5817 67.8975,76.0247 67.4305,76.4017 C67.7605,74.6687 68.1075,72.9397 68.4155,71.2027 C68.7365,69.3947 69.0515,67.5837 69.3075,65.7657 C69.5435,64.0967 69.7715,62.4807 71.0855,61.1957 C71.5605,60.7307 71.8595,59.9347 71.9325,59.2567 C71.9885,58.7317 71.6855,58.0347 71.3035,57.6567 C71.1255,57.4817 70.3575,57.8407 69.8945,58.0447 C69.6515,58.1517 69.4905,58.4457 69.1205,58.8347 C68.9535,58.0437 68.9235,57.4877 68.7165,57.0077 C68.3345,56.1267 67.2625,56.0137 66.8695,56.8807 C66.5325,57.6247 66.2765,58.6607 66.5315,59.3697 C67.1805,61.1737 66.5775,62.6047 65.7735,64.1307 C63.9865,67.5227 62.2325,70.9347 60.5645,74.3857 C59.2565,77.0947 59.5605,78.1197 62.2205,79.3077 C63.7125,79.9737 64.0365,80.9397 63.8515,82.3357 C63.5685,84.4727 63.2685,86.6087 62.9865,88.7457 C62.7375,90.6347 62.5035,92.5257 62.2095,94.8347 C61.3105,94.1827 60.5375,93.7077 59.8655,93.1197 C53.2975,87.3717 46.3855,82.0837 38.9305,77.5367 C36.4885,76.0477 33.9315,74.7437 31.3995,73.4057 C29.7355,72.5257 28.7025,70.3797 29.3145,68.5427 C29.8435,66.9547 30.5195,65.4117 31.1955,63.8767 C34.7715,55.7617 38.2165,47.5847 42.0155,39.5757 C44.2695,34.8217 47.0675,30.3237 49.6745,25.7407 C50.5565,24.1907 59.0545,16.3417 60.6735,15.6197 C62.7855,14.6767 64.9505,13.8407 67.1285,13.0577 C74.7965,10.3017 82.4915,7.6187 90.1465,4.8277 C91.3155,4.4007 92.0315,4.6267 92.9045,5.4117 C95.9935,8.1917 99.5825,10.0407 103.6645,10.9117 C110.2775,12.3227 115.8725,10.4337 120.3175,5.4567 C121.6125,4.0067 122.8695,3.6217 124.6715,3.7187 C127.3725,3.8627 130.0865,3.7617 132.7955,3.7427 C135.4325,3.7227 138.0735,3.7427 140.7055,3.6187 C143.3955,3.4917 145.7075,4.1547 147.7435,6.0147 C148.5255,6.7297 149.6705,7.1197 150.7145,7.4647 C157.9265,9.8497 158.1125,9.9017 162.1425,16.4177 C165.5935,21.9967 168.6205,27.8037 171.0355,33.9177 C172.9715,38.8237 174.9835,43.6997 176.8905,48.6157 C177.6115,50.4727 178.2635,52.3767 178.7185,54.3137 C179.7205,58.5807 178.1585,62.0407 174.1925,63.8077 C166.3625,67.2957 159.6815,72.4777 153.0555,77.7567 C150.4395,79.8407 147.9035,82.0277 145.3305,84.1667 C145.1985,84.1167 145.0645,84.0667 144.9315,84.0157" id="Fill-4" fill="#f9fdf3"/><path d="M119.6737,161.3838 C119.4887,165.3858 119.2957,170.0128 119.0547,174.6378 C118.9287,177.0558 118.8207,177.2688 116.3197,177.0568 C112.0277,176.6928 107.7487,176.1408 103.4767,175.5858 C100.3097,175.1748 97.1527,174.6688 94.0037,174.1348 C92.5887,173.8958 91.1757,173.5728 89.8087,173.1388 C80.5077,170.1808 71.3737,166.8348 62.8077,162.0598 C52.4567,156.2888 42.5037,149.9208 33.2187,142.5558 C24.4757,135.6208 16.6887,127.7148 10.1017,118.6898 C7.0297,114.4808 4.2787,110.0528 3.3807,104.7788 C2.5257,99.7638 2.5097,94.7558 3.8937,89.8188 C4.7537,86.7468 6.2327,84.0808 8.9617,82.1998 C10.9327,80.8418 12.7487,79.2588 14.6987,77.8658 C19.3997,74.5098 24.4947,73.6958 29.9127,75.8468 C31.9847,76.6698 34.0287,77.6208 35.9577,78.7348 C44.1587,83.4708 51.6467,89.2168 58.6657,95.5308 C66.4467,102.5298 73.9877,109.7968 81.6497,116.9298 C92.5877,127.1128 103.4827,137.3768 115.8777,145.7978 C119.0307,147.9408 120.2237,150.1808 119.7307,153.8218 C119.4227,156.0928 119.6737,158.4408 119.6737,161.3838" id="Fill-6" fill="#f9fdf3"/><path d="M99.3095,129.4678 C102.1535,127.1028 104.6565,125.1348 107.0315,123.0218 C113.1175,117.6038 119.1955,112.1748 125.1855,106.6518 C133.0565,99.3948 140.7325,91.9228 148.6975,84.7708 C155.3595,78.7868 162.4535,73.3048 170.1315,68.6538 C173.4685,66.6318 176.8715,64.6918 180.8155,63.9528 C184.6085,63.2428 188.2095,63.7308 191.4035,65.8208 C194.4035,67.7828 197.2305,70.0268 200.0265,72.2798 C202.5135,74.2818 203.6605,77.1748 204.2335,80.1758 C205.7985,88.3738 204.9515,96.2018 200.4205,103.4738 C197.1475,108.7298 193.2255,113.4398 189.0615,117.9818 C179.2545,128.6818 167.7455,137.2518 155.4435,144.8198 C151.8365,147.0368 148.0835,149.0178 144.5095,151.2838 C140.9995,153.5098 137.2045,153.8378 133.2295,153.5658 C130.4435,153.3748 127.6525,153.2508 124.8625,153.1208 C122.7465,153.0238 122.5785,152.8728 122.5085,150.7528 C122.4965,150.3538 122.4675,149.9508 122.5035,149.5548 C122.6425,148.0348 121.9445,147.0718 120.7285,146.1738 C115.4555,142.2868 110.2345,138.3308 105.0415,134.3368 C103.1605,132.8888 101.4135,131.2648 99.3095,129.4678" id="Fill-8" fill="#f9fdf3"/><path d="M113.371,70.8106 C115.206,70.7666 116.826,68.9176 116.793,66.9076 C116.759,64.8666 115.106,63.1406 113.213,63.1696 C111.344,63.1976 109.785,65.0056 109.847,67.0746 C109.912,69.2456 111.433,70.8576 113.371,70.8106 M66.333,89.6366 C66.547,88.8256 66.672,88.2176 66.868,87.6336 C70.873,75.6646 74.886,63.6986 78.902,51.7336 C79.752,49.2016 79.759,49.1506 82.43,49.0946 C90.097,48.9336 97.765,48.8086 105.432,48.6886 C117.573,48.4986 129.715,48.3356 141.856,48.1346 C144.809,48.0856 147.76,47.9266 150.713,47.8316 C151.493,47.8056 152.275,47.8276 153.057,47.8276 C153.14,48.3116 153.266,48.5646 153.205,48.7586 C150.514,57.2896 147.807,65.8156 145.1,74.3416 C143.867,78.2216 142.605,82.0926 141.41,85.9846 C141.035,87.2056 140.422,87.9646 139.051,87.8586 C138.892,87.8456 138.731,87.8646 138.571,87.8676 C130.505,88.0406 122.439,88.2096 114.373,88.3886 C106.387,88.5646 98.401,88.7446 90.415,88.9316 C83.947,89.0836 77.479,89.2426 71.012,89.4126 C69.519,89.4526 68.028,89.5536 66.333,89.6366" id="Fill-10" fill="#f9fdf3"/><path d="M69.2377,101.5967 C73.3007,101.8627 77.1787,102.3297 81.0537,102.3047 C84.6347,102.2817 88.2257,101.8317 91.7887,101.3867 C98.1527,100.5927 104.4977,100.2347 110.9047,100.9247 C115.3477,101.4037 119.8247,101.5547 124.2867,101.8657 C124.7337,101.8967 125.1727,102.0177 126.1647,102.1947 C116.6247,111.0797 107.5417,119.7637 97.3167,127.5787 C87.5607,119.2297 78.5867,110.2137 69.2377,101.5967" id="Fill-12" fill="#f9fdf3"/><path d="M162.6933,180.7422 C155.1743,178.7842 150.2643,172.9272 150.0193,165.8212 C149.8453,160.7862 152.0183,156.8712 156.2393,154.1202 C158.1253,152.8912 160.2383,152.6602 162.3973,152.7652 C163.2273,154.9142 163.5853,167.0832 163.1313,177.8562 C163.0923,178.7702 162.8603,179.6762 162.6933,180.7422" id="Fill-14" fill="#f9fdf3"/><path d="M151.785,154.2403 C148.065,158.4413 146.763,163.2523 147.818,168.6863 C148.849,173.9983 151.724,178.0323 156.235,181.2903 C155.755,181.2903 155.242,181.4013 154.801,181.2703 C152.588,180.6153 150.39,179.9053 148.193,179.1953 C146.146,178.5353 144.111,177.8353 142.061,177.1803 C139.855,176.4753 139.646,176.3183 139.84,173.9573 C140.099,170.7823 140.511,167.6193 140.869,164.4523 C141.138,162.0773 141.48,159.7093 141.682,157.3283 C141.783,156.1333 142.169,155.4053 143.441,155.1873 C146.09,154.7333 148.723,154.1963 151.364,153.6933 C151.505,153.8763 151.645,154.0573 151.785,154.2403" id="Fill-16" fill="#f9fdf3"/><path d="M131.8534,168.7735 C131.8534,170.4475 131.9464,172.1275 131.8294,173.7945 C131.6894,175.7735 131.2644,176.1345 129.3214,176.1775 C127.4094,176.2195 125.4924,176.2205 123.5814,176.1575 C121.8314,176.0995 121.6464,175.8285 121.7264,174.1615 C121.9824,168.8315 122.2284,163.5005 122.4654,158.1695 C122.5664,155.9115 122.7034,155.7445 124.9784,155.7185 C126.4934,155.7025 128.0104,155.7045 129.5234,155.7795 C131.2104,155.8645 131.3994,156.0445 131.4904,157.7865 C131.6824,161.4465 131.8164,165.1095 131.9734,168.7715 C131.9334,168.7715 131.8934,168.7725 131.8534,168.7735" id="Fill-18" fill="#f9fdf3"/><path d="M137.3026,90.6221 C136.4216,92.2851 135.2966,92.6421 133.9196,92.6791 C128.4966,92.8231 123.0746,93.0321 117.6536,93.1941 C106.3276,93.5341 95.0026,93.8411 83.6786,94.1971 C78.0976,94.3731 72.5196,94.6281 66.9406,94.8581 C66.2516,94.8871 65.6206,94.8591 65.5026,94.0051 C65.3696,93.0441 65.7906,92.4411 66.7806,92.3781 C69.1686,92.2261 71.5566,92.0441 73.9486,91.9911 C84.6386,91.7571 95.3306,91.5761 106.0226,91.3511 C112.7246,91.2111 119.4266,91.0411 126.1266,90.8561 C129.0766,90.7741 132.0256,90.6121 134.9746,90.5131 C135.6626,90.4891 136.3556,90.5741 137.3026,90.6221" id="Fill-20" fill="#f9fdf3"/><path d="M133.1122,95.2344 C130.5952,98.9064 127.4272,99.4744 123.8082,99.2224 C116.5692,98.7174 109.3232,98.1314 102.0732,98.0294 C97.6332,97.9654 93.1802,98.7474 88.7332,99.1314 C82.7742,99.6474 76.8082,100.4074 70.8842,98.8504 C69.9022,98.5924 68.9452,98.2414 68.0112,97.5234 C68.5052,97.4364 68.9972,97.2844 69.4922,97.2704 C78.1102,97.0394 86.7292,96.8414 95.3462,96.6004 C106.0372,96.3004 116.7272,95.9774 127.4172,95.6384 C129.1592,95.5834 130.8962,95.3954 133.1122,95.2344" id="Fill-22" fill="#f9fdf3"/><path d="M44.8808,154.293 C47.1598,155.716 48.9708,156.845 50.7788,157.977 C52.0638,158.781 53.3328,159.613 54.6318,160.393 C55.6758,161.018 55.9038,161.859 55.1718,162.777 C54.2318,163.956 53.2548,165.139 52.1228,166.121 C50.1868,167.802 47.9588,169.018 45.1598,169.813 C44.0068,164.71 44.3338,159.789 44.8808,154.293" id="Fill-24" fill="#f9fdf3"/><path d="M138.997,157.2178 C138.822,159.0438 138.661,160.9338 138.455,162.8178 C138.05,166.5308 137.625,170.2418 137.195,173.9528 C137.101,174.7668 137.419,175.9468 136.141,175.9948 C134.846,176.0448 135.019,174.8808 134.993,174.0498 C134.842,169.2808 134.67,164.5128 134.611,159.7418 C134.565,156.0298 135.387,155.5678 138.997,157.2178" id="Fill-26" fill="#f9fdf3"/><path d="M50.9521,170.1876 C54.1261,168.1746 56.7041,165.9756 58.1691,162.5646 C60.4191,163.7346 62.3801,164.7546 64.3731,165.7916 C62.9611,167.4106 54.2071,170.3306 50.9521,170.1876" id="Fill-28" fill="#f9fdf3"/><path d="M65.7538,70.7335 C65.4198,72.5125 65.0928,74.2935 64.7468,76.0705 C64.6088,76.7765 64.2738,77.2875 63.4408,76.9765 C62.6638,76.6865 62.6028,76.0875 62.9198,75.4255 C63.7008,73.7975 64.5058,72.1815 65.3028,70.5605 L65.7538,70.7335 Z" id="Fill-30" fill="#f9fdf3"/><path d="M113.371,70.8106 C111.433,70.8576 109.912,69.2456 109.847,67.0746 C109.785,65.0056 111.344,63.1976 113.213,63.1696 C115.106,63.1406 116.759,64.8666 116.793,66.9076 C116.826,68.9176 115.206,70.7666 113.371,70.8106" id="Fill-32" fill="#331c55"/></g></g></g><g id="Head" transform="translate(208.000000, 344.000000) scale(1 1)" fill="#331c55"><g id="Head/Curly Bob" stroke="none" stroke-width="1" fill="none" fill-rule="evenodd"><g id="Group-19" transform="translate(-12.000000, 2.000000)" fill="#331c55"><path d="M46.9601,21.1287 C48.1891,22.2707 47.5831,23.6797 46.8811,25.3117 C46.7551,25.6057 46.6281,25.9087 46.5071,26.2157 C46.7961,24.5107 46.5711,22.8837 45.6851,21.2507 C45.1101,20.1927 44.9851,19.0867 45.0331,17.8907 C45.3281,19.0597 45.8981,20.1407 46.9601,21.1287 M48.2421,31.6987 C49.3771,32.2047 50.6631,32.7787 50.9681,33.7187 C51.1191,34.1827 51.0211,34.7057 50.6671,35.3177 C49.7051,36.9877 50.3441,38.6897 50.9661,39.7417 C50.9591,39.7377 50.9521,39.7337 50.9441,39.7317 C49.3471,38.9587 49.2221,38.7027 49.6191,36.9627 C50.3311,33.8397 50.3311,33.8397 47.7291,32.0917 C45.7991,30.7947 45.4051,30.2507 45.9571,28.3127 C45.8951,29.0317 45.9861,29.7647 46.3731,30.4987 C46.6251,30.9767 47.3741,31.3117 48.2421,31.6987 M8.3961,27.5547 C7.9131,27.8367 7.4361,28.1307 6.9701,28.4397 C3.9001,30.4677 3.5131,31.5627 4.6141,35.0547 C5.2871,37.1907 5.2151,38.5387 4.2001,39.8567 C4.6611,38.7207 4.8621,37.5057 4.3961,36.4207 C1.8711,30.5537 4.1811,29.2817 7.3781,27.5207 C8.4811,26.9137 9.6211,26.2857 10.6741,25.4067 C10.8551,25.2557 11.0231,25.1007 11.1811,24.9427 C10.6451,26.0807 9.5861,26.8577 8.3961,27.5547 M40.5081,45.0337 C44.4961,44.0127 48.6181,43.3047 52.2541,40.4247 C52.1291,40.3587 52.0251,40.3027 51.9221,40.2467 C51.4241,39.6157 49.9801,37.5137 51.1011,35.5677 C51.5221,34.8357 51.6381,34.1617 51.4431,33.5637 C51.0701,32.4137 49.6761,31.7907 48.4461,31.2417 C47.7291,30.9217 46.9861,30.5907 46.8141,30.2647 C45.9791,28.6767 46.6711,27.0667 47.3411,25.5087 C48.0521,23.8547 48.7871,22.1447 47.3001,20.7627 C45.4271,19.0217 45.2001,16.9907 45.2541,14.5317 C45.2801,13.9537 45.3031,13.3757 45.3131,12.7957 C45.3641,11.5327 45.4091,10.2257 45.3061,8.7947 C45.2821,8.4677 45.2341,8.1517 45.1681,7.8477 C44.7661,4.2397 42.0761,1.0087 38.4951,0.5957 C35.8471,0.2897 33.0161,0.4627 30.4241,0.6237 C27.7581,0.7887 25.0771,1.5457 22.7281,2.8757 C19.3951,4.7647 17.3361,6.4187 14.6961,13.2987 C14.2361,14.4957 14.0481,15.7767 13.7761,17.0247 C12.3831,17.5137 11.5081,18.8807 11.5791,20.8297 C11.5911,21.1587 11.6311,21.4737 11.6851,21.7807 C11.5921,22.2667 11.5271,22.7157 11.5401,22.8897 C11.5501,23.0247 11.5361,23.1437 11.5351,23.2717 C11.2071,23.8097 10.7751,24.3447 10.1931,24.8307 C9.1961,25.6637 8.0881,26.2737 7.0161,26.8637 C3.8781,28.5917 0.9131,30.2247 3.7061,36.7177 C4.3561,38.2277 3.3731,40.1707 2.3921,41.5787 C1.7031,42.1227 1.0421,42.7387 0.0281,43.6137 C4.4221,46.5977 9.0381,46.7707 13.4121,47.0077 C13.1771,48.2317 12.9451,49.4557 12.6911,50.6777 C12.5141,51.5317 12.6671,52.4557 12.6671,53.4127 C14.2401,53.3577 14.1801,52.3827 14.3571,51.5577 C16.0231,43.8237 17.3001,36.0307 18.0011,28.1477 C18.2201,25.6827 18.1921,25.6087 15.8231,24.3817 C14.0001,23.4377 12.9421,21.4087 13.5931,19.8587 C13.8141,19.3307 14.3561,18.6787 14.8401,18.5947 C15.2711,18.5197 15.8711,19.0997 16.3071,19.4917 C16.5871,19.7427 19.0381,22.4737 19.5371,22.7697 C19.6081,22.6247 19.5761,22.3427 19.5061,22.0177 C19.4471,19.8077 19.6641,16.7507 20.1001,15.5457 C21.2431,12.3857 23.4881,11.4737 26.6261,10.3297 C30.2421,9.0117 33.6161,5.9127 35.8861,4.6977 C36.4991,5.1047 37.1541,5.7167 37.9311,6.0217 C40.3881,6.9837 41.7251,8.8487 42.4451,11.2637 C42.5951,11.7617 42.7231,12.2667 42.8481,12.7737 C42.8171,13.5037 42.7761,14.2327 42.7091,14.9577 C42.1081,21.4887 41.2511,27.9817 38.3041,33.9767 C36.9461,36.7377 35.5231,37.3517 32.5011,36.4207 C30.2761,35.7347 28.1561,34.8267 26.3591,33.2807 C25.8451,32.8387 25.2001,32.0937 24.5541,32.9497 C23.9641,33.7307 24.7181,34.2967 25.2771,34.7087 C26.2371,35.4157 27.2191,36.1237 28.2771,36.6597 C30.9311,38.0037 33.6941,38.9797 36.7191,38.4207 C36.9951,39.2287 37.2281,39.8217 37.4021,40.4307 C38.4601,44.1137 39.4821,47.8067 40.5691,51.4807 C40.8391,52.3927 40.7761,53.5947 42.6721,54.0687 C42.5271,52.9757 42.5131,52.2047 42.3151,51.4847 C41.7241,49.3317 41.1151,47.1827 40.5081,45.0337" id="Fill-17"/></g></g></g><g id="Face" transform="translate(222.000000, 356.000000) scale(1 1)" fill="#331c55"><g id="Face/Shiny Eyes" stroke="none" stroke-width="1" fill="none" fill-rule="evenodd"><g id="Group-26" transform="translate(-1.000000, 0.000000)"><polygon id="Fill-1" fill="#331c55" points="11.3315 5.2702 13.0425 12.0392 10.5475 12.2882"/><polygon id="Stroke-2" stroke="#331c55" stroke-width=".25" stroke-linejoin="round" points="11.3315 5.2702 13.0425 12.0392 10.5475 12.2882"/><g id="Group-25" transform="translate(0.000000, 0.638800)" fill="#331c55"><path d="M11.3373,15.9996 C11.2663,15.9996 11.1973,15.9978834 11.1323,15.993592 C9.2943,15.8845899 7.5583,14.3362443 7.1793,12.4677585 C7.1563,12.3561815 7.2433,12.2506125 7.3723,12.2308719 C7.5023,12.212848 7.6243,12.2866604 7.6473,12.3973792 C7.9833,14.0607349 9.5633,15.4923538 11.1653,15.5876234 C12.1113,15.6425536 13.8753,15.270058 15.0443,12.140752 C15.0843,12.0334665 15.2183,11.9751031 15.3433,12.0094345 C15.4683,12.0437659 15.5363,12.1579177 15.4963,12.264345 C14.3043,15.4563058 12.4553,15.9996 11.3373,15.9996" id="Fill-3"/><path d="M5.9848,6.0611 C3.9828,6.0611 2.7328,7.9601 2.0718,9.4061 C5.2708,8.2691 8.3298,8.5031 9.4608,8.6501 C9.0468,7.8691 7.9528,6.1831 6.1978,6.0681 C6.1258,6.0631 6.0548,6.0611 5.9848,6.0611 M1.6338,10.0631 C1.5728,10.0631 1.5118,10.0391 1.4668,9.9941 C1.3998,9.9261 1.3788,9.8261 1.4148,9.7381 C2.0628,8.1151 3.5548,5.4181 6.2288,5.5941 C7.3018,5.6651 8.3128,6.2561 9.1498,7.3041 C9.7708,8.0821 10.0778,8.8321 10.0898,8.8631 C10.1228,8.9441 10.1088,9.0361 10.0538,9.1021 C9.9988,9.1691 9.9118,9.2021 9.8258,9.1851 C9.7858,9.1771 5.7238,8.4351 1.7228,10.0451 C1.6948,10.0571 1.6648,10.0631 1.6338,10.0631" id="Fill-5"/><path d="M14.519,8.1998 C16.242,8.1998 18.264,8.6128 19.086,8.7998 C18.889,8.0188 18.281,6.2088 16.838,5.9868 C15.898,5.8438 15.072,6.0108 14.446,6.4708 C13.9,6.8718 13.521,7.4938 13.34,8.2818 C13.702,8.2238 14.101,8.1998 14.519,8.1998 M19.399,9.3538 C19.379,9.3538 19.36,9.3518 19.341,9.3468 C19.299,9.3368 15.149,8.3098 13.099,8.8138 C13.022,8.8328 12.941,8.8118 12.882,8.7588 C12.824,8.7048 12.795,8.6268 12.808,8.5478 C12.969,7.4718 13.439,6.6218 14.165,6.0878 C14.894,5.5518 15.843,5.3538 16.911,5.5178 C17.823,5.6588 18.584,6.3268 19.114,7.4508 C19.5,8.2728 19.627,9.0468 19.633,9.0788 C19.646,9.1578 19.618,9.2378 19.559,9.2918 C19.515,9.3328 19.457,9.3538 19.399,9.3538" id="Fill-7"/><path d="M13.5209,7.9879 C13.5209,6.9589 14.192426,6.1249 15.0212527,6.1249 C15.849374,6.1249 16.5209,6.9589 16.5209,7.9879 C16.5209,8.2219 16.4799877,8.6169 16.4165031,8.8239 C15.6977164,8.5509 14.1888991,8.2579 13.6055461,8.4809 C13.5533477,8.3119 13.5209,8.1429 13.5209,7.9879" id="Fill-9"/><path d="M2.683,8.3316 C2.683,7.3026 3.57836798,6.4686 4.68252974,6.4686 C5.78763202,6.4686 6.683,7.5366 6.683,8.5656 C5.30326805,8.8716 3.63479873,9.0056 3.00841735,9.2276 C2.82219586,8.9356 2.683,8.6116 2.683,8.3316" id="Fill-13"/><path d="M9.0238,0.5094 C9.0238,0.5094 9.7458,2.4224 9.3998,2.9524 C7.6008,2.8884 2.1548,2.3554 0.1258,5.3534 C0.8028,0.6464 9.0238,0.5094 9.0238,0.5094" id="Fill-17"/><path d="M9.14074793,0.465261785 L9.02171721,0.384417353 L8.73693786,0.395560116 L8.63217441,0.401426074 C8.3242705,0.419658808 7.98137274,0.448942586 7.61217875,0.491750762 C6.55697579,0.614101922 5.50155428,0.82030905 4.51517951,1.13054541 C1.95220381,1.93665713 0.295665767,3.2943339 0.00207319218,5.33560458 C-0.0168163772,5.4669387 0.154951693,5.53334623 0.229320342,5.42346097 C1.08516401,4.15888762 2.62033271,3.44313445 4.68667249,3.15247384 L5.04803151,3.10611698 C6.01016837,2.99462428 6.97020782,2.97865386 8.16335099,3.02262727 L9.3953559,3.07732097 L9.50446988,3.02073166 C9.65953426,2.78320531 9.64918308,2.35519954 9.52576295,1.77234952 C9.4866326,1.58755695 9.43681935,1.39266971 9.37880775,1.19207554 C9.28966952,0.883850873 9.20055501,0.623725689 9.14074793,0.465261785 Z M9.324,2.824 L8.6337865,2.7921279 C7.05058596,2.71845664 5.87881749,2.73232018 4.6518492,2.90491104 L4.33643273,2.95319941 C2.67572832,3.22873155 1.36101341,3.79371357 0.4749417,4.72222324 L0.363,4.845 L0.389605555,4.75273013 C0.889138585,3.16465993 2.38467182,2.06271045 4.5901874,1.36902773 C5.55992613,1.06402377 6.60034049,0.860748719 7.64097342,0.74008696 C8.00532198,0.697840613 8.34357088,0.668953851 8.64695244,0.650988911 L8.937,0.636 L9.03605268,0.926267599 C9.0689988,1.0281981 9.10382583,1.14111642 9.13864906,1.26152916 C9.19507361,1.45663556 9.24341348,1.6457584 9.28118614,1.82413935 L9.31396708,1.99145071 C9.38169937,2.3695993 9.38782718,2.66010629 9.324,2.824 Z" id="Stroke-19" fill-rule="nonzero"/><path d="M12.4203695,2.9695 C13.9149985,2.7635 18.4181114,1.8025 20.3081316,4.6315 C19.432921,-0.0085 12.5733433,0.5025 12.5733433,0.5025 C12.5733433,0.5025 12.0977036,2.4675 12.4203695,2.9695 Z" id="Fill-21"/><path d="M12.7264382,0.369278924 L12.5640572,0.377845401 L12.4518518,0.473092271 L12.3769145,0.81393341 C12.3578815,0.907611827 12.3377913,1.01183026 12.3177033,1.12375413 C12.2770089,1.35049152 12.243661,1.5714067 12.2202144,1.77985423 C12.1527324,2.37978799 12.1705391,2.81199839 12.3152176,3.03708754 L12.4374365,3.09332939 L13.4060397,2.94893571 C14.586362,2.78169478 15.569867,2.72205416 16.5317528,2.81115922 C18.1804175,2.96388458 19.4372234,3.5529317 20.2041935,4.70093975 C20.2797962,4.81410257 20.4561912,4.74206648 20.4309655,4.60833069 C20.0606447,2.64504447 18.6415841,1.42648857 16.5215016,0.807760443 C15.2181274,0.427381714 13.8603989,0.323143983 12.7264382,0.369278924 Z M16.7026252,1.12503704 C18.3526826,1.65988019 19.5126702,2.5879002 20.0079032,3.99095403 L20.038,4.085 L19.962679,4.00151283 C19.1446048,3.14826806 17.9856766,2.69477422 16.554813,2.56222503 C15.6929269,2.48238352 14.8188659,2.51887398 13.8113059,2.64295273 L13.1158984,2.73897054 L12.492,2.832 L12.4704653,2.76251788 C12.4207277,2.56110536 12.4213658,2.22814843 12.4686477,1.80779859 C12.4914305,1.60525338 12.5239819,1.38961387 12.5637715,1.16791804 L12.5931778,1.0093664 C12.6223168,0.857214861 12.6502556,0.725341571 12.673,0.622 L12.736601,0.619072275 C13.8458325,0.573943433 15.1785532,0.676261219 16.4514629,1.04774916 L16.7026252,1.12503704 Z" id="Stroke-23" fill-rule="nonzero"/></g></g><circle id="Oval" fill="#f9fdf3" cx="4.5" cy="7.5" r="1"/><circle id="Oval-Copy-2" fill="#f9fdf3" cx="15.5" cy="7.5" r="1"/><circle id="Oval-Copy" fill="#f9fdf3" cx="16.5" cy="7.5" r="1"/></g></g><g id="Glasses" transform="translate(219.000000, 361.000000) scale(1 1)"><g id="Glasses/None" stroke="none" stroke-width="1" fill="none" fill-rule="evenodd" fill-opacity="0"/></g></g></svg>