<svg version="1.1" xmlns="http://www.w3.org/2000/svg" viewBox="0 0 533 413" width="1066" height="826">
  <!-- svg-source:excalidraw -->
  
  <defs>
    <style>
      @font-face {
        font-family: "Virgil";
        src: url("https://excalidraw.com/Virgil.woff2");
      }
      @font-face {
        font-family: "Cascadia";
        src: url("https://excalidraw.com/Cascadia.woff2");
      }
    </style>
  </defs>
  <g stroke-opacity="0.4" fill-opacity="0.4" stroke-linecap="round" transform="translate(10 206) rotate(0 256.5 98.5)"><path d="M15.51 9.51 C15.51 9.51, 15.51 9.51, 15.51 9.51 M15.51 9.51 C15.51 9.51, 15.51 9.51, 15.51 9.51 M7.38 24.96 C11.36 20.03, 19.55 6.84, 25.09 4.59 M7.38 24.96 C13.67 16.59, 21.29 11.5, 25.09 4.59 M1.21 38.15 C12.79 26.73, 23.79 15.23, 30.08 4.95 M1.21 38.15 C9.64 28.16, 17.83 17.9, 30.08 4.95 M0.95 44.55 C11.67 30.78, 22.83 16.99, 35.72 4.55 M0.95 44.55 C11.13 31.96, 20.89 21.92, 35.72 4.55 M1.34 50.19 C18.05 33.86, 26.91 21.37, 42.02 3.4 M1.34 50.19 C14.66 33.76, 28.78 19.71, 42.02 3.4 M1.08 56.59 C16.51 43.41, 30.33 25.55, 49.63 0.74 M1.08 56.59 C20.52 35.79, 36.05 15.4, 49.63 0.74 M1.48 62.24 C19.13 46.69, 35.06 25.53, 55.27 0.35 M1.48 62.24 C17.72 44.27, 33.84 26.53, 55.27 0.35 M1.22 68.63 C23.36 45.14, 39.14 22.67, 60.26 0.71 M1.22 68.63 C21.72 48.1, 38.64 27.66, 60.26 0.71 M0.95 75.03 C30.37 41.99, 48.98 13.38, 65.9 0.31 M0.95 75.03 C22.24 52.42, 40.22 28.58, 65.9 0.31 M1.35 80.67 C23.71 57.47, 37.48 38.45, 70.89 0.67 M1.35 80.67 C15.19 63.88, 30.22 45.67, 70.89 0.67 M1.09 87.07 C16.89 72.86, 34.98 51.94, 76.53 0.28 M1.09 87.07 C24.32 59.03, 48.83 28.24, 76.53 0.28 M1.48 92.71 C33.22 59.91, 58.99 28.63, 81.52 0.64 M1.48 92.71 C26.11 65.53, 50.72 37.38, 81.52 0.64 M1.22 99.11 C27.28 71.37, 49.2 40.63, 87.16 0.25 M1.22 99.11 C27.24 71.94, 49.92 40.99, 87.16 0.25 M0.96 105.51 C30.49 72.47, 54.73 39.31, 92.15 0.61 M0.96 105.51 C29.41 80.27, 52.97 48.64, 92.15 0.61 M1.35 111.15 C25.8 80.01, 52.87 56.7, 97.79 0.21 M1.35 111.15 C36.2 70.28, 69.99 32.53, 97.79 0.21 M1.09 117.55 C29.24 85.52, 63.79 53.77, 102.78 0.57 M1.09 117.55 C34.42 78.04, 67.25 40.4, 102.78 0.57 M1.49 123.19 C45.17 73.11, 84.41 29.19, 108.42 0.18 M1.49 123.19 C38.02 84.23, 70.58 47.38, 108.42 0.18 M1.23 129.59 C23.54 97.27, 57.14 66.04, 113.41 0.54 M1.23 129.59 C26.3 98.88, 51.98 68.72, 113.41 0.54 M0.96 135.99 C40.09 92.82, 75.05 49.31, 119.06 0.14 M0.96 135.99 C46.02 87.46, 87.07 40.33, 119.06 0.14 M1.36 141.63 C44.23 98.13, 78.96 54.83, 124.04 0.5 M1.36 141.63 C47.72 87.69, 96.92 34.8, 124.04 0.5 M1.1 148.03 C36.8 105.74, 78.69 64.71, 129.03 0.86 M1.1 148.03 C36.42 109.39, 71.14 70.87, 129.03 0.86 M1.49 153.67 C28.79 118.54, 62.24 87.41, 134.67 0.47 M1.49 153.67 C53.87 93.9, 107.93 30.25, 134.67 0.47 M1.23 160.07 C39.91 119.27, 77.01 70.06, 139.66 0.83 M1.23 160.07 C39.57 113.84, 78.58 71.14, 139.66 0.83 M2.94 164.21 C43.28 124.12, 79.05 76.77, 145.3 0.43 M2.94 164.21 C41.93 117.34, 83.8 70.76, 145.3 0.43 M4.64 168.34 C48.47 115.37, 91.07 66.66, 150.29 0.79 M4.64 168.34 C61.29 103.16, 120.16 36.39, 150.29 0.79 M6.35 172.47 C53.92 115.06, 103.14 56.73, 155.93 0.4 M6.35 172.47 C50.25 123.25, 93.85 73.05, 155.93 0.4 M8.06 176.61 C64.36 116.57, 119.92 47.59, 160.92 0.76 M8.06 176.61 C51.04 129.84, 92.91 77.63, 160.92 0.76 M9.76 180.74 C59.25 122.55, 113.56 62.72, 166.56 0.36 M9.76 180.74 C50.79 137.2, 91.69 89.51, 166.56 0.36 M12.13 184.12 C44.25 147.07, 76.27 103.69, 171.55 0.72 M12.13 184.12 C72.32 116.97, 133.16 50.17, 171.55 0.72 M15.15 186.74 C61.84 127.72, 113.39 70.79, 177.19 0.33 M15.15 186.74 C52.27 141.33, 90.03 95.36, 177.19 0.33 M18.16 189.37 C56.88 141.57, 96.56 96.45, 182.18 0.69 M18.16 189.37 C74.48 123.29, 130.8 58.22, 182.18 0.69 M21.18 191.99 C75.16 132.35, 130.83 63.43, 187.82 0.3 M21.18 191.99 C69.25 135.7, 118.51 75.38, 187.82 0.3 M24.86 193.86 C87.6 116.46, 158.66 40.63, 192.81 0.66 M24.86 193.86 C70.18 143.21, 112.75 91.92, 192.81 0.66 M29.19 194.98 C72.28 150.45, 117.42 96.4, 198.45 0.26 M29.19 194.98 C88.39 125.86, 146.91 59.67, 198.45 0.26 M33.52 196.09 C97.98 115.78, 165.34 36.2, 203.44 0.62 M33.52 196.09 C69.03 149.67, 108.89 106.5, 203.44 0.62 M38.51 196.45 C90.38 142.57, 141.38 83.47, 209.08 0.23 M38.51 196.45 C80.14 149.25, 120.5 102.29, 209.08 0.23 M43.49 196.81 C106.46 125.1, 173.46 49.74, 214.07 0.59 M43.49 196.81 C101.07 132.18, 156.89 66.66, 214.07 0.59 M47.83 197.93 C96.22 143.22, 144.12 85.84, 219.71 0.19 M47.83 197.93 C100.69 138.76, 157.19 77.71, 219.71 0.19 M52.16 199.04 C101.05 145.1, 148.85 90.1, 224.7 0.55 M52.16 199.04 C103.43 141.86, 151.69 80.98, 224.7 0.55 M57.14 199.4 C95.49 155.97, 130.63 117.2, 230.34 0.16 M57.14 199.4 C101.22 145.39, 150.17 87.75, 230.34 0.16 M62.79 199.01 C127.66 124.32, 186.43 52.43, 235.33 0.52 M62.79 199.01 C106.65 148.75, 146.8 104.54, 235.33 0.52 M67.77 199.37 C114.64 139.41, 165.22 83.7, 240.32 0.88 M67.77 199.37 C116.9 142.54, 165.72 88.87, 240.32 0.88 M73.42 198.97 C129.65 130.19, 187.55 63.66, 245.96 0.48 M73.42 198.97 C124.64 139.9, 176.95 79.19, 245.96 0.48 M78.4 199.33 C126.33 143.09, 175.5 82.35, 250.95 0.84 M78.4 199.33 C121.14 148.4, 161.55 101.94, 250.95 0.84 M84.05 198.94 C131.06 146.31, 181.28 90.82, 256.59 0.45 M84.05 198.94 C121.74 150.75, 166.13 101.48, 256.59 0.45 M89.03 199.3 C158.04 124.44, 222.71 48.3, 261.58 0.81 M89.03 199.3 C143.59 135.26, 203.22 67.21, 261.58 0.81 M94.02 199.66 C134.33 153.77, 179.45 100.77, 267.22 0.41 M94.02 199.66 C136.37 154.94, 174.18 111.36, 267.22 0.41 M99.66 199.26 C159.77 132.44, 219.61 58.15, 272.21 0.77 M99.66 199.26 C156.85 134.59, 216.69 70.34, 272.21 0.77 M104.65 199.62 C153.87 139, 203.28 81.36, 277.85 0.38 M104.65 199.62 C141.47 154.47, 181.76 108.59, 277.85 0.38 M110.29 199.23 C161.17 141.06, 212.75 81.15, 282.84 0.74 M110.29 199.23 C148.32 156.09, 185.72 113.98, 282.84 0.74 M115.28 199.59 C159.5 145.92, 205.76 100.7, 288.48 0.34 M115.28 199.59 C151.97 156.6, 191.88 114.13, 288.48 0.34 M120.92 199.19 C189.64 123.86, 256.97 44.04, 293.47 0.7 M120.92 199.19 C186.21 126.54, 249.26 51.86, 293.47 0.7 M125.91 199.55 C188.71 127.97, 249.09 53.03, 299.11 0.31 M125.91 199.55 C163.51 153.74, 202.95 109.67, 299.11 0.31 M131.55 199.16 C188.79 134.47, 252.16 60.96, 304.1 0.67 M131.55 199.16 C168.53 155.31, 205.66 113.14, 304.1 0.67 M136.54 199.52 C179.11 155.09, 214.95 109.21, 309.74 0.28 M136.54 199.52 C177.24 150.46, 224.26 99.21, 309.74 0.28 M142.18 199.12 C188.05 150.39, 231.82 99.42, 314.73 0.64 M142.18 199.12 C205.9 124.25, 268.72 52.44, 314.73 0.64 M147.17 199.48 C192.12 145.72, 238.8 93.66, 320.37 0.24 M147.17 199.48 C206.18 133.07, 263.24 66, 320.37 0.24 M152.81 199.09 C189.43 157.09, 225.3 118.21, 325.36 0.6 M152.81 199.09 C197.9 148.45, 242.68 96.49, 325.36 0.6 M157.8 199.45 C202.07 146.66, 243.96 100.18, 331 0.21 M157.8 199.45 C205.77 143.89, 256.32 83.49, 331 0.21 M163.44 199.06 C218.02 137.8, 270.16 76.46, 335.99 0.57 M163.44 199.06 C222.16 133.22, 281.33 61.29, 335.99 0.57 M168.43 199.42 C231.37 127.44, 294.26 55.43, 341.63 0.17 M168.43 199.42 C234.71 120.93, 301.94 41.82, 341.63 0.17 M174.07 199.02 C215.13 155.86, 255.34 107.92, 346.62 0.53 M174.07 199.02 C223.79 142.36, 270.09 90.32, 346.62 0.53 M179.06 199.38 C237.38 133.39, 298.05 63.09, 352.26 0.14 M179.06 199.38 C231.16 138.76, 285.75 78.39, 352.26 0.14 M184.7 198.99 C223.46 158.81, 253.51 120.32, 357.25 0.5 M184.7 198.99 C241.16 136.13, 293.32 73.39, 357.25 0.5 M189.69 199.35 C256.91 121.85, 322.66 49.27, 362.24 0.86 M189.69 199.35 C236.25 146.81, 286.43 89.99, 362.24 0.86 M195.33 198.95 C248.99 137.17, 295.71 81.15, 367.88 0.46 M195.33 198.95 C258.61 127.01, 317.63 58, 367.88 0.46 M200.32 199.31 C265.44 120.79, 338.04 45.78, 372.87 0.82 M200.32 199.31 C243.71 154.44, 284.57 106.67, 372.87 0.82 M205.96 198.92 C261.05 133.71, 320.61 71.34, 378.51 0.43 M205.96 198.92 C253.34 143.95, 301.51 89.77, 378.51 0.43 M210.95 199.28 C267.25 138.59, 321.05 74.49, 383.5 0.79 M210.95 199.28 C258.35 148.04, 301.65 97.15, 383.5 0.79 M216.59 198.88 C274.02 138.31, 331.54 69.05, 389.14 0.39 M216.59 198.88 C252.06 157.64, 289.61 117.07, 389.14 0.39 M221.58 199.24 C267.5 144.31, 313.78 93.2, 394.13 0.75 M221.58 199.24 C265.63 143.96, 314 93.88, 394.13 0.75 M226.57 199.6 C274.28 142.09, 327.32 81.33, 399.77 0.36 M226.57 199.6 C273.87 146.27, 318.13 93.07, 399.77 0.36 M232.21 199.21 C288.34 134.9, 341.34 70.98, 404.76 0.72 M232.21 199.21 C300.55 123.1, 368.26 48.55, 404.76 0.72 M237.2 199.57 C279.1 155.26, 322.18 105.76, 410.4 0.33 M237.2 199.57 C297.77 127.97, 363.05 54.97, 410.4 0.33 M242.84 199.17 C315.02 119.38, 380.77 43.87, 415.39 0.69 M242.84 199.17 C306.15 129.89, 364.96 59.63, 415.39 0.69 M247.83 199.53 C305.23 134.8, 362.9 73.99, 421.03 0.29 M247.83 199.53 C297.31 144.29, 343.79 87.63, 421.03 0.29 M253.47 199.14 C311.84 126.54, 373.23 57.46, 426.02 0.65 M253.47 199.14 C309.46 134.52, 366.17 69.46, 426.02 0.65 M258.46 199.5 C317.4 132.01, 372.63 69.04, 431.66 0.26 M258.46 199.5 C318.08 131.98, 376.75 65.09, 431.66 0.26 M264.1 199.11 C307 148.74, 356.15 96.4, 436.65 0.62 M264.1 199.11 C311.73 145.12, 356.73 92.37, 436.65 0.62 M269.09 199.47 C306.48 153.57, 345.79 111.01, 442.29 0.22 M269.09 199.47 C326.23 129.89, 384.47 61.53, 442.29 0.22 M274.73 199.07 C342.12 122.03, 406.37 51.8, 447.28 0.58 M274.73 199.07 C335.2 132.11, 398.21 62.81, 447.28 0.58 M279.72 199.43 C336.78 135.26, 398.35 65.52, 452.92 0.19 M279.72 199.43 C321.77 149.19, 366.49 100.1, 452.92 0.19 M285.36 199.04 C340.4 135.73, 402.09 70.58, 457.91 0.55 M285.36 199.04 C348.17 126.24, 412.34 52.46, 457.91 0.55 M290.35 199.4 C360.26 116.66, 427.82 43.07, 463.55 0.15 M290.35 199.4 C335.38 148.4, 380.33 96.34, 463.55 0.15 M295.99 199 C351.16 132.41, 410.12 62.43, 466.57 2.78 M295.99 199 C348.85 139.44, 402.63 75.92, 466.57 2.78 M300.98 199.36 C354.07 131.77, 413.93 67.81, 471.55 3.14 M300.98 199.36 C364.41 124.45, 432.53 49.03, 471.55 3.14 M306.62 198.97 C348.04 151.53, 390.54 100.99, 475.89 4.25 M306.62 198.97 C345.73 158.48, 380.53 114.86, 475.89 4.25 M311.61 199.33 C355.61 150.82, 399.78 97.92, 480.87 4.61 M311.61 199.33 C351.94 150.14, 395.43 100.11, 480.87 4.61 M317.25 198.93 C357.31 158.32, 395.8 117, 486.52 4.22 M317.25 198.93 C366.78 141.76, 418.14 85.84, 486.52 4.22 M322.24 199.29 C366.11 152.84, 406.68 106.06, 490.19 6.09 M322.24 199.29 C371.89 140.36, 422.08 85.5, 490.19 6.09 M327.88 198.9 C374.14 143.77, 416.16 90.67, 494.52 7.2 M327.88 198.9 C391.93 124.73, 456.44 53.11, 494.52 7.2 M332.87 199.26 C369.76 155.51, 403.2 119.02, 497.54 9.83 M332.87 199.26 C388.62 134.08, 442.62 71.24, 497.54 9.83 M338.51 198.86 C398.31 128.57, 464.59 59.4, 500.56 12.45 M338.51 198.86 C392.69 134.77, 448.11 71.33, 500.56 12.45 M343.5 199.22 C376.73 161.21, 409.65 123.93, 503.58 15.07 M343.5 199.22 C386.31 151.26, 427.34 105.94, 503.58 15.07 M349.14 198.83 C391.03 149.66, 436.92 95.15, 506.6 17.7 M349.14 198.83 C384.26 156.5, 423.52 116.31, 506.6 17.7 M354.13 199.19 C399.75 152.19, 445.45 98.27, 508.3 21.83 M354.13 199.19 C400.71 143.83, 451.88 86.9, 508.3 21.83 M359.12 199.55 C411.5 142.09, 465.51 81.15, 509.35 26.72 M359.12 199.55 C411.3 140.79, 458.96 85.96, 509.35 26.72 M364.76 199.15 C412.97 150.13, 451.11 97.6, 511.06 30.85 M364.76 199.15 C396.11 164.34, 426.89 125.89, 511.06 30.85 M369.75 199.51 C419.66 142.63, 461.71 92.04, 512.77 34.99 M369.75 199.51 C417.57 148.65, 462.85 95.5, 512.77 34.99 M375.39 199.12 C413.7 152.67, 456.19 110.7, 514.47 39.12 M375.39 199.12 C403.92 163.93, 435.47 127.52, 514.47 39.12 M380.38 199.48 C423.56 148.77, 471.23 95.17, 514.21 45.52 M380.38 199.48 C421.29 149.7, 461.3 102.74, 514.21 45.52 M386.02 199.09 C416.66 162.71, 448.05 121.5, 514.61 51.16 M386.02 199.09 C419.83 162.99, 453.33 122.2, 514.61 51.16 M391.01 199.45 C426.41 158.63, 455.35 121.33, 514.35 57.56 M391.01 199.45 C417.36 170.08, 445.38 137.45, 514.35 57.56 M396.65 199.05 C421.72 173.41, 448.13 141.44, 514.08 63.96 M396.65 199.05 C425.41 167.21, 454.95 133.81, 514.08 63.96 M401.64 199.41 C429.61 167.75, 465.15 133.87, 514.48 69.6 M401.64 199.41 C442.14 151.16, 483.15 105.38, 514.48 69.6 M407.28 199.02 C441.05 155.58, 480.2 107.4, 514.22 76 M407.28 199.02 C443.36 160.93, 478.48 118.77, 514.22 76 M412.27 199.38 C455.24 153.73, 496.52 107.51, 514.61 81.64 M412.27 199.38 C441.94 166.8, 473.13 130.32, 514.61 81.64 M417.91 198.98 C440.85 164.49, 469.81 134.22, 514.35 88.04 M417.91 198.98 C436.96 175.01, 459 150.25, 514.35 88.04 M422.9 199.34 C453.3 170.73, 479.31 133.63, 514.75 93.68 M422.9 199.34 C453.68 162.35, 486.64 127.31, 514.75 93.68 M428.54 198.95 C456.09 167.25, 488.7 134.43, 514.48 100.08 M428.54 198.95 C454.84 170.37, 480.44 138.43, 514.48 100.08 M433.53 199.31 C456.29 169.9, 487.3 137.99, 514.88 105.72 M433.53 199.31 C458.12 171.99, 480.26 144.2, 514.88 105.72 M439.17 198.91 C460.62 171.08, 485.71 147.64, 514.62 112.12 M439.17 198.91 C464.47 168.44, 490.21 138.28, 514.62 112.12 M444.16 199.27 C459.35 176.48, 476.55 158.81, 515.01 117.76 M444.16 199.27 C466 175.52, 487.7 149.47, 515.01 117.76 M449.8 198.88 C471.18 174, 487.93 155.66, 514.75 124.16 M449.8 198.88 C469.31 172.73, 491.15 147.89, 514.75 124.16 M454.79 199.24 C474 177.21, 489.17 153.73, 515.15 129.81 M454.79 199.24 C477.28 171.23, 501.13 147.63, 515.15 129.81 M460.43 198.84 C472.87 185.17, 489.11 163.72, 514.88 136.2 M460.43 198.84 C473.43 182.69, 488.11 167.69, 514.88 136.2 M465.42 199.2 C474.56 189.27, 489.33 173.66, 514.62 142.6 M465.42 199.2 C483.33 181.15, 499.01 161.4, 514.62 142.6 M471.72 198.06 C487.91 180.03, 506.76 163.19, 514.36 149 M471.72 198.06 C484.11 180.94, 498.27 166.79, 514.36 149 M478.02 196.91 C484.63 181.99, 496.64 176.58, 513.44 156.15 M478.02 196.91 C489.86 180.39, 502.21 166.98, 513.44 156.15 M485.63 194.25 C492.53 184.98, 501.74 177.8, 512.53 163.3 M485.63 194.25 C494.44 184.98, 502.31 174.81, 512.53 163.3 M495.21 189.32 C499.47 180.34, 506.37 177.5, 511.61 170.46 M495.21 189.32 C501.2 182.46, 506.75 177.24, 511.61 170.46" stroke="#ced4da" stroke-width="0.5" fill="none"></path><path d="M49.25 0 M49.25 0 C155.29 0.25, 257.55 0.93, 463.75 0 M49.25 0 C198.9 -4.8, 350.46 -4.28, 463.75 0 M463.75 0 C494.08 -3.45, 515.3 19.63, 513 49.25 M463.75 0 C497.25 2.8, 509.13 18.77, 513 49.25 M513 49.25 C512.07 75.9, 510.11 99.09, 513 147.75 M513 49.25 C512.26 85.85, 512.6 123.98, 513 147.75 M513 147.75 C511.56 179.93, 498.19 200.3, 463.75 197 M513 147.75 C509.38 179.58, 495.73 195.28, 463.75 197 M463.75 197 C349.98 197.25, 238.44 196.8, 49.25 197 M463.75 197 C313.3 194.96, 162.98 194.31, 49.25 197 M49.25 197 C19.09 200, -0.92 181.72, 0 147.75 M49.25 197 C12.54 201.32, -2.35 182.14, 0 147.75 M0 147.75 C-2.74 117.43, -2.77 89.8, 0 49.25 M0 147.75 C-2.3 117.61, -1.98 84.51, 0 49.25 M0 49.25 C3.17 19.26, 19.87 3.16, 49.25 0 M0 49.25 C3.52 15.08, 17.86 -2.05, 49.25 0" stroke="#000000" stroke-width="1" fill="none"></path></g><g transform="translate(41 225) rotate(0 54 13)"><text x="0" y="18" font-family="Virgil, Segoe UI Emoji" font-size="20px" fill="#000000" text-anchor="start" style="white-space: pre;" direction="ltr">Kubernetes</text></g><g stroke-opacity="0.6" fill-opacity="0.6" stroke-linecap="round" transform="translate(360 250) rotate(0 60.5 60.5)"><path d="M12.12 3.91 C12.12 3.91, 12.12 3.91, 12.12 3.91 M12.12 3.91 C12.12 3.91, 12.12 3.91, 12.12 3.91 M3.98 19.36 C6.82 11, 16.51 8.34, 18.42 2.76 M3.98 19.36 C6.13 14.14, 9.78 12.3, 18.42 2.76 M3.07 26.51 C11.31 15.87, 20.11 4.78, 25.37 0.85 M3.07 26.51 C9.87 15.72, 20.97 8.23, 25.37 0.85 M2.8 32.91 C16.83 18.72, 21.91 11.03, 31.01 0.46 M2.8 32.91 C14.23 20.73, 21.11 13.05, 31.01 0.46 M3.2 38.56 C12.97 26.29, 20.03 22.75, 36 0.82 M3.2 38.56 C15.56 23.61, 27.18 9.72, 36 0.82 M2.94 44.95 C14.53 34.93, 26.76 17.15, 41.64 0.43 M2.94 44.95 C17.73 30.73, 31.68 14.27, 41.64 0.43 M2.68 51.35 C19.23 37.17, 28.71 20.14, 46.63 0.79 M2.68 51.35 C17.36 35.08, 29.46 18.76, 46.63 0.79 M3.07 56.99 C13.74 36.57, 35.02 24.59, 52.27 0.39 M3.07 56.99 C16.17 42.96, 30.3 27.6, 52.27 0.39 M2.81 63.39 C22.41 40.32, 42.25 13.69, 57.26 0.75 M2.81 63.39 C20.64 46.41, 33.02 29.42, 57.26 0.75 M3.2 69.04 C13.99 55.36, 32.03 36.22, 62.25 1.11 M3.2 69.04 C21.42 49.96, 36.54 35.05, 62.25 1.11 M2.94 75.43 C23.77 50.32, 49.04 19.57, 67.89 0.72 M2.94 75.43 C15.96 56.96, 29.7 41.9, 67.89 0.72 M2.68 81.83 C17.61 63.87, 38.57 40.63, 72.88 1.08 M2.68 81.83 C25.58 54.45, 48.68 26.45, 72.88 1.08 M0.45 90.49 C26.07 66.59, 52.66 32.34, 78.52 0.68 M0.45 90.49 C17.42 68.52, 37.07 47.69, 78.52 0.68 M1.5 95.38 C20.93 76.02, 44.89 46.8, 83.51 1.04 M1.5 95.38 C20.08 73.64, 39.5 54.79, 83.51 1.04 M2.55 100.27 C36.77 58.86, 61.08 23.94, 89.15 0.65 M2.55 100.27 C27.93 73.47, 48.37 47.36, 89.15 0.65 M3.6 105.16 C25.67 81.27, 43.12 58.02, 94.14 1.01 M3.6 105.16 C33 69.88, 60.3 36.79, 94.14 1.01 M4.65 110.05 C41.44 69.59, 74.01 36.23, 99.13 1.37 M4.65 110.05 C38.02 70.17, 69.41 33.18, 99.13 1.37 M7.67 112.67 C33.83 80.07, 61.46 43.04, 102.8 3.24 M7.67 112.67 C34.76 81.54, 61.52 48.64, 102.8 3.24 M10.69 115.29 C36.34 83.32, 57.9 56.47, 107.13 4.35 M10.69 115.29 C30.26 89.73, 53.33 63.79, 107.13 4.35 M13.71 117.92 C40.93 85.71, 71.41 53.67, 110.81 6.22 M13.71 117.92 C47.43 78.84, 79.04 42.41, 110.81 6.22 M17.38 119.79 C51.08 78.05, 86.95 41.82, 113.83 8.85 M17.38 119.79 C48.17 85.1, 78.42 49.23, 113.83 8.85 M21.72 120.9 C47.84 88.2, 78.23 53.65, 116.84 11.47 M21.72 120.9 C51.09 85.68, 81.12 49.85, 116.84 11.47 M25.39 122.77 C48.98 95.64, 61.53 74.95, 119.86 14.09 M25.39 122.77 C58.02 84.45, 88.5 50.37, 119.86 14.09 M31.03 122.38 C54.86 99.34, 76.38 74.77, 120.91 18.98 M31.03 122.38 C61.28 82.32, 95.51 42.86, 120.91 18.98 M36.02 122.74 C69.1 85.48, 98.93 48.13, 121.96 23.87 M36.02 122.74 C57.32 99.21, 77.67 76.25, 121.96 23.87 M41.66 122.34 C57.71 102.46, 76.94 78.7, 121.7 30.27 M41.66 122.34 C68.59 90.38, 95.25 60.93, 121.7 30.27 M46.65 122.7 C59.65 102.71, 80.8 86.72, 121.44 36.67 M46.65 122.7 C74.86 92.01, 101.82 60.6, 121.44 36.67 M51.64 123.06 C73.58 97.18, 94.14 71.32, 121.18 43.06 M51.64 123.06 C73.37 94.05, 99.07 65.98, 121.18 43.06 M57.28 122.67 C75.41 100.15, 98.56 80.17, 121.57 48.71 M57.28 122.67 C71.78 105.51, 87.14 87.98, 121.57 48.71 M62.27 123.03 C83.13 98.65, 100.42 82.48, 121.31 55.11 M62.27 123.03 C74.55 110.31, 87.71 97.02, 121.31 55.11 M67.91 122.63 C84.39 108.14, 93.6 93.52, 121.05 61.5 M67.91 122.63 C85.07 102.84, 100.18 81.16, 121.05 61.5 M72.9 122.99 C87.41 102.59, 104.64 86.95, 121.45 67.15 M72.9 122.99 C83.25 109.39, 93.37 98.28, 121.45 67.15 M78.54 122.6 C83.46 113.41, 98.15 104.47, 121.18 73.54 M78.54 122.6 C95.79 105.29, 110.4 85.72, 121.18 73.54 M83.53 122.96 C101.76 109.85, 114.3 89.42, 120.92 79.94 M83.53 122.96 C99.06 105.48, 111.99 90.45, 120.92 79.94 M88.52 123.32 C99.27 115.8, 108.53 98.98, 121.32 85.59 M88.52 123.32 C100.41 107.28, 114.5 93.44, 121.32 85.59 M93.5 123.68 C101.68 110.15, 111.26 101.54, 121.06 91.98 M93.5 123.68 C104.11 114.97, 110.98 104.53, 121.06 91.98 M100.46 121.78 C102.23 113.72, 110.99 112.85, 120.8 98.38 M100.46 121.78 C105.72 112.89, 114.44 103.66, 120.8 98.38 M110.04 116.85 C114.54 114.6, 115.3 113.89, 117.91 107.8 M110.04 116.85 C111.96 114.89, 114.74 111.87, 117.91 107.8 M12.19 117.07 C12.19 117.07, 12.19 117.07, 12.19 117.07 M12.19 117.07 C12.19 117.07, 12.19 117.07, 12.19 117.07 M21.6 119.95 C13.21 116.61, 14.97 113.96, 6.51 106.83 M21.6 119.95 C19.64 117.93, 15.05 112.63, 6.51 106.83 M25.74 118.25 C20.93 113.57, 9.79 105.91, 4.6 99.88 M25.74 118.25 C18.67 111.37, 16.06 108.71, 4.6 99.88 M31.38 117.85 C18.61 108.16, 11.47 100.12, 0.44 90.95 M31.38 117.85 C21.81 108.6, 7.94 99.17, 0.44 90.95 M37.78 118.11 C31.61 110.53, 21.25 100.57, 0.04 85.31 M37.78 118.11 C27.09 105.57, 14.21 95.18, 0.04 85.31 M44.17 118.37 C29.71 100.9, 12.42 86.79, 0.4 80.32 M44.17 118.37 C32.59 108.17, 18.5 96.43, 0.4 80.32 M49.82 117.98 C36.77 103.67, 20.15 91.21, 0.01 74.68 M49.82 117.98 C36.6 108.52, 26.66 95.48, 0.01 74.68 M56.22 118.24 C48.3 110.52, 35.38 99.97, 0.37 69.69 M56.22 118.24 C40.31 102.64, 22.95 85.85, 0.37 69.69 M62.61 118.5 C41.99 100.96, 18.48 79.96, -0.03 64.05 M62.61 118.5 C39.62 97.77, 13.26 75.24, -0.03 64.05 M68.26 118.11 C52.21 101.86, 29.11 81.71, 0.33 59.06 M68.26 118.11 C52.44 103.89, 36.29 91.84, 0.33 59.06 M74.65 118.37 C54.54 101.01, 33.48 77.64, -0.06 53.42 M74.65 118.37 C48.53 92.3, 19.48 70.25, -0.06 53.42 M81.05 118.63 C58.72 100.19, 33.74 81.71, 0.3 48.43 M81.05 118.63 C50.8 93.83, 26.58 71.37, 0.3 48.43 M86.7 118.24 C53.57 90.42, 25.65 65.11, -0.1 42.79 M86.7 118.24 C53.7 89.56, 23.12 64.52, -0.1 42.79 M93.09 118.5 C68.67 99.21, 50.84 81.85, 0.26 37.8 M93.09 118.5 C76.21 101.93, 57.5 86.68, 0.26 37.8 M97.98 117.45 C64.34 93.87, 38.42 63.42, -0.13 32.16 M97.98 117.45 C63.84 89.14, 29.57 60.7, -0.13 32.16 M102.87 116.4 C71.62 89.33, 42.34 65.97, 1.74 28.48 M102.87 116.4 C72.54 88.14, 43.84 64.02, 1.74 28.48 M109.27 116.66 C88.55 92.4, 60.96 76.15, 2.1 23.5 M109.27 116.66 C81.88 93.35, 57.96 70.2, 2.1 23.5 M111.89 113.64 C79.74 83.36, 42.14 54.34, 3.21 19.17 M111.89 113.64 C74.37 78.11, 34.85 43.21, 3.21 19.17 M115.27 111.28 C72.71 76.89, 39.73 37.89, 4.33 14.84 M115.27 111.28 C88.34 88.44, 59.01 62.31, 4.33 14.84 M117.89 108.26 C90.85 83.9, 71.1 59.22, 6.2 11.16 M117.89 108.26 C90.16 85.93, 65.32 60.26, 6.2 11.16 M119.01 103.93 C82.83 68.23, 42.38 33.22, 8.82 8.14 M119.01 103.93 C91.96 79.03, 63.12 56, 8.82 8.14 M120.12 99.6 C85.1 70.68, 47.92 38.24, 11.45 5.12 M120.12 99.6 C89.69 72.98, 63.58 49.98, 11.45 5.12 M121.99 95.92 C80.81 67.88, 48.19 30.45, 14.07 2.1 M121.99 95.92 C98.55 75.77, 76.57 60.31, 14.07 2.1 M122.35 90.93 C85.22 55.46, 42.88 19.2, 18.96 1.05 M122.35 90.93 C98.09 68.68, 72.03 50.74, 18.96 1.05 M121.96 85.29 C86.42 55.58, 58.74 26.94, 23.85 0 M121.96 85.29 C83.06 53.55, 47.23 20.56, 23.85 0 M122.32 80.3 C96.99 56.37, 64.16 24.79, 27.98 -1.7 M122.32 80.3 C96.5 58.36, 75.44 39.13, 27.98 -1.7 M121.93 74.66 C92.4 53.84, 68.84 26.52, 32.87 -2.75 M121.93 74.66 C97.9 51.66, 69.88 30.84, 32.87 -2.75 M122.29 69.67 C96.72 49.56, 73.8 23.35, 38.51 -3.15 M122.29 69.67 C98.35 45.67, 74.97 24.51, 38.51 -3.15 M122.65 64.69 C93.99 45.07, 69.04 19.08, 44.91 -2.89 M122.65 64.69 C91.45 37.72, 58.71 12.09, 44.91 -2.89 M122.25 59.04 C100.2 43.12, 87.77 25.59, 51.31 -2.63 M122.25 59.04 C105.54 42.96, 84.94 28.52, 51.31 -2.63 M122.61 54.06 C94.42 36.57, 73.16 17.68, 56.95 -3.02 M122.61 54.06 C111.35 44.31, 96.94 29.74, 56.95 -3.02 M122.22 48.41 C105.66 31.69, 85.3 19.07, 63.35 -2.76 M122.22 48.41 C105.63 33.15, 89.14 18.37, 63.35 -2.76 M122.58 43.43 C108.7 31.76, 87 19.19, 69.75 -2.5 M122.58 43.43 C104.87 27.18, 86.6 14.25, 69.75 -2.5 M122.18 37.78 C106.38 24.95, 95.54 20.39, 75.39 -2.89 M122.18 37.78 C109.39 26.53, 98.14 17.07, 75.39 -2.89 M122.54 32.8 C111.18 23.62, 89.04 9.81, 81.79 -2.63 M122.54 32.8 C109.88 23.23, 99.24 14.24, 81.79 -2.63 M122.9 27.81 C111.18 21.04, 108.49 12.77, 88.19 -2.37 M122.9 27.81 C114.63 17.91, 104.04 12.99, 88.19 -2.37 M121.75 21.51 C113.01 16.84, 111.42 9.04, 93.83 -2.76 M121.75 21.51 C110.37 10.21, 99.17 0.36, 93.83 -2.76 M119.85 14.56 C117.37 5.63, 108.36 3.92, 100.23 -2.5 M119.85 14.56 C114.31 9.74, 104.43 3.08, 100.23 -2.5" stroke="#4c6ef5" stroke-width="0.5" fill="none"></path><path d="M30.25 0 M30.25 0 C39.38 -2.04, 52.46 0.87, 90.75 0 M30.25 0 C53.69 -0.8, 75.9 -0.89, 90.75 0 M90.75 0 C113.73 0.29, 117.39 11.93, 121 30.25 M90.75 0 C112.62 -3.45, 117.5 8.74, 121 30.25 M121 30.25 C122.33 50.91, 119.03 66.78, 121 90.75 M121 30.25 C122.87 53.62, 119.14 77.65, 121 90.75 M121 90.75 C119.52 112.67, 108.02 120.98, 90.75 121 M121 90.75 C120.86 113.74, 113.56 124.66, 90.75 121 M90.75 121 C65.64 119.25, 49.23 123.67, 30.25 121 M90.75 121 C67.99 122.92, 49.37 120.48, 30.25 121 M30.25 121 C12.2 121.32, -1.26 108.23, 0 90.75 M30.25 121 C12.07 116.6, -2.1 107.26, 0 90.75 M0 90.75 C-0.24 75.84, 1.45 56.88, 0 30.25 M0 90.75 C1.32 77.04, -0.61 60.9, 0 30.25 M0 30.25 C-0.01 13.4, 7.58 0.81, 30.25 0 M0 30.25 C2.43 14.43, 9.51 3.5, 30.25 0" stroke="#000000" stroke-width="1" fill="none"></path></g><g transform="translate(398 297) rotate(0 23.5 13)"><text x="0" y="18" font-family="Virgil, Segoe UI Emoji" font-size="20px" fill="#000000" text-anchor="start" style="white-space: pre;" direction="ltr">FLUX</text></g><g stroke-opacity="0.7" fill-opacity="0.7" stroke-linecap="round" transform="translate(358 10) rotate(0 61 61)"><path d="M-0.14 62.16 C-0.14 62.16, -0.14 62.16, -0.14 62.16 M-0.14 62.16 C-0.14 62.16, -0.14 62.16, -0.14 62.16 M-0.25 66.9 C8.55 58.72, 20.59 44.02, 42.93 19.35 M0.97 64.33 C16.79 50.79, 28.48 34.99, 39.66 23.1 M3.62 64.39 C18.4 51.1, 37.87 32.93, 65.16 4.98 M4.41 69.27 C22.16 53.12, 35.36 36.63, 62.29 -0.86 M6.11 71.53 C26.08 49.23, 46.82 26.29, 63.71 2.14 M9.95 70.57 C29.78 44.02, 52.33 19.06, 64.37 5.25 M8.39 74.79 C30.99 53.51, 47.16 31.06, 70.01 7.17 M11.9 75.37 C24.55 56.43, 39.47 36.3, 69.79 5.89 M14.8 72.67 C29.84 59.15, 43.37 40.53, 73.42 13.38 M15.18 76.14 C32.19 58.4, 46.3 38.04, 71.26 8.29 M15.96 77.21 C28.92 59.32, 47.31 40.67, 70.51 14.32 M17.89 76.73 C27.26 65.03, 41.2 52.08, 75.16 14.29 M18.33 83.98 C39.55 59.51, 56.44 40.68, 78.04 14.59 M20.42 82.86 C41.79 59.53, 57.34 38.78, 77.94 15.58 M21.97 86.57 C43.74 62.6, 59.07 44.86, 84.03 15.32 M22.65 85.1 C37.26 65.37, 55.67 46.04, 80.76 19.7 M26.11 86.62 C47.31 62.62, 61.32 44.17, 84.71 24.94 M25.07 85.37 C44.54 67.92, 61.49 43.4, 81.9 21.33 M28.21 87.28 C40.92 68.93, 59.25 50.73, 89.48 21.86 M27.33 90.95 C44.95 72.74, 58.91 56.26, 85.25 25.48 M29.65 95.26 C47.08 77.33, 61.43 55.55, 88.02 28.08 M33.4 93 C54.68 66.66, 74.78 42.55, 86.87 25.52 M37.98 94.51 C49.68 77.3, 72 50.11, 87.21 31.84 M33.35 96.76 C55.17 75.11, 70.23 56.2, 91.48 30.47 M37.35 100.06 C50.58 76.24, 71.96 62.45, 92.14 30.44 M37.29 99.87 C51.1 82.29, 60.21 70.65, 92.88 32.15 M42.08 103.93 C56.8 78.34, 74.1 64.11, 97.11 31.68 M40.4 102.77 C53.65 87.86, 64.74 76.33, 96.56 35.28 M39.74 100.69 C55.33 87.8, 69.34 71.34, 98.67 40.67 M41.53 102.82 C61.58 81.66, 80.72 61.51, 100.15 40.69 M44.78 105.44 C66.51 88.64, 80.94 69.88, 100.55 38.54 M44.35 104.7 C65.41 88.02, 82.76 65.03, 101.9 40.53 M52.87 111.55 C71.7 90.91, 84.83 66.48, 104.08 48.7 M51.16 110.72 C63.96 93.9, 73.76 82.53, 106.54 45.11 M51.24 112.46 C63.13 100.74, 76.45 88.59, 108.42 47.84 M52.74 111.04 C71.81 91.26, 89.76 70.49, 109.1 46.31 M56.3 111.58 C69.43 90.99, 89.96 73.84, 108.99 48.18 M53.48 114.17 C76.44 93.81, 95.45 72.86, 112.76 48.4 M56.72 115.9 C79.27 92.98, 101.45 68.12, 110.42 52.24 M57.95 117.01 C70.39 101.63, 82.9 87.39, 113.37 55.24 M59.05 121.92 C78.68 104.18, 92.9 87.4, 115.54 55.53 M60.01 119.28 C71.55 108.13, 83.94 91.85, 115.85 57.54 M66.04 121.43 C83.36 96.01, 102.71 76.21, 116.42 56.14 M64.67 121.84 C78.23 104.65, 91.65 88.59, 120.82 58.9 M101.07 79.47 C106.43 77.6, 110.49 72.36, 123.35 65.42 M103.96 81.13 C110.37 77.29, 111.19 73, 121.04 63.02 M62.13 122.11 C62.13 122.11, 62.13 122.11, 62.13 122.11 M62.13 122.11 C62.13 122.11, 62.13 122.11, 62.13 122.11 M60.92 117.27 C47.04 105.3, 34.92 90.76, 7.88 71.5 M63.87 120.19 C46.76 102.97, 25.86 85.04, 8.15 71.54 M71.16 115.57 C54.77 99.46, 37.45 92.11, -0.23 58.3 M66.84 117.44 C54.22 105.46, 38.85 94.74, 3.38 61.29 M68.9 115.17 C44.95 88.69, 20.27 67.25, 4.66 55.43 M68.78 113.02 C56.4 99.81, 39.27 85.73, 3.85 55.11 M71.7 111.22 C57.66 92.24, 38.13 79.62, 9.28 55.69 M72.52 112.62 C54.94 95.99, 31.69 78.25, 8.87 51.79 M76.62 107.13 C61.07 89.33, 39.79 75.26, 13.65 55.02 M75.81 107.52 C58.63 94.67, 42.46 81.92, 9.95 51.07 M76.92 101.61 C63.42 91.62, 53.16 81.73, 14.73 47.67 M79.54 106.09 C62.14 88.2, 44.14 74.9, 13.97 49.36 M78.82 99.65 C60.4 86.93, 46.97 72.23, 13.98 43.14 M83.95 101.35 C61.67 87.79, 44.37 69.91, 18.23 45.13 M85.02 97.5 C57.14 80.59, 29.87 56.15, 17.32 44.57 M83.71 100.42 C59.96 76.42, 33.92 54.43, 17.89 41.8 M86.69 93.06 C61.62 77.25, 36.93 54.94, 23.64 39.02 M87.37 95.33 C72.54 85.74, 56.44 70.49, 22.02 38.57 M91.97 92.13 C73.42 79.74, 55.52 65.04, 24.78 39.87 M89.38 93.9 C74.15 80.79, 59.29 65.19, 25.08 37.28 M93.96 94.84 C71.02 78.44, 52.22 61.87, 29.07 31.76 M93.56 90.6 C69.39 67.75, 43.8 44.07, 25.91 31.83 M94.23 88.58 C71 68.02, 44.5 49.39, 29.3 28.93 M96.13 87.96 C74.69 69.67, 52.51 53.12, 31.24 31.08 M94.83 82.35 C86.11 74.81, 76.1 65.56, 31.24 25.58 M97.2 83.46 C70.84 60.54, 48.36 40.5, 31.72 29.68 M102.76 81.09 C87.82 65.94, 69.79 53.83, 37.61 22.22 M100.79 84.38 C74.92 60.36, 51.92 37.77, 37.34 26.88 M106.01 80.05 C82.58 56.63, 60.91 36.58, 39.61 18.6 M106.27 78.59 C83.92 60.2, 58.55 41.57, 40.53 24.05 M105.02 73.75 C93.62 61.29, 76.44 46.38, 41.66 16.76 M107.44 76.08 C88 60.28, 70.2 43.96, 40.34 20.13 M113.46 74.97 C92.95 55.78, 70.15 43.42, 46.14 16.04 M108.71 72.43 C93.43 60.11, 77.91 46.49, 46.69 15.22 M110.97 69.81 C91.4 56.41, 74.03 36.73, 44.91 14.04 M113.41 72.36 C88.52 53.77, 68.58 32.91, 47.42 12.02 M114.65 66.61 C101.41 52.96, 79.62 38.18, 51.29 8.99 M114.74 67.18 C93.62 48.3, 71.38 27.64, 51.76 10.63 M115.07 66.35 C104.53 52.5, 83.57 31.61, 56.58 6.04 M119.29 65.63 C105.78 51.51, 91.21 42.08, 54.32 7.47 M120.78 60.93 C101.1 48.08, 77.08 24.72, 54.03 3.68 M123.05 60.75 C106.79 47.96, 90.98 33.5, 54.59 6.06 M126.29 59.6 C110.04 50.8, 97.67 34.62, 62.37 2.63 M122.9 60.7 C101.33 37.62, 78.76 18.41, 59.98 2.53 M92.1 26.97 C83.23 19.3, 79.28 14.14, 62.56 0.88 M92.14 27.37 C82.03 15.18, 70.88 6.6, 62.01 1.09" stroke="#fa5252" stroke-width="0.5" fill="none"></path><path d="M61.32 1.82 C75.53 18.09, 91.66 30.73, 120.46 61.99 M63.2 1.66 C80.48 22.9, 99.64 43.3, 122.22 61.01 M123.79 62.47 C109.66 71.87, 95 88.35, 58.03 121.49 M122.31 62.56 C108.08 78.55, 92.18 94.91, 61.91 122.85 M65.04 121.37 C43.1 102.65, 16.69 78.01, -3.78 64.31 M62.76 123.57 C43.69 103.11, 26.4 83.98, 0.46 63.93 M3.8 65.83 C25.46 39.78, 44.2 15.92, 62.74 0.3 M-0.17 61.5 C21.4 40.67, 42.26 16.87, 63.92 0.57" stroke="#000000" stroke-width="1" fill="none"></path></g><g transform="translate(396.5 58) rotate(0 22.5 13)"><text x="22.5" y="18" font-family="Virgil, Segoe UI Emoji" font-size="20px" fill="#000000" text-anchor="middle" style="white-space: pre;" direction="ltr">GIT</text></g><g stroke-linecap="round"><g transform="translate(413.0672090232372 240.2384023964405) rotate(0 -0.02376810470593682 -50.57917039798107)"><path d="M-0.89 1.12 C-0.74 -15.64, -0.28 -83.49, -0.18 -100.54 M0.84 0.66 C1.01 -16.45, -0.38 -85.54, -0.63 -102.28" stroke="#000000" stroke-width="1" fill="none"></path></g><g transform="translate(413.0672090232372 240.2384023964405) rotate(0 -0.02376810470593682 -50.57917039798107)"><path d="M11.99 -72.67 C9.09 -78.8, 5.81 -87.34, -2.48 -101.6 M10.5 -74.67 C6.95 -83.3, 3.25 -92.88, -1.19 -101.43" stroke="#000000" stroke-width="1" fill="none"></path></g><g transform="translate(413.0672090232372 240.2384023964405) rotate(0 -0.02376810470593682 -50.57917039798107)"><path d="M-8.53 -72.31 C-7.16 -78.36, -6.18 -86.98, -2.48 -101.6 M-10.02 -74.32 C-6.99 -82.92, -4.11 -92.6, -1.19 -101.43" stroke="#000000" stroke-width="1" fill="none"></path></g></g><g transform="translate(433 174) rotate(0 8 9.5)"><text x="0" y="15" font-family="Helvetica, Segoe UI Emoji" font-size="16px" fill="#000000" text-anchor="start" style="white-space: pre;" direction="ltr">1)</text></g><g stroke-linecap="round"><g transform="translate(351 300) rotate(0 -53.457004746491975 1.8089453434851066)"><path d="M0.66 1.17 C-16.94 1.51, -88.5 1.48, -106.41 1.57 M-0.46 0.74 C-18.18 1.29, -90.26 2.52, -107.57 2.87" stroke="#000000" stroke-width="1" fill="none"></path></g><g transform="translate(351 300) rotate(0 -53.457004746491975 1.8089453434851066)"><path d="M-77.62 -8.59 C-86.88 -6.55, -93.21 -2.31, -108.81 0.93 M-79.49 -7.63 C-89.97 -5.29, -98.45 -0.5, -107.52 3.26" stroke="#000000" stroke-width="1" fill="none"></path></g><g transform="translate(351 300) rotate(0 -53.457004746491975 1.8089453434851066)"><path d="M-77.24 11.93 C-86.51 9.18, -92.93 8.63, -108.81 0.93 M-79.11 12.89 C-89.51 8.4, -98.12 6.35, -107.52 3.26" stroke="#000000" stroke-width="1" fill="none"></path></g></g><g transform="translate(302 279.5) rotate(0 8 9.5)"><text x="0" y="15" font-family="Helvetica, Segoe UI Emoji" font-size="16px" fill="#000000" text-anchor="start" style="white-space: pre;" direction="ltr">2)</text></g></svg>