<svg viewBox="38.893216080402 18.69999999999999 295.2135678391959 336.6000000000001" xmlns="http://www.w3.org/2000/svg" overflow="visible" xmlns:xlink="http://www.w3.org/1999/xlink" width="295.2135678391959px" height="336.6000000000001px"><g id="Master/Stickers/Animal 7" stroke="none" stroke-width="1" fill="none" fill-rule="evenodd"><g id="Group-31" transform="translate(42.000000, 22.000000)"><path d="M3.23070514,49.2934623 L41.3258983,62.2674462 C38.5358219,57.7020293 37.3129235,54.7274499 37.6572032,53.3437079 C38.0014828,51.959966 39.0121497,50.8126345 40.6892038,49.9017134 C38.479311,47.4885432 38.0329535,45.6937022 39.3501314,44.5171902 C40.6673093,43.3406783 42.1962849,42.7432059 43.9370581,42.7247729 C43.4774358,41.0053559 43.6396726,39.8377546 44.4237686,39.2219692 C45.2078645,38.6061838 45.989069,38.25098 46.7673822,38.1563576 C44.7677392,34.5694411 43.9865347,32.166005 44.4237686,30.9460492 C45.0796194,29.1161155 47.2344385,27.066728 49.5977064,27.8545664 C51.9609743,28.6424048 59.6980876,32.8804994 60.8206855,35.5184285 C61.5690842,37.2770479 62.6662967,35.7529215 64.1123232,30.9460492 L25.9626357,2.34635206 C42.8922226,3.35549308 54.5115726,6.16970868 60.8206855,10.7889988 C67.1297985,15.408289 71.213589,20.1824157 73.0720569,25.111379 L74.1629704,32.3068991 L86.616104,35.5184285 L93.2082025,35.5184285 L104.42693,40.5780518 L111.53969,43.7462746 L116.586017,46.9669255 L120.492268,52.4374285 L124.180379,55.3159331 L128.05052,59.8449273 L132.360625,62.2674462 L134.383577,68.7295702 L137.464803,72.0362678 L136.978778,78.3887898 L140.796226,82.5929571 L141.448803,87.7103183 L145.147125,92.2330199 L146.16313,96.9618017 L150.627997,101.10884 L150.627997,112.112557 L153.694115,114.902933 L155.007376,117.405386 L159.472979,119.848117 L162.850233,125.397901 L167.512096,124.482522 L172.436456,129.333699 L177.525159,128.784029 L181.493314,133.081112 L185.645342,132.299924 L187.931388,135.853054 L193.640111,135.361264 L198.490537,141.326895 L202.723262,141.927439 L206.42906,144.767215 L210.337522,145.440754 L215.123334,149.697653 L220.806394,152.44637 L224.677271,151.829236 L234.31301,158.721614 L238.357441,157.647772 L241.243741,160.241653 L246.553531,160.241653 L254.843952,164.296527 C252.311515,157.736619 253.134452,153.293056 257.312764,150.965838 C259.420959,150.024285 261.11535,150.770326 262.395939,153.203964 C265.519909,143.402565 269.542108,139.443542 274.462538,141.326895 C279.382968,143.210248 278.879011,148.415459 272.950667,156.942529 L276.719475,160.241653 L275.289406,164.815513 L276.006467,167.133722 C275.294073,168.897139 274.275473,169.778847 272.950667,169.778847 C271.62586,169.778847 269.609786,169.566991 266.902444,169.14328 L266.195332,181.271773 L268.059101,186.301012 L266.902444,191.372277 L269.837752,196.750012 L268.976615,203.753099 L272.104638,207.319335 L270.989619,211.517517 L273.879603,215.843087 L272.104638,219.547735 L274.462538,223.640213 C278.642266,222.301245 281.269142,222.555251 282.343166,224.402229 C283.41719,226.249208 282.939655,229.726395 280.910561,234.833789 L279.691999,237.045739 L280.910561,239.828373 L277.676284,243.499842 L278.886135,247.594163 L277.676284,250.166661 L279.691999,255.178573 L278.886135,258.705897 L280.910561,262.252281 L278.31278,265.405895 L282.343166,271.019088 L280.910561,280.396226 L286,314.298584 L275.289406,314.298584 L268.976615,280.396226 L265.227252,280.396226 L260.746625,283.779831 L251.094304,318.346352 L243.106037,316.313938 L249.042979,277.715975 C246.324112,275.828288 244.964679,274.485008 244.964679,273.686134 C244.964679,272.887261 243.123253,272.887261 239.440403,273.686134 L235.712495,272.1317 L230.399758,273.686134 L226.775762,271.563966 L222.436916,273.146248 L217.317998,271.563966 L212.229296,273.686134 L207.050685,271.563966 L202.011359,274.776455 C193.537067,273.917727 188.843744,272.846897 187.931388,271.563966 C187.019033,270.281034 185.646324,270.470279 183.813261,272.1317 L178.633913,269.322154 L170.948536,272.1317 L161.850409,267.725125 L159.472979,273.146248 L156.797817,276.487399 C156.80052,280.112333 156.502788,281.9248 155.904623,281.9248 C155.306458,281.9248 153.547583,281.9248 150.627997,281.9248 L147.758278,318.346352 L140.796226,318.346352 L136.978778,281.128071 C134.723929,278.656831 133.596505,276.539626 133.596505,274.776455 C133.596505,273.013285 132.922433,272.1317 131.574289,272.1317 L130.715732,267.725125 L127.481219,266.545787 L121.878488,275.633955 L119.188956,316.313938 L110.812554,317.860092 L109.580853,273.146248 L108.748089,270.083802 L105.441354,266.545787 L105.441354,260.305874 L103.409189,256.224088 L103.409189,250.166661 L101.965487,244.466096 L101.965487,242.575247 L100.16399,237.045739 L102.879316,234.237299 L101.002634,225.872439 L99.2405806,222.822897 L99.2405806,218.427014 L96.5329931,213.47335 L98.3271199,205.987741 L94.6353236,201.413058 L95.2473681,197.425649 L93.2082025,192.408207 L94.6353236,186.301012 L92.5290947,182.540327 L94.6353236,177.845093 L92.5290947,173.872061 L91.5828394,169.14328 L89.3738047,164.296527 L89.9700045,160.241653 L89.3738047,156.010967 L91.5828394,149.697653 L89.9700045,137.587224 L89.3738047,127.718237 L90.6152122,122.815449 L84.5577774,104.862889 L79.9794195,98.8047252 L74.1629704,90.2883467 L53.5349722,73.9527229 L45.0656172,66.6915193 C37.0412937,69.6409014 31.8513826,71.1155925 29.4958838,71.1155925 C25.9626357,71.1155925 12.6633712,68.7682793 7.33184111,61.4721603 C3.77748773,56.6080809 2.41044241,52.5485149 3.23070514,49.2934623 Z" id="Path-65-Copy" fill="#fafbef"/><path d="M70.0407029,36.4486646 C71.8996151,35.5933337 73.7342594,34.7489219 76.1598243,33.6315322 C74.4610795,33.3488484 73.3714561,33.2736278 72.3509958,32.9678925 C71.2528787,32.6391057 70.2190711,32.0943631 69.0141757,31.583591 C69.4158075,33.4883704 69.7240084,34.9466793 70.0407029,36.4486646 L70.0407029,36.4486646 Z M49.1825439,56.1382602 C48.9811213,56.0848778 48.7796987,56.0314954 48.5770628,55.9793263 C47.1840921,56.993591 45.7717071,57.983591 44.4030042,59.0318263 C43.3776904,59.8167896 43.1580669,61.0955396 44.1287782,61.6778925 C45.4914142,62.4968263 45.8214561,63.6130028 46.0119582,65.0264219 C46.1684854,66.1899146 46.6938828,67.2539219 48.262795,67.2187381 C48.262795,65.3285175 48.1438828,63.4880396 48.2967699,61.6693999 C48.4520837,59.8143631 48.8755565,57.9811646 49.1825439,56.1382602 L49.1825439,56.1382602 Z M87.9066444,61.5735543 C84.7069372,64.253591 82.6029205,66.8596204 80.8544268,70.441091 C83.5906192,69.9012013 85.8827113,69.4498778 88.4199079,68.9488116 C88.2524603,66.5393263 88.1044268,64.4016057 87.9066444,61.5735543 L87.9066444,61.5735543 Z M61.5627531,78.092966 C60.1758494,76.6977454 58.8508285,75.2321572 57.3874812,73.9230763 C54.1950544,71.0659072 51.9939665,67.8666057 52.9476904,63.2769366 C53.1406192,62.3451719 53.012,61.345466 53.012,60.376091 C53.0107866,59.2793263 52.3361423,58.9444734 51.2125439,58.8158704 C50.1738828,62.257819 49.9773138,65.6051352 51.5086109,68.7825984 C52.2827531,70.3889219 53.5762259,71.7732234 54.7726276,73.1344734 C55.7130042,74.2045469 56.9470209,75.0149881 57.9031715,76.0729293 C58.8690293,77.144216 59.7584435,78.2227822 61.5627531,78.092966 L61.5627531,78.092966 Z M263.400326,275.104179 C260.636226,275.624657 258.242209,275.22065 255.935556,273.952819 C255.148067,273.519694 254.063297,273.397157 253.145975,273.479657 C251.062586,273.668922 248.999824,274.072929 246.929782,274.389584 C247.251331,276.062635 247.479448,276.648628 248.192921,276.49212 C250.537188,275.972856 251.784552,277.087819 252.698234,278.998665 C252.808653,279.231606 253.116854,279.476679 253.368025,279.522782 C256.018067,280.000797 258.646268,280.346569 261.217439,281.419069 C262.45995,281.93712 264.204803,280.58679 265.416979,279.389326 C264.742335,277.956495 264.130787,276.65712 263.400326,275.104179 L263.400326,275.104179 Z M95.9635481,78.1657602 C94.7028368,76.7681131 93.7527531,75.5318263 92.6206611,74.4920837 C88.7220418,70.9069734 90.0215816,70.8657234 84.2955983,72.0813852 C83.1622929,72.3216057 81.9998661,72.4235175 80.8762678,72.694069 C80.359364,72.817819 79.7490293,73.0750249 79.4493222,73.4741793 C78.4531297,74.7990322 78.4980251,77.6258704 79.5597406,78.9300984 C81.3519163,81.1321204 83.6961841,82.5673778 86.5573556,82.4387749 C90.2169372,82.2749881 93.4566862,80.8918999 95.9635481,78.1657602 L95.9635481,78.1657602 Z M97.8576485,76.2900984 C100.290494,73.8891057 101.922502,71.3206866 102.705138,68.2536278 C103.604259,64.732819 102.4661,61.5529293 99.5333389,60.0181866 C96.5484017,58.4555396 93.4773138,58.3730396 90.2861004,60.2232234 C90.4402008,63.1155763 90.5433389,65.9945837 90.7920837,68.8602454 C90.8418326,69.4365322 91.357523,70.054069 91.8089038,70.5005396 C93.7236318,72.3943999 95.6953891,74.2312381 97.8576485,76.2900984 L97.8576485,76.2900984 Z M251.370787,314.15701 C254.099699,304.056826 256.834678,293.937231 259.584218,283.761826 C258.563757,283.17826 257.688904,282.238003 256.922042,282.318076 C254.248946,282.60076 252.097607,281.542819 250.252042,280.180356 C248.531456,291.524106 246.826644,302.752598 245.097565,314.15701 L251.370787,314.15701 Z M284.558192,310.395981 C283.360577,300.509326 281.053925,290.996348 279.722837,281.434841 C276.747607,281.65565 274.119406,281.850981 271.243674,282.063297 C272.68518,292.09554 274.143674,302.249106 275.630075,312.582231 C278.715724,311.826385 281.491958,311.14576 284.558192,310.395981 L284.558192,310.395981 Z M141.39041,282.075429 C140.136979,282.210098 138.918736,282.341128 137.819406,282.458812 C138.535305,293.32576 139.240285,304.010723 139.961038,314.951679 C142.390243,314.499143 144.642293,314.07815 147.270494,313.588003 C148.083464,303.916091 148.891582,294.318187 149.705766,284.635356 C148.361331,284.391495 147.270494,283.828554 146.518192,284.124584 C144.074427,285.084253 142.635347,283.974143 141.39041,282.075429 L141.39041,282.075429 Z M111.464594,316.252268 C113.824636,315.871312 115.675054,315.572856 117.481791,315.281679 C117.590996,314.578003 117.683213,314.203113 117.705054,313.824584 C118.407607,301.936091 119.108946,290.048812 119.788444,278.160319 C119.833339,277.372929 119.697439,276.575834 119.622209,275.412341 C116.893297,276.977415 114.712837,277.309841 112.839364,274.836054 C112.545724,274.447819 111.51313,274.618885 110.569113,274.498775 C110.86882,288.484951 111.161247,302.105944 111.464594,316.252268 L111.464594,316.252268 Z M121.342795,273.870319 C122.062335,270.908812 125.912418,270.535135 125.550828,266.859032 C124.364134,266.120172 122.865598,265.319437 121.52723,264.306385 C120.555305,263.568738 119.593088,262.668518 118.999741,261.628775 C118.431874,260.635135 117.895556,259.932672 116.746477,259.629363 C114.86451,259.131937 113.910787,257.719731 113.516435,255.887745 C113.294385,254.860135 113.102669,253.828885 112.913381,252.878922 C107.97246,251.261679 107.871749,251.083334 107.23836,245.68929 C107.160703,245.034143 106.517607,244.446937 106.148736,243.82212 C105.480159,242.688959 104.342,241.582488 104.261916,240.406863 C104.122377,238.33951 103.281498,237.003738 101.648276,235.948223 C100.375431,238.603995 100.34995,239.347709 102.068109,240.347415 C103.576351,241.224584 103.886979,242.132084 103.098276,243.642562 C102.375096,245.02929 102.251331,246.737525 103.423464,247.705687 C105.369741,249.31201 104.901372,250.992341 104.384469,252.922598 C103.986477,254.405172 103.525389,256.134032 104.708444,257.364253 C106.345305,259.065209 106.492126,260.868076 105.9461,262.971826 C105.756812,263.70462 105.631833,264.586643 105.866017,265.264841 C106.192418,266.206312 106.771205,267.647635 107.444636,267.771385 C109.566854,268.158407 109.63723,269.782929 110.361623,271.208481 C111.140619,272.74201 113.717858,271.048334 114.521121,273.067157 C114.587858,273.238223 114.766226,273.363187 114.891205,273.509988 C115.556142,274.285245 116.411582,274.559437 117.172377,273.853334 C118.48041,272.640098 119.77631,272.888812 121.342795,273.870319 L121.342795,273.870319 Z M2.6854728,50.5500984 C2.75584937,51.280466 2.74371548,51.6674881 2.83835983,52.0253925 C2.98760669,52.584694 3.14777406,53.1561278 3.40865272,53.6681131 C6.45061925,59.6396572 10.6574393,64.4792528 17.0762678,66.9032969 C24.2643849,69.616091 31.5568536,69.1429293 38.7668117,66.9372675 C40.4255146,66.4289219 41.9034226,65.3236646 43.9940921,64.2099146 C41.9604519,63.1325616 40.6123766,62.129216 39.0992803,61.6633337 C31.9681925,59.468591 24.7788619,57.4618999 17.6356402,55.3047675 C12.7359749,53.8246204 7.87756485,52.2061646 2.6854728,50.5500984 L2.6854728,50.5500984 Z M72.3279414,30.1835175 C73.0292803,28.391569 72.7125858,26.7888852 72.0306611,25.1024881 C69.5298661,18.9234807 65.1750126,14.4454293 59.5812887,10.9949881 C51.7537155,6.16509839 43.0719163,4.03829692 34.1025439,2.78623809 C32.2448452,2.52660574 30.3713724,2.37131162 28.5051799,2.16870133 C28.9674812,3.34189986 29.6202845,4.00068662 30.3228368,4.60366456 C39.5907029,12.5685543 49.8414142,19.1903925 59.8361004,26.1604293 C62.0905774,27.731569 64.2006611,29.3597307 67.3360586,28.9981866 C68.9255983,28.8149881 70.6449707,29.7491793 72.3279414,30.1835175 L72.3279414,30.1835175 Z M49.2844686,50.5707234 C49.7977322,51.6141057 50.024636,51.924694 50.1083598,52.2692528 C51.0584435,56.1418999 54.636728,58.6241793 58.5062259,58.0721572 C60.9475649,57.7251719 62.9011213,55.7706499 62.7421674,53.3599513 C62.5856402,50.9783704 62.1281925,48.5895102 61.537272,46.2722307 C61.2933808,45.3149881 61.0591967,44.5118263 61.9340502,44.0156131 C62.3368954,43.7875249 63.1304519,44.0423043 63.6558494,44.2788852 C65.2672301,45.0031866 66.4138828,44.8466793 67.5435481,43.6091793 C68.8018326,42.230944 68.8612887,41.0274146 67.73041,39.4380763 C67.2923766,38.822966 66.8264351,38.2284807 66.3689874,37.6206499 C66.5886109,37.1450616 66.7475649,36.801716 66.9065188,36.4583704 C67.7680251,34.5936278 67.3676067,33.3270102 65.6227531,32.4049513 C63.9555565,31.5241425 63.4034644,31.789841 62.248318,34.0331131 C62.204636,34.1180396 62.2022092,34.2248043 62.1536736,34.306091 C61.509364,35.4186278 60.7643431,35.6030396 59.8154728,34.7719734 C59.1638828,34.2017528 58.5948033,33.527194 58.0451381,32.8526352 C56.0782343,30.4407234 53.5968536,28.8914219 50.5694477,28.144069 C48.8682762,27.7242896 47.233841,27.6502822 45.9767699,29.0066793 C44.6978577,30.3885543 45.0096987,32.0919366 45.5836318,33.6703557 C45.942795,34.6591425 46.5701172,35.5496572 47.0785272,36.4850616 C48.169364,38.4917528 47.9570209,38.9042528 45.7644268,39.260944 C45.1540921,39.3604293 44.5753054,39.647966 43.9807448,39.8481499 C45.2099079,43.4114219 45.2099079,43.4114219 41.6437573,43.571569 C41.5466862,43.5764219 41.4496151,43.5703557 41.3525439,43.5776352 C39.4657238,43.731716 38.8092803,44.8648778 39.6865607,46.5439954 C39.9001172,46.954069 40.317523,47.2549513 40.6330042,47.6128557 C41.9907866,49.1536646 41.6655983,50.4712381 39.7023347,50.7502822 C38.6078577,50.9055763 38.1904519,51.4575984 37.910159,52.311716 C37.2039665,54.4603557 38.5981506,56.5701719 40.9812469,56.9632602 C43.376477,57.3587749 45.0861423,56.2595837 46.4402845,54.4081866 C47.2678159,53.2762381 48.1099079,52.1539954 49.2844686,50.5707234 L49.2844686,50.5707234 Z M56.2857238,60.6114587 C55.5394895,64.0667528 55.1281506,67.5038484 57.6265188,70.3137013 C60.6417908,73.7071204 63.7784017,77.0471572 67.2171464,79.9977454 C70.2603264,82.6074146 74.3324603,82.4727454 77.5115397,80.3059072 C77.3113305,79.7987749 77.0880669,79.273444 76.8951381,78.737194 C76.0287782,76.324069 76.3454728,74.1220469 77.4896987,71.7683704 C80.0790711,66.4386278 83.2314561,61.6657602 88.3859331,58.4761646 C90.8600335,56.9462749 93.5294895,56.2656499 96.4331297,56.544694 C97.0835063,56.6077822 97.7314561,56.6817896 98.657272,56.7800616 C98.7773975,55.6869366 99.0394895,54.7418263 98.9545523,53.8282602 C98.5262259,49.305319 96.8117071,45.3950616 93.1642594,42.514841 C89.7716234,39.8348043 85.9591548,37.9397307 81.7850962,36.8599513 C78.7091548,36.0628557 75.6586946,36.0713484 72.7829623,37.7880763 C71.4518745,38.5815322 70.7080669,39.3737749 70.7177741,41.1766425 C70.7250544,42.560944 69.8853891,44.2170102 68.9025439,45.2652454 C67.8602427,46.3753557 66.2039665,46.907966 64.5076485,47.8676352 C64.6496151,49.1536646 64.8862259,50.7660543 64.9917908,52.3881499 C65.2902845,56.9474881 62.6632971,60.009694 58.1409958,60.442819 C57.5719163,60.4986278 57.0016234,60.5471572 56.2857238,60.6114587 L56.2857238,60.6114587 Z M224.035556,152.596532 C223.483464,152.717856 223.197105,152.759106 222.926519,152.844032 C220.320159,153.672672 220.358987,153.639915 218.557105,151.636863 C218.007439,151.025393 217.204176,150.31565 216.470075,150.259841 C214.412167,150.10212 213.060452,149.034473 211.932,147.486385 C210.883632,146.046275 209.514929,145.285576 207.693632,145.459069 C206.003381,145.619216 204.782711,144.836679 203.579029,143.70837 C202.778192,142.956165 201.630326,142.201532 200.597732,142.14087 C198.281372,142.004988 196.932084,140.954326 195.803632,139.001018 C194.46405,136.687378 192.523841,135.182966 189.529197,136.069841 C188.035515,136.511459 186.887649,136.026165 186.274887,134.46837 C185.788318,133.227231 184.837021,132.593922 183.50472,133.003995 C181.412837,133.649437 180.044134,132.887525 178.813757,131.17201 C177.522711,129.370356 175.708695,128.598738 173.448151,129.451643 C171.936268,130.021863 170.817523,129.415245 169.962084,128.153481 C169.579866,127.592966 169.231623,127.000907 168.791163,126.487709 C167.290201,124.739437 166.381372,124.610834 164.295556,125.780393 C162.538569,126.76554 162.078695,126.667268 161.074008,124.920209 C160.301079,123.577157 159.738067,122.094584 158.840159,120.847378 C158.272293,120.058775 157.318569,119.187672 156.435222,119.060282 C154.329992,118.75576 153.440577,117.622598 153.031665,115.697194 C152.644594,113.872488 152.019699,112.120576 149.766435,111.487268 C149.766435,110.257047 149.797983,109.104473 149.757941,107.953113 C149.694845,106.118701 149.645096,104.28065 149.474008,102.453518 C149.321121,100.836275 148.684092,99.506569 147.016895,98.8089587 C145.6579,98.2411646 145.000243,97.0776719 144.841289,95.6096572 C144.726017,94.5505028 144.64472,93.4670837 144.345013,92.4540322 C144.080494,91.561091 143.751665,90.3430028 143.072167,89.9802454 C140.798276,88.7645837 140.532544,86.7506131 140.343255,84.5801352 C140.156393,82.4266425 139.291247,80.6625984 137.2479,79.6580396 C135.831874,78.9628557 135.36836,77.7945102 135.572209,76.2900984 C135.727523,75.1363116 135.909531,73.9849513 136.009029,72.8263116 C136.130368,71.4128925 136.059992,70.095319 134.310285,69.5991057 C133.141791,69.2678925 132.706184,68.280319 132.521749,67.1653557 C132.394343,66.3998043 132.245096,65.6391057 132.149238,64.8699146 C131.898067,62.8680763 130.949197,61.3600249 128.976226,60.7497675 C126.87949,60.1006866 125.622418,58.684841 124.515808,56.8601352 C123.803548,55.6857234 122.706644,54.420319 121.489615,53.9520102 C119.515431,53.1913116 118.541079,51.9683704 118.035096,50.0466057 C117.711121,48.8175984 117.151749,47.5412749 115.72723,47.3034807 C114.029699,47.0207969 112.994678,45.938591 112.000912,44.7399146 C110.94769,43.4720837 109.690619,42.6555763 107.974887,42.870319 C106.479992,43.0583704 105.340619,42.4772307 104.384469,41.3877454 C103.234176,40.0786646 101.872753,39.2937013 100.035682,39.5375616 C99.5830879,39.5982234 98.8550544,39.5412013 98.6584854,39.2573043 C97.1126276,37.0188852 94.7355983,36.677966 92.3476485,36.2763852 C92.0018326,36.2181499 91.7106192,35.8517528 91.3866444,35.6406499 C89.4343013,34.3703925 89.4343013,34.3716057 87.3618326,36.3904293 C96.4161423,40.7059072 102.423632,46.9674146 100.956644,57.9144366 C104.949908,61.5529293 106.223967,64.7886278 104.686603,69.4450249 C102.372669,76.4490322 97.6598661,81.439069 90.7217071,84.0754293 C87.8496151,85.167341 84.8889456,85.1770469 81.9549707,83.7575616 C80.9187364,83.2564954 79.5294059,83.3377822 78.3099498,83.3899513 C75.8152218,83.4979293 73.3277741,83.7830396 70.8354728,83.9541057 C70.2469791,83.9941425 69.6475649,83.8716057 68.9134644,83.8133704 C69.6111632,85.8819366 71.0842176,86.796716 72.6179414,87.6496204 C73.2853054,88.0208704 74.182,88.2234807 74.5860586,88.7839954 C76.7155565,91.7321572 78.9263515,94.6572675 80.6881925,97.8238116 C81.5958075,99.4556131 82.3068536,101.09712 83.9000335,102.157488 C85.382795,103.145062 86.050159,104.525723 86.2673556,106.282488 C86.4311632,107.608554 86.6507866,109.05837 87.3181506,110.170907 C89.3068954,113.480613 89.7255146,117.304731 91.0578159,120.8219 C91.4982762,121.981753 91.5637992,123.658444 91.0347615,124.713959 C90.3479833,126.081275 90.0786109,127.152562 90.8017908,128.484694 C90.9728787,128.802562 91.1233389,129.349731 90.9692385,129.589951 C89.595682,131.733738 90.1853891,133.81201 90.9680251,135.950944 C91.1488201,136.443518 90.958318,137.102304 90.8454728,137.667672 C90.2205774,140.82087 91.1645941,143.879437 92.1571464,146.673518 C93.0016653,149.049032 93.2467699,150.711165 91.625682,152.738481 C90.3552636,154.327819 89.5216653,156.191348 90.7326276,158.390944 C91.0820837,159.025466 90.8806611,160.12951 90.6112887,160.907194 C89.9063096,162.936937 90.2836736,164.767709 91.4400335,166.434694 C92.7262259,168.284878 93.1715397,170.2394 92.9786109,172.480245 C92.9058075,173.32951 93.2540502,174.517268 93.8534644,175.063223 C95.4915397,176.55429 95.4260167,178.001679 94.3485272,179.686863 C94.0912887,180.09087 93.8753054,180.553113 93.7758075,181.017782 C93.4676067,182.448187 93.0453473,183.891937 95.0013305,184.644143 C95.9441339,185.005687 96.1710377,185.868297 95.6820418,186.82554 C95.4187364,187.343591 95.1166025,187.851937 94.9321674,188.397893 C94.0463933,191.028187 93.2953054,193.614804 95.7718326,195.936937 C96.1831715,196.322745 96.3275649,197.46804 96.0703264,198.013995 C95.0207448,200.239069 95.5958912,201.992194 97.3553054,203.44929 C98.9132971,204.741385 99.3003682,206.166937 98.5189456,208.076569 C98.049364,209.22065 97.912251,210.511532 97.6962678,211.749032 C97.4305356,213.280135 97.7909121,214.686275 98.9800335,215.721165 C100.652084,217.175834 101.044008,218.908334 100.406979,220.961128 C100.038109,222.148885 100.000494,223.357268 101.101038,224.137378 C102.654176,225.238995 102.850745,226.527451 102.125138,228.178665 C101.52087,229.554473 102.080243,230.481385 102.955096,231.758922 C104.13087,233.478076 104.439071,235.777157 106.253088,237.216054 C106.510326,237.419878 106.425389,238.146606 106.380494,238.620981 C106.208192,240.422635 106.689908,241.836054 108.408067,242.739915 C109.534092,243.331973 109.909029,244.252819 109.719741,245.646826 C109.272,248.939547 109.735515,249.552231 112.881833,250.292304 C114.513841,250.674473 115.5161,251.399988 115.419029,253.228334 C115.389908,253.796128 115.588904,254.374841 115.658067,254.952341 C115.840075,256.473738 116.548695,257.521973 118.18313,257.642084 C119.691372,257.754915 120.341749,258.645429 120.713046,260.006679 C121.09041,261.393407 121.938569,262.323959 123.48928,262.647893 C124.254929,262.809253 124.910159,263.497157 125.617565,263.944841 C126.157523,264.286973 126.663506,264.723738 127.249573,264.94576 C128.233632,265.315797 129.254092,265.665209 130.2879,265.80837 C131.838611,266.024326 132.121331,267.0119 132.088569,268.289437 C132.067941,269.064694 131.889573,269.864216 132.0279,270.606716 C132.160159,271.317672 132.456226,272.395025 132.946435,272.570944 C134.821121,273.24429 134.893925,274.510907 134.902418,276.209437 C134.916979,279.00837 137.525766,280.688701 139.912502,279.686569 C142.262837,278.698995 142.25677,278.703848 143.55631,280.987157 C143.78564,281.392378 144.098695,281.750282 144.06836,281.709032 L149.265305,281.709032 C151.032,279.265576 151.032,279.265576 154.520494,280.467893 C155.508192,279.557966 155.781205,278.651679 154.617565,277.593738 C153.945347,276.981054 152.863004,276.545503 153.415096,275.075062 C154.87723,275.243701 156.227732,274.877304 157.011582,273.383812 C157.088025,273.239437 157.323423,273.15087 157.503004,273.091422 C159.152,272.547893 159.636142,271.278848 159.687105,269.695576 C159.705305,269.118076 159.797523,268.529657 159.95405,267.973995 C160.297439,266.749841 162.283757,265.803518 162.856477,266.698885 C163.953381,268.415613 165.985808,268.112304 167.174929,269.245466 C169.209782,271.184216 171.393883,270.890613 173.660494,270.038922 C174.831414,269.598518 175.952586,268.99554 177.039782,268.367084 C178.230117,267.677966 179.22995,267.744694 180.126644,268.817194 C181.934594,270.982819 184.150243,271.321312 186.669238,270.262157 C187.849866,269.767157 188.93949,269.81326 189.875013,270.780209 C191.463339,272.422929 193.425389,272.644951 195.525766,272.225172 C197.019448,271.926716 198.406351,272.062598 199.710745,272.90337 C201.402209,273.991643 202.884971,273.343775 204.214845,272.2094 C204.713548,271.784768 205.005975,271.121128 205.407607,270.577598 C206.50087,269.091385 207.048109,269.03679 208.394971,270.269437 C211.367774,272.988297 212.683088,273.091422 215.92405,270.55212 C217.126519,269.61065 218.028067,269.456569 219.192921,270.55576 C220.952335,272.216679 222.925305,271.839363 224.844887,270.827525 C225.668778,270.393187 226.417439,269.815687 227.045975,269.4044 C227.542251,269.634915 227.760661,269.673738 227.882,269.803554 C230.547816,272.677709 230.553883,272.69712 234.173423,270.916091 C235.118653,270.451422 236.068736,270.206348 236.882921,270.959768 C238.982084,272.899731 241.110368,272.529694 243.25928,271.155098 C244.444762,270.396826 245.552586,270.271863 246.772042,271.077451 C248.065515,271.933995 249.524008,272.075944 250.960661,271.557893 C253.420201,270.673444 255.630996,271.077451 257.954636,272.21304 C259.148611,272.797819 260.776979,272.899731 262.118987,272.676495 C264.409866,272.29554 264.42928,272.1269 265.43882,274.14815 C265.740954,274.753554 265.942377,275.408701 266.22995,276.021385 C267.070828,277.807268 268.213841,279.072672 270.470745,278.839731 C271.181791,278.765723 271.952293,279.140613 272.679113,279.367488 C277.179573,280.767562 281.248067,278.017157 281.404594,273.335282 C281.468904,271.408665 281.314803,269.503885 279.404929,268.174179 C278.452418,267.51054 277.525389,266.428334 277.239029,265.360687 C277.107983,264.872966 278.542209,263.944841 279.296937,263.247231 C280.372,262.256018 280.561289,261.086459 279.395222,260.348812 C277.849364,259.370944 277.555724,258.336054 278.229155,256.716385 C278.953548,254.976606 278.788527,253.318113 277.348234,251.899841 C276.336268,250.903775 276.486728,249.833701 277.345808,248.789106 C278.428151,247.473959 278.608946,246.268003 277.112837,245.040209 C275.964971,244.097525 276.199155,243.015319 277.219615,242.05565 C277.782628,241.525466 278.469406,241.078995 278.884385,240.451753 C279.281163,239.851201 279.823548,238.766569 279.572377,238.411091 C277.944008,236.110797 279.409782,234.63065 280.723883,233.048591 C282.235766,231.228738 282.769657,229.105576 282.523339,226.794363 C282.270954,224.426128 280.481205,223.24565 278.180619,223.933554 C277.456226,224.150723 276.777941,224.568076 276.129992,224.97451 C275.558485,225.332415 275.109531,225.918407 274.511331,226.195025 C273.875515,226.489841 272.969113,226.865944 272.461916,226.623297 C271.573715,226.195025 271.976561,225.315429 272.408527,224.617819 C272.562628,224.370319 272.724008,224.125245 272.850201,223.865613 C273.382879,222.763995 273.147481,221.881973 272.266561,220.997525 C270.544762,219.269878 270.586017,219.227415 271.908611,217.306863 C272.98246,215.745429 272.927858,214.74451 271.715682,213.772709 C269.601958,212.082672 269.601958,212.082672 270.499866,209.458444 C271.276435,207.186054 271.232753,206.822084 269.28041,205.306753 C267.875305,204.216054 267.416644,202.903334 267.795222,201.224216 C268.093715,199.90179 268.395849,198.579363 268.691916,197.255723 C269.013464,195.815613 268.798695,194.512598 267.505222,193.640282 C265.845305,192.521679 265.79313,190.971165 266.157146,189.256863 C266.379197,188.215907 266.678904,187.174951 266.746854,186.121863 C266.786895,185.509179 266.640075,184.601679 266.228736,184.292304 C264.374678,182.900723 264.782377,180.975319 265.055389,179.247672 C265.267732,177.899768 265.469155,176.784804 265.023841,175.359253 C264.553046,173.854841 265.704552,172.079878 264.957105,170.4044 C264.906142,170.287929 265.062669,170.023444 265.188862,169.892415 C266.367063,168.66826 267.172753,166.997635 268.968569,166.540245 C272.281121,169.092893 273.170536,169.041937 275.045222,166.262415 C273.40836,163.905098 273.40836,163.905098 274.887481,161.608444 C276.205222,159.562929 276.054762,159.078848 273.765096,158.024547 C272.273841,157.337856 272.02995,156.823444 272.698527,155.316606 C273.482377,153.546495 274.567146,151.881937 275.136226,150.051165 C275.670117,148.33201 275.988025,146.440576 275.8861,144.654694 C275.721079,141.793885 273.522418,140.430209 270.970661,141.696826 C269.314385,142.5194 267.763674,143.897635 266.644929,145.387488 C264.654971,148.037194 263.562921,151.146716 263.536226,154.501312 C261.831414,154.614143 261.831414,154.614143 260.899531,153.080613 C259.368234,150.564363 257.68041,150.481863 255.985305,152.842819 C253.901916,155.744878 253.833967,160.162268 255.806937,163.198995 C256.054469,163.581165 256.207356,164.025209 256.550745,164.748297 C255.730494,164.904804 254.839866,165.324584 254.583841,165.080723 C252.999155,163.569032 251.083213,163.3094 249.050787,163.157745 C248.566644,163.121348 248.015766,162.596018 247.683297,162.155613 C246.607021,160.730062 245.237105,160.368518 243.565054,160.753113 C241.514427,161.226275 239.940661,160.656054 239.035473,158.637231 C238.878946,158.287819 238.613213,157.986937 238.426351,157.707893 C237.698318,157.880172 237.192335,157.900797 236.785849,158.113113 C234.797105,159.151643 233.18451,158.798591 231.553715,157.222598 C230.695849,156.395172 229.404803,155.773995 228.224176,155.578665 C226.326435,155.266863 225.018402,154.359363 224.035556,152.596532 L224.035556,152.596532 Z M279.090661,250.51554 C280.731163,252.474915 281.371833,254.390613 280.686268,256.672709 C280.520033,257.223518 280.649866,258.042451 280.965347,258.532598 C283.099699,261.836238 283.056017,262.746165 280.352586,265.77804 C284.083757,268.919106 284.387105,272.811165 282.69564,277.064768 C281.997941,278.820319 281.781958,280.494584 282.131414,282.413922 C283.742795,291.281459 285.264385,300.164768 286.66949,309.065062 C287.562544,314.712672 288.197146,320.401532 288.937314,326.073407 C288.984636,326.443444 288.943381,326.826826 288.943381,327.285429 C287.632921,328.094657 286.60882,328.124988 285.761874,326.698223 C284.919782,325.281165 284.031582,323.890797 283.110619,322.524694 C282.530619,321.666937 281.849908,320.875907 280.933799,319.693003 C279.997063,322.04304 279.230201,323.986643 278.448778,325.922966 C278.158778,326.641201 277.906393,327.390981 277.502335,328.042488 C277.281498,328.397966 276.665096,328.866275 276.430912,328.774069 C275.997732,328.600576 275.477188,328.091018 275.406812,327.65304 C274.781916,323.827709 274.239531,319.986606 273.691079,316.147929 C272.144008,305.304032 270.611498,294.456495 269.043799,283.616238 C268.917607,282.737856 268.569364,281.893444 268.252669,280.78576 C267.132711,281.471238 266.461707,282.15429 265.682711,282.31201 C262.281582,283.008407 261.333925,285.445797 260.531874,288.447341 C257.232669,300.804143 253.729615,313.105135 250.27995,325.4219 C249.926854,326.681238 249.949908,328.390687 248.355515,328.713407 C246.740494,329.042194 246.188402,327.375209 245.302628,326.409473 C245.174008,326.268738 245.025975,326.142562 244.728695,325.859878 C244.145054,326.438591 243.614803,327.101018 242.949866,327.574179 C242.538527,327.866569 241.804427,328.118922 241.428276,327.940576 C241.027858,327.751312 240.633506,327.013665 240.667481,326.545356 C240.782753,324.907488 241.038778,323.27326 241.321498,321.651165 C242.864929,312.770282 244.556393,303.912451 245.943297,295.006091 C246.762335,289.752782 247.109364,284.426679 247.668736,279.134547 C245.586561,277.8194 244.163255,276.298003 244.208151,273.514841 C241.095808,274.990135 238.221289,275.221863 235.722921,272.982231 C231.034385,275.178187 230.282084,275.136937 226.831205,272.507856 C223.834134,274.23429 220.752126,274.868812 217.625222,272.365907 C214.299322,275.241275 210.860577,275.508187 207.279866,272.5394 C206.692586,273.11326 206.19995,273.682268 205.622377,274.143297 C203.673674,275.699878 201.610912,276.302856 199.141665,275.223076 C198.060536,274.749915 196.739155,274.548518 195.557314,274.638297 C193.248234,274.817856 191.13087,274.658922 189.24405,273.125393 C188.784176,272.751716 187.911749,272.397451 187.459155,272.586716 C183.920912,274.06201 181.035473,272.868187 178.450954,270.550907 C176.928151,271.209694 175.540033,271.91337 174.083967,272.418076 C171.504301,273.311018 169.032628,273.313444 166.596142,271.685282 C165.280828,270.804473 163.628192,270.425944 162.002251,269.76837 C161.869992,272.101422 160.998778,273.866679 158.983339,275.151495 C158.267439,275.607672 157.99564,276.892488 157.716561,277.855797 C157.509071,278.572819 157.742042,279.416018 157.556393,280.145172 C157.040703,282.176128 155.727816,282.987782 153.666268,282.678407 C153.121456,282.59712 152.583925,282.467304 152.035473,282.358113 C151.625347,287.615062 151.284385,292.71429 150.816017,297.800172 C150.185054,304.651312 149.449741,311.495172 148.775096,318.343885 C148.604008,320.078812 148.506937,321.821018 148.35405,323.557157 C148.277607,324.423407 148.297021,325.3394 148.000954,326.131643 C147.721874,326.878995 147.191623,327.887194 146.576435,328.050981 C146.000075,328.205062 145.074259,327.511091 144.473632,326.99304 C143.771079,326.386422 143.254176,325.563848 142.390243,324.509547 C141.994678,325.738554 141.839364,326.683665 141.392837,327.457709 C141.059155,328.036422 140.345682,328.39554 139.802084,328.852929 C139.398025,328.257231 138.799824,327.711275 138.62995,327.054915 C138.315682,325.845319 138.174929,324.573848 138.097272,323.320576 C137.664092,316.255907 137.353464,309.183959 136.841414,302.124143 C136.364552,295.554473 135.706895,288.99815 135.073506,282.440613 C135.00313,281.717525 134.594218,281.019915 134.300577,280.32837 C133.71087,278.928297 133.087188,277.542782 132.485347,276.147562 C132.299699,275.714437 132.268151,275.088407 131.946603,274.859106 C129.85472,273.363187 129.497983,271.277635 129.683632,268.928812 C129.7079,268.629143 129.354803,268.299143 129.220117,268.057709 C128.879155,268.057709 128.584301,267.981275 128.518778,268.069841 C126.966854,270.217268 125.674594,272.612194 123.844803,274.483003 C121.680117,276.694731 121.80631,279.316532 121.682544,281.939547 C121.010326,296.078591 120.402418,310.221275 119.750828,324.362745 C119.675598,325.979988 119.458402,327.589951 119.305515,329.218113 C116.588736,329.448628 116.361833,326.682451 114.473799,325.83804 C113.941121,326.778297 113.527356,327.747672 112.89154,328.536275 C112.532377,328.982745 111.747314,329.428003 111.259531,329.33337 C110.758402,329.235098 110.166268,328.545981 110.003674,327.998812 C109.70154,326.990613 109.595975,325.898701 109.560787,324.838334 C109.250159,315.43576 108.954092,306.031973 108.692,296.628187 C108.507565,290.037893 108.372879,283.443959 108.233339,276.851238 C108.209071,275.688959 108.289155,274.526679 108.292795,273.3644 C108.296435,272.16451 108.110787,271.039841 106.908318,270.393187 C103.740159,268.689804 103.161372,265.872672 103.753506,262.678223 C104.018025,261.246606 103.939155,260.141348 102.923548,258.952378 C101.566979,257.364253 101.597314,255.311459 102.066895,253.398187 C102.479448,251.710576 102.494008,250.377231 101.384971,248.814584 C100.642377,247.767562 100.660577,246.076312 100.622962,244.665319 C100.592628,243.500613 100.735808,242.583407 99.6837992,241.580062 C98.0141757,239.98951 98.4849707,237.814179 99.078318,235.828113 C99.3513305,234.914547 99.8852218,234.078628 100.049029,233.731643 C99.9240502,231.098922 99.8209121,228.957562 99.6935063,226.289657 C98.1245941,224.961165 97.5288201,222.817378 98.2823347,220.187084 C98.476477,219.507672 98.1597824,218.342966 97.6465188,217.855245 C94.9976904,215.343848 94.9637155,212.353223 95.9768954,209.25462 C96.6466862,207.205466 96.5653891,205.692562 94.8193222,204.140834 C93.4032971,202.881495 93.0356402,201.009473 93.4287782,199.0319 C93.5828787,198.254216 93.6350544,197.180503 93.2225021,196.616348 C91.5492385,194.323334 91.6705774,191.916275 92.3379414,189.393959 C92.561205,188.555613 92.7978159,187.72212 93.0611213,186.767304 C89.9839665,183.942893 91.3927113,180.84429 92.7747615,177.669253 C90.9389038,175.92462 90.5396987,173.777194 90.6731715,171.322819 C90.7350544,170.187231 90.1417071,168.902415 89.5350126,167.867525 C88.2463933,165.669143 87.6130042,163.454988 88.3410377,160.929032 C88.5206192,160.305429 88.6637992,159.503481 88.4259749,158.955098 C87.1749707,156.060319 88.3895732,153.676312 89.8104519,151.303223 C90.1089456,150.805797 90.4256402,150.320503 90.574887,150.083922 C89.8140921,146.958628 89.0678577,144.099032 88.4478159,141.213959 C88.2706611,140.386532 88.3689456,139.468113 88.4987782,138.615209 C88.7062678,137.251532 88.8919163,135.929106 88.102,134.670981 C87.9527531,134.433187 87.7986527,134.092268 87.855682,133.848407 C88.566728,130.791054 87.4382762,127.560209 88.6249707,124.585356 C89.3869791,122.672084 88.7523766,121.008738 88.2888619,119.224069 C87.0985272,114.648959 84.5006611,110.553076 83.7835481,105.805687 C83.6719163,105.06076 82.9305356,104.36315 82.3687364,103.743187 C81.6576904,102.958223 80.4321674,102.412268 80.1276067,101.524179 C78.9069372,97.9633337 75.9159331,95.5574881 74.3688619,92.2526352 C73.754887,90.9387013 72.9018745,90.0081499 71.5186109,89.5543999 C71.0830042,89.4112381 62.095431,82.4314954 61.7690293,82.1099881 C61.2230042,81.5713116 60.6624184,81.042341 60.081205,80.5412749 C58.6324184,79.2928557 57.0477322,78.1742528 55.7481925,76.7863116 C54.8284435,75.803591 53.9184017,75.1084072 52.5800335,74.9858704 C50.91041,74.8317896 49.4519163,74.050466 48.8597824,72.5460543 C47.8720837,70.0346572 45.712251,68.7583337 43.956477,67.1143999 C35.727272,71.2891425 27.1122092,72.111716 18.4413305,69.6585543 C9.33727197,67.0816425 3.40379916,60.8043631 0.406728033,51.8239954 C-0.0191715481,50.5476719 -0.316451883,49.1985543 0.60451046,47.5352087 C1.69777406,47.7851352 2.89538912,47.9719734 4.03718828,48.3347307 C13.2662259,51.2780396 22.4807029,54.2674513 31.710954,57.2083337 C33.6208285,57.8173778 35.5755983,58.2844734 38.2535481,59.0221204 C34.7565607,55.1531131 34.6121674,51.780319 37.6784017,48.5652454 C36.323046,43.5412381 36.9200335,42.3158704 40.7325021,41.1984807 C41.948318,39.4162381 42.9372301,37.9652087 44.0013724,36.4062013 C43.6919582,35.3118631 43.1192385,33.9481866 42.9445105,32.5347675 C42.3742176,27.932966 45.7037573,24.8198043 50.2697406,25.710319 C53.4512469,26.3327087 56.4131297,27.5265322 58.6469791,30.0403557 C59.1529623,30.6093631 59.5909958,31.2366057 60.1989038,32.0118631 C60.8626276,31.2135543 61.1999498,30.8071204 61.6925858,30.2150616 C60.3639247,29.3087749 59.1614561,28.5128925 57.9844686,27.6806131 C50.3049289,22.2513852 42.5744268,16.8888852 34.9798243,11.3431866 C31.6187364,8.88759839 28.5318745,6.05833368 25.330954,3.38436309 C24.8868536,3.01311309 24.4233389,2.62002486 24.1139247,2.14322339 C23.584887,1.32792927 23.859113,0.579363094 24.7412469,0.284546918 C25.4559331,0.045539565 26.2701172,-0.0321074939 27.0296987,0.0115689767 C39.8782762,0.740723388 52.2196569,3.19752486 63.1098243,10.6152454 C68.5834226,14.3435175 72.4881088,19.3080763 74.6212469,25.5525984 C75.1563515,27.1176719 74.9415816,28.9387381 75.0799079,30.7549513 C76.0845941,31.3191057 77.1742176,31.8043999 78.7043013,31.423444 C79.7951381,31.1528925 81.1565607,31.6466793 82.3141339,32.0409807 C84.3368536,32.7288852 86.2139665,33.439841 88.4745105,32.6306131 C89.4597824,32.2775616 90.8466862,32.9375616 92.0212469,33.2530028 C93.1108703,33.5453925 94.1568117,33.9979293 95.2282343,34.3655396 C95.4078159,34.4274146 95.642,34.3618999 95.7997406,34.4492528 C97.4329623,35.3482602 98.9715397,36.7459072 100.705473,37.054069 C102.652962,37.399841 104.118736,38.1362749 105.559029,39.3555763 C106.230033,39.9221572 107.226226,40.4135175 108.069531,40.4062381 C110.320368,40.3856131 111.989992,41.3343631 113.373255,42.9564587 C114.20564,43.9306866 115.07564,44.7047307 116.407941,45.0395837 C118.253506,45.5018263 119.318862,46.9649881 119.840619,48.7011278 C120.321121,50.2928925 121.126812,51.2125249 122.736979,51.9416793 C124.116603,52.5664954 125.298444,54.0005396 126.141749,55.3423778 C127.114887,56.8916793 128.145054,58.0673043 129.931163,58.6787749 C132.719531,59.6311646 133.947481,61.9266057 134.3661,64.6624513 C134.594218,66.155944 134.881791,67.3036646 136.434929,68.1529293 C138.378778,69.2157234 138.305975,71.4068263 138.250159,73.3552822 C138.214971,74.6024881 137.952879,75.8436278 137.775724,77.2085175 C141.131958,79.0198778 142.497021,81.9449881 142.750619,85.5604293 C142.799155,86.2434807 143.202,87.1364219 143.735891,87.5100984 C145.759824,88.925944 146.509699,90.9253557 146.762084,93.2220102 C146.967146,95.0891793 147.276561,96.7513116 149.378151,97.6393999 C150.198402,97.9851719 150.681331,99.2445102 151.195808,100.156863 C151.470033,100.642157 151.548904,101.268187 151.60472,101.842047 C151.852251,104.427451 151.647188,107.145098 152.400703,109.567929 C153.115389,111.860944 154.821414,113.84701 156.375766,116.443334 C160.332628,116.358407 161.144385,120.366937 163.079741,123.523775 C167.566854,121.043922 170.048234,123.879253 172.358527,127.361238 C176.434301,125.843481 179.367063,127.512893 181.711331,131.00701 C184.854008,129.841091 187.255305,130.761937 188.750201,133.830209 C193.122042,132.590282 195.937105,134.612745 198.010787,138.082598 C198.67087,139.186643 199.472921,139.743518 200.806435,139.767782 C202.527021,139.799326 204.002502,140.583076 205.134594,141.873959 C205.970619,142.827562 206.935264,143.25826 208.198402,143.17576 C210.532962,143.025319 212.336059,144.072341 213.702335,145.875209 C214.555347,147.001091 215.536979,147.613775 216.965138,148.00929 C218.542544,148.446054 219.9161,149.6144 221.789573,150.703885 C221.722837,150.719657 222.206979,150.665062 222.645013,150.490356 C224.135054,149.893444 225.273213,150.378738 226.247565,151.541018 C226.673464,152.050576 227.092084,152.816128 227.632042,152.938665 C230.053967,153.48462 232.208946,154.461275 234.100619,156.08337 C234.362711,156.306606 235.059197,156.233812 235.451121,156.061532 C238.266184,154.827672 240.366561,155.497378 241.683088,158.398223 C242.398987,158.398223 243.069992,158.47587 243.715515,158.383665 C245.766142,158.092488 247.585013,158.450393 249.001038,160.078554 C249.790954,160.989694 250.674301,161.340319 251.914385,160.595393 C251.960494,159.702451 251.95928,158.743995 252.074552,157.798885 C252.216519,156.649951 252.339071,155.47554 252.67882,154.377562 C254.154301,149.60712 256.880787,148.202194 261.739197,149.671422 C262.493925,148.124547 263.169782,146.519437 264.031289,145.019878 C265.520117,142.432047 267.525849,140.382893 270.471958,139.438995 C274.478569,138.154179 277.740159,140.187562 278.255849,144.344106 C278.573757,146.905245 278.167272,149.365687 277.072795,151.709657 C276.464887,153.011459 275.872753,154.32054 275.292753,155.584731 C278.773967,158.52076 278.897732,159.339694 276.52677,163.668518 C277.797188,165.225098 278.018025,166.89815 276.515849,168.537231 C274.201916,171.061973 271.481498,171.071679 268.563297,169.681312 C268.239322,170.027084 267.761247,170.297635 267.756393,170.577893 C267.727272,172.361348 267.849824,174.148444 267.825556,175.9319 C267.812209,176.975282 267.531916,178.017451 267.53313,179.058407 C267.53313,180.172157 267.330494,181.584363 267.906854,182.338995 C269.483046,184.407562 269.26949,186.513738 268.644594,188.698775 C268.205347,190.234731 268.268444,191.426128 269.603172,192.582341 C271.014343,193.805282 271.332251,195.562047 271.022837,197.389179 C270.860243,198.345209 270.709782,199.315797 270.406435,200.230576 C269.872544,201.847819 269.804594,203.150834 271.5361,204.217268 C273.215431,205.252157 273.516351,206.995576 273.091665,208.851826 C272.920577,209.604032 272.676686,210.33804 272.404887,211.291643 C275.077983,213.357782 276.043841,215.898297 273.727481,218.985981 C274.382711,219.977194 275.013674,220.933223 275.755054,222.054253 C276.337481,221.907451 276.97451,221.741238 277.612753,221.58837 C281.192251,220.734253 284.282753,222.7919 284.768109,226.434032 C285.127272,229.124988 284.580033,231.648518 283.006268,233.901495 C282.455389,234.690098 281.865682,235.453223 281.209238,236.344951 C283.441874,239.49815 281.021163,241.498775 279.188946,243.749326 C281.113381,245.957415 280.854929,248.192194 279.090661,250.51554 L279.090661,250.51554 Z" id="Fill-1" fill="#270f01"/><path d="M173.401412,218.817156 C174.284666,219.634373 174.947106,220.278021 175.641948,220.88551 C178.66613,223.530014 182.286748,222.859848 183.856443,219.164292 C184.509282,217.628696 184.577686,215.823105 184.7961,214.123583 C184.905306,213.276233 184.706094,212.393928 184.728895,211.528497 C184.775698,209.802458 185.261728,209.170863 187.004233,209.408314 C190.384837,209.868752 192.472962,208.13307 194.175865,205.61151 C195.629153,203.457577 197.07884,201.278332 196.775222,198.454233 C196.74042,198.127587 196.996035,197.767192 197.143644,197.346352 C198.679737,197.330861 198.89335,198.350574 198.983355,199.420911 C199.334976,203.605833 194.043857,210.734182 189.913208,211.644209 C189.075558,211.828626 188.219906,211.929874 187.031834,212.125138 C187.031834,213.011059 187.167443,213.952425 187.004233,214.839551 C186.644211,216.803042 186.442599,218.884654 185.622949,220.658907 C183.63923,224.955925 179.242165,226.040726 175.257924,223.47939 C174.8559,223.220243 174.483878,222.915293 173.844239,222.446418 C173.393012,223.196136 172.988587,223.900052 172.554161,224.583476 C171.937324,225.553771 171.409292,226.610849 170.648446,227.450967 C168.831537,229.455439 166.576601,229.911055 164.122453,228.621347 C160.559438,226.747052 158.195295,223.809652 157.168033,219.858565 C157.072028,219.489732 156.917218,219.026884 157.054027,218.731577 C157.297641,218.204846 157.742868,217.774541 158.10409,217.304461 C158.464112,217.687757 159.10015,218.043331 159.139752,218.456761 C159.384567,221.028945 160.741849,222.955069 162.495155,224.66785 C163.041188,225.200608 163.649624,225.69359 164.300064,226.090145 C166.500996,227.431682 168.326306,227.067671 169.71719,224.899274 C170.54284,223.610771 171.109274,222.157138 171.86532,220.818011 C172.221741,220.187621 172.749773,219.653658 173.401412,218.817156" id="Fill-4" fill="#270f01"/><path d="M163.933022,146.866014 C162.528377,145.894366 162.882889,145.042213 163.85749,144.227477 C167.355093,141.300463 173.587671,141.86414 176.506604,145.397075 C177.487297,146.583572 178.372966,147.847318 179.391425,149.195554 C180.314861,148.975877 181.22855,148.735681 182.151985,148.541352 C186.755761,147.569704 190.610311,150.524479 190.590819,155.142522 C190.584727,156.703194 190.958731,157.806406 192.175765,158.90117 C194.371056,160.877055 194.587905,162.616365 192.810474,165.018326 C191.639734,166.600724 190.045042,167.938098 188.432076,169.102868 C187.821731,169.543429 186.612007,169.279093 185.706845,169.137872 C185.426647,169.094419 185.03437,168.365382 185.09041,168.010519 C185.141576,167.683418 185.748266,167.169229 186.067448,167.198197 C188.569738,167.423909 189.723423,165.680978 190.867362,164.016503 C191.896785,162.518596 191.873638,161.560226 190.427573,160.494431 C188.754913,159.258446 188.222536,157.851066 188.273703,155.834142 C188.3736,151.840126 185.665425,149.906487 181.742652,150.939692 C178.292562,151.848575 178.292562,151.848575 176.295846,149.06399 C176.07047,148.750166 175.847529,148.433927 175.616062,148.123724 C172.565558,144.010214 168.835269,143.496025 164.632299,146.602884 C164.487327,146.710309 164.28266,146.73807 163.933022,146.866014" id="Fill-6" fill="#270f01"/><path d="M250.423559,259.394509 C249.296717,259.817026 248.052366,260.059671 247.065297,260.688617 C242.915399,263.3384 238.769213,262.37144 234.613131,260.834687 C234.291529,260.716382 233.941478,260.046392 234.008272,259.712 C234.080014,259.365536 234.649002,258.866967 234.992868,258.871795 C235.752342,258.883867 236.545214,259.078225 237.256448,259.360708 C240.445252,260.62705 243.421303,260.32646 246.208105,258.344253 C247.36216,257.523364 248.508793,257.106883 250.051244,257.429203 C252.413779,257.922944 254.747864,257.3616 256.102301,255.337142 C257.530955,253.199208 258.12097,250.722053 256.736846,248.24852 C256.338555,247.537485 255.726275,246.770919 256.788797,246.383411 C257.293464,246.198711 258.177868,246.744361 258.76541,247.137905 C259.122882,247.375721 259.302237,247.933443 259.459327,248.381311 C261.600452,254.466758 257.135137,260.192462 250.423559,259.394509" id="Fill-8" fill="#270f01"/><path d="M111.836571,211.346352 C109.237639,209.617546 106.255785,209.338119 103.735908,208.045463 C102.080695,207.197461 101.846001,205.16736 102.073284,203.36323 C102.122693,202.967172 102.741545,202.49093 103.193641,202.353646 C103.434511,202.279537 104.000248,202.786151 104.196651,203.146977 C104.417757,203.550325 104.348584,204.094601 104.468402,204.563553 C104.957554,206.490388 105.304655,206.860933 107.28844,206.764956 C108.468088,206.710285 109.405631,206.820841 110.164064,207.779399 C111.034904,208.880101 112.268902,209.025889 113.337379,208.33218 C114.869069,207.337175 116.241414,206.102834 117.654521,204.938958 C118.625415,204.139552 119.508607,203.233235 120.525204,202.500649 C120.792014,202.30748 121.572682,202.42411 121.814788,202.678025 C122.042071,202.918576 122.069246,203.699758 121.845669,203.941523 C120.265805,205.661825 118.751408,207.498757 116.909675,208.909258 C115.490392,209.997811 113.623954,210.517789 111.836571,211.346352" id="Fill-10" fill="#270f01"/><path d="M252,204.833594 C251.933772,208.264952 247.966327,211.782375 244.834857,211.302159 C243.935152,211.163708 243.042946,210.536309 242.315685,209.931362 C242.003288,209.671921 241.893324,208.741426 242.120749,208.398415 C242.316935,208.101554 243.325353,207.939404 243.619006,208.170156 C245.643341,209.754244 247.174087,208.702759 248.59362,207.324478 C250.08563,205.877595 250.063137,204.263572 248.364946,203.054926 C247.224071,202.244172 246.821703,201.445892 246.9829,200.09131 C247.112857,199.006148 247.07412,197.8212 245.302203,198.055695 C244.968563,198.100598 244.233804,197.399608 244.223808,197.029157 C244.211312,196.573887 244.663663,195.93651 245.09727,195.67208 C246.333114,194.916208 248.272476,195.50494 248.759816,197.136425 C249.437093,199.402793 250.289313,201.488301 251.706347,203.382969 C252.023742,203.808303 251.945018,204.525508 252,204.833594" id="Fill-12" fill="#270f01"/><path d="M87.3003628,52.3451663 C85.784014,52.4040789 82.3128248,50.2543481 82.0433606,48.8774114 C81.9037292,48.1623746 82.1058273,47.1620163 82.5847387,46.6433547 C82.9154448,46.2852588 84.1953999,46.2425183 84.6804355,46.5613392 C86.0914482,47.4889232 87.5049106,48.5308669 88.5582708,49.7934439 C89.5491642,50.9809363 88.7615938,52.2885641 87.3003628,52.3451663" id="Fill-14" fill="#270f01"/><path d="M70.9998786,71.238659 C70.6451372,71.4900933 70.0960706,72.1584466 69.4322347,72.2995577 C67.4550731,72.7177596 64.1085055,70.2483159 64.0015614,68.265064 C63.9676523,67.6505895 64.4919392,66.6140645 65.0018799,66.4331858 C66.8407967,65.7853577 71.0259626,68.898781 70.9998786,71.238659" id="Fill-16" fill="#270f01"/><path d="M78.1632921,41.9016591 C77.2163886,42.0636852 76.2731744,42.3261406 75.3238115,42.3462265 C74.8651167,42.3542608 74.0694718,41.9753073 74.0129036,41.6499162 C73.9305107,41.1812458 74.2551633,40.424678 74.6314652,40.1046431 C75.7874252,39.1177572 79.3831989,39.1003494 80.519483,40.0162652 C80.7838781,40.2305145 81.0581112,40.7674769 80.9892455,41.0607306 C80.8859469,41.4905683 80.5354697,42.0690414 80.1899114,42.1681317 C79.5627416,42.3475655 78.8617871,42.2190159 78.1915762,42.2190159 C78.1817382,42.1132303 78.17313,42.0074447 78.1632921,41.9016591" id="Fill-18" fill="#270f01"/><path d="M60.0249944,62.3463521 C60.4538852,63.5957565 60.8086287,64.2807483 60.9031301,64.9926779 C61.0208933,65.8867589 61.0528784,66.8244536 60.8755066,67.7044243 C60.7591972,68.2867955 60.2096355,68.8011807 59.8534381,69.3463521 C59.3460385,68.9974424 58.5173344,68.7229326 58.3850325,68.2855128 C57.8180244,66.4165371 57.5417896,64.5142099 60.0249944,62.3463521" id="Fill-20" fill="#270f01"/></g></g></svg>