<svg xmlns="http://www.w3.org/2000/svg" viewBox="0 0 2000 2000" style="enable-background:new 0 0 2000 2000" xml:space="preserve"><linearGradient id="a" gradientUnits="userSpaceOnUse" x1="-5116.372" y1="4863.27" x2="1712.586" y2="4863.27" gradientTransform="rotate(180 257.754 1529.42) scale(.4018)"><stop offset="0" style="stop-color:#fec53e"/><stop offset=".227" style="stop-color:#ff884e"/><stop offset=".454" style="stop-color:#fe5558"/><stop offset=".509" style="stop-color:#f5495f"/><stop offset=".61" style="stop-color:#ea3968"/><stop offset=".687" style="stop-color:#e6336b"/><stop offset=".825" style="stop-color:#d72d74"/><stop offset="1" style="stop-color:#be2283"/></linearGradient><path style="fill:url(#a)" d="M753.75 1109.9v181.21l445.13 256.99-7.51 4.34L1000 1662.93l-191.37-110.49-191.37-110.49-191.38-110.49.01-220.97-.01-220.98.01-220.98.46-.26 58.62-33.85 132.29-76.37 19.69-11.38 605.67 349.69 3.63-6.28V708.89l-609.3-351.78-164.16 94.78-151.98 87.75-58.63 33.85-.45.26-.01 852.49L1000 1852.49l363.04-209.61 164.16-94.78-769.83-444.46z"/><linearGradient id="b" gradientUnits="userSpaceOnUse" x1="-5116.372" y1="5658.091" x2="1712.586" y2="5658.091" gradientTransform="rotate(180 257.754 1529.42) scale(.4018)"><stop offset="0" style="stop-color:#fec53e"/><stop offset=".227" style="stop-color:#ff884e"/><stop offset=".454" style="stop-color:#fe5558"/><stop offset=".509" style="stop-color:#f5495f"/><stop offset=".61" style="stop-color:#ea3968"/><stop offset=".687" style="stop-color:#e6336b"/><stop offset=".825" style="stop-color:#d72d74"/><stop offset="1" style="stop-color:#be2283"/></linearGradient><path style="fill:url(#b)" d="m1000 147.51-164.16 94.78 355.53 205.27 191.37 110.48 191.37 110.49V1328.61l164.16 94.77.01-849.62z"/><linearGradient id="c" gradientUnits="userSpaceOnUse" x1="-5116.372" y1="5124.105" x2="1712.586" y2="5124.105" gradientTransform="rotate(180 257.754 1529.42) scale(.4018)"><stop offset="0" style="stop-color:#fec53e"/><stop offset=".227" style="stop-color:#ff884e"/><stop offset=".454" style="stop-color:#fe5558"/><stop offset=".509" style="stop-color:#f5495f"/><stop offset=".61" style="stop-color:#ea3968"/><stop offset=".687" style="stop-color:#e6336b"/><stop offset=".825" style="stop-color:#d72d74"/><stop offset="1" style="stop-color:#be2283"/></linearGradient><path style="fill:url(#c)" d="m753.75 952.61 492.5 284.34v-189.56l-492.5-284.34z"/></svg>