<svg viewBox="193.55710659898477 86.54999999999995 259.03553299492387 490.44999999999993" xmlns="http://www.w3.org/2000/svg" overflow="visible" xmlns:xlink="http://www.w3.org/1999/xlink" width="259.03553299492387px" height="490.44999999999993px"><g id="Master/Character/Standing" stroke="none" stroke-width="1" fill="none" fill-rule="evenodd"><g id="Standing Body" transform="translate(122.000000, -7.000000) scale(1 1)"><g id="Standing Body/Crossed Arms Color" stroke="none" stroke-width="1" fill="none" fill-rule="evenodd"><path d="M119.741119,285.617142 C137.127634,280.148127 148.155352,277.344683 152.824271,277.20681 C159.827649,277 176.348028,278.867704 197.215227,280.66455 C211.126692,281.862447 220.981615,280.640931 226.779995,277 L271.086765,386.57258 C273.280142,391.238965 274.37683,394.305664 274.37683,395.772677 C274.37683,397.23969 276.08251,428.853253 279.493868,490.613367 L285,490.613367 L285,502.753847 L285,505.144523 C271.829348,505.144523 263.762454,505.144523 260.799317,505.144523 C257.83618,505.144523 248.819835,506.523878 233.750282,509.282588 L232.806288,495.737601 L236.603227,494.119077 L223.820855,398.491461 L210.252114,371.520063 L182.94334,321.515355 L170.931701,321.515355 L168.574378,331.123089 L164.626001,500.921381 L170.785302,502.753847 L172.430376,523.301642 L134.19263,526 L103,525.745556 L103,509.282588 L107.474394,509.282588 L119.741119,285.617142 Z" id="Path-16" fill="#e0e281"/><g id="Group-18" transform="translate(75.000000, 149.000000)"><path d="M155,376.735796 C155,376.735796 164.546456,396.253635 163.755004,400.566202 C162.964552,404.877749 159.020298,425 159.020298,425 L252.269592,425 C252.269592,425 256.209844,404.391768 245.786887,399.504396 C235.362929,394.618045 205.907095,390.436161 206.427392,387.849029 C206.949691,385.261897 208.527592,371 208.527592,371 L155,376.735796 Z" id="Fill-1" fill="#e0d91c"/><path d="M34.406748,429 C34.406748,429 38.8311292,407.853603 39.8270636,399.004006 C40.589716,392.215147 34,386.724626 34,386.724626 L46.8783588,387.42247 L78.4093026,385 C78.4093026,385 77.0285527,402.920537 82.7250183,405.23131 C88.4214839,407.541059 90.7094413,411.371512 93.9524588,414.916065 C98,419.339839 98,428.608552 98,428.608552 L34.406748,429 Z" id="Fill-3" fill="#e0d91c"/><path d="M38,124.404588 L40.0026032,133 C40.0026032,133 76.601971,121.529226 84.4647814,122.297148 C92.3275917,123.06507 114.836931,130.9171 127.895739,127.938462 C140.953549,124.959824 156,121.936194 156,121.936194 L151.043358,88.4237005 L104.869792,78 L38,124.404588 Z" id="Fill-5" fill="#6176b6"/><g id="Group-9" transform="translate(3.000000, 0.000000)" fill="#6176b6"><path d="M73.403,7.23958736 C73.403,7.23958736 42.278,14.3544724 34.267,21.0591391 C22.074,31.2624264 2.31,76.6155989 2.31,76.6155989 L0.317,88.1620701 L42.427,70.907323 L46.491,70.0019782 C46.491,70.0019782 48.008,54.2418172 61.13,51.8204034 C74.25,49.3979667 104.549,47.4583805 104.549,47.4583805 L125.626,42.4068632 L130.632,47.2660586 L137.459,48.8547598 L173.639,43.3817713 L170.401,33.0117368 L164.066,35.1733115 L163.494,32.639369 L140.906,4.43966782 C140.906,4.43966782 138.075,0.181989655 127.932,0.636196552 C117.79,1.09142644 105.469,2.92359885 105.469,2.92359885 C105.469,2.92359885 107.505,18.0280241 103.42,23.823254 C88.404,45.1290356 73.403,7.23958736 73.403,7.23958736" id="Fill-7"/></g><path d="M36.933581,430.297216 C37.7872761,431.787386 37.8012875,431.787386 39.1553901,430.297216 L36.933581,430.297216 Z M41.0699489,430.236143 C43.2066887,432.324824 44.6558687,432.199626 46.1971236,430.236143 L41.0699489,430.236143 Z M68.605369,393.248571 C68.5172973,392.333501 68.4662558,391.814384 68.3961987,391.095764 C66.7698745,391.419448 65.2956742,391.711579 63.8214739,392.004727 C63.8374869,392.168605 63.8524991,392.333501 63.8685122,392.498397 C65.3176921,392.728436 66.7678729,392.956441 68.605369,393.248571 L68.605369,393.248571 Z M111.504299,47.5891342 C118.190743,47.5891342 124.878188,47.5932057 131.564632,47.5708125 C131.802826,47.5697946 132.040019,47.304129 132.403315,47.0883393 C130.774989,45.0698915 128.822399,44.2087686 126.466481,44.1853574 C121.219209,44.1303922 116.313214,45.6887601 111.504299,47.5891342 L111.504299,47.5891342 Z M69.6141904,397.998998 C69.1728311,395.250733 69.1688278,395.273126 66.4666276,394.854779 C65.0464713,394.634918 63.5982921,394.461879 62.2341814,394.028264 C59.1877009,393.0623 56.4344591,393.767688 53.7362622,395.224268 L53.7362622,401.143216 C59.0495885,400.090732 64.2658357,399.058606 69.6141904,397.998998 L69.6141904,397.998998 Z M99.9538939,430.140463 C82.4906748,429.227428 65.3417117,429.337359 48.087663,430.254465 C48.9153369,431.21025 49.7640279,432.080534 50.7898632,432.559954 C52.6753984,433.440416 53.9984757,431.518667 56.1242065,431.120677 C56.2192839,431.301859 56.343385,431.733438 56.6126042,432.023533 C57.9076587,433.417005 58.208904,433.432273 59.5560008,432.292252 C59.8022013,432.085624 60.0123724,431.835226 60.2505663,431.618418 C60.9501359,430.983264 61.7127569,430.878423 62.3722939,431.600097 C64.0386507,433.422094 65.8511265,432.934532 67.594546,431.892227 C68.8795923,431.124749 69.9274455,430.917102 71.341597,431.744635 C73.2211273,432.841905 75.1717155,432.650545 76.8751025,431.081998 C77.2674219,430.719634 77.7908481,430.50588 78.2592295,430.220875 C80.9414134,432.338057 83.6636299,432.244412 86.4018594,430.667722 C87.2715676,430.166928 87.9591274,430.303323 88.8638641,430.614793 C89.9517499,430.990389 91.3018491,431.34461 92.3126722,431.007693 C93.8319092,430.500791 95.0018618,430.615811 96.3839872,431.346646 C97.9212388,432.159928 98.6348198,431.837262 99.9538939,430.140463 L99.9538939,430.140463 Z M68.7985263,388.950081 C67.8737734,387.420214 67.4244075,385.753951 66.3665461,385.089278 C61.9469476,382.310477 57.257129,382.544589 52.5883275,384.573215 C51.4223782,385.0791 51.2632486,386.144816 51.4473985,387.245139 C51.6565689,388.50018 51.6445591,390.064655 53.1527871,390.453484 C54.9242295,390.911528 56.8307818,391.455074 58.5822079,391.218927 C61.8838962,390.776151 65.1165283,389.801026 68.7985263,388.950081 L68.7985263,388.950081 Z M71.276544,395.591721 C71.9240712,398.883532 71.936081,398.839763 74.6723089,399.413845 C76.3086413,399.756869 77.9079435,400.280057 79.5302644,400.702476 C80.240843,400.886711 80.9644321,401.021071 82.2434736,401.302005 C78.9678064,395.75051 79.2640476,390.271284 79.90557,384.773737 C77.1293095,385.278603 74.5452054,385.731558 71.9701087,386.226246 C70.6570396,386.478679 70.6049972,386.632378 70.8501968,388.473715 C72.3544216,388.913438 74.0918363,387.406982 75.7121556,389.096656 C75.1156699,389.732828 74.5952462,390.28757 74.0467996,390.871831 C72.8208014,390.346607 71.6858773,390.106388 70.4108391,390.972601 C70.5319377,391.773669 70.6580404,392.603238 70.7541186,393.237374 C72.3464151,394.091372 73.2341379,393.408378 73.9747409,392.228659 C75.4389331,393.701526 73.6374663,394.395717 73.7355462,395.455326 C72.8448209,395.504184 72.1442505,395.542863 71.276544,395.591721 L71.276544,395.591721 Z M1.97611767,85.6536189 C2.76876306,85.8358187 3.61645327,86.276559 4.37907422,86.1554317 C6.08045954,85.8877304 7.75382203,85.3879534 9.41317312,84.8953015 C20.5422347,81.5922944 31.1859011,76.988442 41.7965406,72.3011237 C42.2298934,72.110781 42.6672495,71.8746338 43.0195363,71.561128 C43.6080155,71.0389577 43.8331989,70.4068568 43.0935967,69.5141797 C41.2691111,70.4445182 39.377571,71.2944445 37.5991229,72.3428567 C34.8168575,73.9846904 31.8814674,75.1613548 28.7899502,76.0611571 C21.405938,78.2119287 13.8868157,78.725956 6.26460948,78.3635922 C3.6184549,78.2383935 2.45750963,79.3387173 2.25934828,82.0116592 C2.17628065,83.1303048 2.08620731,84.2479324 1.97611767,85.6536189 L1.97611767,85.6536189 Z M173.236563,34.2956758 C169.309365,35.5364665 151.574925,45.0424089 150.063695,46.6608315 C151.15058,46.6608315 152.168408,46.721904 153.176229,46.6506527 C158.98696,46.2363773 164.79569,45.7925834 170.604419,45.3538789 C171.078806,45.3182532 171.641264,45.3966297 172.007562,45.1676076 C173.327637,44.3410924 174.580657,43.4056646 176.063865,42.3684491 C175.175141,39.8298667 174.227369,37.122317 173.236563,34.2956758 L173.236563,34.2956758 Z M77.4475686,377.150865 C64.8463083,377.770751 52.5823226,378.372316 40.0110868,378.990166 C40.1572058,381.117527 40.291315,383.083045 40.4394356,385.234835 C43.0745812,385.327461 45.3794579,385.384462 47.6833337,385.497447 C48.7942383,385.552412 49.6279171,385.35698 50.2964614,384.258692 C50.7198061,383.562465 51.5865118,382.997544 52.3731523,382.701342 C57.7124998,380.695108 62.9487633,380.296101 67.864766,383.978776 C68.4032044,384.382873 69.1718303,384.799184 69.7763225,384.724879 C72.2143075,384.426641 74.6292739,383.938061 77.1273078,383.506481 C77.2393991,381.268172 77.3404814,379.2711 77.4475686,377.150865 L77.4475686,377.150865 Z M40.0751389,408.773213 C43.7591386,406.761891 47.2649931,404.867624 50.7428249,402.920427 C51.1081223,402.716852 51.4914344,402.23845 51.5554866,401.834354 C51.8617359,399.925837 52.0959266,398.000015 51.5064466,395.813618 C50.6837768,396.119999 49.9561844,396.374468 49.2406017,396.660491 C48.5890712,396.922085 47.8804943,397.054409 47.6853354,396.218733 C47.6092734,395.891995 48.1066784,395.255822 48.4949946,395.0268 C49.3076563,394.544327 50.2214003,394.237946 51.0660881,393.871511 C51.3813448,392.558451 50.8799365,391.936529 49.6699513,391.862224 C49.1975667,391.833724 48.7011625,391.927368 48.2568007,391.807259 C47.941544,391.721757 47.5972637,391.419448 47.4571496,391.121211 C47.3820885,390.961404 47.6523085,390.487074 47.8784926,390.361875 C48.4869881,390.02394 49.1555324,389.797972 49.7870466,389.533324 C49.15253,387.279747 49.1535308,387.261425 47.3450583,387.196281 C45.8278229,387.142334 44.3065843,387.174906 42.7903497,387.103655 C40.977874,387.019171 39.1673998,386.867507 37.2208149,386.735184 C37.2598467,387.288908 37.2268198,387.689951 37.322898,388.054351 C37.9424024,390.40768 38.5388881,392.768134 39.2384577,395.097034 C40.4214209,399.041302 41.0038952,403.008982 40.0901512,407.104915 C39.9790607,407.60571 40.0751389,408.154345 40.0751389,408.773213 L40.0751389,408.773213 Z M44.2315232,150.566615 C55.4686728,148.320163 63.1419205,138.185173 62.3752963,127.555496 C56.6106026,129.555622 50.9279756,131.527247 45.1883022,133.51923 C44.8700431,139.182691 44.5577888,144.746401 44.2315232,150.566615 L44.2315232,150.566615 Z M151.157585,124.037717 C145.91932,125.327365 140.475888,126.667908 135.032456,128.009468 C137.354346,136.766254 150.820311,146.583666 157.658879,144.530611 C155.490113,137.694557 153.322348,130.859521 151.157585,124.037717 L151.157585,124.037717 Z M167.079549,427.749472 C167.582959,428.005977 167.899217,428.105729 168.143416,428.300143 C170.806584,430.432593 173.542812,431.020925 176.455183,428.788724 C177.171767,428.239071 177.926381,428.316429 178.712021,428.701186 C179.572722,429.123605 180.449436,429.526684 181.349168,429.851386 C183.26773,430.543542 185.081207,430.427504 186.806612,429.168391 C188.523009,427.916404 188.557037,427.965262 190.281441,429.26509 C192.836521,431.191929 195.133392,431.367003 197.80857,429.628471 C198.826399,428.965834 199.661078,428.848778 200.655888,429.517523 C202.757599,430.930334 204.804266,430.638204 206.580712,428.988227 C207.926808,427.737258 209.032709,427.664989 210.587975,428.685918 C213.140053,430.361342 216.035411,430.93746 218.749621,429.253893 C220.487035,428.175962 221.779087,428.45486 223.380391,429.326162 C227.140453,431.371075 230.994591,431.653026 234.80069,429.404539 C235.922603,428.741901 236.836347,428.722562 237.796129,429.689544 C239.704683,431.613329 241.9365,431.880013 244.443541,431.034158 C245.303241,430.744063 246.330077,430.650419 247.216799,430.815314 C250.299309,431.385325 251.717464,430.283983 251.964665,426.926011 C251.821549,426.864938 251.678432,426.750936 251.534315,426.747883 C222.277493,426.34175 193.013666,427.381001 163.762849,426.187033 C163.12533,426.160568 162.483807,426.209426 161.846288,426.228766 C161.768225,426.230802 161.690161,426.26032 161.6151,426.285767 C161.540039,426.311214 161.453969,426.330554 161.395922,426.380429 C161.342878,426.42827 161.318859,426.512753 161.173741,426.781473 C161.346882,427.223231 161.496003,427.852278 161.812261,428.37343 C162.902148,430.168963 163.868935,430.32368 165.501264,429.036068 C165.998669,428.643167 166.484065,428.236017 167.079549,427.749472 L167.079549,427.749472 Z M208.255076,341.162847 C202.135093,340.863591 161.977395,345.793164 158.638677,347.263994 C158.616659,351.43525 158.410491,355.699131 159.391289,360.143177 C160.636303,359.944692 161.723188,359.786921 162.804068,359.596578 C168.622806,358.570559 174.409518,357.262589 180.267287,356.570433 C188.750194,355.568843 197.266128,354.715863 205.839109,354.972368 C206.674789,354.997815 207.514473,354.820705 208.255076,354.7464 L208.255076,341.162847 Z M28.2154825,361.366664 C27.4198346,365.895194 27.4648713,370.360615 27.4367766,374.825018 C27.4298428,375.845948 27.9352543,376.323332 28.8570048,376.41494 C30.6874953,376.599176 32.521989,376.90861 34.3524794,376.891306 C39.7899067,376.839395 45.227334,376.652106 50.6647613,376.523853 C62.8276647,376.236812 74.963546,375.534478 87.042381,374.012754 C89.7936211,373.665658 92.5258458,373.154684 95.4392179,372.692569 C95.0679156,369.246041 94.6555798,366.121162 94.4153843,362.983051 C94.1751887,359.866315 94.3633419,356.698686 93.3274985,353.511716 C92.3477007,353.511716 91.5550553,353.485252 90.7644115,353.515788 C86.6070265,353.681702 82.4476398,353.827258 78.2922564,354.050173 C75.737176,354.186568 73.1390605,354.195729 70.6480322,354.704667 C65.3266995,355.793794 60.0313879,357.049853 54.7831146,358.459611 C48.9623752,360.023068 43.0996015,361.207876 37.0706926,361.355468 C34.203358,361.424683 31.3330209,361.366664 28.2154825,361.366664 L28.2154825,361.366664 Z M100.209102,428.22482 C100.417271,427.316875 100.654464,426.707168 100.682487,426.086263 C100.802585,423.453019 100.557385,420.840131 99.3193772,418.488838 C96.9104158,413.912468 93.7158147,409.989575 89.4933766,407.003127 C85.4811097,404.166307 80.9033824,402.776907 76.2315785,401.558509 C71.49272,400.322808 66.7608672,400.17827 61.9799745,401.10759 C55.8579898,402.299523 50.3404973,404.961268 44.9010683,407.992503 C40.761698,410.297991 38.4718335,413.690571 37.306885,418.125456 C37.0186503,419.22578 36.6673642,420.312872 36.4511882,421.427446 C36.0238403,423.627075 35.506419,425.828741 35.7326031,428.005977 C36.0658745,428.171891 36.2059886,428.303197 36.3451018,428.301185 C57.5353555,427.98053 78.7236076,427.035941 100.209102,428.22482 L100.209102,428.22482 Z M102.060609,79.0608372 C99.5805899,77.9360844 97.2376823,76.9477269 94.7166295,76.4978258 C87.4817387,75.2051235 80.2618601,73.7841688 72.9899391,72.7357567 C66.8169128,71.8440975 60.5788336,71.3616244 54.3277438,71.7524887 C50.0172341,72.0232436 45.7767814,72.5891826 41.7324884,74.3867513 C30.6754855,79.3020737 19.5344141,84.013821 7.8659133,87.2700058 C6.7840324,87.571297 6.2395891,88.2084873 6.07545546,89.2589352 C5.77521099,91.1847562 5.46195593,93.1105773 5.22176036,95.0455593 C4.36206037,101.99358 3.61645327,108.958904 4.51018097,115.9568 C4.76338714,117.942676 5.30082474,119.944838 6.04242857,121.801443 C7.26042029,124.852017 9.58331165,126.775803 12.7939258,127.442511 C17.2515553,128.36776 21.70318,128.136703 26.114772,127.138166 C34.9299496,125.14313 42.8193734,121.101145 49.9191542,115.52115 C59.0365779,108.354286 68.3121303,101.423569 77.9850062,95.0526844 C85.7002882,89.9704304 93.4335849,84.9197305 101.154872,79.8486731 C101.415084,79.6786878 101.630259,79.439487 102.060609,79.0608372 L102.060609,79.0608372 Z M161.46798,424.163496 C162.223596,424.271391 162.532847,424.348749 162.845102,424.355874 C173.242568,424.588968 183.641034,424.963546 194.040502,425.008333 C212.287359,425.085691 230.535217,424.962528 248.784076,424.915706 C249.641774,424.91367 250.500473,424.842419 251.545324,424.793561 C252.097774,421.925187 252.929451,419.241048 253.077571,416.517213 C253.406839,410.425226 251.389197,405.317525 246.023828,402.0135 C244.521605,401.088251 243.027388,400.042892 241.388053,399.472882 C236.252872,397.68651 231.052638,396.09557 225.870419,394.449665 C225.681265,394.38961 225.428058,394.535166 225.211882,394.583006 C224.289131,396.397879 224.405226,398.598526 223.073141,400.182341 C221.656988,399.90955 221.885174,399.044356 222.145386,398.126232 C222.554719,396.67983 222.927022,395.222232 223.357372,393.610935 C221.37676,393.055175 219.718409,392.588987 217.887919,392.07496 C217.485591,393.934619 217.173337,395.598846 216.736982,397.228466 C216.645908,397.568436 216.102465,397.78219 215.767192,398.053963 C215.510984,397.701778 215.068623,397.362825 215.042602,396.992318 C215.004571,396.453862 215.293807,395.89912 215.393888,395.341324 C215.616069,394.103587 215.808226,392.859742 216.009389,391.645417 C213.306188,390.410733 210.921247,389.321606 208.426215,388.181585 C208.156996,389.326695 207.962838,390.277391 207.708631,391.210784 C207.239249,392.932012 206.759858,394.650186 206.235431,396.35411 C206.006245,397.102249 205.576895,397.661063 204.40394,397.087999 C204.598098,396.28693 204.737211,395.434968 205.011435,394.631864 C207.394375,387.663486 207.381364,380.58416 205.979223,373.444779 C205.618929,371.604459 205.364722,371.424295 203.602287,371.519976 C203.046835,371.550512 202.497388,371.694032 201.940935,371.751033 C194.86117,372.497136 187.788411,373.323652 180.698638,373.948627 C175.360292,374.418886 169.997926,374.6133 164.647569,374.96345 C163.810888,375.017397 162.986217,375.243365 161.90934,375.433708 C165.747465,391.804205 165.697424,407.914126 161.46798,424.163496 L161.46798,424.163496 Z M51.5504825,69.8134352 C52.0588964,69.8429536 52.3631442,69.888758 52.6663911,69.8755256 C67.0110709,69.233246 81.0695177,71.3412668 94.9858488,74.5913444 C105.109091,76.9558699 115.146264,79.7102419 125.295528,81.9485509 C132.553437,83.5486517 139.923438,84.6316716 147.259411,85.8449796 C150.249846,86.3386494 153.280314,86.8231583 156.29677,86.8567482 C161.710178,86.9178207 166.943439,85.7727104 171.87045,83.4132742 C172.584031,83.071268 173.271591,82.5938842 173.842056,82.0411776 C178.156569,77.8617794 180.129175,72.725578 179.722844,66.6773598 C179.390573,61.7467692 177.842313,57.1286666 176.078877,52.5767258 C175.384311,50.7832286 174.618688,49.017214 173.974163,47.4537568 C170.440286,47.4537568 167.240681,47.3061648 164.05909,47.4883645 C159.671518,47.7407977 155.300959,48.3281121 150.913386,48.6080279 C147.636719,48.8177104 144.341035,48.7342446 141.455686,50.7089237 C140.575969,51.3115062 139.752299,51.1934326 139.227872,50.2081288 C138.75949,49.3307198 138.029896,49.2523434 137.191214,49.2920405 C135.511846,49.3683812 133.832479,49.4335252 132.153111,49.4752582 C117.034802,49.8549258 101.91449,50.1378953 86.8001838,50.6519226 C81.4548314,50.8341224 76.1094791,51.4234725 70.7981545,52.1044314 C64.4609946,52.9166964 59.0535917,55.6690326 54.9682653,60.8367882 C52.9075875,63.4445861 51.7676593,66.3567289 51.5504825,69.8134352 L51.5504825,69.8134352 Z M153.962869,88.6604242 C153.008092,88.4934925 152.230459,88.3520078 151.449823,88.2217197 C142.855826,86.784479 134.227801,85.5263845 125.677839,83.8529966 C119.879118,82.7160293 114.192487,80.9917476 108.453815,79.5392388 C107.051673,79.185018 105.796651,79.0750874 104.352475,79.9178886 C92.3336893,86.9351246 81.1505837,95.2440451 69.5701546,102.939186 C59.7971972,109.433234 51.3192942,117.801191 40.9468487,123.436152 C40.5265065,123.665174 40.0321039,124.252488 40.0230966,124.68305 C39.9700534,127.27049 40.4664576,129.782608 41.1690296,132.593981 C44.6268451,131.508925 47.8384601,130.564337 51.0080408,129.48946 C56.224288,127.717338 61.3244407,125.596085 66.7088248,124.340026 C73.3592398,122.787765 80.0576938,121.824855 86.9082718,121.936821 C93.9920396,122.052859 100.864635,123.631584 107.807288,124.746158 C117.559229,126.313687 127.295156,127.291866 137.161189,125.478011 C143.574411,124.298293 149.698397,122.27272 155.774344,119.998785 C155.97751,119.922445 156.123629,119.687315 156.424874,119.404346 C155.758331,109.289714 156.092604,99.0122214 153.962869,88.6604242 L153.962869,88.6604242 Z M166.028694,35.3644455 C165.669401,34.7669523 165.491256,34.4015349 165.251061,34.0829398 C159.509386,26.4692285 153.787727,18.8382134 147.988005,11.2692887 C146.86509,9.80456538 145.486968,8.52407758 144.128862,7.26700092 C141.310568,4.65818516 137.965844,3.09778151 134.150738,3.05808435 C126.799753,2.98072578 119.432754,2.86774157 112.185853,4.53196856 C111.117984,4.77727663 110.023092,4.90858262 108.876159,5.1029969 C108.876159,5.78700946 108.860146,6.26235748 108.87816,6.73770549 C108.969234,9.17144661 109.237453,11.6133307 109.125362,14.0368931 C108.96323,17.5444932 108.360739,21.0052711 106.506229,24.0711131 C103.763996,28.604732 100.025953,30.0073649 94.7646687,27.7578594 C92.7700446,26.9048794 90.9525647,25.3617796 89.3842878,23.7901793 C85.0497585,19.4438495 82.2024401,14.0674294 79.7234217,8.47725529 C79.4762204,7.92047721 79.1509555,7.39830691 78.8036728,6.75500938 C68.2771018,10.4356484 57.9096603,14.0002496 47.5912588,17.7073534 C44.7429396,18.7313364 42.0027084,20.1024152 39.2905001,21.4724761 C38.1735906,22.0373972 37.0486747,22.8547515 36.2920587,23.8461625 C32.8582628,28.3411022 29.3774286,32.8167022 26.2368714,37.5233601 C18.3984892,49.2727009 12.5377172,62.1264369 6.49679853,74.8712602 C6.30063881,75.2875714 6.20055732,75.750705 6.03942613,76.2382675 C6.39271378,76.3807701 6.59688002,76.52938 6.80605033,76.537523 C11.6880254,76.7064904 16.5359727,76.5517732 21.3999331,75.8728501 C29.5926038,74.7307934 36.6573561,70.7967033 43.8882437,66.978651 C44.097414,64.6456796 44.2845664,62.2170279 44.5437774,59.7965191 C44.6658768,58.6697306 44.8790504,57.5459957 45.1632818,56.4507613 C45.2393438,56.1555773 45.8558458,55.7097476 45.9929574,55.7830347 C46.3402402,55.9682881 46.7455702,56.3856172 46.784602,56.7510346 C46.8536582,57.3770283 46.6444879,58.0315224 46.584439,58.6768557 C46.2181407,62.6221424 45.8618506,66.5674292 45.4635263,70.9208841 C47.0418114,70.5707348 48.2367844,70.3060871 49.530838,70.0190461 C49.8000572,68.8199884 49.9321648,67.6769138 50.3194802,66.6325732 C51.0480734,64.6660371 51.6145346,62.5284979 52.7994995,60.8693603 C55.7028635,56.8009105 59.2997922,53.4073125 64.1817672,51.9283389 C67.1571899,51.0275188 70.2056721,50.1195736 73.2761721,49.8447471 C81.3197214,49.1261267 89.3972984,48.8227997 97.4508558,48.2090206 C100.300176,47.9911952 103.160505,47.5321332 105.943771,46.8705139 C109.205427,46.0948925 112.384015,44.9630146 115.604637,44.0133364 C119.229589,42.9445668 122.899577,42.2055889 126.703674,42.303305 C129.051586,42.3643776 131.073232,43.1623922 132.796635,44.7675824 C133.387116,45.3162175 134.019631,45.8332984 134.530047,46.4521669 C135.36973,47.4710606 136.310496,47.7173866 137.648586,47.0476243 C136.74485,45.0403731 135.822099,43.0718013 134.984417,41.0676038 C134.712195,40.4192169 133.825473,39.4970214 134.999429,39.0277806 C136.036273,38.6124873 136.230431,39.7901696 136.557698,40.4680749 C137.644583,42.7145269 138.686431,44.9823542 139.69225,47.1280365 C143.325208,47.4690249 143.640465,47.435435 146.36068,45.9808904 C149.755444,44.1619463 153.127189,42.2961799 156.514947,40.4660391 C159.61347,38.7916334 162.722001,37.1365673 166.028694,35.3644455 L166.028694,35.3644455 Z M93.1393453,169.933738 C92.0114269,169.671126 91.2367962,169.475694 90.4551597,169.310798 C86.5439751,168.486319 82.6267857,167.693393 78.7286117,166.815984 C78.32128,166.725393 77.742809,166.167597 77.7217919,165.797091 C77.6697495,164.933932 78.3883346,164.820948 79.0788969,164.925789 C79.5522823,164.99704 80.0126572,165.151757 80.4830402,165.24133 C85.5841937,166.211366 90.6633292,167.353423 95.7985104,168.067972 C98.4566748,168.437461 101.217923,168.094436 103.930131,167.992649 C107.632146,167.8532 110.35136,169.20901 112.117798,172.70236 C115.664686,179.715525 119.50081,186.580079 122.996656,193.619709 C127.431267,202.547498 131.539612,211.643236 135.994239,220.558811 C138.854568,226.28538 142.096207,231.813464 145.143689,237.443335 C147.512617,241.817147 149.413165,246.329391 149.766453,251.428949 C150.059691,255.642955 150.590123,259.843728 151.12656,264.035341 C152.301517,273.22676 153.565546,282.405964 154.759518,291.594329 C156.750139,306.905218 158.70373,322.220177 160.698354,337.530048 C160.989591,339.764285 161.419941,341.977147 161.789242,344.226653 C176.150936,342.606195 190.249415,341.013219 204.496015,339.403957 C204.402939,337.613514 204.343891,336.164058 204.248814,334.715621 C203.820465,328.221573 203.338072,321.730579 202.957762,315.233478 C202.54943,308.248814 202.27921,301.253971 201.869877,294.268289 C201.001169,279.405266 200.054398,264.546315 199.197701,249.682274 C198.965512,245.670825 198.383038,241.753021 196.931856,238.00622 C193.062706,228.021876 189.27362,218.00496 185.254348,208.082706 C179.955033,195.001984 174.577655,181.951798 169.017127,168.983042 C165.854552,161.609549 162.263628,154.427418 158.855853,147.162838 C158.796805,147.034585 158.61866,146.964352 158.848848,147.146552 C146.354675,145.707275 137.576527,139.687558 132.746595,128.132631 C121.394351,129.108774 110.503484,127.262347 99.6366356,125.230667 C91.0606528,123.627513 82.4796659,123.265149 73.8706562,124.841839 C70.7531178,125.413885 67.5845379,125.826125 64.5740867,127.081165 C64.1307257,140.950742 56.9308633,149.253555 44.0563806,152.983052 C42.7052805,175.923937 41.3611861,198.813929 40.0060827,221.702903 C38.6459753,244.683486 37.2338255,267.661015 35.9187547,290.643633 C34.6116905,313.501053 33.1895325,336.351348 31.9255033,359.333966 C33.0714363,359.396057 33.8590777,359.457129 34.6487206,359.477487 C41.2681103,359.641365 47.6863362,358.394467 54.0655303,356.734311 C59.4028761,355.345929 64.7372195,353.853723 70.1586338,352.926438 C74.396084,352.202728 78.7626394,352.269908 83.0731491,351.994063 C85.0487577,351.867847 87.0263679,351.765041 89.2601868,351.636789 C90.5552412,290.984622 91.8442908,230.561476 93.1393453,169.933738 L93.1393453,169.933738 Z M43.3878362,134.169653 C42.7493163,134.169653 42.2919439,134.149295 41.8355723,134.172706 C39.5737307,134.289762 39.517685,134.255154 39.1183599,131.883504 C38.7550641,129.725607 38.4137862,127.564656 38.009457,125.076968 C37.2258189,125.357902 36.5122379,125.585906 35.8206748,125.865822 C29.4444832,128.452244 22.9151668,130.110364 15.961505,129.748 C8.88374205,129.378511 4.64028691,125.968627 3.09502872,118.912712 C1.97011278,113.780582 2.06919345,108.555825 2.51555689,103.357533 C2.93890159,98.4238892 3.56341009,93.5095846 4.11786153,88.4130803 C3.34423162,88.0853243 2.45150474,87.7728364 1.62082838,87.3382035 C-0.0265129292,86.4780984 -0.244690575,85.8999449 0.202673681,84.0290891 C0.277734798,83.7145655 0.429858661,83.3929167 0.410843178,83.0824646 C0.226693238,80.2303765 1.25152769,78.0684082 3.64247446,76.4611823 C4.28199518,76.0316387 4.5321989,74.9669406 4.90250041,74.1658723 C10.1067378,62.9010404 15.3470046,51.6331549 21.9143519,41.1195154 C25.8525585,34.8168283 30.3942565,28.8938088 34.8338714,22.9310921 C35.90074,21.4989408 37.4970398,20.2754541 39.1043485,19.4998327 C42.8493978,17.694121 46.6905254,16.0482157 50.5997083,14.6466007 C58.4380906,11.8372634 66.3535355,9.25084093 74.2239438,6.5310767 C76.1024734,5.88167191 77.9269589,5.0734785 79.9405985,4.27444597 C80.0997281,4.59711261 80.337922,4.9808518 80.4880442,5.39818089 C82.8399592,11.979766 86.2307201,17.9261967 91.0706609,22.940253 C93.3064814,25.2569384 95.9266148,26.8896113 99.3113707,26.8519499 C100.757548,26.8356638 101.949519,26.3715125 103.035403,25.4401561 C104.817854,23.9102887 105.853698,21.9274666 106.486213,19.6962827 C107.660169,15.5596353 107.68619,11.348683 107.215807,7.11126592 C107.152755,6.54634483 106.987621,5.9916025 106.947588,5.42668142 C106.840501,3.9192073 107.029655,3.53139661 108.556899,3.27692765 C112.655236,2.58884359 116.756575,1.82543671 120.887939,1.45391203 C125.100369,1.07322647 129.356835,0.911384213 133.581274,1.04777957 C137.370359,1.16992467 141.086385,2.13588884 144.022776,4.78440176 C146.346668,6.88020811 148.653546,9.07373053 150.57411,11.5400437 C156.033555,18.5542261 161.291837,25.7302507 166.629183,32.843167 C167.010493,33.3510871 167.380795,33.8671501 167.827158,34.4768577 C168.976094,33.9302584 170.048967,33.4162311 171.123842,32.9072932 C173.148491,31.949472 174.182333,32.2843532 175.084067,34.3720165 C175.693563,35.7827924 176.117909,37.2760163 176.628324,38.7305608 C176.869521,39.4186449 177.130733,40.1016396 177.363923,40.7937952 C178.246642,43.4097361 178.1946,43.5522387 175.826672,45.1370714 C175.676549,47.4069345 176.827486,49.3185053 177.601116,51.3298279 C179.441615,56.1138444 181.070942,60.9477367 181.502293,66.1165102 C182.011708,72.2125686 180.141185,77.4861833 176.247014,82.0778211 C174.237378,84.448454 171.608237,85.8836589 168.723888,86.6348513 C165.328123,87.5173496 161.840283,88.030359 158.386471,88.6777281 C157.694908,88.8080162 156.981327,88.8212485 156.17467,88.9006429 C156.66507,94.2597591 157.249546,99.4784085 157.592825,104.713344 C157.937105,109.983905 158.042191,115.270752 158.259368,120.706209 C156.737128,121.431955 155.239909,122.146503 153.707662,122.877338 C153.209256,124.962966 153.936848,126.864358 154.500307,128.790179 C157.993151,140.759381 163.047266,152.050678 168.30855,163.314492 C174.238378,176.012493 179.469638,189.054536 184.787968,202.039578 C189.430748,213.372607 193.784293,224.8288 198.239921,236.241224 C199.998353,240.74227 200.790998,245.426535 201.056214,250.274678 C201.844856,264.652174 202.827657,279.018473 203.683353,293.392916 C204.08468,300.132272 204.325876,306.882824 204.720197,313.623198 C205.200589,321.825242 205.763047,330.02016 206.299483,338.21915 C206.313495,338.455297 206.414577,338.685337 206.51666,339.082308 L209.865387,339.082308 C209.975476,339.681837 210.120595,340.134792 210.132604,340.589783 C210.254704,345.222136 210.340774,349.854488 210.467877,354.485824 C210.515917,356.272196 210.431848,356.423859 208.689429,356.532772 C206.550688,356.668149 204.408944,356.781134 202.253189,356.904296 C202.098062,360.194071 201.977965,363.348468 201.782806,366.496758 C201.731764,367.30597 201.98397,368.649566 200.765978,368.576279 C199.507954,368.501974 199.986343,367.217414 200.017368,366.392935 C200.104439,364.115947 200.254561,361.842012 200.357645,359.565024 C200.393675,358.769045 200.36365,357.967977 200.36365,357.221874 C196.239292,356.153104 172.087627,358.94412 162.993222,361.506113 C162.256622,365.286504 163.143344,369.092342 163.227413,373.060022 C164.174184,373.060022 164.884762,373.096665 165.589336,373.054932 C177.966414,372.310865 190.340489,371.557637 202.632498,369.776354 C206.903976,369.158504 207.316311,369.007858 207.801707,373.674819 C208.220047,377.707643 208.586345,381.746574 209.020699,386.266961 C210.714078,387.142334 212.815789,388.228407 215.24877,389.485484 C215.200731,388.50527 215.075629,387.901669 215.183717,387.343873 C215.239763,387.053779 215.677119,386.742309 216.002384,386.639503 C216.196542,386.579449 216.549829,386.862418 216.752995,387.070065 C216.909122,387.227835 216.991189,387.50368 217.024216,387.737791 C217.317455,389.831562 218.683567,390.686578 220.568101,391.01128 C221.422797,391.158872 222.258478,391.417412 223.150204,391.637274 C223.83376,390.478931 223.17022,389.517038 222.952042,388.550056 C222.811928,387.922027 222.379576,387.186103 223.184231,386.871579 C224.101979,386.512269 224.454266,387.379499 224.647423,388.060458 C225.019726,389.383696 225.27093,390.741543 225.636228,392.367091 C226.647051,392.701972 227.835018,393.122354 229.037998,393.489808 C231.869303,394.352966 234.762659,395.042068 237.528911,396.084373 C240.365221,397.152125 243.124467,398.463149 245.836676,399.83321 C254.313578,404.114396 256.261164,413.556212 254.297565,421.090529 C254.072381,421.954705 253.707084,422.793435 253.586986,423.669826 C253.433861,424.780329 253.270729,425.951904 253.454879,427.037977 C254.056368,430.588328 251.290116,433.549329 247.862325,432.787958 C246.732405,432.53756 245.7436,432.496845 244.604673,432.865316 C241.711317,433.803798 239.833788,433.292824 236.205834,430.888602 C231.170734,433.835352 226.159654,433.037337 221.163586,430.175071 C217.049236,432.840887 212.966912,432.301413 208.790512,429.746545 C206.056285,432.206751 203.000797,433.068892 199.529971,430.955781 C195.798934,433.323361 192.126944,433.135053 188.675133,430.310448 C187.912512,430.725741 187.302015,431.092177 186.663495,431.400593 C184.208496,432.585401 181.813546,432.099874 179.495659,430.99955 C178.406772,430.483487 177.528057,430.386789 176.380122,431.026015 C173.311624,432.732993 170.348211,431.834208 167.353773,430.183214 C167.09256,430.336913 166.745277,430.506898 166.435025,430.729813 C165.018872,431.743617 163.541669,432.126339 161.969389,431.140017 C160.193943,430.026461 159.041004,427.63547 159.400297,425.73815 C160.156913,421.748077 161.056645,417.782432 161.723188,413.777091 C163.596714,402.498009 163.230415,391.252517 161.028623,380.053847 C160.825457,379.017649 160.512202,377.992648 160.416124,376.948307 C160.30103,375.691231 159.401298,374.20615 161.191755,373.318562 C161.347883,373.241204 161.347883,372.73023 161.334872,372.424867 C161.198761,369.019055 161.045636,365.613242 160.899517,362.274609 C160.70636,362.113785 160.597271,361.942782 160.47217,361.929549 C157.554794,361.639455 157.4387,361.652687 157.191498,358.608221 C156.915273,355.207497 156.794175,351.787435 156.762149,348.374497 C156.735127,345.432836 156.833207,345.431818 159.856668,344.560516 C159.820639,343.90704 159.83465,343.198598 159.734569,342.505425 C158.927912,336.875554 158.035185,331.254843 157.290579,325.615811 C156.151652,316.992367 155.12982,308.351619 154.020917,299.724104 C152.652803,289.081194 151.21263,278.447445 149.870537,267.801482 C149.137941,261.993482 148.506427,256.17225 147.909941,250.347965 C147.588679,247.220032 146.694952,244.281425 145.258782,241.539267 C142.554581,236.369476 139.59417,231.334044 136.995054,226.112341 C131.398497,214.866849 126.038132,203.498194 120.433569,192.256773 C117.214948,185.80344 113.677068,179.516021 110.343353,173.120707 C109.252465,171.026937 107.614131,169.929667 105.346285,169.944935 C102.081626,169.96631 98.8169682,170.128152 95.3101128,170.239101 C95.1479808,171.454445 94.892773,172.549679 94.870755,173.651021 C94.4714299,192.528546 94.1131382,211.407089 93.7208187,230.284614 C93.24343,253.311001 92.7520299,276.337388 92.2466184,299.362758 C91.8873259,315.716969 91.492004,332.069144 91.1176992,348.421319 C91.0956813,349.385248 91.1146968,350.350194 91.1146968,351.361963 C91.5610602,351.486143 91.8502957,351.617449 92.1495394,351.642896 C95.1589897,351.893294 95.1860117,351.889222 95.6013499,354.816633 C95.784499,356.103228 95.8545561,357.407127 95.9756547,358.702883 C96.346957,362.666492 96.7442805,366.626029 97.0755502,370.592691 C97.1736301,371.780552 97.0895617,372.982663 97.0895617,374.405654 C91.1036878,375.249473 85.3560079,376.059702 79.4181731,376.896396 C79.3010778,378.385548 79.1879857,379.821771 79.0859026,381.11142 C79.273055,381.405586 79.3250973,381.588803 79.4461959,381.665144 C82.2654915,383.451516 82.1804222,383.434212 81.6279724,386.734166 C80.6872064,392.353858 81.521886,397.604062 85.2239003,402.110198 C85.7142996,402.706673 86.4058627,403.205432 87.1004282,403.546421 C92.7830552,406.334383 96.8613759,410.821179 100.107019,416.182331 C102.340837,419.871113 103.033401,423.866276 102.167696,428.124051 C102.102643,428.439592 102.057607,428.762259 102.043595,429.084926 C101.893473,432.40829 99.5025264,434.265914 96.4030026,433.269413 C94.9278015,432.794065 93.5857087,432.34111 92.0314432,432.940639 C91.4049331,433.181876 90.5172103,433.182894 89.907714,432.91621 C88.2373539,432.188429 86.7741626,432.527382 85.138831,433.12691 C82.8149389,433.97989 80.4169864,433.779369 78.1691561,432.549775 C75.6190798,434.314772 72.9649187,434.742279 70.216681,433.295878 C69.2889256,432.808315 68.7024481,433.384433 68.0038793,433.698957 C65.2896693,434.918372 63.9255586,434.879693 61.2313649,433.386469 C59.3778557,434.860353 57.3261852,435.987142 55.4246369,433.685724 C53.8433494,433.983962 52.4231931,434.570258 51.0871052,434.414523 C49.7520181,434.258788 48.5,433.358986 46.7966117,432.601687 C46.6054561,432.681081 45.9659354,432.981354 45.3053976,433.217501 C43.9843219,433.688778 42.5991941,433.899478 41.3711942,433.108589 C40.4204201,432.495827 39.6417861,432.539596 38.7120291,433.046498 C37.6571702,433.622616 36.6853789,433.279592 35.8567042,432.499899 C34.3064419,431.043319 33.4927794,429.364841 33.7780116,427.088871 C34.3584843,422.465679 35.7045803,418.076598 36.9646063,413.613213 C38.6089451,407.791981 39.7368635,401.753942 37.6411571,395.647704 C36.6423439,392.737597 35.9888117,389.704327 35.1921631,386.722969 C34.516613,384.195583 34.7608119,383.812862 37.3138907,383.28662 C37.5420765,383.240816 37.7652582,383.160404 38.1325572,383.05658 L38.1325572,379.019685 C37.4109697,378.954541 36.7264123,378.882272 36.0408541,378.83036 C33.4097118,378.630856 30.7695621,378.528051 28.1524311,378.214545 C26.0907525,377.967201 25.6604021,377.448084 25.7124444,375.369582 C25.8355447,370.493957 26.0357076,365.620367 26.2739016,360.749831 C26.3089301,360.014925 26.7102569,359.299358 26.9404443,358.583792 C28.0853765,358.788385 28.9320659,358.940048 29.9498947,359.12123 C30.0569819,358.414824 30.1960952,357.805117 30.2331253,357.19032 C30.699505,349.559304 31.1458685,341.927271 31.6062433,334.296256 C32.3268301,322.357591 33.0574249,310.420961 33.7790125,298.483313 C34.1323001,292.637652 34.4755796,286.789955 34.824864,280.943277 C35.6105037,267.790285 36.4071524,254.638311 37.1807823,241.484302 C37.7112142,232.468976 38.2016135,223.451614 38.7270413,214.436287 C39.5326973,200.628802 40.3473606,186.823352 41.167028,173.016884 C41.9006253,160.674122 42.648234,148.332377 43.3828322,135.989615 C43.4168599,135.444033 43.3878362,134.895398 43.3878362,134.169653 L43.3878362,134.169653 Z" id="Fill-10" fill="#632603"/><path d="M102.932467,130.001169 C104.413493,129.965854 104.709499,130.735721 104.842053,131.669046 C105.179919,134.057351 105.492868,136.448682 105.860632,138.830932 C106.48354,142.88106 107.145317,146.925134 107.781182,150.973245 C107.881844,151.607906 107.990479,152.248621 107.999449,152.888328 C108.021375,154.413936 107.390494,155.523837 105.884552,156.00513 C105.431075,156.150426 104.983578,156.374424 104.520135,156.416802 C102.144115,156.633737 99.7651054,156.81334 97.3860958,156.980834 C96.7592014,157.024221 95.9100534,157.071644 96.0077253,156.178678 C96.0485881,155.794249 96.8459101,155.277641 97.3522096,155.203984 C99.0026662,154.964851 100.677042,154.914401 102.341452,154.773141 C106.314109,154.432098 106.505467,154.180857 105.886545,150.198332 C104.960655,144.242202 104.028785,138.28809 103.115851,132.33196 C103.002233,131.592362 102.99426,130.836621 102.932467,130.001169" id="Fill-12" fill="#632603"/><path d="M204.00922,380 C204.432263,380.49983 204.715519,380.835901 205,381.17075 C204.569599,381.466493 204.168628,381.861224 203.692857,381.998097 C203.545711,382.04087 202.969391,381.351618 203.001273,381.038766 C203.031928,380.711249 203.560426,380.432615 204.00922,380" id="Fill-14" fill="#632603"/><path d="M204.503962,386 C204.735508,386.589768 204.958279,386.952784 204.999458,387.359447 C205.017685,387.538293 204.570793,388.062058 204.498562,387.993926 C204.279166,387.788465 204.055721,387.400965 204.002391,387.025174 C203.970663,386.804809 204.26094,386.471601 204.503962,386" id="Fill-16" fill="#632603"/></g></g></g><g id="Head" transform="translate(275.000000, 91.000000) scale(1 1)" fill="#632603"><g id="Head/Half Shave" stroke="none" stroke-width="1" fill="none" fill-rule="evenodd"><g id="Group-3" fill="#632603"><path d="M35.8401,9.568 C35.6171,9.582 35.3941,9.597 35.1701,9.611 C35.1701,11.599 35.1561,13.587 35.1741,15.574 C35.2001,18.598 35.8341,19.368 38.8121,19.874 C41.0921,20.261 43.4221,20.421 45.6641,20.955 C49.0301,21.757 50.2031,23.851 49.4251,27.22 C49.1011,28.619 48.6411,29.99 48.3881,31.401 C48.0821,33.107 48.4801,33.74 50.1351,34.265 C51.3481,34.65 52.6131,34.868 53.8541,35.168 C55.3511,35.53 56.4331,36.385 56.9881,37.849 C57.1761,38.342 57.3501,38.84 57.6351,39.627 C58.3631,36.251 57.6161,34.936 54.8121,34.169 C54.4271,34.064 54.0281,34.003 53.6521,33.873 C51.8501,33.251 51.0601,32.152 51.2531,30.243 C51.3561,29.227 51.6821,28.219 52.0051,27.24 C53.9921,21.228 52.1211,18.641 45.7201,18.614 C44.0441,18.607 42.3591,18.763 40.6961,18.624 C37.6631,18.371 36.4921,17.061 36.2621,14.028 C36.1491,12.539 35.9831,11.054 35.8401,9.568 M58.1871,44.253 C57.2361,44.371 56.2361,44.592 55.2331,44.603 C48.1171,44.679 41.0021,44.706 33.8871,44.762 C32.3941,44.774 30.9021,44.839 29.1281,44.887 C29.8631,47.804 30.5321,50.413 31.1741,53.028 C31.4691,54.228 31.4441,54.234 30.1721,55.269 C29.7911,54.347 29.3681,53.527 29.1111,52.659 C27.9751,48.831 26.8911,44.987 25.7751,41.153 C25.6221,40.63 25.3921,40.13 25.1601,39.52 C21.9051,40.157 19.1111,38.968 16.3981,37.578 C15.3451,37.039 14.4061,36.259 13.4711,35.519 C12.9721,35.125 12.4321,34.467 13.1081,33.942 C13.4421,33.683 14.3081,33.833 14.7841,34.083 C16.4731,34.964 18.0691,36.024 19.7601,36.901 C20.5251,37.299 21.4141,37.509 22.2731,37.664 C24.3821,38.043 25.5471,37.403 26.5521,35.507 C29.3841,30.169 30.1931,24.303 31.0141,18.443 C31.2021,17.099 31.2981,15.739 31.3631,14.383 C31.4211,13.208 31.3751,12.028 31.3751,10.689 C30.1281,10.589 29.0161,10.596 27.9431,10.396 C24.2551,9.708 20.5861,8.926 16.9011,8.23 C16.0531,8.07 14.0501,7.676 13.9431,7.4 C13.0661,7.21 10.4641,8.769 9.5021,10.904 C8.2021,13.788 7.6981,18.937 7.3901,20.665 C7.2931,21.211 7.1961,22.091 6.9031,22.603 C6.4111,22.279 6.0571,21.908 5.7481,21.416 C5.4771,20.984 5.2161,20.401 4.9271,20.172 C4.4761,19.816 3.7101,19.733 3.3151,19.855 C2.8511,19.998 2.3911,20.709 2.2551,21.255 C1.8281,22.964 2.7491,24.758 4.7181,25.386 C6.5341,25.965 6.8781,27.064 6.6771,28.644 C6.0421,33.632 5.4421,38.626 4.7221,43.602 C4.2871,46.603 3.6831,49.58 3.0961,52.556 C2.9521,53.286 2.5781,53.971 2.3061,54.687 C0.8241,54.401 0.8251,53.509 0.9821,52.627 C1.4711,49.877 2.0941,47.149 2.5101,44.388 C3.2731,39.336 3.9301,34.267 4.6141,29.203 C4.6781,28.737 4.6231,28.255 4.6231,27.711 C4.0201,27.384 3.3621,27.192 2.9421,26.766 C2.0591,25.874 1.0821,24.966 0.5411,23.869 C-0.2769,22.211 -0.2139,20.417 1.0461,18.903 C2.3221,17.37 3.9671,17.506 5.9431,18.244 C6.1421,17.089 6.3651,16.034 6.4991,14.968 C7.0931,10.236 9.3471,6.768 13.8581,4.844 C14.9221,4.391 15.8241,3.508 16.7281,2.736 C23.4791,-3.029 34.7111,0.891 36.5181,9.131 C36.7381,10.136 36.7581,11.187 36.8711,12.216 C36.9681,13.088 37.0101,13.969 37.1741,14.828 C37.5701,16.909 38.4221,17.718 40.5621,17.831 C42.4751,17.932 44.4021,17.778 46.3161,17.876 C47.5771,17.941 48.8821,18.089 50.0711,18.486 C52.6201,19.338 53.8941,21.385 53.5751,24.073 C53.4261,25.326 52.9211,26.533 52.6331,27.774 C52.4011,28.776 52.1791,29.791 52.0861,30.813 C51.9781,32.018 52.6731,32.75 53.7791,33.114 C54.0821,33.214 54.3991,33.274 54.7121,33.335 C57.7031,33.913 59.0961,35.541 58.8131,39.289 C58.6991,40.791 58.4411,42.281 58.1871,44.253" id="Fill-1"/></g></g></g><g id="Face" transform="translate(289.000000, 103.000000) scale(1 1)" fill="#632603"><g id="Face/Kind" stroke="none" stroke-width="1" fill="none" fill-rule="evenodd"><g id="Group-14" transform="translate(-1.000000, -2.000000)" fill="#632603"><g id="Group-3" transform="translate(0.000000, 0.826700)"><path d="M2.9468,4.9331 C2.8728,4.9681 2.7978,5.0001 2.7248,5.0371 C2.7978,5.0001 2.8728,4.9681 2.9468,4.9331 L2.9468,4.9331 Z M2.2548,5.2951 C2.1438,5.3601 2.0348,5.4321 1.9268,5.5031 C2.0348,5.4321 2.1438,5.3601 2.2548,5.2951 L2.2548,5.2951 Z M1.3118,5.9561 C1.1808,6.0631 1.0508,6.1721 0.9278,6.2901 C1.0508,6.1721 1.1808,6.0631 1.3118,5.9561 L1.3118,5.9561 Z M0.5868,6.6471 C0.4758,6.7721 0.3698,6.9071 0.2668,7.0441 C0.3698,6.9071 0.4758,6.7721 0.5868,6.6471 L0.5868,6.6471 Z M8.8638,3.3911 C9.1358,3.2861 9.4338,2.7271 9.5868,2.0321 C9.7708,1.2071 9.6858,0.5141 9.3598,0.1771 C9.3568,0.1751 9.3538,0.1731 9.3508,0.1741 C9.3468,0.1741 9.3438,0.1761 9.3418,0.1791 C8.4728,1.6591 6.7308,2.1161 5.0448,2.5581 C4.1508,2.7931 3.2408,3.0431 2.4678,3.4371 C2.4308,3.4561 2.3968,3.4751 2.3608,3.4951 C2.2408,3.5591 2.1138,3.6171 2.0018,3.6901 C0.4748,4.6891 0.1898,6.3111 -0.0002,7.3861 C-0.0012,7.3911 0.0018,7.3951 0.0078,7.3971 C0.0088,7.3981 0.0098,7.3981 0.0118,7.3981 C0.0158,7.3981 0.0188,7.3961 0.0218,7.3931 C1.7588,4.7331 5.0088,4.1571 7.1588,3.7751 C7.8598,3.6501 8.4668,3.5431 8.8638,3.3911 L8.8638,3.3911 Z" id="Fill-1"/></g><path d="M11.2918,7.2554 C11.2868,7.2554 11.2818,7.2604 11.2818,7.2654 L10.5298,13.9934 C10.5288,13.9974 10.5308,14.0004 10.5328,14.0034 C10.5348,14.0054 10.5378,14.0064 10.5408,14.0064 L10.5428,14.0064 L12.9348,13.7674 C12.9378,13.7674 12.9408,13.7654 12.9428,13.7634 C12.9438,13.7604 12.9448,13.7564 12.9438,13.7534 L11.3038,7.2644 C11.3028,7.2584 11.2978,7.2544 11.2918,7.2554" id="Fill-4"/><path d="M11.7547,15.8785 C10.7447,16.4055 9.8277,16.5295 9.0337,16.2465 C7.8567,15.8325 7.3077,14.6495 7.2837,14.5975 L7.2337,14.4865 L6.8387,14.6575 L6.8897,14.7745 C6.9537,14.9165 7.5507,16.1815 8.8877,16.6535 C9.2117,16.7685 9.5557,16.8265 9.9077,16.8265 C10.5467,16.8265 11.2347,16.6365 11.9547,16.2625 L12.0667,16.2035 L11.8647,15.8215 L11.7547,15.8785 Z" id="Fill-6"/><path d="M2.8611,7.8843 C2.8181,8.0723 2.7911,8.2923 2.7911,8.4473 C2.7911,9.4393 3.7101,10.2453 4.8401,10.2453 C5.9701,10.2453 6.8901,9.4393 6.8901,8.4473 C6.8901,8.0203 6.5391,7.5143 6.2291,7.1833 C7.7841,7.3093 9.1651,8.1533 9.5691,8.4243 C9.2101,8.8623 7.8491,10.3523 5.9351,10.4703 C5.8571,10.4753 5.7791,10.4783 5.7011,10.4783 C3.8431,10.4783 2.0451,9.1473 1.5491,8.7503 C1.7491,8.5763 2.2061,8.2183 2.8611,7.8843 M9.9431,8.4863 C9.9951,8.4133 9.9791,8.3133 9.9061,8.2563 C9.8291,8.1983 7.9891,6.8523 5.9141,6.8253 L5.8311,6.8253 C3.0181,6.8253 1.2541,8.5673 1.1771,8.6433 C1.1471,8.6763 1.1301,8.7203 1.1321,8.7643 C1.1331,8.8103 1.1551,8.8543 1.1851,8.8783 C1.1891,8.8833 1.7791,9.4043 2.6561,9.8973 C3.3961,10.3133 4.5261,10.8103 5.7041,10.8103 C5.7881,10.8103 5.8731,10.8083 5.9561,10.8023 C8.3401,10.6553 9.8781,8.5753 9.9431,8.4863" id="Fill-8"/><path d="M13.0281,7.9351 C13.0601,8.3401 13.2221,8.7511 13.4981,9.0811 C13.8221,9.4721 14.2371,9.6871 14.6661,9.6871 C15.5761,9.6871 16.3161,8.9471 16.3161,8.0371 C16.3161,7.6151 16.1541,7.2261 15.8751,6.9231 C15.9941,6.9141 16.1091,6.8981 16.2331,6.8981 C17.4531,6.8981 18.5721,7.8021 18.8841,8.0791 C18.6001,8.4841 17.4971,9.9011 15.9431,10.0121 C15.8821,10.0171 15.8211,10.0191 15.7591,10.0191 C14.2661,10.0191 12.8141,8.7801 12.4081,8.4031 C12.5251,8.3001 12.7431,8.1261 13.0281,7.9351 M16.2331,6.5651 C13.7801,6.5661 12.0621,8.2691 12.0481,8.2851 C11.9831,8.3481 11.9831,8.4541 12.0461,8.5161 C12.0501,8.5211 12.5181,9.0031 13.2481,9.4801 C13.8561,9.8771 14.7851,10.3511 15.7571,10.3511 C15.8271,10.3511 15.8971,10.3491 15.9661,10.3441 C17.9031,10.2051 19.1121,8.3511 19.2451,8.1381 C19.2841,8.0731 19.2741,7.9891 19.2191,7.9341 C19.0771,7.7941 17.7811,6.5651 16.2331,6.5651" id="Fill-10"/><path d="M18.8367,6.7896 C18.7807,6.7396 18.7237,6.6956 18.6667,6.6476 C18.7237,6.6956 18.7807,6.7396 18.8367,6.7896 M19.4807,7.4466 C19.4007,7.3576 19.3217,7.2686 19.2417,7.1856 C19.3217,7.2686 19.4007,7.3576 19.4807,7.4466 M17.8557,6.0516 C17.8057,6.0196 17.7557,5.9876 17.7057,5.9576 C17.7557,5.9876 17.8057,6.0196 17.8557,6.0516 M19.6807,7.0156 C19.5557,6.1276 19.4387,5.2886 18.2467,4.6476 C17.4157,4.2016 16.4997,3.9486 15.6137,3.7036 C14.0107,3.2616 12.4957,2.8426 11.4547,1.3746 C11.4527,1.3716 11.4497,1.3696 11.4457,1.3696 C11.4417,1.3686 11.4397,1.3716 11.4377,1.3736 C11.1427,1.7366 11.1167,2.4356 11.3697,3.2416 C11.5827,3.9216 11.9277,4.4526 12.2067,4.5326 C12.5907,4.6436 13.0577,4.7026 13.5977,4.7696 C15.3757,4.9936 17.8117,5.2996 19.8117,7.8516 C19.8137,7.8536 19.8167,7.8556 19.8197,7.8556 C19.8217,7.8556 19.8237,7.8546 19.8247,7.8536 C19.8307,7.8516 19.8327,7.8466 19.8317,7.8416 C19.7587,7.5676 19.7197,7.2866 19.6807,7.0156" id="Fill-12"/></g></g></g><g id="Glasses" transform="translate(286.000000, 108.000000) scale(1 1)"><g id="Glasses/Read" stroke="none" stroke-width="1" fill="none" fill-rule="evenodd"><g id="Group-3" fill="#83a9d0"><path d="M21.6853283,6.70912951 C21.1497633,7.18018401 20.5187622,7.34890304 19.7530279,7.22434536 C16.7136687,6.73064402 14.9385571,3.7378627 14.2536627,0.988535032 C18.6414779,0.788110403 22.4196249,0.615994338 23.4581942,0.569568294 C23.4469664,1.61019108 23.2942687,5.29030432 21.6853283,6.70912951 L21.6853283,6.70912951 Z M11.6645374,2.30771408 C11.7835518,1.92498231 11.8913385,1.52639774 11.9912657,1.11082803 C12.4370084,1.11875442 13.2229528,1.10063694 13.7091156,1.04062279 C13.797815,1.40070771 13.9022333,1.76305732 14.0257389,2.12427459 L11.6645374,2.30771408 Z M6.71084224,7.43382873 C3.72200803,7.72031139 1.1373738,5.24048125 0.607422729,1.62717622 C3.41548972,1.49129512 7.48668162,1.30106157 11.4332452,1.11875442 C10.9235041,3.17055909 9.56943423,7.15753715 6.71084224,7.43382873 L6.71084224,7.43382873 Z M23.9982503,0.277423921 L23.9903908,0 L23.7164331,0.0124557679 C23.631102,0.016985138 19.2904434,0.212880396 14.1301572,0.449539986 L14.1200522,0.404246285 L13.8775322,0.460863411 C13.1903923,0.492569002 12.489779,0.524274593 11.7835518,0.557112527 L11.5679785,0.542392074 L11.5612418,0.567303609 C7.4271744,0.757537155 3.13591808,0.957961783 0.287431088,1.09723992 L0,1.11196037 L0.0336833306,1.40070771 C0.25262498,3.32002831 1.04306047,5.04911536 2.25790593,6.26978061 C3.37956084,7.39646143 4.77854184,8 6.2448895,8 C6.41667448,8 6.58958225,7.9920736 6.76136723,7.97508846 C8.74980652,7.78372258 10.4193769,5.9527247 11.4826474,2.86822364 L14.2199794,2.65534324 C15.166481,5.07062987 16.9438381,7.31946214 19.666574,7.76220807 C20.5872517,7.91167728 21.3855466,7.69539986 22.040126,7.11790517 C22.9170154,6.3467799 23.5109648,4.95399858 23.8096236,2.98145789 C24.0274425,1.53658882 23.9993731,0.328379335 23.9982503,0.277423921 L23.9982503,0.277423921 Z" id="Fill-1"/></g></g></g></g></svg>