<svg viewBox="1.4057788944723484 42.07499999999999 374.87437185929656 289.85" xmlns="http://www.w3.org/2000/svg" overflow="visible" xmlns:xlink="http://www.w3.org/1999/xlink" width="374.87437185929656px" height="289.85px"><g id="Master/Stickers/Paint" stroke="none" stroke-width="1" fill="none" fill-rule="evenodd"><g id="Group-10-Copy" transform="translate(2.000000, 43.000000)" fill="#5c6a0d"><g id="Group-3"><path d="M3.22415404,4.6711648 C3.04739627,5.2456968 2.89720994,5.5046408 2.89720994,5.7635848 C2.85677516,97.8019928 2.82673789,189.842713 2.8036323,281.881121 C2.8036323,282.616337 2.90645217,283.352709 2.97230311,284.086769 C2.97923478,284.163065 3.07050186,284.233581 3.12826584,284.302941 C3.18602981,284.373457 3.25072547,284.439349 3.36047702,284.560729 C3.8688,284.602345 4.41640248,284.683265 4.96516025,284.686733 C10.5971478,284.719101 16.2302907,284.723725 21.8622783,284.767653 C47.1663652,284.964173 72.4692969,285.179189 97.7733839,285.369929 C112.18203,285.478593 126.591831,285.597661 141.001632,285.633497 C168.617434,285.701701 196.23439,285.812677 223.850191,285.723665 C250.263347,285.638121 276.675347,285.301725 303.088502,285.113297 C321.651533,284.980357 340.215719,284.917933 358.77875,284.802333 C361.797496,284.783837 364.817396,284.652053 367.867334,284.571133 L367.867334,4.8156648 C367.10716,4.7474608 366.563024,4.6619168 366.018887,4.6549808 C356.510937,4.5509408 347.002986,4.4341848 337.493881,4.3659808 C305.908539,4.1405608 274.322042,3.9451968 242.736701,3.7128408 C222.785024,3.5671848 202.834502,3.1799248 182.885135,3.2504408 C153.32962,3.3533248 123.77526,3.7949168 94.2208994,4.0423008 C65.3169615,4.2839048 36.4130236,4.4642408 7.50908571,4.6700088 C6.05920994,4.6804128 4.60817888,4.6711648 3.22415404,4.6711648 M185.266166,288.999769 C127.283843,288.606729 68.9861292,288.211377 10.6884149,287.817181 C8.3778559,287.802153 6.06729689,287.826429 3.75904845,287.769785 C1.02912298,287.700425 0.268949068,287.011449 0.235445963,284.305253 C0.133781366,276.081469 0.0656198758,267.855373 0.0575329193,259.630433 C0.0228745342,223.577105 -0.00947329192,187.524933 0.000412701739,151.471605 C0.0205639752,103.773889 0.0794832298,56.0773288 0.126849689,8.3796128 C0.128004969,6.9935688 0.145334161,5.6029008 0.258551553,4.2226368 C0.394874534,2.5626208 1.20472547,1.7638248 2.87294907,1.5511208 C3.51066335,1.4690448 4.16455155,1.5083488 4.81150807,1.5037248 C47.586887,1.2158808 90.3634211,0.9812128 133.1388,0.6309448 C203.265421,0.0587248 273.386266,0.9835248 343.509421,1.3384168 C350.993322,1.3765648 358.476067,1.4470808 365.959968,1.5025688 C366.329657,1.5048808 366.699347,1.4991008 367.069036,1.5106608 C369.931819,1.5996728 370.716253,2.3279528 370.737048,5.1266288 C370.784415,11.5042808 370.795968,17.8830888 370.800589,24.2607408 C370.829471,62.8098728 370.879148,101.359005 370.870158,139.908137 C370.857198,187.700645 370.771707,235.491997 370.798278,283.284505 C370.800589,287.057689 369.652241,287.790593 366.294999,287.811401 C306.05757,288.180165 245.820142,288.594013 185.266166,288.999769" id="Fill-1"/></g><path d="M49.3048345,114.974503 C49.4940407,116.454271 49.6232548,117.529415 49.7697743,118.602246 C49.9659027,120.047332 50.8161772,120.668141 52.2467612,120.561782 C52.8870629,120.514383 53.5735125,120.635771 54.1653589,120.448488 C57.4037858,119.425367 60.6237534,118.345599 63.84026,117.25427 C66.4106964,116.382595 67.6093874,114.565255 67.7201422,111.836933 C67.9889536,105.205724 68.4192825,98.5814516 68.6523292,91.9490865 C68.7192436,90.0334809 68.4215899,88.0889737 68.1193213,86.1849288 C67.9693407,85.2369527 67.4305644,84.3514042 67.0786868,83.4646996 C65.2696903,83.7594971 64.7020715,85.0288603 64.4471045,86.2415762 C63.9210188,88.7537131 63.4583864,91.3120927 63.3314797,93.8693163 C63.1203532,98.1028392 63.2911004,102.354859 63.1076626,106.59185 C63.0257501,108.501676 62.5677325,110.412657 62.116637,112.284332 C61.7889872,113.648493 60.8418021,114.477394 59.3316131,114.524793 C57.2238091,114.590688 55.1171588,114.700515 53.0093548,114.794156 C51.920265,114.842711 50.8311753,114.900515 49.3048345,114.974503 L49.3048345,114.974503 Z M49.1271652,154.418405 C49.9070642,152.644996 51.178438,127.329407 50.7515702,124.478542 C49.4075135,123.076231 48.062303,122.130567 47.3573943,120.835771 C46.0790983,118.491264 46.1494738,115.827682 46.7101704,113.270458 C46.8393845,112.6878 47.7588808,112.088956 48.4349471,111.868147 C49.2483033,111.602251 50.1908736,111.730575 51.0722979,111.688956 C51.1565178,111.026529 51.2511209,110.663524 51.2407376,110.303986 C50.9638504,101.450814 50.7884885,92.5930166 50.3247024,83.7502485 C50.1724144,80.8369559 49.3348306,77.9490967 48.6760697,75.0808907 C48.4730191,74.1964983 47.8292563,73.4138399 47.3181686,72.4577713 C45.1192226,74.1028568 44.3520142,76.2265546 43.4602066,78.2057439 C40.281772,85.2508255 38.6735188,92.7456177 37.7090283,100.352549 C35.7546659,115.768722 35.4985452,131.26004 36.2011466,146.772168 C36.2542166,147.944421 36.4907245,149.10627 36.6464735,150.315518 C40.9301496,151.724765 45.0303879,153.072741 49.1271652,154.418405 L49.1271652,154.418405 Z M300.130048,161.480828 C300.290412,159.229962 300.518844,157.217247 300.563838,155.198751 C300.999936,135.530557 301.344891,115.860052 298.99135,96.2670024 C298.551791,92.6080455 297.927641,88.9641176 297.22504,85.3456231 C296.918157,83.7675896 296.508594,82.0762613 294.838041,81.2658573 C292.734852,82.3675906 292.055325,82.9999601 290.959313,85.1028487 C289.198772,88.4808809 287.839717,92.0346355 287.420925,95.8265403 C286.924835,100.315554 286.356063,104.840407 286.424131,109.340981 C286.677944,126.143281 287.17288,142.942113 287.600902,159.740944 C287.644742,161.457706 287.854715,163.168688 288.000081,165.060016 C292.19723,163.821866 296.074804,162.677358 300.130048,161.480828 L300.130048,161.480828 Z M329.030152,153.537481 C328.823641,149.957137 328.575596,146.646156 328.449843,143.330552 C327.724168,124.218427 328.161419,105.057747 326.1113,86.001114 C325.469844,80.0334883 324.745323,74.0751111 324.036953,68.1144218 C323.925044,67.1699139 323.757758,66.2138452 322.867104,65.3132678 C321.097334,68.5965024 320.245905,71.8889855 319.506386,75.203434 C317.327052,84.9699008 316.713286,94.94446 315.657653,104.86006 C314.621634,114.597625 313.530236,124.328254 312.581898,134.073911 C311.866606,141.427663 311.330137,148.798756 310.741751,156.164068 C310.687528,156.840368 310.840969,157.532854 310.918267,158.444992 C317.015554,156.79297 322.861336,155.209156 329.030152,153.537481 L329.030152,153.537481 Z M24.5338112,265.574393 C25.3287083,265.369769 25.675971,265.38711 25.8351811,265.222948 C27.0407943,263.973238 28.1091175,262.574395 29.4058726,261.433356 C39.5560968,252.498102 50.5265993,244.727009 62.3935243,238.235685 C85.344014,225.680781 109.305142,215.426453 133.925031,206.671546 C134.940284,206.310853 135.945154,205.922413 137.342281,205.402183 C133.524698,201.834555 129.966698,198.656523 126.102967,195.824155 C119.612269,191.064621 112.607022,187.155953 105.587931,183.260002 C86.9165027,172.89816 67.4213348,164.39412 47.3250908,157.238056 C39.9529685,154.612624 32.5762313,151.994129 25.1971868,149.389507 C24.9860603,149.315518 24.7080194,149.432281 24.5338112,149.451935 L24.5338112,265.574393 Z M347.424694,152.783724 C346.675945,152.871585 346.126785,152.884302 345.601853,153.005689 C341.476233,153.967538 337.322925,154.832277 333.239992,155.950196 C320.004783,159.575627 306.814568,163.366375 293.572436,166.965217 C273.312367,172.468103 253.056913,177.998734 232.735698,183.269251 C213.034018,188.379074 193.227352,193.088897 173.508367,198.137448 C154.656962,202.964034 136.149359,208.917787 118.046703,216.071539 C99.5194862,223.394077 81.3360715,231.476152 63.8564118,241.091174 C52.3355959,247.427585 41.6512101,254.952435 31.6763479,263.506186 C31.1191123,263.984799 30.6495577,264.565145 29.9354194,265.311965 L347.424694,265.311965 L347.424694,152.783724 Z M24.4553598,23.6473846 C24.4553598,24.85665 24.4565135,25.8578054 24.4553598,26.8578046 C24.4299785,51.1676134 24.4161341,75.4762662 24.3757547,99.786075 C24.3515271,114.482018 24.2788442,129.177961 24.2557703,143.872748 C24.2557703,144.466967 24.3699862,145.417255 24.7310933,145.597602 C27.3926718,146.928237 30.0750167,148.269276 33.2857549,149.004536 C33.1092392,146.513208 32.9119571,144.406852 32.8185077,142.29587 C32.3593363,131.753682 32.7112139,121.22421 33.4484261,110.707454 C33.9606675,103.419598 34.951693,96.1953261 36.6395514,89.0751001 C38.0112968,83.2866651 39.8929762,77.7063223 43.0990995,72.655459 C44.0901251,71.0924543 45.1676778,69.349103 47.2950947,69.4693341 C49.6151789,69.5999699 50.4966032,71.6300262 51.0319185,73.449678 C51.9375705,76.5317567 52.8743723,79.6947602 53.0912672,82.8727925 C53.6796526,91.5352139 53.8965476,100.223069 54.2634232,108.900519 C54.3003415,109.783756 54.3534115,110.666992 54.3984057,111.51439 C59.5704283,111.788378 59.662724,111.707454 59.9649926,106.958324 C59.982298,106.682024 59.9915276,106.404567 59.9996035,106.127111 C60.1472767,101.047346 60.2476483,95.9652685 60.4622359,90.8878156 C60.5845277,88.0034246 61.0875395,85.1537157 62.7650146,82.7178794 C64.9916494,79.4831996 68.5796463,79.6843556 70.1544424,83.2068963 C70.8928084,84.8577622 71.4754252,86.7594949 71.4546587,88.5409965 C71.3612092,96.8461927 71.0981664,105.152545 70.7520573,113.451961 C70.6320729,116.349069 69.0584305,118.479703 66.3310913,119.641552 C64.8070579,120.290106 63.3130206,121.045019 61.7393782,121.539816 C59.29008,122.310914 56.7830969,122.900509 54.0822928,123.62652 C54.0096099,125.026519 53.9265437,126.483165 53.8630904,127.939812 C53.5100592,135.972176 53.1685649,144.003384 52.8086115,152.035748 C52.6147905,156.358288 52.1198546,155.44615 56.1508711,157.065802 C57.7752761,157.718981 59.4412142,158.269269 61.0644656,158.922448 C75.9552298,164.908571 90.6614024,171.303942 104.66382,179.191797 C111.249121,182.902777 117.732897,186.80104 124.186677,190.73861 C129.654046,194.073867 134.313827,198.449587 138.926307,202.847271 C140.150379,204.0149 141.248698,204.275016 142.865027,203.716635 C146.870663,202.333977 150.933983,201.113168 154.992688,199.888892 C175.301212,193.766353 195.944308,188.929362 216.506646,183.767516 C238.401503,178.271567 260.214448,172.444981 282.059696,166.751344 C283.00342,166.505101 283.918302,166.149032 284.78242,165.865795 C284.425928,154.561757 284.014058,143.574482 283.752169,132.583739 C283.504124,122.151377 282.868437,111.71439 283.631031,101.278559 C284.161732,93.999952 285.676535,87.0242346 290.064044,80.9502506 C290.433227,80.4392683 290.539367,79.6184597 290.498988,78.9583445 C290.442457,78.0519868 290.007513,77.1675944 289.954443,76.2612367 C289.863301,74.7097927 291.633072,75.50748 292.151082,74.6612379 C292.198383,74.5837813 292.220303,74.4762669 292.286064,74.4242438 C292.757926,74.0543019 293.295549,73.3502562 293.700496,73.4173081 C294.246195,73.5086375 294.691522,74.1988104 294.805738,74.2993884 C295.882137,73.9502557 296.806248,73.3063256 297.383096,73.5363832 C298.489492,73.9791574 297.95533,75.1167289 297.710746,75.9722196 C297.43732,76.92482 297.047371,77.8450506 296.71626,78.7560325 C299.332844,81.0161465 300.135817,83.960653 300.710358,86.9722115 C302.702792,97.4392559 303.580756,108.045028 303.844952,118.66005 C304.154143,131.129405 303.884178,143.612632 303.848413,156.09008 C303.844952,157.4369 303.735351,158.78372 303.660361,160.461175 C305.249001,160.00106 306.528451,159.629962 307.74214,159.278517 C307.908272,155.357133 307.903657,151.655401 308.25092,147.988352 C309.166955,138.331711 310.232971,128.688944 311.245917,119.042708 C312.539211,106.732891 313.729826,94.4115124 315.181176,82.121348 C315.939155,75.6912949 317.384737,69.3872533 320.289746,63.5028645 C320.649699,62.7745414 320.69354,61.671652 320.432804,60.8947739 C319.590606,58.3803249 319.978248,56.4392859 322.465618,55.1733908 C324.152323,55.3410208 323.68969,56.9352393 324.290766,58.1074927 C324.965679,57.0404415 325.450231,56.0404422 326.16437,55.2462232 C326.50471,54.8670327 327.279994,54.8809055 327.857997,54.7167438 C327.986057,55.2843734 328.371392,55.9560492 328.192569,56.3988235 C327.642255,57.7606722 326.911965,59.0577811 326.181675,60.3398611 C325.510224,61.5213631 325.269101,62.5410155 325.96478,63.9271417 C326.692763,65.3780077 327.036564,67.071648 327.290378,68.6993925 C327.814156,72.0728004 328.332166,75.4612373 328.561752,78.864703 C329.410872,91.4924394 330.272684,104.122488 330.876067,116.764097 C331.352544,126.730564 331.433303,136.715528 331.747108,146.691243 C331.808254,148.602224 332.139365,150.506269 332.367797,152.619562 C337.591736,151.428812 342.578014,150.292396 347.410921,149.190663 C347.410921,108.025375 347.410921,67.1063301 347.405081,26.1861288 C347.405081,25.4508692 347.322015,24.7144536 347.265484,23.9803501 C347.259715,23.9063617 347.173188,23.8323733 347.113196,23.7687895 C347.050896,23.7017376 346.975906,23.6473846 346.977059,23.6473846 L24.4553598,23.6473846 Z M186.200185,20.7121444 C228.628538,20.5040521 271.055736,20.2901794 313.482935,20.0901795 C324.731478,20.0381564 335.978868,20.0265958 347.226258,20 C349.722858,20 350.501603,20.6462485 350.870786,23.1422004 C351.004615,24.0497142 350.963082,24.9872858 350.964235,25.9098284 C350.979233,64.5479505 351,103.184916 351,141.823038 C351,181.47272 350.982695,221.123558 350.96885,260.77324 C350.967696,262.436823 351.051916,264.115434 350.867325,265.76052 C350.584669,268.278437 349.694015,269.010229 347.294326,269 C333.28614,268.929304 319.279107,268.836818 305.272075,268.781327 C277.323771,268.670344 249.37662,268.574391 221.428316,268.478437 C201.970066,268.412541 182.511817,268.283061 163.053567,268.314275 C144.146785,268.343177 125.240002,268.565142 106.333219,268.65994 C85.3070958,268.763986 64.2798185,268.817165 43.2536949,268.89809 C37.0814172,268.922367 30.9102932,268.96861 24.7380155,269 C22.2298787,269.012541 21.4153688,268.339709 21.1200224,265.846069 C20.9908084,264.750116 21.0415711,263.629886 21.0415711,262.521216 C21.0242656,224.073845 21,185.625319 21,147.176792 C21,106.976821 21.0242656,66.7756945 21.0415711,26.5745678 C21.0427248,25.3734126 20.9850399,24.1583846 21.1384816,22.9745705 C21.4407501,20.6439363 22.2356472,20 24.6191847,20 C32.0859102,20.0069426 39.5526357,20.0289079 47.0193612,20.0543414 C67.3117336,20.1248616 87.6052597,20.1768847 107.898786,20.2797748 C133.723134,20.4127226 159.547483,20.5884451 185.371831,20.7456704 C185.648718,20.7468264 185.924452,20.7456704 186.201339,20.7456704 C186.201339,20.7341097 186.201339,20.7237051 186.200185,20.7121444 L186.200185,20.7121444 Z" id="Fill-4"/><path d="M262.900433,114.696907 C263.201154,111.487664 262.989152,108.648454 261.130675,106.173568 C258.897738,103.201877 255.380114,102.446963 252.0526,104.122393 C249.9971,105.155975 248.515388,106.693214 247.77338,108.903138 C247.454225,109.85449 247.108569,110.888072 245.796229,110.848099 C244.3053,110.802416 244.206212,109.619222 243.913556,108.551378 C243.018308,105.295309 242.141494,102.031246 241.126418,98.8117237 C240.496172,96.817653 239.779512,94.820156 238.81398,92.9711293 C238.024732,91.4590161 236.983156,89.9868756 235.749165,88.8116758 C233.318052,86.4978228 231.361639,86.5492164 229.076854,88.9612882 C227.901624,90.2015865 226.765568,91.6668745 226.186019,93.2383759 C224.740025,97.162561 223.622404,101.205522 222.372282,105.200516 C222.100366,106.069639 221.934452,106.990155 221.535795,107.797605 C220.683177,109.523287 219.188792,109.581533 218.193303,107.978054 C217.905256,107.515511 217.755472,106.97074 217.489317,106.492208 C216.427001,104.575799 215.448795,102.602286 214.240152,100.778385 C212.955464,98.844844 211.375817,98.614144 209.565732,100.048596 C208.732702,100.708718 208.026411,101.629234 207.515993,102.566881 C206.014694,105.328429 205.207012,108.32182 204.9639,111.447691 C204.902835,112.2323 205.073358,113.035182 205.147098,113.960266 C224.466957,114.206955 243.572509,114.450218 262.900433,114.696907 M219.450338,103.515949 C219.981496,101.584693 220.374391,100.135394 220.777657,98.6872371 C221.662536,95.5156824 222.716786,92.4115103 224.553371,89.6282627 C224.8057,89.2468081 225.040746,88.8539328 225.310357,88.4850411 C229.661013,82.5359491 235.321704,82.4982605 239.774903,88.4130901 C241.841925,91.1586492 243.017155,94.3256355 244.002275,97.5679992 C244.712021,99.9046938 245.401029,102.247099 246.181059,104.85675 C247.086677,104.01047 247.72038,103.376615 248.396713,102.790729 C254.452604,97.5462997 263.486896,100.150241 265.442156,107.89354 C266.11849,110.574 265.9134,113.485161 265.998662,116.294676 C266.04475,117.780522 264.892563,118.007796 263.698898,118 C261.029283,117.981528 258.36082,117.962112 255.691204,117.914145 C240.418975,117.638904 225.145595,117.359094 209.873366,117.069006 C208.309849,117.039312 206.74518,116.973072 205.18512,116.864574 C203.282861,116.732093 202.705615,116.380332 202.357655,114.507322 C202.062695,112.918689 201.832258,111.188439 202.160631,109.643205 C202.764377,106.810848 203.673452,104.02189 204.713876,101.312878 C205.18512,100.087427 206.118391,98.9247896 207.112728,98.0293993 C210.493242,94.9834733 214.152586,95.4494417 216.736939,99.1589159 C217.610297,100.414061 218.36037,101.754863 219.450338,103.515949" id="Fill-6"/><path d="M115.586978,66.9208871 C135.856212,67.1581234 155.797984,67.3907532 176.081054,67.6279895 C175.895415,66.0525561 175.84007,64.8744359 175.606003,63.7308648 C174.828856,59.9281739 171.26482,58.4621456 167.992501,60.5776947 C167.376779,60.9761596 166.875208,61.5554308 166.24565,61.9216499 C164.968085,62.664453 163.951107,62.3270246 163.330773,61.0014955 C163.100166,60.5062935 162.996393,59.9523582 162.807294,59.4352751 C162.114319,57.536233 161.506669,55.5968836 160.688013,53.7531198 C158.630995,49.1235567 154.87786,47.7957243 150.262254,49.9239414 C148.010373,50.962714 146.260063,52.5508154 145.035538,54.6744259 C144.071599,56.3442932 143.183761,58.0648323 142.37087,59.8141623 C140.78775,63.2252981 139.952952,63.4452599 137.183357,61.0452575 C136.279376,60.2621473 135.393844,59.4525496 134.43913,58.7339309 C133.486721,58.0176154 132.513558,57.2989966 131.457376,56.7611842 C127.371014,54.6801841 123.629409,55.1984188 120.268307,58.3112817 C117.838858,60.5615718 116.3549,63.3542809 115.586978,66.9208871 M165.711794,57.8874809 C167.219966,57.4625285 168.517133,56.9673264 169.858115,56.746213 C173.510935,56.1439091 177.076125,58.1132009 178.15998,61.6302869 C178.796456,63.6951642 178.97633,65.9604255 179,68.1381628 C179.023604,70.4840384 178.331782,71.0045763 175.933466,71 C171.049202,70.9907567 166.163785,70.9400849 161.278368,70.870987 C146.346541,70.6590866 131.413561,70.4448829 116.481734,70.1972819 C111.833843,70.1201225 111.289609,69.4970892 112.652499,65.1980447 C113.365076,62.9512095 114.361299,60.6870998 115.706893,58.7638733 C121.371763,50.6678961 129.850043,51.3323881 135.746673,55.7788416 C136.833987,56.5999556 137.846353,57.5201101 139.080103,58.5496697 C139.515951,57.8414156 139.836495,57.3312424 140.145509,56.8164626 C141.186701,55.0821039 142.107977,53.263676 143.287534,51.6295093 C145.618975,48.3968766 148.918966,46.6268172 152.823149,46.103976 C157.245045,45.5120369 160.520822,47.4813286 162.788846,51.1492785 C163.601737,52.4632913 164.068717,53.9926594 164.685591,55.4275936 C165.04188,56.2567691 165.382026,57.094006 165.711794,57.8874809" id="Fill-8"/></g></g></svg>