<svg viewBox="76.38065326633165 42.07499999999999 173.37939698492465 289.85" xmlns="http://www.w3.org/2000/svg" overflow="visible" xmlns:xlink="http://www.w3.org/1999/xlink" width="173.37939698492465px" height="289.85px"><g id="Master/Stickers/Plant 1" stroke="none" stroke-width="1" fill="none" fill-rule="evenodd"><g id="Group-39" transform="translate(50.000000, 44.000000)"><g id="Short Pot" transform="translate(48.000000, 175.000000) scale(1 1)"><g id="Short Pot/Large Pot" stroke="none" stroke-width="1" fill="none" fill-rule="evenodd"><g id="Group-6" transform="translate(1.000000, -0.000000)"><g id="Group-3" transform="translate(0.000000, 0.136000)" fill="#4a1d02"><path d="M3.1914,3.6853 C3.2704,4.4953 3.2764,5.0563 3.3844,5.5973 C5.8094,17.6753 8.9404,49.2423 13.7924,60.5983 C18.8544,72.4483 25.2764,83.4413 34.4424,92.6463 C41.9684,100.2063 50.6804,105.8383 61.1204,108.4903 C65.0684,109.4933 69.0664,110.3013 73.2024,109.9083 C84.1284,108.8703 93.7124,104.6223 102.2004,97.7943 C113.1634,88.9763 120.6844,77.5773 126.6084,65.0073 C131.3604,54.9243 132.7164,44.1073 135.2664,33.2773 C136.0764,28.3123 138.7914,7.1793 139.5344,3.6853 L3.1914,3.6853 Z M71.3694,0.9303 C94.0804,0.9303 116.7914,0.9303 139.5024,0.9313 C139.9814,0.9313 140.4644,0.9063 140.9404,0.9573 C142.4154,1.1163 142.7164,1.4733 142.4894,2.9293 C140.1034,18.1673 135.6924,52.5433 129.1454,66.5213 C124.7144,75.9813 119.1944,84.7423 112.0974,92.4553 C103.2234,102.1003 92.7034,109.0333 79.7374,111.8483 C77.3284,112.3703 74.8734,112.8813 72.4224,112.9763 C66.3464,113.2113 60.5474,111.6693 54.9104,109.5733 C43.9024,105.4793 35.1064,98.3543 27.6404,89.4463 C20.1254,80.4763 14.5314,70.3703 10.1694,59.5723 C5.3964,47.7603 2.0264,15.8463 0.1024,3.2363 C-0.1866,1.3363 0.0394,0.9963 2.0384,0.9593 C6.1154,0.8843 10.1934,0.8703 14.2724,0.8693 C33.3044,0.8603 52.3374,0.8653 71.3694,0.8653 L71.3694,0.9303 Z" id="Fill-1"/></g><path d="M3.1914,3.8213 L139.5344,3.8213 C138.7914,7.3153 136.1824,29.5133 135.4054,32.8173 C132.8564,43.6473 131.3604,55.0603 126.6084,65.1433 C120.6844,77.7133 113.1634,89.1123 102.2004,97.9303 C93.7124,104.7583 84.1284,109.0063 73.2024,110.0443 C69.0664,110.4373 65.0684,109.6293 61.1204,108.6263 C50.6804,105.9743 41.9684,100.3423 34.4424,92.7823 C25.2764,83.5773 18.8544,72.5843 13.7924,60.7343 C8.9404,49.3783 5.8094,17.8113 3.3844,5.7333 C3.2764,5.1923 3.2704,4.6313 3.1914,3.8213" id="Fill-4" fill="#eeefc3"/></g></g></g><g id="Pot Plant" transform="scale(1.0224719101123596 1)"><g id="Pot Plant/Long Plant 3" stroke="none" stroke-width="1" fill="none" fill-rule="evenodd"><g id="Group-8" transform="translate(27.000000, 0.000000)"><path d="M30.3557192,129 L86,99.6105788 C86,99.6105788 70.6836053,57.0986612 61.5277545,43.5912565 C52.1838474,29.8080514 49.1689042,21.5052444 37.4014118,11.8135849 C25.6331641,2.12192545 19.6523687,2.15905244 13.4540624,3.87144008 C7.25575615,5.58382773 -0.691700552,18.0297036 1.31725458,28.0683868 C3.32620971,38.1070699 8.83119991,66.5023971 8.83119991,66.5023971 L30.3557192,129 Z" id="Fill-1" fill="#eeefc3"/><path d="M95,122.588879 C95,122.588879 124.073519,142.242626 133.912129,138.53423 C138.367648,126.297275 152.428187,101.145623 155.956132,86.2488531 C159.55566,71.04819 165.11206,59.5326045 164.99828,51.2440006 C164.795585,36.5759023 164.173184,34.3689176 158.99354,30.6537516 C153.813897,26.9385856 134.457672,39.957087 128.350455,47.0519333 C108.322851,70.3170417 95,122.588879 95,122.588879" id="Fill-3" fill="#eeefc3"/><g id="Group-7" fill="#4a1d02"><path d="M46.3035081,136.13069 C55.0540059,147.591681 66.3004357,156.612478 76.3514176,166.802457 C66.9162955,156.010539 56.8592683,145.826595 46.3035081,136.13069 M143.455191,113.371638 C142.873336,113.319591 142.38216,113.240388 141.890228,113.236616 C137.300372,113.198147 132.710517,113.187586 128.121418,113.137047 C125.282418,113.106121 122.443418,112.999009 119.603662,112.974871 C119.026341,112.970345 118.27673,112.731983 117.870187,113.612263 C125.84916,114.946638 133.737454,116.265172 141.653707,117.588987 C142.189467,116.434892 142.649662,115.461832 143.09021,114.480474 C143.212626,114.208922 143.279124,113.912478 143.455191,113.371638 M118.244237,64.381444 C122.096571,71.007306 125.873341,77.5019181 129.81182,84.2748707 C130.550852,82.8643103 131.152354,81.7154957 131.661667,80.7409267 C127.859205,74.0117241 124.141377,67.4333836 120.328336,60.6860776 C119.587793,61.9993319 118.943219,63.1421121 118.244237,64.381444 M124.777639,147.818728 C117.437952,148.769914 111.382879,151.931228 105.491029,155.496099 C100.906463,158.270453 91.4917434,166.628966 90.0695986,169.202672 C90.3605262,169.098578 90.5864674,169.04125 90.7912502,168.941681 C98.6614086,165.125625 106.562549,161.372177 114.379056,157.450517 C117.233924,156.018836 119.845472,154.124763 122.138888,151.861832 C123.203608,150.811078 124.217698,149.70903 124.777639,147.818728 M11.4420692,4.4831681 C9.31943122,5.65310345 7.91693348,7.08327586 6.57942217,9.26775862 C4.19910543,13.1547198 3.1064267,17.4459914 2.56462127,21.9107543 C2.43691538,22.9637716 2.36663937,24.0228233 2.27067104,25.0750862 C8.63707376,24.6390948 14.8024719,24.2159267 21.1688747,23.7799353 C18.1915896,17.3019181 15.463671,10.634569 11.4420692,4.4831681 M51.9784855,29.4274569 C49.725119,25.988556 47.5427842,22.6348922 44.9176348,19.6764871 C44.6743136,19.7647414 44.6017706,19.7692672 44.5639878,19.8084914 C39.1489561,25.2840302 34.6845398,31.4935129 30.4989606,37.9217457 C30.0546348,38.6059052 30.0387661,39.1980388 30.3561416,39.9440517 C31.3936575,42.3819828 32.3563633,44.8515948 33.3606303,47.3046121 C33.5049606,47.6583836 33.7142774,47.9865086 33.9099923,48.3561207 C39.9559968,42.022931 45.9030104,35.7923276 51.9784855,29.4274569 M140.788481,119.438556 C132.729409,118.169052 124.773105,116.916897 116.627888,115.634569 C114.215834,119.848901 111.691943,124.257091 109.109866,128.766358 C110.668029,129.471638 111.976069,130.078103 113.294689,130.658168 C118.482268,132.941466 123.647933,135.274547 129.277571,136.334353 C132.727897,136.98306 133.141241,136.829181 134.555074,133.676164 C136.475952,129.390927 138.377938,125.098147 140.28068,120.804612 C140.47035,120.376164 140.608635,119.924332 140.788481,119.438556 M13.2276846,3.60590517 C13.5012321,4.09846983 13.7317072,4.51032328 13.9599154,4.92443966 C15.4727389,7.66786638 17.1487842,10.3366164 18.4666484,13.1713147 C21.7960692,20.3312284 24.9622683,27.565819 28.1987434,34.7687284 C28.4571778,35.3427586 28.7488611,35.9024569 29.0715262,36.5647414 C31.495671,33.2457759 33.6772502,30.059569 36.0696575,27.0400647 C38.4575308,24.0273491 41.0569878,21.1813362 43.5748339,18.2500862 C43.4743317,18.0713147 43.4108566,17.9000862 43.2997751,17.7688362 C39.8025986,13.6503017 35.8883,9.99642241 31.30449,7.09685345 C27.8466077,4.90935345 24.1348249,3.35698276 20.045214,2.84028017 C17.757843,2.550625 15.4961643,2.6524569 13.2276846,3.60590517 M46.5196258,78.7110776 C48.7548566,83.9263793 50.9296348,89.000625 53.159576,94.2031034 C60.606567,87.1978233 67.9243407,80.3147414 75.2791416,73.3962069 C72.9464312,67.3986853 70.3001235,61.6259483 67.1135217,55.8796121 C60.2634991,63.7055819 53.0054222,70.8489009 46.5196258,78.7110776 M83.4417389,99.9894181 C83.3329244,96.5829526 77.7032864,78.359569 75.8179244,75.3181897 C68.2991462,81.9606466 61.3274629,89.131875 53.8819833,95.9712069 C55.9562593,101.000194 58.0055986,105.969591 60.0821416,111.004612 C68.0036846,107.269267 75.6917299,103.644806 83.4417389,99.9894181 M54.7577887,104.109461 C43.0572095,102.486185 31.5024719,100.532522 19.9840059,97.8230388 C20.7887796,102.591034 28.6778294,124.809246 30.2095443,126.805151 C39.4232593,121.858384 48.630929,116.913879 57.9186982,111.927888 C56.8494448,109.283276 55.8376213,106.780474 54.7577887,104.109461 M157.545155,32.0954526 C157.207377,31.9196983 157.009395,31.7763793 156.787988,31.7077371 C153.546979,30.7007328 150.466169,31.2212069 147.498707,32.7117241 C143.588187,34.6759483 140.122748,37.2843534 136.815241,40.1152802 C135.416522,41.3123707 135.415766,41.3289655 136.14044,42.9824138 C138.07492,47.3958836 140.023001,51.8040733 141.956725,56.2175431 C142.261255,56.9130172 142.871069,57.8151724 141.856223,58.2489009 C140.855734,58.6758405 140.594277,57.5873707 140.289748,56.9228233 C138.333354,52.6519181 136.410965,48.3651724 134.47044,44.0874784 C134.309486,43.731444 134.097146,43.3995474 133.840979,42.9341379 C128.847603,47.700625 124.942372,53.0750862 121.55401,58.6999784 C125.161513,65.4797198 128.735766,72.0542888 132.63344,78.631875 C140.985707,63.0289655 149.228404,47.6327371 157.545155,32.0954526 M45.6294629,76.619375 C52.6275941,69.1011638 59.4745941,61.7466379 66.3820466,54.3264871 C62.0498701,46.4831681 57.8151733,38.6692672 52.9094538,30.8410345 C46.6495986,37.5483621 40.6141733,44.0150647 34.598395,50.4606466 C38.1182412,59.4090302 41.7121416,68.0526724 45.6294629,76.619375 M37.1880285,63.3223922 C36.9439516,62.5839224 36.8041552,62.0725 36.6084403,61.5837069 C35.8029109,59.5712069 34.9792457,57.5670043 34.1654041,55.5582759 C30.3901462,46.2395259 26.5990195,36.9275647 22.8638113,27.5937284 C22.3696122,26.3589224 21.6970783,25.7977155 20.3300964,25.8640948 C16.3538339,26.056444 12.3700149,26.0941595 8.39601946,26.3219612 C6.37161674,26.438125 4.36308281,26.8326293 2.39686561,27.094375 C1.64876606,32.5985776 5.19052624,52.087694 8.12171629,58.7844612 C17.6460059,60.6393103 27.2662638,62.1931897 37.1880285,63.3223922 M106.878413,127.86722 C107.332562,127.12347 107.671852,126.567543 108.010386,126.010862 C115.499694,113.689203 121.930327,100.813125 128.135775,87.8171121 C128.579345,86.888556 128.529472,86.1862931 128.03225,85.3203448 C124.644644,79.4156034 121.301621,73.4867241 117.93744,67.5684052 C117.772707,67.27875 117.543743,67.0253017 117.181029,66.5312284 C107.928775,84.5532112 101.007721,103.220129 94.9934538,122.420345 C99.0573724,124.282737 102.919531,126.053103 106.878413,127.86722 M19.0817525,95.5910345 C30.6259109,98.0561207 41.9690647,100.600409 53.7701462,101.965711 C53.493576,101.22347 53.3122186,100.67056 53.0840104,100.138017 C48.364938,89.1235776 43.6095941,78.1249784 38.9555081,67.0841379 C38.347205,65.6418966 37.5031371,64.9977155 36.0364086,64.9675431 C35.9155036,64.9652802 35.7945986,64.9517026 35.6759606,64.9343534 C28.3317389,63.8888793 20.9860059,62.8524569 13.6448068,61.7873707 C12.0594403,61.557306 10.4884312,61.2254095 8.60155792,60.8844612 C11.8508792,72.7203448 15.6117796,84.0659267 19.0817525,95.5910345 M119.467644,110.859784 C127.800264,111.127565 135.993843,111.390065 144.227472,111.654828 C144.440567,111.249763 144.658952,110.894483 144.819906,110.515065 C146.63197,106.245668 148.583074,102.029073 150.210001,97.6902802 C153.25454,89.5716379 156.194798,81.4122629 159.017929,73.2151724 C161.729979,65.3371552 163.923648,57.3263793 164.210798,48.915819 C164.338504,45.1676509 164.36344,41.4390948 162.972277,37.8704526 C162.246848,36.009569 161.179861,34.3976078 159.395001,33.1967457 C145.658685,58.8983621 131.983576,84.4279957 119.467644,110.859784 M60.8544222,113.392004 C68.4124946,132.547716 75.9305172,151.601595 83.40849,170.555905 C83.628386,170.617759 83.6790149,170.646422 83.72511,170.641142 C83.7825398,170.634353 83.865662,170.613233 83.8860647,170.5725 C90.7753814,156.836509 98.0599063,143.31097 105.778178,129.859353 C105.183476,129.556875 104.719504,129.304935 104.242685,129.080151 C101.458092,127.770668 98.6697208,126.46722 95.8836167,125.161509 C95.7196394,125.084569 95.5601959,124.997069 95.3954629,124.922392 C94.7614674,124.635754 93.7254629,124.485647 93.5750873,124.039095 C93.268291,123.127134 93.2509109,122.016789 93.4504041,121.057306 C93.8773498,118.99653 94.4025308,116.94028 95.0901778,114.951918 C97.7274176,107.319806 100.213526,99.6228233 103.186277,92.1196983 C107.938599,80.1246552 113.120133,68.3023491 119.793332,57.2094612 C124.878897,48.7566595 131.087368,41.2459914 139.112436,35.3910345 C141.588721,33.5844612 144.204802,31.9053664 146.93801,30.5234698 C151.217291,28.3585991 155.651481,28.0840302 159.911114,30.6992241 C163.745314,33.0526724 165.546798,36.7276724 166.161902,41.0242241 C167.034685,47.1235776 166.42487,53.1754095 165.304988,59.1880172 C164.154124,65.3665733 162.182617,71.3218534 160.174083,77.2567672 C157.180929,86.1025647 154.078961,94.9136638 150.3634,103.489418 C147.057404,111.120022 143.650906,118.706121 140.282947,126.309569 C138.965083,129.284569 137.635128,132.253534 136.299128,135.220237 C136.076965,135.71431 135.805685,136.186509 135.544983,136.663233 C134.567164,138.453211 133.008246,139.331983 131.034472,138.97444 C128.312599,138.481121 125.537074,138.005151 122.961798,137.048685 C118.384789,135.349224 113.940019,133.294483 109.440087,131.388341 C108.99954,131.202026 108.559748,131.014957 107.921219,130.744159 C101.107467,142.821422 94.2786032,154.836832 88.205395,167.261078 L88.4857434,167.525841 C88.9406484,167.114741 89.40311,166.710431 89.8504584,166.291034 C92.6259833,163.691681 95.2828701,160.949763 98.1966801,158.514095 C104.37039,153.355366 111.303535,149.478211 119.008205,147.067435 C120.438662,146.619375 121.954508,146.42778 123.443151,146.19319 C123.960775,146.11097 124.538852,146.171315 125.046653,146.316142 C126.180893,146.642759 126.783151,147.584892 126.341848,148.681659 C125.855961,149.88931 125.206852,151.089418 124.385454,152.094159 C121.980956,155.034461 118.871431,157.172931 115.572237,158.947069 C110.578861,161.633168 105.494807,164.155582 100.394884,166.637263 C95.7294629,168.906228 90.9862095,171.016034 86.2943407,173.231444 C85.726843,173.499978 85.2114855,173.938987 84.7656484,174.390819 C84.1800149,174.984461 83.604205,175.219052 82.8470376,174.752888 C82.2319335,174.37347 81.5397525,174.089095 80.9979471,173.626703 C77.7388023,170.846315 74.4199606,168.126272 71.2968339,165.198039 C65.8364629,160.077026 60.3224403,154.991466 55.1703769,149.568728 C50.5223362,144.677026 46.3223995,139.361401 41.9494176,134.211724 C41.447662,133.621099 41.0562321,132.921853 40.7010738,132.228642 C40.3240014,131.490172 40.2151869,130.695884 40.9738656,130.09847 C41.6819154,129.54028 42.3778747,129.861616 42.9559516,130.337586 C44.306309,131.44944 45.6324855,132.59222 46.9397706,133.755366 C55.2021145,141.103103 62.7911688,149.131228 70.4754357,157.060539 C73.0363543,159.702888 75.4499199,162.488556 77.9367842,165.203319 C78.2057977,165.495991 78.5148611,165.752457 79.0037706,165.898039 C72.2746529,148.778966 65.5447796,131.659892 58.7741009,114.434461 C58.2534538,114.653966 57.8068611,114.80181 57.3995624,115.02056 C48.5198475,119.790819 39.6439109,124.569375 30.7679742,129.345668 C30.449843,129.516897 30.1339787,129.697177 29.803757,129.843513 C29.0541462,130.173901 28.5365217,129.975517 28.2463498,129.176703 C25.5531914,121.758815 22.5781733,114.43069 20.2084357,106.911724 C14.5379923,88.9221767 8.77838145,70.95375 3.92102398,52.7190517 C1.86866199,45.0152802 0.279517195,37.2270259 0.0271280543,29.2230388 C-0.163297285,23.188556 0.630141629,17.3132328 2.98854434,11.7087069 C3.97845385,9.35752155 5.30387466,7.20849138 7.02601493,5.31064655 C10.4196665,1.57153017 14.7321959,0.277887931 19.6318701,0.682952586 C24.6932548,1.10084052 29.2067887,3.0680819 33.4067253,5.81301724 C37.4237932,8.43801724 40.900567,11.6792888 44.1763362,15.1702371 C47.2798158,18.4778879 49.9208339,22.1272414 52.5044222,25.8301509 C57.2333181,32.6091379 61.1876665,39.8527802 65.1949109,47.0579526 C68.0943633,52.2717457 70.9023814,57.5489009 73.4602774,62.9361853 C77.234024,70.8858621 80.4720104,79.0618319 82.7616484,87.5817672 C83.7764946,91.3608621 84.7943633,95.1392026 85.8129878,98.9175431 C86.1537887,100.182522 85.8689063,101.095237 84.5835353,101.727349 C81.1755262,103.402672 77.8362819,105.216034 74.4229833,106.881552 C70.3552864,108.867651 66.2392276,110.75569 62.1458385,112.69125 C61.8224176,112.844375 61.51411,113.032198 60.8544222,113.392004" id="Fill-5"/></g></g></g></g></g></g></svg>