<svg viewBox="48.265075376884454 93.5 276.4698492462312 238.425" xmlns="http://www.w3.org/2000/svg" overflow="visible" xmlns:xlink="http://www.w3.org/1999/xlink" width="276.4698492462312px" height="238.425px"><g id="Master/Stickers/Plant 1" stroke="none" stroke-width="1" fill="none" fill-rule="evenodd"><g id="Group-39" transform="translate(50.000000, 44.000000)"><g id="Short Pot" transform="translate(48.000000, 175.000000) scale(1 1)"><g id="Short Pot/Small Pot" stroke="none" stroke-width="1" fill="none" fill-rule="evenodd"><g id="Short-Pot" transform="translate(44.000000, -0.000000)"><g id="Group-3" transform="translate(0.000000, 0.491000)" fill="#4a1d02"><path d="M2.752,3.0537 C2.752,4.0427 2.732,4.7387 2.755,5.4317 C2.86,8.7057 3.024,11.9777 3.08,15.2517 C3.241,24.5987 3.378,33.9457 3.491,43.2937 C3.613,53.4407 3.746,63.5877 5.076,73.6697 C5.85,79.5337 6.825,85.3657 8.989,90.9107 C10.683,95.2487 13.208,99.0087 17.309,101.4277 C19.573,102.7637 21.937,103.9607 24.342,105.0247 C27.01,106.2027 29.838,106.2667 32.507,105.0797 C35.126,103.9147 37.664,102.5427 40.153,101.1157 C42.405,99.8237 44.085,97.8977 45.526,95.7357 C48.525,91.2367 49.739,86.1177 50.768,80.9367 C52.577,71.8137 53.16,62.5687 53.349,53.2957 C53.68,36.9997 53.947,20.7017 54.2311524,4.4047 C54.236,4.0317 54.117,3.6557 54.021,3.0637 C36.943,3.8797 19.973,3.8737 2.752,3.0537 M0.497,34.6787 C0.332,26.2937 0.154,17.9077 0.009,9.5217 C-0.032,7.1277 0.089,4.7287 0.004,2.3377 C-0.041,1.0877 0.425,0.5437 1.619,0.5327 C2.498,0.5257 3.378,0.5237 4.258,0.5337 C14.41,0.6527 24.562,0.8447 34.714,0.8687 C40.949,0.8847 47.185,0.6447 53.42,0.5227 C53.98,0.5117 54.541,0.4967 55.1,0.5287 C56.781,0.6237 56.96,0.8007 56.9503754,2.5537 C56.926,7.1867 56.891,11.8197 56.835,16.4527 C56.682,29.1537 56.632,41.8567 56.32,54.5537 C56.057,65.2577 55.322,75.9337 52.643,86.3757 C51.441,91.0577 49.813,95.5417 46.691,99.3237 C42.674,104.1927 37.31,106.9247 31.364,108.5877 C28.596,109.3627 25.778,108.9977 23.135,107.8937 C17.316,105.4617 11.897,102.5077 8.511,96.8087 C6.483,93.3967 5.219,89.7217 4.268,85.9137 C1.755,75.8577 1.025,65.5907 0.74,55.2817 C0.551,48.4157 0.481,41.5487 0.356,34.6817 C0.403,34.6807 0.45,34.6797 0.497,34.6787" id="Fill-1"/></g><path d="M2.752,3.5447 C19.973,4.3647 36.943,4.3707 54.021,3.5547 C54.117,4.1467 54.236,4.5227 54.2311524,4.8957 C53.947,21.1927 53.68,37.4907 53.349,53.7867 C53.16,63.0597 52.577,72.3047 50.768,81.4277 C49.739,86.6087 48.525,91.7277 45.526,96.2267 C44.085,98.3887 42.405,100.3147 40.153,101.6067 C37.664,103.0337 35.126,104.4057 32.507,105.5707 C29.838,106.7577 27.01,106.6937 24.342,105.5157 C21.937,104.4517 19.573,103.2547 17.309,101.9187 C13.208,99.4997 10.683,95.7397 8.989,91.4017 C6.825,85.8567 5.85,80.0247 5.076,74.1607 C3.746,64.0787 3.613,53.9317 3.491,43.7847 C3.378,34.4367 3.241,25.0897 3.08,15.7427 C3.024,12.4687 2.86,9.1967 2.755,5.9227 C2.732,5.2297 2.752,4.5337 2.752,3.5447" id="Fill-4" fill="#eeefc3"/></g></g></g><g id="Pot Plant" transform="scale(1 1)"><g id="Pot Plant/Texture 2" stroke="none" stroke-width="1" fill="none" fill-rule="evenodd"><g id="Group-80" transform="translate(0.000000, 50.000000)"><g id="Group-3" transform="translate(0.000000, 0.496000)" fill="#4a1d02"><path d="M110.9087,120.921 C111.0667,120.591 111.2407,120.359 111.2647,120.11 C111.2747,120.011 110.8357,119.755 110.8077,119.781 C110.6007,119.984 110.4447,120.24 110.2717,120.48 C110.4337,120.592 110.5957,120.704 110.9087,120.921 L110.9087,120.921 Z M112.9237,116.126 C112.8607,116.301 112.7987,116.477 112.7367,116.651 C113.6427,116.611 114.1237,117.985 115.2297,117.14 C115.4317,116.985 115.3677,116.484 115.4297,116.126 L112.9237,116.126 Z M116.1657,114.686 C116.5517,113.93 116.8017,113.541 116.9587,113.117 C118.8737,107.952 120.8787,102.817 122.6587,97.607 C127.7917,82.587 131.3597,67.223 132.6627,51.365 C133.3317,43.22 133.5437,35.091 132.2747,26.982 C131.3907,21.334 129.9027,15.892 126.7607,11.026 C126.5087,10.637 126.1157,10.338 125.7887,9.997 C125.8217,11.181 126.2287,12.154 126.3347,13.159 C126.5417,15.119 126.8427,17.126 126.6277,19.06 C126.2907,22.084 125.0007,22.737 121.8167,21.844 C121.6247,21.174 121.2777,20.428 121.2147,19.658 C120.9877,16.874 120.9527,14.072 120.6547,11.299 C120.4517,9.412 120.1727,7.633 122.3677,6.54 C120.2747,5.04 118.2207,4.127 115.8057,3.893 C115.7777,4.222 115.7037,4.455 115.7467,4.665 C116.4517,8.097 115.7877,11.343 114.3557,14.457 C113.9977,15.234 113.4797,16.007 112.8487,16.573 C111.9387,17.39 110.5647,16.887 110.2437,15.683 C110.1077,15.171 110.1327,14.591 110.1957,14.055 C110.5917,10.677 111.0187,7.302 111.4537,3.783 C108.5997,3.804 106.0077,4.794 103.5027,6.002 C98.0347,8.64 93.8287,12.741 90.3997,17.663 C83.9087,26.977 81.2947,37.47 81.4337,48.675 C81.5827,60.718 84.9507,71.981 90.2757,82.708 C94.7287,91.682 100.1567,100.045 106.1657,108.042 C107.8317,110.261 109.5467,112.442 111.2397,114.642 C111.4327,113.943 111.2527,113.456 111.0897,112.962 C110.3407,110.693 109.4777,108.453 108.8907,106.143 C108.4477,104.402 109.0547,103.455 110.4327,103.163 C111.5997,102.917 112.5537,103.509 113.0207,104.455 C113.9697,106.372 114.8277,108.351 115.5057,110.377 C115.9167,111.608 115.9207,112.976 116.1657,114.686 L116.1657,114.686 Z M101.7987,115.311 C101.3517,115.012 101.1717,114.837 100.9567,114.754 C94.5597,112.284 88.2137,109.669 81.7467,107.4 C73.7297,104.586 65.3907,103.522 56.9587,104.589 C37.4247,107.064 21.9277,116.385 10.8687,132.751 C6.6247,139.033 3.6487,145.849 2.9867,153.575 C2.1937,162.825 7.1177,170.323 16.1317,172.647 C25.4367,175.045 34.4947,174.049 43.2107,169.977 C48.6967,167.414 53.3977,163.702 57.9627,159.823 C67.9417,151.343 77.8427,142.771 87.8057,134.273 C92.4927,130.275 97.4197,126.604 102.9647,123.843 C103.7837,123.435 104.5987,123.021 105.4167,122.608 C105.3537,122.429 105.2917,122.249 105.2297,122.069 C103.4487,122.389 101.6667,122.701 99.8877,123.03 C98.5907,123.271 97.2697,122.829 96.7067,121.944 C96.1247,121.029 96.2867,119.712 97.2177,118.638 C97.7357,118.038 98.3317,117.483 98.9757,117.024 C99.8127,116.429 100.7317,115.949 101.7987,115.311 L101.7987,115.311 Z M126.4457,123.412 C126.4687,123.587 126.4907,123.763 126.5127,123.938 C132.6587,123.938 138.8227,124.232 144.9487,123.873 C155.8037,123.236 166.6457,122.494 177.5277,122.775 C183.8537,122.94 190.1347,123.673 196.2917,125.05 C208.2037,127.714 219.3937,132.374 230.2997,137.795 C235.9367,140.598 241.6587,143.249 247.4417,145.738 C250.7667,147.17 254.3497,147.699 258.0097,147.192 C262.7607,146.534 266.1257,144.162 267.8187,139.532 C269.6547,134.511 270.7107,129.326 270.2887,124.023 C269.3817,112.62 265.4597,102.414 257.4167,94.032 C247.9007,84.113 236.2477,77.97 222.9887,74.758 C212.0437,72.107 200.9957,72.001 189.9067,73.769 C177.1217,75.807 165.6047,80.8 155.1717,88.45 C144.2037,96.494 135.0667,106.399 126.1747,116.567 C125.7657,117.035 125.5267,117.65 124.9627,118.616 C126.5597,117.817 127.5847,117.142 128.7097,116.806 C129.3747,116.607 130.6187,116.7 130.8547,117.101 C131.2097,117.705 131.0117,118.715 130.8457,119.51 C130.7627,119.907 130.2577,120.244 129.8957,120.552 C128.7587,121.52 127.5977,122.461 126.4457,123.412 L126.4457,123.412 Z M119.3757,120.197 C121.9147,117.071 124.3457,113.916 126.9457,110.907 C135.4877,101.022 144.7137,91.865 155.5137,84.401 C167.8257,75.892 181.4637,71.171 196.3497,69.886 C210.0467,68.704 223.3287,70.408 236.0167,75.755 C247.6327,80.65 257.7557,87.656 264.8927,98.272 C271.5297,108.142 274.5187,119.109 273.2037,130.997 C272.8147,134.52 271.7157,138.021 270.5207,141.382 C268.8737,146.018 265.3347,148.697 260.5467,149.812 C256.5447,150.743 252.6217,150.458 248.7127,149.349 C243.9247,147.989 239.3887,145.993 235.0107,143.677 C224.6867,138.215 214.0927,133.42 202.9237,129.929 C194.5467,127.311 185.9977,126.006 177.2237,125.858 C167.5437,125.696 157.9037,126.281 148.2437,126.775 C140.6767,127.161 133.0697,126.792 125.4807,126.738 C124.1227,126.729 122.7667,126.612 121.4097,126.56 C119.4307,126.483 119.4457,126.484 118.9547,124.546 C118.8627,124.179 118.5957,123.856 118.4907,123.661 C117.5067,124.032 116.6327,124.363 115.7567,124.692 C114.7257,125.078 114.0067,124.787 113.2457,123.944 C112.9517,123.618 111.8987,123.811 111.2557,123.992 C107.2277,125.131 103.4317,126.883 100.0267,129.259 C95.5797,132.362 91.2267,135.632 87.0747,139.117 C78.2667,146.511 69.6417,154.122 60.8877,161.58 C55.9607,165.779 50.8807,169.783 44.9897,172.612 C35.8717,176.989 26.3387,178.086 16.5017,175.927 C5.3077,173.469 -1.0203,164.336 0.1347,152.917 C0.9637,144.73 4.1837,137.499 8.7737,130.849 C20.2667,114.197 36.3057,104.753 56.1687,101.827 C66.0647,100.369 75.7967,101.826 85.1847,105.181 C91.2677,107.355 97.2327,109.863 103.2497,112.223 C103.8837,112.471 104.5157,112.723 105.3827,112.66 C103.6137,110.231 101.8217,107.817 100.0807,105.368 C94.2837,97.211 89.0707,88.709 85.1207,79.488 C81.4807,70.994 79.0517,62.215 78.3947,52.925 C77.6747,42.747 79.1657,33.006 83.3697,23.733 C86.9387,15.86 92.1077,9.267 99.5637,4.654 C103.2947,2.346 107.3367,0.866 111.7107,0.559 C119.4397,0.016 127.2977,3.408 131.6737,13.329 C134.3857,19.481 135.6647,25.968 136.0387,32.616 C136.9377,48.621 134.8707,64.338 131.0807,79.86 C128.0267,92.371 123.7667,104.49 119.0807,116.468 C118.8477,117.063 118.5817,117.646 118.3877,118.252 C118.0647,119.256 118.3417,119.97 119.3757,120.197 L119.3757,120.197 Z" id="Fill-1"/></g><path d="M253.1089,142.209 C253.3239,140.053 251.7769,138.865 249.9929,137.805 C248.0209,136.633 246.7669,136.569 245.9879,137.68 C245.1709,138.846 245.5339,139.939 247.2149,141.552 C247.8919,142.2 248.5999,142.847 249.1359,143.605 C250.0469,144.897 251.0509,145.541 252.0159,145.103 C253.1649,144.581 253.1389,143.491 253.1089,142.209 M198.5939,106.775 C199.5959,107.014 200.4199,107.291 201.2659,107.396 C204.5759,107.809 207.8939,108.157 211.2069,108.549 C213.1299,108.776 214.0839,108.406 214.3499,107.278 C214.6769,105.892 214.0609,105.434 211.9959,104.636 C208.2279,103.181 204.2979,103.669 200.4319,103.443 C199.7659,103.404 199.0609,104.033 198.4049,104.339 C198.4729,105.216 198.5219,105.842 198.5939,106.775 M233.4269,87.48 C232.8539,87.857 232.0989,88.107 231.7779,88.626 C231.3409,89.33 231.4829,90.199 232.2549,90.75 C232.8999,91.211 233.5669,91.651 234.2649,92.023 C236.0249,92.961 237.8079,93.855 239.5819,94.767 C241.0719,95.532 242.5269,96.38 244.0689,97.021 C244.6079,97.245 245.5339,97.192 245.9729,96.858 C246.6879,96.313 246.9499,95.403 246.2879,94.528 C245.9539,94.087 245.6629,93.569 245.2299,93.253 C243.4959,91.986 241.8269,90.554 239.9189,89.624 C237.9409,88.66 235.7139,88.208 233.4269,87.48 M160.0819,111.128 C161.8099,110.847 163.5679,110.681 165.2609,110.258 C167.8829,109.603 170.4629,108.776 173.0559,108.012 C174.0219,107.728 174.5699,107.08 174.4079,106.057 C174.2319,104.947 173.4629,104.452 172.3729,104.434 C172.0539,104.428 171.7309,104.431 171.4179,104.481 C169.1369,104.854 166.8259,105.109 164.5879,105.661 C162.7439,106.116 160.9639,106.87 159.2029,107.605 C158.3489,107.961 157.7819,108.724 158.0609,109.73 C158.3269,110.692 159.0669,111.114 160.0819,111.128 M141.9789,120.879 C144.5149,120.677 147.3509,119.945 150.0679,118.758 C150.8679,118.409 151.7059,118.096 152.4119,117.602 C153.3299,116.96 153.7869,115.927 153.3549,114.88 C152.9289,113.848 151.8689,113.83 150.8879,114.026 C149.9549,114.214 149.0379,114.479 148.1069,114.67 C145.6929,115.165 143.2559,115.561 140.8649,116.146 C138.9669,116.609 137.9429,117.957 138.2189,119.268 C138.4519,120.378 139.5949,120.934 141.9789,120.879 M263.1619,139.809 C262.7619,135.759 260.6009,132.914 257.5539,130.667 C256.7339,130.063 255.0179,130.336 254.4239,130.929 C253.5759,131.775 253.4359,132.984 254.1409,134.216 C255.0489,135.805 256.0119,137.363 256.9679,138.925 C257.5069,139.806 258.0459,140.69 258.6479,141.529 C259.4379,142.631 260.6039,142.582 261.6709,142.177 C262.7269,141.776 263.1719,140.816 263.1619,139.809 M136.8109,107.794 C137.2849,108.397 137.5899,109.165 138.1109,109.36 C138.8539,109.638 139.7999,109.688 140.5789,109.5 C144.0949,108.653 146.7189,106.244 149.5289,104.176 C150.3859,103.545 151.1199,102.784 150.8169,101.581 C150.5389,100.475 149.1799,99.626 147.8299,99.643 C146.1779,99.664 144.6709,100.207 143.3899,101.189 C141.5589,102.592 139.7829,104.076 138.0769,105.627 C137.5399,106.115 137.2989,106.93 136.8109,107.794 M252.9349,107.47 C252.9509,110.242 254.7009,111.104 256.2379,112.038 C258.2229,113.245 259.7289,114.761 260.4519,117.021 C260.6909,117.768 261.0679,118.513 261.5469,119.131 C262.1829,119.953 263.0129,120.763 264.1719,120.311 C265.2419,119.894 265.7289,118.909 265.5559,117.779 C265.3029,116.131 265.1579,114.401 264.5219,112.895 C263.9249,111.48 262.9869,109.983 261.7769,109.107 C259.6709,107.583 257.2409,106.506 254.5679,106.011 C253.9529,106.56 253.3669,107.083 252.9349,107.47 M232.1449,112.568 C232.6029,113.635 232.8839,114.606 234.0529,115.209 C237.0659,116.761 239.4479,119.101 241.5619,121.728 C242.2089,122.532 242.8589,123.355 243.6279,124.034 C244.9189,125.176 246.7239,124.852 247.1439,123.388 C247.3209,122.768 247.1559,121.964 246.9239,121.325 C244.6469,115.077 239.7349,112.182 233.5689,110.797 C233.0549,111.437 232.6159,111.982 232.1449,112.568 M180.2729,89.045 C180.3079,87.33 179.5999,86.488 178.2639,86.398 C177.3219,86.336 176.3569,86.448 175.4149,86.578 C171.5009,87.117 167.9009,88.608 164.3849,90.322 C163.5299,90.739 162.6649,91.177 161.9079,91.743 C160.9479,92.461 160.8049,93.681 161.4419,94.729 C162.0229,95.683 162.8159,95.897 163.8929,95.519 C168.9139,93.749 173.9619,92.054 178.9699,90.248 C179.5829,90.026 180.0109,89.297 180.2729,89.045 M216.3589,122.526 C216.4209,124.215 217.3549,124.879 218.6369,125.427 C220.5299,126.235 222.3669,127.191 224.1719,128.187 C226.1909,129.3 228.0879,130.645 230.1489,131.666 C231.8429,132.506 233.6779,133.086 235.4909,133.652 C236.5729,133.99 237.3949,133.34 237.7499,132.366 C238.0869,131.442 237.6199,130.686 236.8079,130.142 C234.1639,128.369 231.5469,126.559 228.8849,124.813 C226.4009,123.183 223.7309,121.941 220.7769,121.456 C219.2139,121.199 217.5799,120.937 216.3589,122.526 M179.8439,115.27 C176.9909,115.529 174.1349,115.764 171.2849,116.058 C170.0059,116.19 168.8199,117.441 168.7949,118.545 C168.7619,119.92 169.5559,120.879 171.0459,121.17 C171.5869,121.275 172.1539,121.258 172.7109,121.27 C177.3999,121.372 182.1179,120.925 186.7579,122.023 C187.2079,122.13 187.7169,122.093 188.1799,122.013 C189.4689,121.792 190.1429,121.03 190.2639,119.776 C190.3769,118.613 189.6939,118.023 188.7329,117.645 C187.4749,117.149 186.1949,116.709 184.9509,116.182 C183.3119,115.487 181.6389,115.068 179.8439,115.27 M212.8759,87.19 C212.8739,87.257 212.8729,87.323 212.8719,87.39 C213.0309,87.39 213.1909,87.393 213.3499,87.389 C215.2049,87.343 215.8409,86.93 216.2469,85.508 C216.5929,84.294 216.1109,83.177 214.6299,82.467 C213.0659,81.718 211.4379,80.816 209.7649,80.628 C204.6299,80.048 199.6029,80.975 194.6949,82.477 C193.2679,82.913 192.8519,84.039 193.0949,85.508 C193.3419,86.993 194.4779,86.884 195.4679,86.904 C201.2699,87.027 207.0729,87.101 212.8759,87.19 M126.4459,123.908 C127.5979,122.957 128.7579,122.016 129.8959,121.048 C130.2579,120.74 130.7619,120.403 130.8449,120.006 C131.0109,119.211 131.2099,118.201 130.8549,117.597 C130.6189,117.196 129.3749,117.103 128.7099,117.302 C127.5849,117.638 126.5599,118.313 124.9629,119.112 C125.5259,118.146 125.7659,117.531 126.1749,117.063 C135.0669,106.895 144.2039,96.99 155.1719,88.946 C165.6049,81.296 177.1219,76.303 189.9069,74.265 C200.9959,72.497 212.0439,72.603 222.9889,75.254 C236.2479,78.466 247.9009,84.609 257.4169,94.528 C265.4599,102.91 269.3809,113.116 270.2889,124.519 C270.7109,129.822 269.6549,135.007 267.8179,140.028 C266.1259,144.658 262.7609,147.03 258.0099,147.688 C254.3499,148.195 250.7669,147.666 247.4419,146.234 C241.6589,143.745 235.9369,141.094 230.2989,138.291 C219.3939,132.87 208.2039,128.21 196.2919,125.546 C190.1349,124.169 183.8539,123.436 177.5269,123.272 C166.6459,122.99 155.8029,123.732 144.9479,124.369 C138.8229,124.728 132.6589,124.434 126.5129,124.434 C126.4899,124.259 126.4679,124.083 126.4459,123.908" id="Fill-4" fill="#eeefc3"/><path d="M12.3882,167.9258 C14.9892,167.7188 17.5132,166.7948 19.9542,165.6198 C20.8092,165.2078 21.3032,164.5478 20.9942,163.4918 C20.7212,162.5528 20.2212,161.9228 19.1812,161.9168 C18.5532,161.9138 17.9132,161.9108 17.2982,162.0218 C14.9562,162.4378 12.6102,162.8438 10.2912,163.3678 C8.9692,163.6668 8.0852,164.7088 8.1462,165.5718 C8.2292,166.7458 9.0252,167.4798 10.5862,167.7598 C11.1312,167.8578 11.6922,167.8648 12.3882,167.9258 M81.9832,119.6108 C83.3372,122.6488 83.5602,121.9488 85.6762,121.9108 C86.0722,121.9038 86.4722,121.8428 86.8602,121.7648 C89.0492,121.3208 91.2482,120.8658 93.0582,119.4478 C93.7902,118.8748 94.5422,118.2828 94.4542,117.1198 C94.3062,115.1568 92.8462,113.9458 90.7692,114.6588 C88.2382,115.5288 85.8262,116.7778 83.4292,117.9918 C82.7992,118.3118 82.4122,119.1128 81.9832,119.6108 M78.5582,135.5458 C79.2912,135.3118 79.8742,135.2478 80.3162,134.9638 C82.9842,133.2528 85.6462,131.5308 88.2532,129.7298 C89.4112,128.9288 89.8032,127.4988 89.3072,126.6588 C88.8352,125.8598 87.3142,125.3638 86.1072,125.7128 C82.4102,126.7808 79.2892,128.7518 77.0852,131.9408 C76.6652,132.5478 76.5382,133.6528 76.7912,134.3368 C76.9982,134.8968 77.9722,135.1738 78.5582,135.5458 M33.5582,171.1138 C36.0792,170.9198 38.2732,169.9888 40.3012,168.6668 C42.3552,167.3268 42.4472,164.8378 40.3662,163.5938 C39.4212,163.0288 38.1052,162.8268 36.9772,162.8808 C34.6382,162.9898 32.8162,164.4218 31.0612,165.8078 C29.0182,167.4198 29.4922,169.8918 31.9752,170.8028 C32.4922,170.9918 33.0682,171.0208 33.5582,171.1138 M73.9262,110.2998 C71.4232,110.4158 68.9512,110.9208 66.7122,112.2668 C65.9652,112.7168 65.2592,113.2438 64.5762,113.7888 C63.9032,114.3258 63.6642,114.9538 63.9672,115.8858 C64.2852,116.8668 64.7752,117.4268 65.8052,117.3598 C66.4962,117.3148 67.2392,117.2898 67.8552,117.0218 C70.0842,116.0468 72.4232,115.7098 74.8182,115.5458 C75.6822,115.4868 76.5542,115.3258 77.3882,115.0908 C78.6842,114.7258 79.5832,113.7138 79.4002,112.8148 C79.1752,111.7088 78.4762,110.9878 77.3122,110.8098 C76.2122,110.6418 75.1122,110.4788 73.9262,110.2998 M62.1272,132.0288 C62.9672,131.7798 63.9012,131.6888 64.6292,131.2528 C68.0432,129.2058 71.4032,127.0678 74.7772,124.9528 C74.9762,124.8278 75.2672,124.6488 75.2862,124.4698 C75.3632,123.7278 75.5982,122.8588 75.3112,122.2568 C74.9522,121.5048 74.1262,121.4158 73.2382,121.8188 C72.0122,122.3728 70.7182,122.7958 69.4272,123.1878 C66.1622,124.1798 63.3502,125.9578 60.6972,128.0458 C59.7852,128.7628 59.6982,129.6608 60.1032,130.6058 C60.4582,131.4318 61.0132,132.1398 62.1272,132.0288 M55.8712,112.8108 C55.3102,112.8968 54.8392,112.9598 54.3702,113.0408 C51.0172,113.6198 48.0792,115.2208 45.1772,116.8698 C43.9442,117.5708 43.6882,118.5238 44.1422,119.6848 C44.6352,120.9438 45.4322,121.3788 47.0122,120.9258 C50.4442,119.9418 53.8502,118.8628 57.2542,117.7788 C57.7632,117.6158 58.2612,117.2818 58.6532,116.9108 C59.8502,115.7798 59.4482,113.8208 57.8902,113.2438 C57.2282,112.9988 56.4982,112.9398 55.8712,112.8108 M22.8332,133.0168 C23.1582,132.9398 23.7172,132.8658 24.2302,132.6718 C26.0872,131.9668 27.9712,131.3148 29.7622,130.4648 C31.5512,129.6168 33.2922,128.6398 34.9482,127.5558 C35.7792,127.0118 36.5412,126.1678 36.0212,124.9478 C35.5422,123.8248 34.7242,123.3578 33.2912,123.6308 C28.7632,124.4928 24.6392,126.2668 21.0952,129.2738 C20.3682,129.8898 20.0112,130.5608 20.3942,131.5718 C20.8022,132.6488 21.5662,132.9968 22.8332,133.0168 M41.4482,150.2998 C42.3702,150.0228 43.1032,149.9238 43.7162,149.5988 C47.5052,147.5888 51.2952,145.5788 55.0232,143.4608 C56.6222,142.5518 56.5472,140.8008 55.2222,139.5788 C54.2542,138.6858 53.2962,138.9398 52.3422,139.2538 C47.6492,140.7978 43.7602,143.6558 40.0812,146.8578 C39.2582,147.5728 39.1812,148.4588 39.6732,149.1878 C40.0462,149.7408 40.8952,149.9738 41.4482,150.2998 M14.9882,153.6568 C15.7582,153.4698 16.1732,153.4398 16.5232,153.2718 C19.4732,151.8578 22.4762,150.5318 25.3262,148.9368 C26.6802,148.1788 27.7962,146.9488 28.9082,145.8228 C29.7412,144.9788 29.6522,143.9638 28.9712,142.9808 C28.2292,141.9078 27.2742,141.9188 26.2232,142.3648 C24.0952,143.2698 21.9632,144.1668 19.8522,145.1118 C17.4772,146.1738 15.6012,147.8988 13.7812,149.7138 C12.9802,150.5118 12.6792,151.3978 13.2532,152.2728 C13.6762,152.9168 14.5092,153.2918 14.9882,153.6568 M33.3422,136.6638 C33.3292,138.7318 33.5772,139.1878 35.0882,139.5508 C35.8062,139.7228 36.6892,139.6998 37.3742,139.4418 C41.6352,137.8278 45.6382,135.6918 49.3802,133.0978 C50.0632,132.6238 50.6592,131.8758 51.0212,131.1228 C51.5962,129.9278 50.8362,128.6548 49.5292,128.5158 C48.6702,128.4238 47.7422,128.3908 46.9252,128.6168 C45.0092,129.1498 43.0962,129.7468 41.2652,130.5138 C38.6042,131.6288 36.1392,133.1078 34.1972,135.2988 C33.7532,135.7998 33.4742,136.4468 33.3422,136.6638 M48.5012,160.9098 C49.7102,162.0898 50.9912,162.0498 52.3042,161.0428 C56.7852,157.6078 61.4442,154.3798 65.2962,150.1968 C65.9802,149.4548 66.5272,148.5538 66.9882,147.6498 C67.5102,146.6278 67.0942,144.7208 66.3762,144.2048 C65.6052,143.6508 63.8422,143.9168 62.8952,144.7168 C61.8622,145.5898 60.8552,146.5018 59.7702,147.3068 C56.0412,150.0718 52.7492,153.2818 49.6962,156.7728 C48.6062,158.0188 48.0502,159.2558 48.5012,160.9098 M101.7982,115.8068 C100.7322,116.4458 99.8122,116.9248 98.9762,117.5198 C98.3312,117.9788 97.7352,118.5338 97.2172,119.1338 C96.2872,120.2078 96.1242,121.5258 96.7072,122.4408 C97.2702,123.3248 98.5902,123.7668 99.8872,123.5268 C101.6662,123.1968 103.4492,122.8848 105.2302,122.5658 C105.2922,122.7448 105.3542,122.9248 105.4162,123.1048 C104.5992,123.5168 103.7832,123.9308 102.9642,124.3388 C97.4192,127.0998 92.4932,130.7708 87.8062,134.7688 C77.8422,143.2668 67.9422,151.8388 57.9632,160.3198 C53.3982,164.1978 48.6962,167.9098 43.2112,170.4728 C34.4952,174.5448 25.4362,175.5408 16.1322,173.1428 C7.1172,170.8198 2.1942,163.3218 2.9862,154.0718 C3.6482,146.3448 6.6242,139.5298 10.8692,133.2468 C21.9282,116.8808 37.4252,107.5598 56.9592,105.0848 C65.3912,104.0178 73.7292,105.0818 81.7462,107.8958 C88.2142,110.1648 94.5602,112.7798 100.9562,115.2498 C101.1722,115.3328 101.3522,115.5078 101.7982,115.8068" id="Fill-6" fill="#eeefc3"/><path d="M109.7451,28.6709 C109.6431,27.5409 109.6541,26.8939 109.5141,26.2809 C109.2601,25.1709 108.3281,24.4329 107.3371,24.422789 C106.2131,24.4119 105.9011,25.2199 105.6061,26.0779 C104.3531,29.7159 103.7631,33.4709 103.6951,37.3049 C103.6791,38.2459 103.7731,39.2359 104.0731,40.1169 C104.2281,40.5739 104.9101,41.0259 105.4191,41.1179 C105.6921,41.1679 106.2631,40.5079 106.4251,40.0669 C107.1591,38.0619 107.8561,36.0389 108.4481,33.9869 C108.9951,32.0889 109.3911,30.1459 109.7451,28.6709 M90.0021,50.7989 C87.4251,51.7499 87.3961,51.7479 87.2041,53.7129 C86.7881,57.9729 87.2891,62.1349 88.6671,66.1859 C88.8441,66.7079 89.1501,67.1859 89.3881,67.6879 C89.8601,68.6889 90.8391,68.8429 91.6161,68.5279 C92.2131,68.2859 92.6901,67.4879 92.9811,66.8319 C93.1831,66.3769 93.0241,65.7339 92.9431,65.1869 C92.3631,61.2529 91.8051,57.3159 91.1341,53.3979 C90.9851,52.5259 90.4191,51.7269 90.0021,50.7989 M117.3271,98.0079 C117.2401,94.7779 116.5411,91.1959 115.2111,87.7499 C114.5851,86.1269 113.6711,85.5479 112.3911,85.8179 C110.9111,86.1309 110.4201,86.7429 110.6071,88.6529 C110.8481,91.1009 111.1561,93.5569 111.6751,95.9579 C112.0751,97.8069 112.7951,99.5939 113.4741,101.3709 C113.8031,102.2339 114.4811,102.8509 115.5331,102.5819 C116.5361,102.3269 117.2481,101.7299 117.3181,100.6209 C117.3641,99.9069 117.3271,99.1889 117.3271,98.0079 M104.6531,93.3029 C103.9211,88.1869 102.2951,83.8169 99.5091,79.9109 C98.8191,78.9429 97.7831,78.7939 96.7221,79.2329 C95.6351,79.6829 95.1361,80.7459 95.5081,82.0419 C96.1221,84.1859 96.7601,86.3329 97.5651,88.4089 C98.3701,90.4869 99.3211,92.5179 100.3431,94.4989 C101.1401,96.0449 103.0121,96.4949 103.8721,95.3789 C104.3691,94.7339 104.4801,93.7929 104.6531,93.3029 M106.2331,55.3249 C105.7781,55.5739 105.1771,55.7179 104.9031,56.0979 C104.5061,56.6479 104.2131,57.3479 104.1051,58.0209 C103.2751,63.2299 105.3681,67.8899 107.0001,72.6129 C107.4491,73.9089 108.4061,74.1519 109.7371,73.7839 C111.1601,73.3909 111.8581,72.5809 111.6561,71.2329 C111.4221,69.6669 111.0151,68.1279 110.6621,66.5819 C109.9721,63.5549 109.3071,60.5209 108.5481,57.5109 C108.2751,56.4279 107.8891,55.2629 106.2331,55.3249 M125.9811,43.1169 C125.2461,39.1519 124.5251,35.2369 123.7851,31.3259 C123.7121,30.9419 123.5851,30.5379 123.3731,30.2149 C122.9171,29.5209 122.3431,29.0579 121.3871,29.1959 C120.4281,29.3369 119.9761,29.8799 119.8471,30.7499 C119.7421,31.4579 119.6441,32.1799 119.6681,32.8909 C119.8241,37.5059 120.0041,42.1189 120.1991,46.7329 C120.2411,47.7229 120.5031,48.6839 121.5341,49.0809 C122.4941,49.4519 124.4041,48.7329 124.7661,47.7349 C125.2971,46.2699 125.5761,44.7109 125.9811,43.1169 M126.6171,74.7269 C126.1381,72.2659 125.7731,69.9069 125.1981,67.6009 C124.7951,65.9839 123.6951,65.3669 122.3701,65.7649 C121.0621,66.1569 120.8811,67.2459 120.7971,68.4189 C120.5201,72.3139 120.1481,76.2019 119.9361,80.1009 C119.8551,81.5969 120.0221,83.1219 120.2331,84.6119 C120.4181,85.9209 121.3671,86.7579 122.3751,86.7789 C123.3841,86.7999 124.3491,86.0749 124.6401,84.7389 C125.3651,81.4029 125.9711,78.0419 126.6171,74.7269 M89.0931,31.5269 C89.0931,33.0699 89.1621,34.4339 89.0731,35.7859 C88.9911,37.0389 89.8071,37.5189 90.7171,37.8219 C91.7531,38.1669 92.6151,37.6889 93.1141,36.7539 C93.4471,36.1299 93.6641,35.4299 93.8451,34.7399 C94.8971,30.7259 95.9261,26.7039 96.9551,22.6839 C97.0741,22.2209 97.1921,21.7519 97.2451,21.2789 C97.4331,19.5919 97.0491,18.7969 95.8591,18.3219 C94.4211,17.7489 93.4581,18.1559 92.4261,19.5309 C89.6991,23.1599 88.7101,27.2459 89.0931,31.5269 M116.1661,115.1819 C115.9211,113.4719 115.9171,112.1049 115.5051,110.8729 C114.8281,108.8469 113.9691,106.8679 113.0211,104.9509 C112.5531,104.0049 111.5991,103.4129 110.4331,103.6589 C109.0551,103.9509 108.4481,104.8989 108.8911,106.6389 C109.4781,108.9489 110.3411,111.1899 111.0901,113.4579 C111.2521,113.9519 111.4331,114.4399 111.2401,115.1379 C109.5471,112.9389 107.8321,110.7569 106.1651,108.5379 C100.1571,100.5409 94.7281,92.1779 90.2751,83.2039 C84.9511,72.4769 81.5831,61.2139 81.4331,49.1709 C81.2951,37.9659 83.9091,27.4729 90.3991,18.1589 C93.8281,13.2369 98.0351,9.1359 103.5021,6.4979 C106.0081,5.2899 108.5991,4.2999 111.4531,4.2789 C111.0191,7.7979 110.5921,11.1729 110.1961,14.5509 C110.1331,15.0869 110.1071,15.6669 110.2441,16.1789 C110.5651,17.3829 111.9391,17.8859 112.8491,17.0689 C113.4801,16.5029 113.9971,15.7309 114.3551,14.9529 C115.7881,11.8389 116.4521,8.5929 115.7471,5.1609 C115.7041,4.9509 115.7771,4.7179 115.8061,4.3889 C118.2211,4.6229 120.2741,5.5359 122.3681,7.0359 C120.1721,8.1289 120.4521,9.9079 120.6551,11.7949 C120.9531,14.5679 120.9871,17.3699 121.2141,20.1539 C121.2771,20.9239 121.6241,21.6699 121.8161,22.3399 C125.0001,23.2339 126.2911,22.5799 126.6271,19.5559 C126.8431,17.6219 126.5411,15.6149 126.3341,13.6549 C126.2281,12.6499 125.8211,11.6769 125.7881,10.4929 C126.1161,10.8339 126.5081,11.1329 126.7601,11.5229 C129.9021,16.3879 131.3911,21.8299 132.2751,27.4779 C133.5441,35.5869 133.3321,43.7159 132.6621,51.8609 C131.3601,67.7189 127.7911,83.0829 122.6591,98.1029 C120.8781,103.3139 118.8731,108.4479 116.9591,113.6129 C116.8021,114.0369 116.5521,114.4259 116.1661,115.1819" id="Fill-8" fill="#eeefc3"/><path d="M112.9234,116.6221 L115.4294,116.6221 C115.3674,116.9801 115.4314,117.4811 115.2304,117.6361 C114.1244,118.4811 113.6434,117.1071 112.7364,117.1471 C112.7984,116.9731 112.8614,116.7971 112.9234,116.6221" id="Fill-10" fill="#eeefc3"/><path d="M110.9087,121.417 C110.5957,121.2 110.4337,121.088 110.2717,120.976 C110.4447,120.736 110.6007,120.48 110.8077,120.277 C110.8357,120.251 111.2747,120.507 111.2647,120.606 C111.2407,120.855 111.0667,121.087 110.9087,121.417" id="Fill-12" fill="#eeefc3"/><path d="M212.8755,87.1905 C207.0725,87.1005 201.2705,87.0275 195.4685,86.9045 C194.4775,86.8835 193.3425,86.9935 193.0955,85.5075 C192.8515,84.0395 193.2675,82.9135 194.6955,82.4765 C199.6035,80.9745 204.6295,80.0475 209.7645,80.6285 C211.4375,80.8165 213.0655,81.7175 214.6295,82.4665 C216.1105,83.1765 216.5935,84.2945 216.2475,85.5075 C215.8405,86.9295 215.2055,87.3425 213.3505,87.3885 C213.1905,87.3925 213.0315,87.3895 212.8725,87.3895 C212.8735,87.3235 212.8745,87.2565 212.8755,87.1905" id="Fill-14" fill="#4a1d02"/><path d="M179.8442,115.2696 C181.6392,115.0686 183.3112,115.4876 184.9502,116.1816 C186.1952,116.7086 187.4752,117.1496 188.7332,117.6446 C189.6942,118.0236 190.3772,118.6136 190.2642,119.7766 C190.1422,121.0306 189.4692,121.7916 188.1802,122.0126 C187.7172,122.0926 187.2072,122.1296 186.7582,122.0236 C182.1182,120.9246 177.4002,121.3726 172.7102,121.2696 C172.1542,121.2576 171.5862,121.2756 171.0462,121.1696 C169.5562,120.8786 168.7622,119.9196 168.7942,118.5446 C168.8202,117.4416 170.0062,116.1906 171.2852,116.0576 C174.1352,115.7636 176.9902,115.5296 179.8442,115.2696" id="Fill-16" fill="#4a1d02"/><path d="M216.3594,122.5264 C217.5804,120.9364 219.2144,121.1994 220.7774,121.4564 C223.7304,121.9414 226.4014,123.1824 228.8854,124.8124 C231.5464,126.5584 234.1644,128.3694 236.8084,130.1414 C237.6204,130.6854 238.0864,131.4424 237.7504,132.3664 C237.3944,133.3394 236.5734,133.9904 235.4914,133.6524 C233.6784,133.0864 231.8424,132.5054 230.1494,131.6664 C228.0884,130.6444 226.1914,129.2994 224.1724,128.1864 C222.3674,127.1914 220.5294,126.2354 218.6364,125.4264 C217.3554,124.8794 216.4214,124.2144 216.3594,122.5264" id="Fill-18" fill="#4a1d02"/><path d="M180.2729,89.045 C180.0109,89.297 179.5829,90.026 178.9699,90.248 C173.9619,92.054 168.9139,93.749 163.8929,95.519 C162.8149,95.898 162.0229,95.683 161.4419,94.729 C160.8049,93.681 160.9479,92.461 161.9079,91.743 C162.6649,91.177 163.5299,90.739 164.3849,90.322 C167.9009,88.608 171.5009,87.117 175.4149,86.578 C176.3559,86.448 177.3219,86.336 178.2639,86.399 C179.5999,86.488 180.3079,87.33 180.2729,89.045" id="Fill-20" fill="#4a1d02"/><path d="M232.145,112.5684 C232.616,111.9824 233.055,111.4364 233.569,110.7974 C239.735,112.1814 244.646,115.0774 246.924,121.3254 C247.156,121.9644 247.321,122.7674 247.144,123.3874 C246.724,124.8514 244.918,125.1754 243.628,124.0344 C242.859,123.3544 242.209,122.5324 241.562,121.7274 C239.448,119.1004 237.065,116.7604 234.053,115.2094 C232.884,114.6064 232.603,113.6344 232.145,112.5684" id="Fill-22" fill="#4a1d02"/><path d="M252.9351,107.4698 C253.3671,107.0828 253.9531,106.5598 254.5681,106.0108 C257.2411,106.5058 259.6711,107.5828 261.7771,109.1078 C262.9871,109.9838 263.9251,111.4808 264.5211,112.8948 C265.1581,114.4018 265.3031,116.1308 265.5561,117.7798 C265.7281,118.9088 265.2421,119.8938 264.1721,120.3108 C263.0131,120.7628 262.1831,119.9528 261.5461,119.1308 C261.0681,118.5128 260.6901,117.7678 260.4521,117.0208 C259.7291,114.7608 258.2231,113.2448 256.2381,112.0378 C254.7011,111.1038 252.9511,110.2418 252.9351,107.4698" id="Fill-24" fill="#4a1d02"/><path d="M136.811,107.794 C137.299,106.93 137.54,106.115 138.077,105.627 C139.783,104.076 141.559,102.592 143.39,101.19 C144.671,100.207 146.178,99.664 147.83,99.643 C149.18,99.626 150.539,100.475 150.817,101.581 C151.12,102.784 150.386,103.545 149.529,104.176 C146.719,106.244 144.095,108.653 140.579,109.5 C139.8,109.688 138.854,109.638 138.111,109.36 C137.59,109.165 137.285,108.398 136.811,107.794" id="Fill-26" fill="#4a1d02"/><path d="M141.979,120.8789 C139.595,120.9339 138.452,120.3779 138.219,119.2679 C137.943,117.9569 138.967,116.6089 140.865,116.1459 C143.256,115.5609 145.693,115.1649 148.106,114.6699 C149.038,114.4789 149.955,114.2139 150.888,114.0259 C151.869,113.8299 152.929,113.8479 153.355,114.8799 C153.787,115.9269 153.33,116.9599 152.412,117.6019 C151.706,118.0959 150.868,118.4089 150.068,118.7579 C147.351,119.9449 144.515,120.6769 141.979,120.8789" id="Fill-30" fill="#4a1d02"/><path d="M160.0815,111.128 C159.0675,111.114 158.3275,110.692 158.0605,109.73 C157.7815,108.724 158.3495,107.961 159.2025,107.606 C160.9635,106.87 162.7435,106.116 164.5875,105.661 C166.8255,105.109 169.1365,104.854 171.4175,104.482 C171.7305,104.431 172.0545,104.428 172.3725,104.434 C173.4635,104.452 174.2315,104.947 174.4075,106.057 C174.5695,107.08 174.0215,107.728 173.0565,108.012 C170.4625,108.776 167.8825,109.603 165.2605,110.258 C163.5675,110.681 161.8105,110.847 160.0815,111.128" id="Fill-32" fill="#4a1d02"/><path d="M233.4272,87.4795 C235.7142,88.2085 237.9412,88.6605 239.9192,89.6245 C241.8272,90.5535 243.4962,91.9865 245.2302,93.2525 C245.6622,93.5695 245.9542,94.0865 246.2882,94.5285 C246.9502,95.4035 246.6872,96.3125 245.9722,96.8585 C245.5342,97.1925 244.6082,97.2455 244.0692,97.0215 C242.5272,96.3795 241.0722,95.5325 239.5822,94.7665 C237.8082,93.8545 236.0242,92.9605 234.2642,92.0235 C233.5662,91.6515 232.9002,91.2105 232.2552,90.7505 C231.4832,90.1995 231.3412,89.3305 231.7782,88.6255 C232.0992,88.1075 232.8532,87.8575 233.4272,87.4795" id="Fill-34" fill="#4a1d02"/><path d="M198.5942,106.7754 C198.5222,105.8414 198.4732,105.2154 198.4052,104.3384 C199.0602,104.0334 199.7652,103.4044 200.4322,103.4434 C204.2982,103.6694 208.2282,103.1804 211.9962,104.6354 C214.0612,105.4334 214.6772,105.8914 214.3492,107.2784 C214.0832,108.4064 213.1292,108.7764 211.2072,108.5484 C207.8942,108.1574 204.5752,107.8084 201.2652,107.3964 C200.4202,107.2914 199.5952,107.0134 198.5942,106.7754" id="Fill-36" fill="#4a1d02"/><path d="M22.833,133.0166 C21.566,132.9966 20.802,132.6486 20.394,131.5716 C20.011,130.5606 20.368,129.8896 21.095,129.2736 C24.64,126.2666 28.763,124.4936 33.291,123.6306 C34.725,123.3576 35.542,123.8256 36.021,124.9486 C36.541,126.1676 35.779,127.0116 34.948,127.5556 C33.292,128.6396 31.551,129.6176 29.762,130.4646 C27.972,131.3146 26.087,131.9666 24.23,132.6716 C23.717,132.8666 23.158,132.9396 22.833,133.0166" id="Fill-48" fill="#4a1d02"/><path d="M55.8711,112.8106 C56.4981,112.9396 57.2281,112.9986 57.8901,113.2446 C59.4481,113.8206 59.8501,115.7796 58.6531,116.9116 C58.2611,117.2826 57.7631,117.6166 57.2541,117.7786 C53.8501,118.8626 50.4441,119.9416 47.0121,120.9256 C45.4331,121.3786 44.6351,120.9436 44.1421,119.6846 C43.6881,118.5236 43.9441,117.5706 45.1771,116.8706 C48.0791,115.2206 51.0171,113.6206 54.3711,113.0406 C54.8391,112.9596 55.3101,112.8966 55.8711,112.8106" id="Fill-50" fill="#4a1d02"/><path d="M62.1274,132.0284 C61.0124,132.1394 60.4584,131.4314 60.1034,130.6054 C59.6984,129.6614 59.7854,128.7624 60.6974,128.0464 C63.3504,125.9584 66.1624,124.1794 69.4274,123.1874 C70.7184,122.7964 72.0114,122.3734 73.2374,121.8184 C74.1264,121.4164 74.9524,121.5054 75.3114,122.2574 C75.5984,122.8584 75.3624,123.7274 75.2864,124.4694 C75.2674,124.6484 74.9764,124.8284 74.7774,124.9534 C71.4024,127.0674 68.0434,129.2064 64.6284,131.2534 C63.9014,131.6884 62.9664,131.7794 62.1274,132.0284" id="Fill-52" fill="#4a1d02"/><path d="M73.9263,110.2998 C75.1123,110.4788 76.2123,110.6418 77.3123,110.8098 C78.4763,110.9878 79.1753,111.7088 79.4003,112.8148 C79.5833,113.7138 78.6843,114.7258 77.3873,115.0908 C76.5533,115.3258 75.6823,115.4868 74.8183,115.5458 C72.4233,115.7098 70.0843,116.0468 67.8553,117.0218 C67.2393,117.2898 66.4963,117.3148 65.8053,117.3598 C64.7753,117.4268 64.2853,116.8668 63.9673,115.8858 C63.6643,114.9538 63.9033,114.3258 64.5763,113.7888 C65.2593,113.2438 65.9653,112.7168 66.7123,112.2668 C68.9503,110.9208 71.4233,110.4158 73.9263,110.2998" id="Fill-54" fill="#4a1d02"/><path d="M78.5581,135.5459 C77.9721,135.1739 76.9981,134.8969 76.7911,134.3369 C76.5381,133.6519 76.6651,132.5479 77.0851,131.9409 C79.2891,128.7519 82.4101,126.7809 86.1071,125.7129 C87.3141,125.3639 88.8351,125.8589 89.3081,126.6589 C89.8031,127.4989 89.4111,128.9289 88.2531,129.7299 C85.6461,131.5309 82.9841,133.2529 80.3161,134.9639 C79.8741,135.2479 79.2911,135.3119 78.5581,135.5459" id="Fill-58" fill="#4a1d02"/><path d="M81.9834,119.6104 C82.4124,119.1124 82.7984,118.3114 83.4294,117.9924 C85.8264,116.7774 88.2374,115.5284 90.7694,114.6594 C92.8464,113.9454 94.3064,115.1574 94.4544,117.1204 C94.5424,118.2834 93.7904,118.8754 93.0584,119.4484 C91.2484,120.8664 89.0494,121.3204 86.8604,121.7644 C86.4714,121.8424 86.0724,121.9034 85.6764,121.9114 C83.5604,121.9494 83.3374,122.6484 81.9834,119.6104" id="Fill-60" fill="#4a1d02"/><path d="M89.0933,31.5274 C88.7103,27.2464 89.6993,23.1604 92.4263,19.5314 C93.4583,18.1564 94.4213,17.7494 95.8593,18.3224 C97.0493,18.7974 97.4333,19.5914 97.2443,21.2794 C97.1923,21.7524 97.0743,22.2204 96.9553,22.6834 C95.9263,26.7044 94.8973,30.7254 93.8453,34.7404 C93.6643,35.4294 93.4473,36.1304 93.1143,36.7544 C92.6143,37.6884 91.7533,38.1674 90.7173,37.8224 C89.8063,37.5184 88.9913,37.0394 89.0733,35.7864 C89.1623,34.4334 89.0933,33.0704 89.0933,31.5274" id="Fill-64" fill="#4a1d02"/><path d="M126.6167,74.7266 C125.9707,78.0416 125.3657,81.4036 124.6397,84.7396 C124.3497,86.0756 123.3837,86.7996 122.3747,86.7796 C121.3667,86.7576 120.4177,85.9206 120.2327,84.6126 C120.0227,83.1226 119.8547,81.5966 119.9357,80.1006 C120.1477,76.2026 120.5197,72.3136 120.7977,68.4186 C120.8807,67.2466 121.0627,66.1576 122.3697,65.7646 C123.6947,65.3676 124.7947,65.9846 125.1977,67.6006 C125.7727,69.9076 126.1377,72.2656 126.6167,74.7266" id="Fill-66" fill="#4a1d02"/><path d="M125.9815,43.1172 C125.5765,44.7112 125.2975,46.2692 124.7655,47.7352 C124.4035,48.7332 122.4945,49.4522 121.5345,49.0812 C120.5035,48.6832 120.2405,47.7222 120.1995,46.7322 C120.0045,42.1192 119.8235,37.5062 119.6685,32.8902 C119.6445,32.1792 119.7425,31.4582 119.8475,30.7502 C119.9765,29.8802 120.4275,29.3372 121.3865,29.1962 C122.3425,29.0572 122.9175,29.5202 123.3735,30.2152 C123.5855,30.5382 123.7125,30.9412 123.7855,31.3262 C124.5255,35.2372 125.2465,39.1522 125.9815,43.1172" id="Fill-68" fill="#4a1d02"/><path d="M106.2329,55.3252 C107.8889,55.2632 108.2749,56.4282 108.5479,57.5112 C109.3069,60.5202 109.9719,63.5542 110.6629,66.5822 C111.0149,68.1282 111.4219,69.6672 111.6559,71.2322 C111.8579,72.5812 111.1599,73.3902 109.7369,73.7842 C108.4059,74.1522 107.4489,73.9092 107.0009,72.6132 C105.3679,67.8892 103.2749,63.2292 104.1059,58.0202 C104.2129,57.3472 104.5059,56.6472 104.9029,56.0972 C105.1769,55.7182 105.7779,55.5742 106.2329,55.3252" id="Fill-70" fill="#4a1d02"/><path d="M104.6528,93.3028 C104.4798,93.7928 104.3688,94.7348 103.8718,95.3788 C103.0118,96.4948 101.1398,96.0448 100.3428,94.4988 C99.3208,92.5178 98.3698,90.4878 97.5648,88.4088 C96.7598,86.3328 96.1228,84.1858 95.5078,82.0418 C95.1358,80.7458 95.6348,79.6828 96.7218,79.2328 C97.7828,78.7938 98.8188,78.9438 99.5088,79.9108 C102.2948,83.8168 103.9218,88.1868 104.6528,93.3028" id="Fill-72" fill="#4a1d02"/><path d="M117.3272,98.0079 C117.3272,99.1889 117.3642,99.9069 117.3182,100.6209 C117.2482,101.7299 116.5352,102.3269 115.5332,102.5819 C114.4812,102.8509 113.8032,102.2339 113.4732,101.3709 C112.7952,99.5939 112.0752,97.8069 111.6752,95.9579 C111.1562,93.5569 110.8482,91.1009 110.6072,88.6539 C110.4202,86.7429 110.9112,86.1309 112.3912,85.8189 C113.6712,85.5479 114.5852,86.1269 115.2112,87.7499 C116.5412,91.1959 117.2402,94.7789 117.3272,98.0079" id="Fill-74" fill="#4a1d02"/><path d="M90.0025,50.7989 C90.4195,51.7269 90.9855,52.5269 91.1345,53.3979 C91.8045,57.3159 92.3635,61.2529 92.9435,65.1869 C93.0235,65.7339 93.1825,66.3769 92.9815,66.8319 C92.6905,67.4879 92.2135,68.2859 91.6155,68.5279 C90.8385,68.8429 89.8605,68.6889 89.3875,67.6879 C89.1505,67.1859 88.8445,66.7079 88.6675,66.1859 C87.2895,62.1349 86.7885,57.9729 87.2045,53.7129 C87.3965,51.7479 87.4245,51.7499 90.0025,50.7989" id="Fill-76" fill="#4a1d02"/><path d="M109.7451,28.6709 C109.3911,30.1459 108.9951,32.0889 108.4481,33.9869 C107.8561,36.0389 107.1591,38.0619 106.4251,40.0669 C106.2631,40.5079 105.6921,41.1679 105.4191,41.1179 C104.9101,41.0259 104.2281,40.5739 104.0731,40.1169 C103.7731,39.2359 103.6791,38.2459 103.6951,37.3049 C103.7631,33.4709 104.3531,29.7159 105.6061,26.0779 C105.9011,25.2199 106.2131,24.4119 107.3371,24.422789 C108.3281,24.4329 109.2601,25.1709 109.5141,26.2809 C109.6541,26.8939 109.6431,27.5409 109.7451,28.6709" id="Fill-78" fill="#4a1d02"/></g></g></g></g></g></svg>