<svg viewBox="90.43844221105525 42.07499999999999 192.12311557788934 289.85" xmlns="http://www.w3.org/2000/svg" overflow="visible" xmlns:xlink="http://www.w3.org/1999/xlink" width="192.12311557788934px" height="289.85px"><g id="Master/Stickers/Plant 3" stroke="none" stroke-width="1" fill="none" fill-rule="evenodd"><g id="Group-37" transform="translate(53.000000, 45.000000)"><g id="Short Pot" transform="translate(42.000000, 172.000000) scale(1 1)"><g id="Short Pot/Texture Large Pot" stroke="none" stroke-width="1" fill="none" fill-rule="evenodd"><g id="Group-20" transform="translate(1.000000, -0.000000)"><g id="Group-3" transform="translate(0.000000, 0.578000)" fill="#632603"><path d="M62.028,107.4031 C62.028,106.4611 61.988,105.7571 62.036,105.0581 C62.163,103.2341 62.717,101.6391 64.395,100.6041 C65.966,99.6351 67.255,99.8591 68.243,101.4571 C68.701,102.1981 69.054,103.0161 69.365,103.8331 C70.011,105.5301 70.599,107.2501 71.247,109.0631 C80.124,108.6871 88.168,106.2511 95.493,101.9161 C95.71,99.2651 95.86,96.8811 96.112,94.5071 C96.293,92.8101 97.088,91.5541 98.833,90.9421 C100.521,90.3501 101.945,90.3731 103.084,91.9451 C103.759,92.8781 104.488,93.7731 105.274,94.7921 C108.33,92.2521 110.936,89.3551 113.501,86.4051 C114.399,85.3711 114.796,84.3001 114.783,82.9451 C114.754,79.6681 114.833,76.3911 114.847,73.1141 C114.853,71.5971 115.282,70.2801 116.509,69.3091 C118.032,68.1031 120.286,68.5851 121.103,70.3301 C121.526,71.2331 121.833,72.1911 122.356,73.5511 C129.162,61.8551 132.103,49.5251 135.424,36.7361 C134.684,36.6521 135.818,36.7531 135.424,36.7361 C128.076,36.4181 120.725,36.1521 113.38,35.7781 C106.917,35.4491 100.463,34.9371 93.999,34.6221 C86.892,34.2751 79.782,33.9421 72.671,33.8151 C62.597,33.6351 52.517,33.8141 42.449,33.5341 C31.983,33.2431 21.527,32.5791 11.066,32.1051 C9.366,32.0281 9.537,32.0941 7.659,32.0941 C10.329,43.5391 11.925,54.3911 17.112,64.6691 C17.098,60.9811 17,57.3301 16.609,53.7111 C16.457,52.3051 16.871,51.1811 17.414,50.0591 C18.159,48.5171 21.545,48.1791 22.553,49.5791 C23.376,50.7191 24.147,51.9911 24.536,53.3231 C25.115,55.3021 25.365,57.3821 25.706,59.4261 C26.166,62.1851 25.58,64.8431 24.744,67.4411 C24.129,69.3551 22.886,70.0961 20.917,69.9111 C20.464,69.8681 20.024,69.6801 19.52,69.5431 C23.163,79.0861 38.473,97.0591 44.741,99.0741 C44.652,97.9891 44.488,96.9641 44.505,95.9411 C44.525,94.6011 44.479,93.2051 44.837,91.9391 C45.482,89.6531 48.225,89.1111 49.711,90.9391 C50.285,91.6461 50.671,92.6031 50.862,93.5061 C51.507,96.5521 51.995,99.6321 52.618,102.6841 C52.75,103.3301 53.039,104.2321 53.524,104.4701 C56.151,105.7621 58.866,106.8701 62.028,107.4031 L62.028,107.4031 Z M71.507,0.5021 C94.217,0.5021 116.928,0.5021 139.639,0.5041 C140.199,0.5041 140.766,0.4701 141.317,0.5471 C142.589,0.7251 142.873,1.1191 142.666,2.4721 C140.667,15.5571 137.6,47.3441 132.551,59.5731 C128.291,69.8931 122.885,79.5521 115.725,88.1751 C110.425,94.5571 104.397,100.1101 97.191,104.2971 C91.341,107.6951 85.143,110.1821 78.417,111.2241 C76.687,111.4921 74.963,111.9361 73.226,111.9861 C67.146,112.1611 61.349,110.6701 55.71,108.5781 C44.699,104.4931 35.898,97.3711 28.43,88.4651 C20.912,79.4981 15.315,69.3931 10.951,58.5961 C5.935,46.1891 1.857,14.2201 0.004,0.9271 C-0.025,0.7211 0.122,0.5501 0.33,0.5491 C8.301,0.4721 16.274,0.4361 24.246,0.4291 C40,0.4161 55.754,0.4251 71.507,0.4251 L71.507,0.5021 Z" id="Fill-1"/></g><path d="M53.2204,52.3512 C52.9904,51.1652 52.8834,49.5402 52.3394,48.0772 C51.5744,46.0192 50.0714,45.4402 48.1134,46.0852 C46.0944,46.7512 45.3314,47.9762 45.6554,50.1192 C46.0714,52.8742 46.5054,55.6272 46.9524,58.3782 C47.2054,59.9342 48.1314,60.9412 49.2944,60.9902 C50.8854,61.0582 51.7314,60.4542 52.1244,58.6712 C52.5534,56.7272 52.8134,54.7472 53.2204,52.3512 M62.7584,78.3092 C62.6124,76.8702 62.5534,75.8352 62.3934,74.8172 C62.0744,72.7962 61.1224,71.3122 59.0044,70.6972 C56.9274,70.0932 55.1514,71.1602 54.7314,73.2132 C53.9424,77.0802 55.1764,80.5942 56.4474,84.1142 C56.9344,85.4652 58.2794,85.5412 59.3804,85.8182 C60.1394,86.0092 61.6304,84.5492 61.8274,83.5562 C62.1994,81.6912 62.4954,79.8112 62.7584,78.3092 M78.7414,56.9722 C78.2924,54.1082 77.9914,51.6562 77.4994,49.2432 C77.1924,47.7362 75.8084,46.5582 74.7804,46.5962 C72.9974,46.6632 70.9904,47.8942 70.7344,49.3482 C69.9364,53.8832 70.3994,58.2452 73.1154,62.1242 C74.4414,64.0192 77.0774,63.8222 77.8354,61.7082 C78.4124,60.0982 78.5014,58.3122 78.7414,56.9722 M33.6514,72.3012 L33.6954,72.3012 C33.6954,73.6532 33.5764,75.0182 33.7214,76.3542 C33.9514,78.4782 34.2834,80.5982 34.7174,82.6892 C34.9454,83.7832 35.7224,84.3512 36.9734,84.4092 C38.1264,84.4622 38.7964,84.0292 39.2244,83.0632 C39.5764,82.2702 39.9744,81.4812 40.1944,80.6482 C41.0694,77.3382 40.7534,74.0032 40.1754,70.6982 C39.8174,68.6482 39.2194,66.6242 38.5564,64.6592 C38.4664,64.3932 38.2594,64.1752 37.9914,64.0912 C36.0234,63.4732 34.3074,64.0262 34.0104,65.8972 C33.8864,66.6792 33.6994,67.4602 33.6664,68.2472 C33.6094,69.5962 33.6514,70.9492 33.6514,72.3012 M90.2564,97.0022 C89.6284,93.4112 88.9494,89.4692 88.2384,85.5362 C88.2134,85.4002 88.1404,85.1832 88.0744,85.0612 C86.9884,83.0862 85.5324,82.6842 83.6334,83.4712 C81.6524,84.2922 80.8884,85.8332 80.8933756,87.7972 C80.9044,92.5992 81.3554,97.3222 83.5014,101.7462 C84.1134,103.0052 84.9274,103.9602 86.3154,103.9342 C87.7704,103.9062 88.9184,103.0602 89.3324,101.6142 C89.7234,100.2492 89.9024,98.8242 90.2564,97.0022 M119.1684,51.5842 C118.9784,49.0752 118.9714,46.9002 118.5964,44.7922 C118.3554,43.4392 117.7404,42.0732 116.9864,40.9112 C115.9914,39.3762 113.8244,39.4762 112.7844,41.0052 C112.3524,41.6412 111.9794,42.4322 111.9134,43.1822 C111.6754,45.8792 111.4704,48.5892 111.4564,51.2952 C111.4384,54.8212 112.0074,58.2862 113.1074,61.6462 C113.5194,62.9052 114.8804,63.9312 115.9174,63.8402 C116.9844,63.7472 117.9794,62.7692 118.3104,61.4832 C118.3694,61.2512 118.4384,61.0172 118.4564,60.7812 C118.7074,57.6012 118.9494,54.4202 119.1684,51.5842 M94.6194,69.7582 C94.5714,69.7602 94.5234,69.7622 94.4754,69.7652 C94.6544,72.3042 94.8214,74.8442 95.0164,77.3822 C95.1634,79.2982 95.8774,80.8792 97.5544,82.0052 C99.2784,83.1632 101.9884,82.7052 102.8834,80.8472 C103.3514,79.8762 103.8084,78.6752 103.6554,77.6712 C102.9634,73.1222 102.1414,68.5862 101.1714,64.0882 C100.7144,61.9662 98.2464,61.1962 96.2634,60.9202 C95.7074,61.9692 94.7854,63.3702 94.6614,64.7472 C94.5124,66.4052 94.6194,68.0862 94.6194,69.7582 M62.0284,107.9812 C58.8664,107.4482 56.1514,106.3402 53.5244,105.0482 C53.0384,104.8092 52.7494,103.9082 52.6174,103.2622 C51.9944,100.2102 51.5064,97.1302 50.8624,94.0842 C50.6704,93.1812 50.2844,92.2242 49.7104,91.5172 C48.2254,89.6892 45.4824,90.2302 44.8364,92.5172 C44.4794,93.7832 44.5254,95.1792 44.5044,96.5182 C44.4884,97.5412 44.6524,98.5672 44.7414,99.6522 C38.4734,97.6372 23.1624,79.6642 19.5204,70.1212 C20.0244,70.2582 20.4634,70.4462 20.9164,70.4892 C22.8864,70.6742 24.1284,69.9332 24.7434,68.0192 C25.5794,65.4212 26.1654,62.7632 25.7054,60.0042 C25.3654,57.9592 25.1154,55.8802 24.5354,53.9012 C24.1474,52.5692 23.3754,51.2972 22.5534,50.1572 C21.5444,48.7572 18.1584,49.0952 17.4134,50.6372 C16.8704,51.7592 16.4564,52.8832 16.6094,54.2892 C16.9994,57.9082 17.0984,61.5592 17.1124,65.2472 C11.9254,54.9692 10.3284,44.1172 7.6584,32.6722 C9.5364,32.6722 9.3664,32.6062 11.0664,32.6832 C21.5274,33.1572 31.9834,33.8212 42.4494,34.1122 C52.5174,34.3922 62.5974,34.2132 72.6704,34.3932 C79.7824,34.5202 86.8924,34.8522 93.9984,35.2002 C100.4624,35.5152 106.9164,36.0272 113.3794,36.3562 C120.7254,36.7292 126.1354,36.9132 133.4844,37.2312 C133.8764,37.2472 134.6844,37.2302 135.4244,37.3132 C132.1034,50.1032 129.1614,62.4332 122.3564,74.1292 C121.8324,72.7682 121.5264,71.8112 121.1034,70.9082 C120.2854,69.1632 118.0324,68.6812 116.5094,69.8872 C115.2824,70.8582 114.8534,72.1752 114.8474,73.6922 C114.8324,76.9692 114.7534,80.2462 114.7834,83.5222 C114.7954,84.8782 114.3994,85.9492 113.5004,86.9832 C110.9364,89.9332 108.3294,92.8302 105.2744,95.3702 C104.4884,94.3512 103.7594,93.4562 103.0834,92.5232 C101.9454,90.9512 100.5214,90.9282 98.8324,91.5202 C97.0874,92.1322 96.2924,93.3882 96.1124,95.0852 C95.8604,97.4582 95.7094,99.8432 95.4924,102.4942 C88.1674,106.8292 80.1234,109.2652 71.2464,109.6412 C70.5994,107.8282 70.0114,106.1082 69.3654,104.4112 C69.0544,103.5942 68.7004,102.7762 68.2424,102.0352 C67.2544,100.4372 65.9654,100.2132 64.3954,101.1822 C62.7174,102.2172 62.1624,103.8112 62.0354,105.6362 C61.9884,106.3342 62.0284,107.0392 62.0284,107.9812" id="Fill-4" fill="#e0e281"/><path d="M94.6198,69.7585 C94.6198,68.0865 94.5128,66.4055 94.6618,64.7465 C94.7858,63.3705 95.7078,61.9685 96.2638,60.9205 C98.2468,61.1955 100.7148,61.9665 101.1718,64.0885 C102.1408,68.5865 102.9638,73.1215 103.6548,77.6715 C103.8078,78.6755 103.3508,79.8765 102.8838,80.8475 C101.9878,82.7055 99.2778,83.1635 97.5548,82.0055 C95.8778,80.8795 95.1638,79.2985 95.0158,77.3825 C94.8208,74.8445 94.6538,72.3035 94.4748,69.7645 C94.5228,69.7625 94.5708,69.7605 94.6198,69.7585" id="Fill-6" fill="#632603"/><path d="M119.1687,51.5841 C118.9497,54.4201 118.7077,57.6011 118.4567,60.7811 C118.4387,61.0171 118.3697,61.2511 118.3107,61.4831 C117.9797,62.7691 116.9837,63.7471 115.9177,63.8401 C114.8807,63.9311 113.5197,62.9051 113.1067,61.6471 C112.0077,58.2861 111.4387,54.8211 111.4567,51.2951 C111.4707,48.5891 111.6757,45.8791 111.9137,43.1821 C111.9797,42.4321 112.3527,41.6411 112.7847,41.0051 C113.8237,39.4771 115.9917,39.3761 116.9857,40.9111 C117.7397,42.0731 118.3557,43.4391 118.5967,44.7921 C118.9717,46.9001 118.9787,49.0751 119.1687,51.5841" id="Fill-8" fill="#632603"/><path d="M90.2566,97.0026 C89.9026,98.8246 89.7236,100.2496 89.3326,101.6146 C88.9186,103.0606 87.7706,103.9066 86.3156,103.9346 C84.9276,103.9606 84.1126,103.0056 83.5016,101.7466 C81.3556,97.3226 80.9036,92.5986 80.8935756,87.7966 C80.8886,85.8336 81.6526,84.2926 83.6336,83.4706 C85.5316,82.6836 86.9876,83.0866 88.0736,85.0616 C88.1406,85.1826 88.2136,85.4006 88.2376,85.5356 C88.9486,89.4696 89.6286,93.4106 90.2566,97.0026" id="Fill-10" fill="#632603"/><path d="M33.6511,72.3009 C33.6511,70.9489 33.6091,69.5959 33.6671,68.2469 C33.7001,67.4599 33.8861,66.6789 34.0101,65.8969 C34.3071,64.0269 36.0231,63.4729 37.9921,64.0909 C38.2591,64.1749 38.4661,64.3939 38.5561,64.6589 C39.2191,66.6249 39.8171,68.6479 40.1751,70.6979 C40.7541,74.0029 41.0691,77.3379 40.1941,80.6489 C39.9741,81.4809 39.5771,82.2699 39.2241,83.0639 C38.7971,84.0289 38.1271,84.4629 36.9731,84.4089 C35.7221,84.3519 34.9451,83.7829 34.7171,82.6899 C34.2841,80.5979 33.9521,78.4779 33.7211,76.3549 C33.5771,75.0179 33.6951,73.6529 33.6951,72.3009 L33.6511,72.3009 Z" id="Fill-12" fill="#632603"/><path d="M78.7419,56.9723 C78.5019,58.3123 78.4129,60.0983 77.8359,61.7083 C77.0779,63.8223 74.4409,64.0193 73.1149,62.1243 C70.3989,58.2453 69.9359,53.8833 70.7339,49.3483 C70.9899,47.8943 72.9979,46.6633 74.7799,46.5963 C75.8079,46.5573 77.1919,47.7363 77.4999,49.2433 C77.9919,51.6563 78.2929,54.1083 78.7419,56.9723" id="Fill-14" fill="#632603"/><path d="M62.7585,78.3097 C62.4955,79.8107 62.1985,81.6907 61.8275,83.5567 C61.6305,84.5497 60.1395,86.0087 59.3805,85.8187 C58.2795,85.5407 56.9345,85.4647 56.4465,84.1147 C55.1765,80.5947 53.9425,77.0807 54.7315,73.2127 C55.1515,71.1597 56.9275,70.0937 59.0045,70.6967 C61.1225,71.3117 62.0735,72.7967 62.3935,74.8167 C62.5535,75.8347 62.6125,76.8697 62.7585,78.3097" id="Fill-16" fill="#632603"/><path d="M53.2204,52.3512 C52.8134,54.7472 52.5534,56.7272 52.1244,58.6712 C51.7314,60.4542 50.8854,61.0582 49.2944,60.9902 C48.1314,60.9412 47.2054,59.9342 46.9524,58.3782 C46.5054,55.6272 46.0714,52.8742 45.6554,50.1192 C45.3314,47.9762 46.0944,46.7512 48.1134,46.0852 C50.0714,45.4402 51.5744,46.0192 52.3394,48.0772 C52.8834,49.5402 52.9904,51.1652 53.2204,52.3512" id="Fill-18" fill="#632603"/></g></g></g><g id="Pot Plant" transform="scale(1 1)"><g id="Pot Plant/Bush" stroke="none" stroke-width="1" fill="none" fill-rule="evenodd"><g id="Group-12" transform="translate(40.000000, 1.000000)"><path d="M93.3100983,84 C93.3100983,84 81.7512086,27.4555779 83.1112512,19.5681388 C84.4705578,11.6806996 96.9633727,3.71965835 96.9633727,3.71965835 C96.9633727,3.71965835 106.932602,1.0467012 111.180527,6.00357594 C115.342346,10.8605621 114.54678,21.2925303 111.072342,35.0906671 C105.412122,57.5708451 93.3100983,84 93.3100983,84" id="Fill-1" fill="#e0e281"/><path d="M101,84.6743753 C101.21655,84.0139142 135.077714,25.8903293 143.977033,26 C152.876351,26.1099815 158.194435,37.8162406 158.194435,37.8162406 C158.194435,37.8162406 165.139611,46.9160104 163.837344,48.457337 C162.535077,49.9979114 153.093642,59.90558 145.279299,63.8683465 C137.464956,67.8318653 102.127247,88 102.127247,88 L101,84.6743753 Z" id="Fill-3" fill="#e0e281"/><path d="M73,173 C73,173 116.557116,159.129124 122.594275,157.175712 C129.675635,154.884702 151.070494,147.540236 160.961894,144.219135 C169.362757,141.398794 184.099338,131.897154 184.83898,127.055731 C186.486296,116.278132 175.144118,93.5214139 166.805516,87.3634307 C158.466915,81.2054474 157.118906,77.8166769 144.783537,78.0076571 C137.314352,78.1234482 114.882794,92.5236552 105.336461,104.192996 C82.4165585,132.20994 73,173 73,173" id="Fill-5" fill="#e0e281"/><path d="M71.286137,173 C71.286137,173 24.0159273,136.996844 20.4808304,131.346583 C16.9457335,125.695576 3.68354293,95.2277502 1.98589331,85.9243353 C0.287500079,76.6209204 1.29880253,52.1205348 1.29880253,52.1205348 C1.29880253,52.1205348 29.1973652,42.8954817 39.6197292,43.085789 C50.0413496,43.2768426 53.1845669,41.2774965 62.9347122,49.4480232 C68.8381902,54.3945204 82.4692087,78.8419186 83.8426467,94.8799729 C85.6503498,115.989903 71.286137,173 71.286137,173" id="Fill-7" fill="#e0e281"/><g id="Group-11" fill="#632603"><path d="M94.496441,6.46168803 C94.0370434,6.46168803 93.8988506,6.41905983 93.810706,6.46767094 C88.7379108,9.23102564 85.3719831,13.2395726 84.698947,19.1544231 C83.9915494,25.3639316 84.3000554,31.5786752 84.9917663,37.7552778 C85.5564892,42.7921368 86.3916217,47.805812 87.303694,52.793312 C88.417453,58.8869017 89.7366337,64.9416026 90.9669229,71.0135043 C91.0879349,71.0112607 91.208947,71.0082692 91.329212,71.0052778 C91.0916699,49.4638248 91.1462,27.9358333 94.496441,6.46168803 M104.482176,81.5890385 C104.540441,81.6211966 104.598706,81.6526068 104.656971,81.684765 C112.696802,73.6377564 120.7202,65.5742949 128.781694,57.5489744 C136.861116,49.5049573 145.665863,42.2858333 154.662586,35.1579487 C152.85861,32.5606197 150.866393,30.4508974 148.346055,28.8968376 C147.129959,28.1474786 145.773429,28.0300641 144.375814,28.4413889 C142.284995,29.0568803 140.300995,29.9303846 138.791333,31.5136111 C136.985116,33.4072009 135.194586,35.3508974 133.657284,37.4621154 C123.493766,51.4209829 114.355863,66.0663889 104.978923,80.5517521 C104.772754,80.8710897 104.645766,81.2420299 104.482176,81.5890385 M155.989236,36.9655342 C155.381935,37.4411752 154.871742,37.8405342 154.361549,38.240641 C144.670128,45.8374359 135.287959,53.793953 126.569863,62.5028205 C119.046947,70.0166026 111.592007,77.5984402 104.113911,85.1578419 C103.705308,85.5714103 103.362441,86.0507906 102.989694,86.4987607 C103.379622,86.5892521 103.546947,86.5234402 103.691863,86.4247222 C110.369935,81.8822009 117.538031,78.206453 124.683718,74.4850855 C133.52208,69.882735 142.432899,65.4045299 150.761067,59.8882906 C154.447453,57.4465171 158.093501,54.9441667 161.153164,51.7096581 C163.178248,49.5692735 163.316441,48.5499359 162.035357,45.9324145 C160.451742,42.6971581 158.149525,39.9539957 155.989236,36.9655342 M93.3057422,81.640641 C94.6264169,78.222906 95.7805133,75.1813462 96.976441,72.1554915 C97.8317422,69.9919231 98.8648265,67.8926709 99.6050916,65.6924573 C101.621212,59.7005769 103.580561,53.6885043 105.456995,47.6517521 C108.0102,39.4424573 110.275814,31.1501496 111.896031,22.7000427 C112.570561,19.1805983 113.049381,15.6200214 112.779718,12.0145726 C112.546658,8.89673077 111.101236,6.65089744 108.157357,5.34512821 C104.442586,3.69683761 100.750224,3.94737179 96.851694,5.08711538 C96.6074289,7.1257906 96.4087301,9.14053419 96.1181518,11.1410684 C94.435188,22.7464103 93.6194771,34.4198077 93.4775494,46.1365812 C93.3453325,56.9506838 93.3572843,67.7662821 93.3064892,78.5811325 C93.3027542,79.4703419 93.3057422,80.3595513 93.3057422,81.640641 M3.39379036,53.4529274 C3.07109157,56.9761111 2.60795904,60.4761111 2.46827229,63.9873291 C2.32111566,67.6840171 2.20383855,71.4203419 2.5668747,75.0908547 C3.36391084,83.1468376 5.51598313,90.9410684 7.95938072,98.6298504 C10.4042723,106.321624 13.5147301,113.766603 17.0830916,121.007415 C19.8394771,126.59844 22.8976458,132.016709 27.5401759,136.315427 C30.387694,138.953141 33.2135494,141.635726 36.2552843,144.037115 C44.9741277,150.921944 53.7975494,157.674402 62.5851157,164.472479 C62.7038867,164.565214 62.8891398,164.572692 63.2940072,164.697585 C62.8219108,163.98562 62.4977181,163.448654 62.127212,162.94609 C57.791694,157.058162 54.0881277,150.794808 50.9029711,144.214359 C45.9250434,133.931239 41.2451639,123.512009 38.134706,112.497479 C36.2545373,105.839252 34.8008988,99.0546368 33.3293325,92.2887179 C31.5111639,83.9305983 30.2726578,75.4670299 29.6638627,66.9369017 C29.2253807,60.799188 29.146947,54.636047 28.9168747,48.4833761 C28.8862482,47.6644658 28.9131398,46.8425641 28.9131398,45.8336966 C20.1322964,47.9284615 11.597959,49.8833761 3.39379036,53.4529274 M171.07914,95.5164957 C170.047549,96.1506838 169.277405,96.5941667 168.537887,97.0832692 C150.520537,108.980278 133.331598,121.986368 116.802248,135.867457 C104.81608,145.934444 92.9023687,156.086688 80.9617663,166.208269 C80.169959,166.87985 79.426706,167.610513 78.3465614,168.601432 C79.0255735,168.495235 79.2563928,168.484765 79.4707783,168.420449 C82.4422964,167.531987 85.3951398,166.576966 88.3838386,165.754316 C93.8443205,164.251111 99.3533566,162.920662 104.792176,161.343419 C112.585501,159.082628 120.328031,156.649081 128.101188,154.318739 C137.254778,151.574081 146.231333,148.332842 155.074176,144.719915 C160.487598,142.507735 165.914465,140.309017 170.94767,137.284658 C174.23367,135.309551 177.376995,133.132521 179.935429,130.227821 C181.835766,128.070983 183.24608,125.668846 183.20444,122.678889 C183.172128,120.398654 182.807598,118.162543 182.073308,115.988504 C180.748899,112.065962 178.956875,108.358056 176.854851,104.807201 C175.034441,101.731239 173.084802,98.730812 171.07914,95.5164957 M169.318489,93.7201282 C169.263212,93.4838034 169.269188,93.3469444 169.205694,93.2624359 C164.704345,87.2698077 159.230417,82.5208761 152.142995,79.797906 C147.679742,78.0830556 143.173911,77.6844444 138.703935,79.5443803 C135.906465,80.7088034 133.137381,82.0272863 130.54832,83.5955556 C122.764706,88.3108333 116.181501,94.465 110.18767,101.260085 C100.685236,112.032308 93.1369229,124.129744 86.3789229,136.750684 C82.3339831,144.30485 79.4057904,152.332415 76.5015012,160.365214 C75.7313566,162.49438 75.0979108,164.67515 74.467453,166.850684 C74.2874289,167.472158 74.1141277,168.17515 74.4308506,168.854209 C78.5355494,165.365427 82.529694,161.955919 86.5402723,158.565855 C98.7617422,148.234872 110.927188,137.836581 123.231573,127.60656 C136.051381,116.948013 149.450851,107.050043 163.293284,97.757094 C165.31314,96.4012179 167.335236,95.0483333 169.318489,93.7201282 M70.9566096,171.005064 C71.0821036,170.949722 71.2075976,170.89438 71.3323446,170.838291 C71.3794048,170.618419 71.4436458,170.400791 71.4705373,170.178675 C72.5596458,161.276111 74.279959,152.511154 76.7241036,143.869594 C79.9749952,132.374188 82.6014048,120.729957 83.8578386,108.826966 C84.5278867,102.486581 84.2410434,96.1880769 82.4878627,89.9950214 C79.8114048,80.5435256 76.1377181,71.4831624 71.9321759,62.6254701 C70.1573325,58.8891453 68.081453,55.3330556 65.3825855,52.1823077 C60.6168024,46.6167094 54.6662964,43.6095513 47.2270434,43.6140334 C42.0638627,43.6177778 36.9873325,44.2489744 31.9317181,45.180812 C31.5447783,45.2526068 31.1854771,45.4709829 30.817212,45.6198077 C30.817212,46.4888248 30.8060072,47.2636111 30.820947,48.0376496 C30.8358867,48.8139316 30.9016217,49.5887179 30.9046096,50.365 C30.9524169,63.5505769 32.3507783,76.5955556 34.9286337,89.5208761 C36.5167301,97.4841239 38.1324651,105.438397 40.553453,113.202714 C42.973694,120.967778 46.0400795,128.482308 49.3970434,135.879423 C52.5321518,142.788932 55.8734289,149.603462 60.0625373,155.943846 C62.6934289,159.927714 65.5641036,163.753782 68.3503687,167.633697 C69.1787783,168.786902 70.0856217,169.883269 70.9566096,171.005064 M72.8016699,172.630171 C73.0309952,173.199295 72.8360313,173.820769 72.0614048,174.140107 C71.2621277,174.469915 70.6735012,174.013718 70.1468747,173.511902 C64.5063687,168.134765 57.9971157,163.856239 51.8949711,159.063932 C44.8038145,153.494594 37.6095735,148.055385 30.5781759,142.411261 C27.2764892,139.760833 24.1862,136.830705 21.6240313,133.407735 C18.7100313,129.515855 16.3517904,125.295662 14.2579831,120.922906 C11.2125133,114.561581 8.57415181,108.029744 6.28239277,101.361795 C3.57904337,93.4965171 1.52856145,85.4397863 0.361766265,77.2192735 C-0.203703614,73.2324145 0.0360795181,69.1109402 0.141404819,65.0567735 C0.223573494,61.898547 0.647862651,58.7492949 0.948151807,55.598547 C1.0415253,54.6166026 1.19316386,53.6369017 1.37841687,52.6676709 C1.51138072,51.9736538 1.98347711,51.6206624 2.66547711,51.3402137 C10.6462964,48.0541026 18.9699831,45.935406 27.348947,43.9969444 C27.8105855,43.8907479 28.2602723,43.736688 28.9041759,43.5497222 C28.9041759,41.6651068 28.8825133,39.761047 28.9131398,37.857735 C28.9288265,36.9049573 28.9773807,35.9417094 29.144706,35.0076282 C29.1955012,34.7219444 29.6675976,34.3921368 29.9962723,34.3233333 C30.1845133,34.2844444 30.5946096,34.6905342 30.6887301,34.9694872 C30.8366337,35.407735 30.8433566,35.9088034 30.8381277,36.381453 C30.818706,38.1748291 30.7634289,39.9667094 30.7402723,41.7600855 C30.7350434,42.161688 30.8082482,42.5647863 30.8605373,43.1309188 C32.3612361,42.9013248 33.7536217,42.6193803 35.1602,42.4862607 C38.9011157,42.1317735 42.6420313,41.6852991 46.3934048,41.5566667 C55.2198145,41.2545299 62.1974289,44.9751496 67.7004892,51.7410684 C70.9737904,55.7660684 73.3148506,60.3280342 75.4475012,65.0133974 C78.8149229,72.4135043 81.8566578,79.9385043 84.262706,87.7140385 C86.3953566,94.6078419 87.0258145,101.636261 86.2967542,108.801538 C86.2601518,109.158269 86.2429711,109.517244 86.2362482,109.876218 C86.2317663,110.111047 86.2631398,110.347372 86.5021759,110.627073 C86.9548506,108.734231 87.4426337,106.849615 87.8527301,104.947799 C88.9874048,99.6940598 90.1183446,94.4388248 91.1783205,89.1693803 C91.3598386,88.2652137 91.3232361,87.2645726 91.1544169,86.3514316 C88.8873084,74.0767521 86.5664169,61.811047 84.2836217,49.5386111 C82.9368024,42.298547 82.1240795,34.9919231 82.0546096,27.6277137 C82.0247301,24.530812 82.2951398,21.4211966 82.5864651,18.3332692 C82.9823687,14.14 85.072441,10.7334829 88.1208988,7.98508547 C89.7426096,6.52301282 91.6735735,5.37728632 93.561959,4.25175214 C94.4142723,3.74395299 94.9692843,3.24064103 95.0619108,2.24448718 C95.1059831,1.77333333 95.1717181,1.26179487 95.3980554,0.866175214 C95.5713566,0.563290598 96.0270193,0.223760684 96.3288024,0.247169883 C96.6395494,0.273867521 97.0488988,0.669487179 97.1743928,0.995555556 C97.3574048,1.46745726 97.3230434,2.02311966 97.3768265,2.5025 C99.4317904,2.33946581 101.377694,2.09566239 103.328827,2.05228632 C106.223405,1.98797009 108.869236,2.94448718 111.221501,4.56735043 C113.862104,6.3891453 115.057284,9.08070513 115.243284,12.220235 C115.509959,16.7343376 114.827959,21.1669231 113.899453,25.5621154 C111.687622,36.0351923 108.462128,46.2188462 105.228417,56.4092308 C103.074104,63.1960897 100.520899,69.8086966 97.7585373,76.3607265 C96.6963205,78.8795299 96.1248747,81.6010043 95.2015976,84.1841239 C92.2360554,92.4786752 91.2754289,101.241389 89.161453,109.734124 C89.1106578,109.937543 89.1547301,110.164893 89.1547301,110.77515 C90.2841759,107.717885 91.1738386,104.992671 92.2898386,102.363932 C93.7823205,98.8489744 95.4495976,95.4088034 97.0444169,91.9379701 C97.1437663,91.7210897 97.3305133,91.5236538 97.3641277,91.3000427 C97.9213807,87.6332692 100.057766,84.6732265 101.942417,81.6825214 C111.595742,66.3677778 121.243839,51.0440598 131.890658,36.3874359 C133.430947,34.2679915 135.149766,32.2644658 136.915646,30.3252564 C138.678537,28.3890385 140.966561,27.1999359 143.431622,26.3645726 C146.285863,25.3975855 148.904802,25.9943803 151.172658,27.8386111 C152.785405,29.1511111 154.2002,30.7089103 155.690441,32.1709829 C156.063188,32.5359402 156.384393,32.9539957 156.82661,33.4595513 C157.710296,32.8021795 158.518537,32.2076282 159.318561,31.6041026 C159.817549,31.2271795 160.333718,30.8517521 160.868561,31.4964103 C161.354104,32.0819872 161.077718,32.6496154 160.630272,33.089359 C159.866851,33.8394658 159.049646,34.5349786 158.140561,35.3561325 C158.566345,35.9626496 158.960007,36.5444872 159.375333,37.1098718 C161.320489,39.755812 163.32914,42.3449145 164.650561,45.4051709 C165.813622,48.0997222 165.325839,50.3545299 163.39114,52.4769658 C160.093935,56.0936325 156.113983,58.8405342 152.072778,61.5051709 C144.682827,66.3767521 136.861116,70.4914957 129.008031,74.5449145 C119.667694,79.3648932 110.378899,84.2686325 101.60926,90.1027137 C100.313236,90.9642521 99.3668024,91.8990812 98.6750916,93.3005769 C95.919453,98.8878632 93.687453,104.671838 91.7938386,110.600897 C88.9597663,119.474295 86.0778867,128.332735 83.2184169,137.198654 C83.1325133,137.465641 83.0712602,137.741603 83.2512843,138.124509 C84.3112602,136.169594 85.3555494,134.207201 86.4342,132.263504 C91.8946819,122.423868 97.9258627,112.956667 105.001333,104.191709 C111.90873,95.6361538 119.597477,87.8935256 129.010272,82.0736538 C131.588128,80.4792094 134.331067,79.1098718 137.109863,77.8930983 C142.364176,75.5934188 147.681983,75.8925641 152.974393,77.9267521 C159.488875,80.4291026 164.850754,84.4967308 169.285622,89.843953 C169.966128,90.664359 170.666055,91.468312 171.448152,92.3874359 C172.380393,91.790641 173.249887,91.2843376 174.060369,90.697265 C174.591477,90.3121154 175.124827,90.2522863 175.464706,90.7555983 C175.669381,91.0592308 175.708224,91.7487607 175.501308,92.0075214 C174.80661,92.8780342 173.966995,93.6326282 173.051935,94.5652137 C173.851959,95.7797436 174.731911,97.1027137 175.599164,98.4339103 C178.899357,103.500684 181.948561,108.712543 183.960947,114.437436 C184.687019,116.503782 185.109814,118.703248 185.435501,120.878034 C186.166802,125.760833 184.043116,129.601859 180.673453,132.878248 C176.948971,136.498654 172.561911,139.170769 167.938802,141.447265 C160.162658,145.275577 152.059333,148.317137 143.951525,151.353462 C134.154031,155.022479 124.009935,157.548761 114.038393,160.642671 C109.136658,162.163077 104.271525,163.812115 99.3399108,165.227073 C94.6958867,166.560513 89.9644651,167.586581 85.3114771,168.890855 C82.0419108,169.807735 78.8455494,170.98188 75.6036217,172.001966 C74.7281518,172.277179 73.8071157,172.408803 72.8016699,172.630171" id="Fill-9"/></g></g></g></g></g></g></svg>