<svg width="382" height="127" viewBox="0 0 382 127" fill="none" xmlns="http://www.w3.org/2000/svg">
    <path d="M340.671 38.134C353.711 38.134 363.858 41.9929 371.115 49.7105C378.372 57.4281 382 68.0398 382 81.5456C382 83.1345 381.943 84.6383 381.83 86.057C381.724 87.387 381.667 88.1933 381.661 88.4759L381.66 88.5255H321.793C321.906 91.2493 322.558 93.7746 323.749 96.1012C324.939 98.4278 326.47 100.442 328.341 102.145C330.212 103.847 332.394 105.181 334.889 106.145C337.383 107.11 340.048 107.592 342.882 107.592C345.021 107.592 346.972 107.401 348.736 107.017L358.65 124.19C358.027 124.428 357.391 124.656 356.744 124.872C352.492 126.291 347.815 127 342.712 127C336.93 127 331.431 126.007 326.215 124.021C320.999 122.035 316.407 119.112 312.439 115.253C308.47 111.395 305.324 106.685 302.999 101.123C300.675 95.5621 299.513 89.2632 299.513 82.2265C299.513 75.5304 300.647 69.4585 302.914 64.0107C305.182 58.563 308.215 53.9381 312.013 50.1361C315.812 46.334 320.205 43.3832 325.194 41.2835C330.183 39.1839 335.342 38.134 340.671 38.134ZM95.587 38.134C102.163 38.134 107.776 39.0136 112.425 40.7728C117.073 42.5319 120.843 44.8586 123.735 47.7527C126.626 50.6468 128.724 54.0232 130.028 57.882C131.255 61.5139 131.904 65.2965 131.977 69.2299L131.983 69.9692V111.168L131.989 112.025C132.014 114.043 132.125 116.168 132.324 118.403C132.535 120.786 132.747 122.7 132.959 124.144L133.004 124.446H112.254L112.203 124.177C111.997 123.069 111.816 121.598 111.659 119.765C111.489 117.779 111.404 115.991 111.404 114.402C109.25 117.693 106.16 120.588 102.135 123.084C98.1098 125.581 92.9791 126.83 86.743 126.83C82.321 126.83 78.3242 126.12 74.7526 124.702C71.181 123.283 68.1479 121.41 65.6535 119.084C63.159 116.757 61.2598 114.09 59.9559 111.082C58.652 108.075 58 104.925 58 101.634C58 97.8887 58.652 94.569 59.9559 91.6749C61.2598 88.7808 63.0456 86.2556 65.3133 84.0992C67.581 81.9428 70.2172 80.2404 73.2219 78.992C75.9954 77.8396 78.9864 76.9773 82.1947 76.4051L83.0013 76.2681L103.581 73.2038L103.932 73.1499C106.124 72.7914 107.651 72.1 108.513 71.0757C109.42 69.9975 109.873 68.7207 109.873 67.2453C109.873 64.2945 108.711 61.7408 106.387 59.5844C104.062 57.4281 100.519 56.3499 95.757 56.3499C92.0839 56.3499 89.0408 57.0881 86.6276 58.5647L75.9413 42.7204C77.3999 41.9428 78.9595 41.2369 80.6202 40.6025C84.9288 38.9569 89.9177 38.134 95.587 38.134ZM236.445 0C238.826 0 241.066 0.170241 243.163 0.510724C245.13 0.829926 246.573 1.199 247.493 1.61796L247.67 1.70241V20.7694C247.103 20.5424 246.253 20.3438 245.119 20.1736C243.985 20.0034 242.455 19.9182 240.527 19.9182C239.28 19.9182 237.976 20.0885 236.615 20.429C235.255 20.7694 233.979 21.3653 232.789 22.2165C231.598 23.0677 230.634 24.231 229.897 25.7064C229.206 27.0896 228.839 28.8719 228.796 31.0531L228.792 31.4946V40.6877H262.807V1.19169H285.427V94.4464H262.807V60.0952H228.792V124.446H206.171V60.0952H173.857V124.446H151.067V60.0952H137.12V40.6877H151.067V31.1542C151.067 26.3874 151.775 22.103 153.193 18.3009C154.61 14.4989 156.651 11.2359 159.315 8.51206C161.98 5.7882 165.183 3.68856 168.925 2.21314C172.666 0.737712 176.862 0 181.51 0C183.891 0 186.131 0.170241 188.228 0.510724C190.195 0.829926 191.638 1.199 192.558 1.61796L192.735 1.70241V20.7694C192.169 20.5424 191.318 20.3438 190.184 20.1736C189.05 20.0034 187.52 19.9182 185.592 19.9182C184.345 19.9182 183.041 20.0885 181.68 20.429C180.32 20.7694 179.044 21.3653 177.854 22.2165C176.663 23.0677 175.699 24.231 174.962 25.7064C174.271 27.0896 173.904 28.8719 173.861 31.0531L173.857 31.4946V40.6877H206.171V31.1542C206.171 21.6206 208.921 14.0449 214.42 8.42694C219.919 2.80898 227.261 0 236.445 0ZM109.873 86.2422L90.9949 89.7172C88.0469 90.1711 85.5808 91.221 83.5966 92.8666C81.6123 94.5123 80.6202 96.9808 80.6202 100.272C80.6202 102.769 81.5273 105.01 83.3414 106.997C85.1556 108.983 87.8768 109.976 91.5051 109.976C93.8862 109.976 96.1822 109.664 98.3932 109.04C100.604 108.415 102.56 107.337 104.261 105.805C105.962 104.273 107.322 102.287 108.343 99.8465C109.312 97.5284 109.821 94.6213 109.87 91.1253L109.873 90.5684V86.2422ZM341.012 56.5201C338.064 56.5201 335.456 57.0308 333.188 58.0523C330.92 59.0737 328.993 60.3789 327.405 61.9678C325.818 63.5567 324.599 65.3159 323.749 67.2453C322.969 69.0139 322.499 70.7825 322.339 72.5512L322.303 73.0335H359.72C359.607 70.9906 359.181 68.9761 358.444 66.9899C357.707 65.0038 356.574 63.2446 355.043 61.7125C353.512 60.1803 351.585 58.9319 349.26 57.9672C346.936 57.0025 344.186 56.5201 341.012 56.5201Z" fill="#024C64"/>
    <path d="M37.4703 39C53.7661 39 66.3226 47.4064 73.6386 62.7945L74 63.5697L52.8138 73.3683C49.2595 65.5933 44.6709 62.4545 37.4703 62.4545C28.3294 62.4545 23.5061 68.071 23.3239 77.6523L23.3186 78.2204V125H0V78.2204C0 56.1942 14.228 39 37.4703 39Z" fill="#024C64"/>
    <path fill-rule="evenodd" clip-rule="evenodd" d="M293.008 125C295.368 125 297.587 124.834 299.666 124.503C301.746 124.172 304.822 123.29 305.721 122.848C303.13 118.088 301.359 114.836 300.407 113.09C297.861 108.42 296.409 105.769 296.05 105.137C294.718 105.302 293.761 105.302 293.176 105.137C292.3 104.889 290.563 104.226 289.383 103.399C288.203 102.571 287.248 101.44 286.517 100.005C285.787 98.5709 285.422 96.6949 285.422 94.3776L285.421 87.001H262.804V94.7086C262.804 103.789 265.608 111.043 270.846 116.47L271.177 116.806C276.627 122.269 283.904 125 293.008 125Z" fill="#024C64"/>
    <path d="M366 118C369.866 118 373 114.866 373 111C373 107.134 369.866 104 366 104C362.134 104 359 107.134 359 111C359 114.866 362.134 118 366 118Z" fill="#1EC95B"/>
</svg>
