<?xml version="1.0" standalone="no"?>
<!DOCTYPE svg PUBLIC "-//W3C//DTD SVG 20010904//EN"
 "http://www.w3.org/TR/2001/REC-SVG-20010904/DTD/svg10.dtd">
<svg version="1.0" xmlns="http://www.w3.org/2000/svg"
 width="700.000000pt" height="700.000000pt" viewBox="0 0 700.000000 700.000000"
 preserveAspectRatio="xMidYMid meet">
<metadata>
Created by potrace 1.14, written by Peter Selinger 2001-2017
</metadata>
<g transform="translate(0.000000,700.000000) scale(0.100000,-0.100000)"
fill="#000000" stroke="none">
<path d="M3290 6362 c-113 -65 -240 -139 -283 -164 l-79 -45 76 -47 c42 -25
79 -46 82 -46 2 0 23 -12 45 -26 23 -14 61 -36 85 -50 23 -13 141 -81 261
-151 120 -69 234 -135 253 -146 19 -10 150 -86 290 -167 197 -114 781 -451
1075 -620 17 -10 86 -50 155 -90 69 -40 141 -81 160 -92 19 -11 50 -29 67 -40
l33 -20 2 -1155 3 -1155 274 -159 c150 -88 278 -159 285 -159 8 0 11 387 11
1479 0 814 -2 1481 -5 1484 -11 8 -111 67 -115 67 -2 0 -34 18 -72 41 -37 22
-75 45 -83 49 -8 5 -50 29 -94 54 -43 26 -83 46 -87 46 -5 0 -9 5 -9 10 0 6
-4 10 -10 10 -5 0 -73 37 -152 83 -140 82 -579 335 -648 375 -19 10 -75 43
-125 72 -49 29 -110 64 -135 78 -25 14 -74 42 -109 64 -34 21 -65 38 -68 38
-3 0 -38 20 -77 45 -40 25 -75 45 -78 45 -3 0 -47 25 -97 55 -51 30 -94 55
-96 55 -2 0 -34 18 -72 41 -37 22 -75 45 -83 49 -8 5 -51 30 -95 56 -44 25
-105 60 -135 77 -30 17 -72 41 -92 54 -21 13 -41 23 -45 23 -5 0 -100 -53
-213 -118z"/>
<path d="M2165 5713 c-33 -19 -78 -45 -100 -58 -22 -12 -80 -46 -130 -75 -49
-29 -108 -63 -130 -75 -22 -13 -94 -54 -160 -92 -157 -91 -427 -247 -590 -341
-71 -41 -132 -77 -135 -79 -6 -6 -6 -2973 0 -2983 4 -6 233 -140 444 -260 17
-9 177 -102 356 -205 627 -363 1005 -582 1050 -607 37 -21 238 -137 467 -270
185 -107 265 -149 276 -144 6 3 35 19 62 36 28 16 56 33 64 37 8 3 76 42 150
86 75 43 154 89 176 102 22 12 261 150 530 305 270 156 504 291 522 301 17 10
50 29 72 43 22 15 43 26 45 26 7 0 189 109 198 119 6 5 -172 113 -401 242 -25
14 -75 43 -111 64 -36 20 -78 45 -95 55 -16 9 -91 52 -165 95 -319 185 -639
369 -690 398 -30 17 -82 47 -115 67 -33 20 -67 39 -75 43 -8 4 -36 20 -61 35
-25 15 -138 80 -250 145 -112 65 -211 122 -219 127 -19 11 -316 183 -362 208
-18 11 -56 33 -85 50 -32 19 -55 27 -59 21 -3 -6 -6 -153 -6 -326 l-1 -316 24
-18 c13 -10 35 -24 49 -31 14 -7 61 -34 105 -59 44 -26 96 -56 115 -66 19 -11
107 -62 195 -113 88 -51 178 -103 200 -115 22 -13 118 -68 214 -124 95 -56
175 -101 177 -101 3 0 23 -12 46 -26 23 -15 63 -38 88 -53 301 -170 340 -195
328 -207 -7 -6 -87 -54 -178 -106 -91 -52 -240 -138 -332 -192 l-167 -96 -203
116 c-300 173 -351 203 -368 214 -8 5 -28 17 -45 26 -16 9 -248 143 -515 297
-267 154 -499 287 -515 297 -17 9 -87 50 -155 90 -69 40 -143 82 -165 94 l-40
21 0 1164 0 1163 190 110 c105 61 205 119 223 129 193 111 299 173 307 179 6
5 54 -16 115 -52 231 -133 557 -321 588 -339 17 -10 47 -27 65 -37 89 -51 442
-255 510 -296 43 -25 80 -46 82 -46 2 0 49 -27 104 -60 56 -33 106 -60 111
-60 6 0 10 -4 10 -10 0 -5 4 -10 9 -10 6 0 123 -66 262 -146 139 -81 260 -149
271 -152 11 -2 18 1 18 9 4 118 1 630 -4 637 -4 6 -30 24 -59 40 -28 15 -68
38 -88 49 -19 11 -170 98 -335 194 -164 95 -369 213 -454 262 -85 49 -159 92
-165 97 -5 4 -35 21 -65 37 -30 16 -129 73 -220 125 -91 53 -181 105 -200 115
-19 11 -57 34 -85 50 -100 60 -453 263 -457 262 -1 0 -30 -17 -63 -36z"/>
<path d="M2637 4017 c1 -171 2 -321 2 -332 1 -20 16 -30 166 -115 22 -13 54
-31 70 -41 17 -10 41 -24 55 -32 14 -7 133 -76 265 -152 559 -323 673 -389
735 -425 36 -21 147 -85 248 -143 l182 -105 1 61 c2 190 0 599 -3 602 -5 4
-151 90 -168 98 -8 4 -24 13 -35 20 -45 28 -524 304 -1145 662 -69 39 -180
104 -248 143 -68 40 -124 72 -125 72 -1 0 -1 -141 0 -313z"/>
</g>
</svg>
