<svg viewBox="171.97081218274104 338.98750000000007 194.27664974619302 187.525" xmlns="http://www.w3.org/2000/svg" overflow="visible" xmlns:xlink="http://www.w3.org/1999/xlink" width="194.27664974619302px" height="187.525px"><g id="Master/Character/Torso" stroke="none" stroke-width="1" fill="none" fill-rule="evenodd"><g id="Torso" transform="translate(139.000000, 391.000000) scale(1 1)"><g id="Torso/Ok Hand" stroke="none" stroke-width="1" fill="none" fill-rule="evenodd"><path d="M166.3889,128.680696 C163.3059,124.1452 160.531234,121.7152 156.454234,121.5952 C150.305234,121.4132 143.884125,121.7452 137.733125,121.5952 C132.316125,121.4622 122.254752,118.32795 117.293752,116.22495 C116.910833,116.062675 117.293752,126.985994 117.293752,128.680696 C117.293752,128.8832 109.5299,129.1832 107.7039,129.2422 C106.6659,129.2762 105.6259,129.2542 104.5869,129.2312 C99.4759,129.1162 94.3659,128.9362 89.2529,128.8832 C81.4189,128.8012 73.5849,128.7732 65.7509,128.7872 C62.9509,128.7922 60.7049,128.0282 58.3249,126.2552 C52.9089,122.2232 50.7599,116.7922 49.9469,110.4722 C49.2089,104.7442 50.7139,99.3782 52.5229,94.0662 C54.4179,88.5012 57.6809,83.6152 60.4769,78.5052 C63.7359,72.5482 67.3409,66.7772 70.5179,60.7772 C72.7549,56.5502 74.5079,52.0682 76.5189,47.7192 C77.1859,46.2772 77.7829,44.7282 78.7839,43.5402 C79.6059,42.5632 80.9159,41.9082 82.1269,41.3802 C82.9589,41.0182 83.8049,40.8492 84.0899,39.8692 C84.4899,38.4902 85.5399,38.0802 86.8199,37.9412 C91.1859,37.4712 95.5519,37.0092 99.9129,36.4962 C103.0039,36.1322 106.1009,35.7732 109.1659,35.2462 C110.7219,34.9802 111.9069,35.2102 113.0889,36.3172 C116.9739,39.9552 121.4369,42.4942 126.8629,42.9552 C132.8659,43.4652 137.9959,41.9872 141.1649,36.3672 C141.9729,34.9352 143.0329,34.3172 144.6779,34.5092 C149.4359,35.0652 154.339189,35.895582 158.744149,37.3482 C166.3889,39.8692 172.4689,49.0382 173.7969,51.7572 C174.1469,52.4732 176.97025,56.8635364 177.41125,57.5045364 C178.09052,58.4897418 172.298853,65.2994918 169.152661,72.8610763 C166.66242,78.846142 166.943246,91.5896354 167.186456,98.5307818 C168.068159,123.694384 166.406381,128.706413 166.3889,128.680696 Z" id="Fill-4" fill="#FFF"/><path d="M207.1406,60.5959 C204.4846,66.9589 202.5886,73.5029 201.6666,80.3759 C200.8236,86.6459 199.0416,92.7199 196.1176,98.3789 C195.1326,100.2839 193.8986,102.0669 192.7076,103.8589 C189.8026,108.2239 184.2066,109.2279 179.8826,107.8249 C175.2186,106.3109 171.4816,103.2979 168.2876,99.6239 C167.3626,98.5589 166.9706,97.2499 167.0886,95.8349 C167.3536,92.6589 167.6396,89.4849 167.9346,86.3119 C168.2516,82.8999 168.5106,79.4799 168.9346,76.0809 C169.3976,72.3719 170.6056,68.8999 173.1566,66.0849 C175.6436,63.3389 177.0476,60.1109 178.0466,56.6059 C178.9876,53.3099 180.1816,50.0869 181.1656,46.8019 C182.4366,42.5519 186.171772,38.0208892 189.980772,36.7158892 C190.559772,36.5168892 192.0676,37.2726306 192.7076,37.5086306 C197.2746,39.1916306 200.689437,40.2498023 205.277437,41.8718023 C206.800437,42.4108023 207.8166,46.1999 208.1426,47.7019 C208.4956,49.3259 208.6546,50.9919 208.8986,52.6389 C208.8186,55.4349 208.1986,58.0609 207.1406,60.5959 Z" id="Fill-6" fill="#FFF"/><path d="M209.8987,36.7158892 L208.8986,43.1490784 L190.893871,36.7158892 C191.580228,31.3017314 193.090828,29.157335 195.425671,30.2827 C197.760513,31.408065 202.584856,33.5524614 209.8987,36.7158892 Z" id="Path-122" fill="#FFF"/><path d="M141.652509,32.7387559 C141.343068,32.7552892 141.058776,32.914346 140.882785,33.1694033 C137.571781,37.9679216 133.568943,40.5579027 128.830049,41.0113635 C124.122981,41.461779 118.733979,38.8301297 112.68424,33.0163061 C112.469424,32.8098672 112.173748,32.7099625 111.877745,32.7438036 L101.936489,33.8926238 C96.5856355,34.519195 92.422438,35.0234241 89.4462705,35.4053951 L89.1087772,35.4502689 C84.8800372,36.0325534 82.4083611,37.1444761 81.9650486,39.0260282 L81.952,39.09 L81.6576098,39.1779016 C80.0330494,39.6807177 78.7914383,40.4430737 77.5871927,41.6980283 C75.8811924,43.4758656 74.2841822,46.1275651 71.2238887,52.137258 L67.0279409,60.5188211 C66.1030685,62.3731003 65.2654198,64.0523354 64.8771876,64.8269321 L63.2052742,68.151599 C60.9888995,72.5435176 58.8038116,76.8095341 56.4089797,81.405415 L55.7874874,82.6156031 C47.9758503,98.055237 46.4730549,109.989945 49.8793795,118.757623 C52.215643,124.771027 56.7644754,128.733602 60.8171613,130.121069 L61.0990678,130.213684 C62.9085002,130.783002 70.6873878,130.939471 83.7259643,130.815308 L89.4611831,130.747687 C92.7231292,130.702749 96.1409836,130.645617 99.959686,130.574073 L115.666875,130.272735 C116.243226,130.264813 116.687516,130.260636 117.026271,130.259904 L163.297425,130.259787 C165.664686,130.259741 167.27674,129.707779 168.045211,128.446985 L168.066577,128.409045 C168.686438,127.222819 168.745565,119.506905 168.346055,103.595784 L168.306,102.046 L168.483888,102.237202 C170.937958,104.817777 175.304815,107.196757 181.554783,109.44183 C188.315653,111.870426 194.173967,107.712784 198.728966,99.2422468 C201.942729,93.2658886 204.327146,85.0554227 204.431533,80.9804615 L204.4351,80.7091063 C204.4351,80.47102 204.439883,80.231995 204.449418,79.9917157 C204.546995,77.5326394 205.123355,74.9803608 206.284959,71.5829901 L206.591439,70.7092904 C207.431265,68.3927287 210.156157,61.3438434 210.837782,59.4797438 C213.250334,52.8819263 212.73673,47.1991058 209.254071,42.5495732 C209.141347,42.3990814 208.988479,42.283419 208.813008,42.2158593 L191.253179,35.4549808 C190.932554,35.3315339 190.571005,35.3813249 190.295684,35.5868433 L190.052344,35.7611343 C189.261057,36.3109548 187.509999,37.407105 184.834641,39.0247569 L184.649943,39.1406782 C181.830079,40.975731 179.442552,45.5367116 177.370411,52.8612208 L177.16,53.615 L176.17226,51.4074916 C173.540317,45.5811841 171.853392,42.280694 171.008783,41.3390905 C170.603216,40.8869487 170.167688,40.4977402 169.640178,40.1143275 L169.358589,39.9157575 C168.776739,39.5175092 168.066974,39.1026545 166.943355,38.491988 L163.174954,36.4714931 C162.583205,36.1519266 162.01185,35.8408008 161.412856,35.5116198 C157.150227,33.1690669 150.572464,32.2621682 141.652509,32.7387559 Z M160.449616,37.2643802 L161.633292,37.91106 L166.236915,40.3848836 C167.319747,40.9782204 167.952219,41.3599392 168.464298,41.7321366 C168.880314,42.0345114 169.21071,42.3297694 169.519968,42.6745425 C170.35779,43.6085795 172.749808,48.5128153 176.495316,57.0610312 C176.879586,57.9380354 178.157924,57.8255839 178.383183,56.8949612 L178.634193,55.8799766 C180.780481,47.3869708 183.248597,42.3209342 185.869476,40.7362228 L188.098154,39.3780822 C189.045828,38.7948242 189.809563,38.3152683 190.392381,37.9372995 L191.033,37.513 L207.82,43.977 L207.653329,43.7485836 C210.702864,47.8198727 211.152527,52.7952155 208.959418,58.7929031 L208.632154,59.6716205 C207.622777,62.3543292 205.310091,68.3511599 204.637727,70.2316754 L204.576068,70.4057307 C203.234726,74.2347478 202.562699,77.0972076 202.45099,79.9124172 L202.439078,80.3114865 L202.4351,80.7091063 C202.4351,84.3258263 200.106667,92.4573831 196.967498,98.2950242 C192.823566,106.001136 187.805877,109.562187 182.230911,107.559584 C173.337418,104.364921 168.688858,100.991903 168.179702,97.6812051 C167.989255,96.4428554 166.156335,96.6090433 166.191721,97.8614522 L166.294019,101.619255 C166.490111,109.126597 166.591201,115.029391 166.597327,119.32583 L166.593041,121.125417 C166.567638,124.895537 166.441498,127.235339 166.337434,127.406072 C166.022435,127.922876 165.038557,128.259753 163.297406,128.259787 L116.522934,128.262762 L96.2312837,128.641188 C94.1455397,128.67743 92.1684978,128.70902 90.251613,128.7364 L85.5348399,128.796105 C72.0641688,128.942387 63.5120802,128.808393 61.7655607,128.325396 L61.6993341,128.305889 C58.1269923,127.181892 53.9005619,123.585166 51.7436277,118.033345 C48.4817588,109.637488 50.0758945,97.8871223 58.1826269,82.3296311 L59.9462597,78.9315341 C61.9666678,75.0227356 63.8723918,71.2796097 65.8250036,67.3966573 L72.3775885,54.2853453 L73.3999472,52.2745303 C76.1088802,46.9965397 77.5757702,44.5985232 79.0302607,43.0827863 C80.1910044,41.8731654 81.3403134,41.2623556 83.1254959,40.8554874 C83.5779187,40.7523738 83.8947711,40.354029 83.9031579,39.8997732 L83.8987282,39.7851829 C83.8114825,38.8739315 85.4951975,37.9681161 89.3639046,37.4339875 L93.6877823,36.8909725 C95.7477394,36.6389282 98.1409476,36.3525431 100.867314,36.0318297 L111.64,34.784 L112.083041,35.1984316 C118.208529,40.866487 123.848132,43.4972146 129.020557,43.0022695 L129.411298,42.9604357 C134.341609,42.3760869 138.546702,39.7229859 141.99137,35.0584696 L142.243,34.711 L142.941403,34.6804846 C150.915776,34.3601736 156.759665,35.236546 160.449616,37.2643802 Z" id="Path-108" fill="#000" fill-rule="nonzero"/><path d="M176.473996,56.3110559 L178.348504,57.0083502 C177.173461,60.1671718 175.23929,63.7746307 172.546995,67.8388317 L172.157225,68.4225398 C169.494607,72.3788814 168.134975,82.0044292 168.187985,97.1453517 L168.191303,97.8269889 L166.191342,97.839429 C166.092198,81.900337 167.489533,71.7760932 170.49799,67.3058749 C173.190291,63.3054278 175.129545,59.7754761 176.316764,56.7241749 L176.473996,56.3110559 Z" id="Path-109" fill="#000" fill-rule="nonzero"/><path d="M163.171033,76.2544756 C163.718889,76.1846714 164.219601,76.5722087 164.289405,77.1200644 L164.63489,79.7848846 C165.920632,89.5258141 167.095685,96.429493 168.153912,100.475471 C168.293662,101.009782 167.973806,101.556216 167.439495,101.695965 C166.905183,101.835715 166.358749,101.515859 166.219,100.981548 L166.073898,100.412361 C164.932484,95.822581 163.678664,88.1505101 162.305445,77.3728476 C162.23564,76.824992 162.623178,76.3242798 163.171033,76.2544756 Z" id="Path-110" fill="#000" fill-rule="nonzero"/><path d="M77.2016888,96.2690413 C77.346845,95.7361735 77.8964921,95.4218712 78.4293599,95.5670274 C83.5294298,96.9563158 88.0605692,97.6804338 92.0191712,97.7433922 L92.5807905,97.7478891 C97.5429376,97.7478891 101.42408,98.1924468 104.819766,99.5700496 C109.725444,101.560244 112.367176,105.26181 111.93239,110.884681 C111.348661,118.433752 111.348661,124.520843 111.927587,129.135242 C111.996338,129.683231 111.60784,130.183197 111.059851,130.251948 C110.511862,130.3207 110.011895,129.932201 109.943144,129.384212 C109.345076,124.61724 109.345076,118.402904 109.938342,110.730493 C110.301535,106.033502 108.210898,103.104125 104.067899,101.423343 C101.10375,100.220812 97.6075768,99.7843905 93.1655794,99.7501098 L92.5807905,99.7478891 C88.2984107,99.7478891 83.4074305,98.9959596 77.9037026,97.4967125 C77.3708348,97.3515562 77.0565325,96.8019091 77.2016888,96.2690413 Z" id="Path-111" fill="#000" fill-rule="nonzero"/><path d="M86.5360225,87.9906499 C87.086558,88.0345713 87.49725,88.5164738 87.4533286,89.0670093 C87.1287418,93.1355657 86.5270249,96.1831089 85.6255293,98.2353847 C85.4034137,98.7410359 84.8134422,98.970887 84.307791,98.7487714 C83.8021398,98.5266559 83.5722888,97.9366844 83.7944043,97.4310332 C84.5886526,95.6229086 85.1512884,92.7733009 85.4596631,88.907956 C85.5004472,88.3967444 85.9188784,88.0061123 86.4192357,87.9880818 L86.5360225,87.9906499 Z" id="Path-112" fill="#000" fill-rule="nonzero"/><path d="M110.87566,108.376198 C115.572636,107.891629 118.176476,108.449449 118.289883,110.654671 L118.29303,111.150407 L118.131215,129.269656 L116.131314,129.249798 L116.293029,111.148519 L116.293752,110.807587 C116.293752,110.663076 116.14022,110.526619 115.493067,110.379402 C114.626518,110.182276 113.269961,110.160773 111.450878,110.329379 L111.080903,110.365639 L110.87566,108.376198 Z" id="Path-113" fill="#000" fill-rule="nonzero"/><path d="M116.364946,115.854383 C116.569604,115.341418 117.151353,115.091485 117.664318,115.296144 C125.235529,118.316836 133.811669,120.394396 143.393855,121.526158 L148.811633,122.176814 C150.034824,122.329305 150.94098,122.449916 151.901214,122.585852 L152.703253,122.702521 C160.676875,123.895593 163.179563,125.324859 163.179563,129.259727 C163.179563,129.812012 162.731847,130.259727 162.179563,130.259727 C161.627278,130.259727 161.179563,129.812012 161.179563,129.259727 C161.179563,126.721534 159.426047,125.721596 152.382046,124.676367 L150.554251,124.418613 C148.928146,124.199341 147.05319,123.972267 143.159263,123.512352 C133.409968,122.360853 124.664237,120.242209 116.923185,117.153756 C116.41022,116.949097 116.160288,116.367348 116.364946,115.854383 Z" id="Path-114" fill="#000" fill-rule="nonzero"/><path d="M137.632471,120.832521 L138.838107,120.714674 C158.324081,118.878132 167.706438,121.372979 166.222943,128.874693 C166.115801,129.416486 165.589736,129.76884 165.047943,129.661698 C164.506151,129.554556 164.153797,129.028491 164.260938,128.486699 C165.339855,123.030848 156.800756,120.903508 137.83378,122.822364 C137.2843,122.877954 136.793794,122.477577 136.738204,121.928097 C136.682614,121.378617 137.082991,120.888111 137.632471,120.832521 Z" id="Path-115" fill="#000" fill-rule="nonzero"/><path d="M193.349677,29.2826999 L193.515485,29.2897988 C195.244963,29.4267264 200.654242,31.5462777 210.302196,35.8009077 C210.702953,35.9776369 210.937781,36.3916177 210.893478,36.818478 L210.87439,36.9350452 L209.42939,43.3682344 C209.308353,43.907093 208.773403,44.2458048 208.234544,44.1247683 C207.734175,44.0123772 207.406382,43.5430908 207.459016,43.0451829 L207.47801,42.9299224 L208.743,37.299 L205.916151,36.0678804 C198.897062,33.0359021 194.630012,31.4107054 193.473051,31.2899616 L193.349167,31.2826999 C193.184918,31.2826581 192.95561,31.5020536 192.682166,32.1819244 C192.317609,33.0883337 192.04764,34.5249559 191.890624,36.4685252 C191.846151,37.0190164 191.363837,37.4292254 190.813346,37.3847526 C190.262855,37.3402798 189.852646,36.8579661 189.897119,36.3074748 L189.957438,35.6341092 C190.36902,31.4729603 191.350135,29.2821905 193.349677,29.2826999 Z" id="Path-116" fill="#000" fill-rule="nonzero"/><path d="M203.4351,-7.110901 C206.152329,-7.110901 209.392872,0.164275374 208.357693,4.85290265 C207.867631,7.07254125 207.442788,9.16775207 207.083148,11.1383744 L206.943,11.922 L207.207018,11.8311845 C218.111603,8.11831343 223.782735,9.56363351 223.148007,16.5300931 L223.127,16.74 L223.152456,16.7653803 C225.191735,18.8509379 225.635958,21.0761449 224.383197,23.2046262 L224.248,23.422 L224.343591,23.5855464 C226.21807,26.9039057 225.900818,29.8487008 223.332477,32.131858 L223.135629,32.3018497 C220.440874,34.5633444 215.899475,36.2357245 209.491316,37.3726241 C208.947523,37.4691008 208.428482,37.1064793 208.332005,36.5626865 C208.235528,36.0188936 208.59815,35.4998526 209.141943,35.4033759 C215.236043,34.3221948 219.47875,32.759809 221.849945,30.7698523 C223.966869,28.9932858 224.113354,26.8399463 222.210394,23.9264077 C221.974035,23.5645284 221.996928,23.0917503 222.267145,22.7544002 C223.563291,21.1362382 223.329351,19.6320899 221.394138,17.8449688 C221.152157,17.6215051 221.035735,17.2932126 221.082866,16.9672223 C221.922255,11.1613824 217.363955,10.1421146 206.019597,14.3793022 C205.300363,14.6479404 204.559224,14.0394267 204.682723,13.2816592 C205.122935,10.5805821 205.696955,7.62742424 206.404727,4.42171703 C206.833014,2.48187936 206.437991,0.0849267968 205.454377,-2.12333377 C205.036905,-3.06057963 204.541119,-3.88793335 204.062907,-4.46775635 C203.933,-4.62526633 203.812097,-4.75326752 203.711722,-4.85239309 L203.61058,-4.9482295 C203.507506,-4.76829376 203.391067,-4.5260588 203.266361,-4.22773938 C202.947773,-3.46561654 202.593385,-2.38643624 202.203593,-1.01019027 L201.890584,0.129683391 C201.647345,1.04087183 201.392232,2.0525887 201.114872,3.19845455 L200.600997,5.37365051 C200.241487,6.91214771 199.745927,9.03848211 199.463225,10.2241055 L198.944668,12.3675247 C198.080518,16.0288209 196.788586,22.070051 195.07089,30.4832404 C194.96041,31.0243622 194.432183,31.3734669 193.891062,31.2629877 C193.34994,31.1525084 193.000835,30.6242814 193.111314,30.0831596 L194.070918,25.4159166 C195.323394,19.3717027 196.299666,14.8667892 197.000785,11.897018 L197.635092,9.26608109 C198.086472,7.35760953 198.859606,4.02496754 199.049671,3.23179236 L199.29052,2.23685309 C199.565373,1.11383887 199.81978,0.119589204 200.064634,-0.781116319 L200.169018,-1.16150846 C201.347059,-5.41339856 202.05666,-7.110901 203.4351,-7.110901 Z" id="Path-117" fill="#000" fill-rule="nonzero"/><path d="M206.491962,12.7110736 C206.73174,12.2135548 207.329437,12.0046145 207.826956,12.2443924 C208.324475,12.4841703 208.533415,13.0818674 208.293638,13.5793862 C207.060329,16.1383964 207.256857,17.2198103 208.623134,17.5723156 C209.274518,17.7403752 209.577494,18.4907275 209.225428,19.0639586 C207.764823,21.4421046 207.983775,22.5905044 209.788838,23.242549 C210.274974,23.4181565 210.547174,23.9353053 210.41672,24.4354535 C209.834103,26.6691514 210.280097,27.6769884 211.788375,28.0080482 C213.710849,28.4300223 217.601636,27.8919748 223.334174,26.3567737 C223.867659,26.2139037 224.415954,26.5305601 224.558823,27.0640455 C224.701693,27.5975308 224.385037,28.1458251 223.851552,28.288695 L222.83596,28.5554326 C217.352939,29.966069 213.562843,30.4451472 211.359592,29.9615438 C208.906016,29.4229954 207.868681,27.6200546 208.271477,24.942282 L208.3,24.768 L208.157285,24.6906012 C206.228699,23.5940675 205.796845,21.707952 206.821874,19.3449929 L206.961,19.04 L206.931819,19.022682 C205.200753,17.9687955 205.063969,15.8081441 206.379017,12.9507904 L206.491962,12.7110736 Z" id="Path-118" fill="#000" fill-rule="nonzero"/><path d="M221.968734,16.1157174 C222.518033,16.0583669 223.009819,16.4571699 223.06717,17.0064689 C223.120424,17.5165322 222.780362,17.9770058 222.29171,18.0861034 L222.176418,18.104905 L208.477154,19.5352009 C207.927855,19.5925514 207.436068,19.1937484 207.378718,18.6444494 C207.325464,18.1343861 207.665526,17.6739125 208.154177,17.5648149 L208.269469,17.5460133 L221.968734,16.1157174 Z" id="Path-119" fill="#000" fill-rule="nonzero"/><path d="M223.506466,21.6943914 C224.056686,21.646676 224.541408,22.0540362 224.589124,22.6042559 C224.633431,23.1151741 224.285351,23.5696175 223.794863,23.6701349 L223.679259,23.6869131 L209.403026,24.9249573 C208.852806,24.9726727 208.368084,24.5653125 208.320368,24.0150929 C208.276061,23.5041746 208.624141,23.0497312 209.114629,22.9492139 L209.230233,22.9324356 L223.506466,21.6943914 Z" id="Path-120" fill="#000" fill-rule="nonzero"/><path d="M211.890794,28.6749073 C212.150546,28.187519 212.756223,28.0029834 213.243611,28.2627354 C213.731,28.5224874 213.915535,29.1281643 213.655783,29.6155526 L213.476509,29.962775 C212.768664,31.386327 212.957331,31.7758553 214.017413,31.9112725 C215.82644,32.1423618 218.340315,31.8888015 221.536221,31.1355809 C222.073777,31.0088879 222.612258,31.3419589 222.738951,31.8795157 C222.865644,32.4170725 222.532573,32.9555534 221.995017,33.0822464 C218.58614,33.8856605 215.850069,34.1616324 213.763987,33.8951515 C211.010504,33.5434152 210.396556,31.4786364 211.890794,28.6749073 Z" id="Path-121" fill="#000" fill-rule="nonzero"/></g></g><g id="Head" transform="translate(250.000000, 368.000000) scale(1 1)" fill="#000"><g id="Head/Moving Hair" stroke="none" stroke-width="1" fill="none" fill-rule="evenodd"><g id="Group-3" transform="translate(-74.000000, -27.000000)" fill="#000"><path d="M89.1899,20.3058 C88.0419,20.6818 86.8929,21.0578 85.4229,21.5378 C87.6399,21.7598 87.6399,21.7598 89.1899,20.3058 M18.2389,29.8518 C16.1649,28.8858 14.0359,28.3098 11.7289,29.0268 C13.8989,29.3018 16.0689,29.5768 18.2389,29.8518 M81.0449,19.8178 C78.7759,15.6418 76.4419,11.5428 73.2459,8.0428 C69.9989,4.4888 66.1729,1.8168 61.3479,0.8748 C57.8649,0.1948 53.7699,1.9678 52.1339,4.8678 C52.8329,4.4078 53.4179,4.0038 54.0209,3.6278 C57.9609,1.1768 63.7479,0.6698 67.9179,5.4518 C68.9139,6.5948 69.8609,7.7828 70.7779,8.9888 C72.0829,10.7048 73.2739,12.5098 74.6309,14.1828 C76.4339,16.4048 78.3359,18.5498 81.0449,19.8178 M49.1269,79.9458 C48.3669,79.7278 47.9319,79.5528 47.4819,79.4818 C43.2849,78.8208 39.7469,76.8018 36.9009,73.7818 C34.6139,71.3538 32.6719,68.5898 30.6719,65.9058 C29.6719,64.5648 28.9499,63.0208 27.9889,61.6478 C25.1209,57.5508 19.5859,55.3658 14.5879,56.2178 C16.1009,57.6388 17.7939,58.9958 19.1919,60.6088 C20.6509,62.2898 21.8309,64.2138 23.1229,66.0388 C24.0929,67.4098 25.0119,68.8168 26.0159,70.1608 C28.3829,73.3318 31.2559,75.9688 34.5789,78.1218 C37.0359,79.7138 39.6949,80.7658 42.6139,81.0378 C44.7379,81.2368 46.8609,81.2238 49.1269,79.9458 M99.0849,66.8538 C94.8619,67.2248 91.3819,65.7428 88.1879,63.4708 C86.6749,62.3958 86.3199,61.5398 86.9909,61.0568 C88.1219,60.2428 88.6329,61.4998 89.4219,61.8848 C91.4929,62.8958 93.5309,64.0298 95.7019,64.7618 C98.0079,65.5398 99.3989,64.7158 100.5359,62.5098 C103.3009,57.1458 104.1249,51.2868 104.8999,45.4168 C105.0449,44.3098 105.0739,43.1868 105.1889,42.0738 C105.6479,37.6278 102.9229,33.6998 98.6059,32.8968 C95.1649,32.2568 91.7479,32.6078 88.4879,33.9448 C84.7949,35.4588 82.9729,38.3958 82.4219,42.2218 C82.1489,44.1188 81.9679,46.0308 81.7019,47.9288 C81.5959,48.6788 81.7209,49.7768 80.6649,49.7898 C80.1579,49.7958 79.5859,49.0448 79.1429,48.5478 C78.6409,47.9848 78.2489,47.3218 77.8169,46.7128 C75.9579,47.9118 75.5079,49.2468 76.5039,50.7888 C76.9959,51.5478 77.7969,52.3608 78.6179,52.5988 C80.4519,53.1308 80.7449,54.3228 80.5439,55.8948 C79.9089,60.8828 79.3089,65.8768 78.5919,70.8538 C78.1709,73.7748 77.5599,76.6688 77.0169,79.5728 C76.9149,80.1178 76.8109,80.6908 76.5529,81.1668 C76.4019,81.4458 75.9169,81.7378 75.6299,81.6938 C75.3389,81.6498 74.9069,81.2138 74.8909,80.9298 C74.8509,80.2308 74.9859,79.5148 75.1039,78.8148 C75.4199,76.9248 75.7439,75.0358 76.1039,73.1558 C76.3279,71.9878 75.8769,71.2038 74.9729,70.4828 C71.7539,67.9108 68.5089,67.9738 65.5099,70.8028 C64.4649,71.7878 63.5059,72.8678 62.5439,73.9358 C59.7869,76.9928 56.5999,79.2588 52.3529,79.6848 C51.8149,79.7388 51.2649,79.9518 50.7779,80.2018 C45.7989,82.7548 40.8729,82.2768 36.0569,79.8308 C31.4789,77.5058 27.8189,74.0758 24.8499,69.9118 C23.5039,68.0268 22.3789,65.9728 20.9339,64.1708 C19.1949,62.0028 17.3689,59.8548 15.2939,58.0218 C14.0309,56.9048 12.3049,56.0348 10.6539,55.6818 C5.0199,54.4788 2.0549,50.8428 0.6789,45.5538 C-0.1821,42.2428 -0.3031,38.9238 0.7769,35.6388 C1.7249,32.7568 3.6369,30.8808 6.4179,29.5038 C10.9479,27.2598 15.3459,27.5778 19.8659,29.2368 C23.2629,30.4838 26.7189,31.3358 30.3979,31.1378 C33.4859,30.9718 35.9999,29.6948 37.8179,27.3128 C39.2609,25.4218 40.4719,23.3268 41.5739,21.2108 C42.9369,18.5918 43.9239,15.7708 45.3599,13.1958 C47.0249,10.2068 48.7579,7.1978 50.8939,4.5438 C54.6399,-0.1102 59.5729,-1.1252 65.1059,1.2048 C69.4969,3.0548 72.9929,6.0668 75.7589,9.8828 C77.6799,12.5318 79.3979,15.3288 81.1659,18.0868 C83.0179,20.9768 83.7729,21.2408 87.0999,20.1858 C89.9859,19.2708 92.9279,18.5238 95.7869,17.5308 C102.7239,15.1198 110.8089,22.1538 110.2539,29.2468 C110.0339,32.0708 109.3619,34.7438 108.1609,37.3138 C107.7359,38.2218 107.4079,39.2558 107.3639,40.2468 C107.1629,44.8928 106.5229,49.4668 105.5859,54.0178 C104.8389,57.6498 103.7409,61.1518 101.8489,64.3308 C101.1439,65.5168 101.1569,66.4908 101.5099,67.7008 C102.7009,71.7618 103.8299,75.8418 104.9539,79.9218 C105.1719,80.7158 105.7939,81.8528 104.5639,82.1538 C103.4039,82.4378 103.3259,81.1358 103.0949,80.3598 C101.9399,76.4538 100.8459,72.5308 99.7179,68.6168 C99.5659,68.0848 99.3449,67.5728 99.0849,66.8538" id="Fill-1"/></g></g></g><g id="Face" transform="translate(264.000000, 380.000000) scale(1 1)" fill="#000"><g id="Face/Happy" stroke="none" stroke-width="1" fill="none" fill-rule="evenodd"><g id="Happy" fill="#000"><polygon id="Fill-1" points="9.6244 5.4505 11.1524 11.4955 8.9234 11.7185"/><g id="Group-22" transform="translate(0.000000, 0.652400)"><path d="M9.6283,4.8567 L8.9363,11.0537 L11.1393,10.8337 L9.6283,4.8567 Z M8.9233,11.0767 C8.9213,11.0767 8.9183,11.0757 8.9163,11.0737 C8.9143,11.0707 8.9133,11.0677 8.9133,11.0647 L9.6133,4.7967 C9.6143,4.7917 9.6183,4.7877 9.6233,4.7877 C9.6283,4.7877 9.6333,4.7907 9.6343,4.7947 L11.1623,10.8397 C11.1633,10.8427 11.1623,10.8467 11.1613,10.8487 C11.1593,10.8517 11.1563,10.8527 11.1533,10.8537 L8.9253,11.0767 L8.9233,11.0767 Z" id="Fill-2"/><path d="M7.8626,0.3586 C7.8626,0.3586 7.9546,2.2096 7.5446,2.5976 C5.8246,2.4076 1.9526,3.0466 0.0106,3.9036 C0.7746,2.1306 7.8626,0.3586 7.8626,0.3586" id="Fill-4"/><g id="Group-8"><path d="M7.8524,0.3713 C7.6894,0.4133 5.9904,0.8483 4.2264,1.4753 C1.8134,2.3353 0.3654,3.1663 0.0314,3.8823 C1.9254,3.0563 5.7694,2.3923 7.5404,2.5873 C7.9214,2.2163 7.8594,0.5363 7.8524,0.3713 M0.0104,3.9143 C0.0074,3.9143 0.0054,3.9123 0.0034,3.9103 C-0.0006,3.9073 -0.0006,3.9033 0.0004,3.8983 C0.3184,3.1613 1.7384,2.3393 4.2194,1.4563 C6.0664,0.7993 7.8424,0.3523 7.8594,0.3483 C7.8634,0.3473 7.8664,0.3483 7.8684,0.3503 C7.8714,0.3513 7.8734,0.3543 7.8734,0.3573 C7.8764,0.4333 7.9614,2.2183 7.5514,2.6053 C7.5494,2.6073 7.5454,2.6093 7.5424,2.6083 C5.7684,2.4113 1.8994,3.0823 0.0154,3.9133 C0.0134,3.9133 0.0124,3.9143 0.0104,3.9143" id="Fill-6"/></g><path d="M4.8997,8.6438 C4.3457,8.6778 3.7937,8.5748 3.2787,8.4048 C3.4687,8.4608 3.6717,8.4918 3.8827,8.4918 C4.9357,8.4918 5.7927,7.7398 5.7927,6.8168 C5.7927,6.4448 5.5037,5.9998 5.2307,5.6918 C6.5807,5.8158 7.7657,6.5188 8.2027,6.8078 C7.8117,7.2718 6.5937,8.5398 4.8997,8.6438 M2.0237,6.3568 C1.9927,6.5158 1.9737,6.6898 1.9737,6.8168 C1.9737,7.4868 2.4247,8.0658 3.0737,8.3328 C2.0807,7.9648 1.2587,7.3728 0.9077,7.0968 C1.1117,6.9228 1.4927,6.6308 2.0237,6.3568 M8.6377,6.5928 C8.5667,6.5398 6.8727,5.2738 4.8837,5.2478 C2.1497,5.2168 0.5007,6.8868 0.4307,6.9578 C0.3907,6.9988 0.3697,7.0558 0.3717,7.1138 C0.3737,7.1708 0.3997,7.2258 0.4427,7.2638 C0.5297,7.3408 2.5167,9.0748 4.6817,9.0748 C4.7627,9.0748 4.8447,9.0718 4.9257,9.0668 C7.1967,8.9258 8.6227,6.9688 8.6827,6.8858 C8.7497,6.7918 8.7297,6.6628 8.6377,6.5928" id="Fill-9"/><path d="M14.221,8.217 C13.735,8.251 13.248,8.132 12.802,7.946 C12.879,7.961 12.957,7.971 13.035,7.971 C13.884,7.971 14.573,7.281 14.573,6.433 C14.573,6.062 14.443,5.714 14.209,5.439 C14.303,5.433 14.399,5.43 14.495,5.43 L14.496,5.43 C15.566,5.43 16.546,6.185 16.889,6.482 C16.584,6.905 15.595,8.118 14.221,8.217 M11.018,6.776 C11.129,6.681 11.296,6.548 11.511,6.402 C11.553,6.758 11.706,7.116 11.948,7.407 C12.013,7.487 12.083,7.556 12.156,7.619 C11.641,7.315 11.231,6.969 11.018,6.776 M17.318,6.298 C17.264,6.245 15.997,5.006 14.496,5.006 L14.495,5.006 C12.172,5.006 10.62,6.558 10.555,6.624 C10.474,6.706 10.474,6.838 10.554,6.921 C10.573,6.94 11.013,7.389 11.684,7.826 C12.519,8.371 13.313,8.647 14.046,8.647 C14.115,8.647 14.183,8.645 14.251,8.64 C16.129,8.505 17.3,6.639 17.349,6.56 C17.401,6.476 17.388,6.367 17.318,6.298" id="Fill-11"/><path d="M10.8109,0.3586 C10.8109,0.3586 10.7179,2.2096 11.1289,2.5976 C12.8479,2.4076 15.6169,2.8636 17.5589,3.7196 C16.7949,1.9476 10.8109,0.3586 10.8109,0.3586" id="Fill-13"/><g id="Group-17" transform="translate(10.000000, 0.000000)"><path d="M1.9872,2.5442 C3.7012,2.5442 5.9272,2.9942 7.5382,3.6992 C7.2082,2.9832 5.9502,2.1842 3.8942,1.3842 C2.3992,0.8032 0.9702,0.4122 0.8202,0.3722 C0.8142,0.5382 0.7522,2.2162 1.1332,2.5872 C1.3972,2.5582 1.6842,2.5442 1.9872,2.5442 M7.5582,3.7312 C7.5572,3.7312 7.5552,3.7312 7.5542,3.7302 C5.6592,2.8952 2.8982,2.4122 1.1302,2.6082 C1.1272,2.6092 1.1242,2.6072 1.1222,2.6062 C0.9492,2.4422 0.8432,2.0152 0.8052,1.3332 C0.7772,0.8272 0.8002,0.3622 0.8002,0.3572 C0.8002,0.3552 0.8022,0.3522 0.8042,0.3502 C0.8072,0.3482 0.8102,0.3472 0.8142,0.3482 C0.8282,0.3522 2.3282,0.7522 3.9022,1.3642 C5.3562,1.9302 7.1722,2.7972 7.5682,3.7162 C7.5702,3.7202 7.56924052,3.7252 7.5662,3.7282 C7.5642,3.7302 7.5612,3.7312 7.5582,3.7312" id="Fill-15"/></g><path d="M5.974,13.3127 C7.031,14.3127 7.89,14.8687 9.322,14.9637 C10.754,15.0597 11.757,14.5357 11.757,14.5357 C11.757,14.5357 10.611,16.4807 9.226,16.8417 C6.362,17.5907 6.497,15.3437 5.974,13.3127" id="Fill-18"/><path d="M5.993,13.3459 C6.075,13.6659 6.14,13.9919 6.203,14.3069 C6.411,15.3389 6.607,16.3149 7.294,16.7429 C7.744,17.0249 8.375,17.0539 9.223,16.8319 C10.493,16.4999 11.575,14.8109 11.729,14.5609 C11.544,14.6489 10.597,15.0589 9.321,14.9749 C7.881,14.8779 7.035,14.3279 5.993,13.3459 M8.224,16.9999 C7.849,16.9999 7.537,16.9199 7.283,16.7609 C6.588,16.3269 6.391,15.3479 6.182,14.3109 C6.117,13.9849 6.049,13.6469 5.964,13.3159 C5.962,13.3109 5.965,13.3069 5.969,13.3039 C5.972,13.3019 5.978,13.3019 5.981,13.3059 C7.033,14.2999 7.876,14.8569 9.323,14.9529 C10.736,15.0479 11.742,14.5319 11.752,14.5269 C11.757,14.5239 11.762,14.5249 11.764,14.5289 C11.768,14.5319 11.768,14.5369 11.766,14.5409 C11.755,14.5609 10.602,16.4929 9.229,16.8529 C8.853,16.9499 8.519,16.9999 8.224,16.9999" id="Fill-20"/></g></g></g></g><g id="Glasses" transform="translate(261.000000, 385.000000) scale(1 1)"><g id="Glasses/None" stroke="none" stroke-width="1" fill="none" fill-rule="evenodd" fill-opacity="0"/></g></g></svg>