<svg viewBox="71.23477157360406 346.20000000000005 273.42639593908615 238.0124999999999" xmlns="http://www.w3.org/2000/svg" overflow="visible" xmlns:xlink="http://www.w3.org/1999/xlink" width="273.42639593908615px" height="238.0124999999999px"><g id="Master/Character/Sitting On Floor" stroke="none" stroke-width="1" fill="none" fill-rule="evenodd"><g id="Sitting Body/On Floor" transform="translate(14.000000, 367.000000) scale(1 1)"><g id="Sitting Body/On Floor/Side Sitting" stroke="none" stroke-width="1" fill="none" fill-rule="evenodd"><path d="M136.111225,160.420155 C138.465444,146.978426 141.199105,137.269794 144.312209,131.294258 C147.425313,125.318723 154.012895,114.000798 164.074955,97.3404852 L185.675779,69.9754679 C190.204851,63.3878987 193.479572,60.881225 195.499941,62.4554467 C198.530495,64.8167793 205.672503,65.5613717 208.473208,74.6671803 C210.340344,80.7377194 217.515942,107.050439 230,153.60534 L195.499941,173.059932 L199.796635,183.365747 L199.796635,193.173068 C191.95482,204.391023 186.374479,210 183.055612,210 C178.077312,210 154.234567,210 154.234567,210 C154.234567,210 138.333674,207.78745 136.111225,195.06268 C134.629592,186.579501 134.629592,175.031992 136.111225,160.420155 Z" id="Path-34" fill="#f9fdf3"/><g id="Group-43" transform="translate(63.000000, 17.000000)"><path d="M13.2228,184.805 C5.7528,184.347 4.7558,184.508 3.5098,186.133 C6.7148,185.695 9.9688,185.249 13.2228,184.805 M158.3788,156.722 C159.0298,156.53 159.6718,156.304 160.3318,156.151 C162.2828,155.698 163.1768,156.536 163.0208,158.525 C162.8768,160.346 162.6438,162.194 162.8108,163.996 C163.0068,166.116 163.5298,168.213 164.0398,170.289 C164.2478,171.134 164.7768,171.98 165.9238,171.646 C166.9268,171.354 166.9498,170.481 166.8048,169.683 C165.9948,165.219 165.1678,160.756 164.2688,156.309 C164.1608,155.778 163.5908,154.95 163.2038,154.931 C161.4178,154.847 159.6948,155.213 158.3788,156.722 M48.9368,165.868 C54.6578,167.176 60.2268,168.451 65.7968,169.718 C66.7288,169.93 67.0908,169.324 67.3148,168.583 C67.5358,167.853 67.5888,167.143 66.7488,166.744 C66.3928,166.575 66.0098,166.445 65.6258,166.352 C61.0608,165.255 56.5008,164.139 51.9238,163.092 C49.9108,162.631 49.5128,163 48.9368,165.868 M239.2958,45.66 C239.7118,45.126 239.9908,44.847 240.1768,44.517 C241.5448,42.1 241.4938,41.909 239.1188,40.373 C235.9688,38.335 232.8198,36.293 229.6568,34.274 C229.1428,33.946 228.5578,33.728 227.8688,33.393 C227.2368,34.253 226.6918,34.993 225.9338,36.024 C230.4848,39.306 234.8488,42.453 239.2958,45.66 M138.1508,165.297 C138.8158,165.297 138.9948,165.348 139.1268,165.29 C144.1628,163.077 149.1928,160.847 154.2318,158.639 C155.3628,158.143 155.4458,157.287 155.1858,156.263 C154.5168,153.635 153.8628,151.003 153.1708,148.381 C153.0368,147.871 152.7578,147.4 152.4968,146.797 C151.7838,147.086 151.1908,147.284 150.6348,147.559 C148.8458,148.442 147.0728,149.355 145.2918,150.254 C142.5878,151.62 139.8748,152.971 137.1808,154.36 C136.2648,154.832 135.1608,155.314 135.5378,156.647 C136.3578,159.543 137.2728,162.412 138.1508,165.297 M7.9868,187.964 C10.1138,189.253 12.4278,189.398 14.6658,189.477 C22.4878,189.75 30.3158,189.882 38.1418,189.969 C41.5768,190.007 44.9938,189.749 48.1948,188.237 C49.1238,187.798 50.1548,187.541 51.1628,187.31 C52.0238,187.114 53.0618,186.974 53.3468,188.114 C53.5988,189.12 52.6878,189.442 51.9288,189.725 C49.5358,190.617 47.1128,191.436 44.7478,192.399 C42.5388,193.299 40.3908,194.349 38.2148,195.332 C38.2788,195.516 38.3418,195.701 38.4068,195.885 C45.3258,194.737 52.2428,193.575 59.1648,192.452 C60.6808,192.206 61.5158,191.494 61.9068,189.927 C63.1608,184.892 64.5678,179.895 65.8948,174.877 C66.0728,174.204 66.1308,173.5 66.2888,172.536 C60.9748,171.315 55.8148,170.128 50.6058,168.931 C50.3198,169.601 50.1198,170.023 49.9558,170.458 C48.1328,175.319 46.2998,180.175 44.5038,185.045 C44.0348,186.321 43.2808,186.961 41.8458,186.964 C39.7738,186.969 37.7028,187.231 35.6308,187.256 C28.6798,187.341 21.7278,187.33 14.7788,187.443 C12.5118,187.479 10.2498,187.783 7.9868,187.964 M160.1398,159.337 C158.7778,159.743 157.7568,159.933 156.8318,160.34 C151.2768,162.784 145.7508,165.297 140.1968,167.742 C139.1908,168.185 138.6338,168.782 138.7158,169.909 C138.7568,170.466 138.7228,171.029 138.7528,171.586 C139.1068,178.175 138.5498,184.668 136.7728,191.041 C136.6748,191.39 136.7598,191.79 136.7598,192.24 C139.4648,192.24 142.0808,192.167 144.6908,192.263 C146.7738,192.339 148.2078,191.64 148.9938,189.627 C149.3338,188.758 149.8068,187.73 150.9558,187.775 C152.2838,187.827 152.4128,189.052 152.7578,190.013 C153.4508,191.949 153.4518,191.974 155.4528,192.053 C160.0018,192.233 164.5498,192.435 169.0998,192.534 C176.9248,192.706 184.7508,192.823 192.5768,192.927 C194.3888,192.951 194.8788,192.583 195.0888,191.38 C195.3198,190.063 194.8218,189.186 193.3848,188.607 C192.5748,188.28 191.7098,188.08 190.8648,187.846 C181.8668,185.352 173.4428,181.608 165.6248,176.473 C163.6488,175.174 162.3378,173.489 161.5118,171.35 C160.5808,168.943 160.0748,166.453 160.1338,163.858 C160.1658,162.451 160.1398,161.045 160.1398,159.337 M170.6598,174.43 C171.6718,174.334 172.4588,174.299 173.2318,174.179 C175.5218,173.823 177.8098,173.455 180.0908,173.051 C188.8988,171.49 197.7018,169.9 206.5098,168.346 C213.0588,167.191 219.5088,165.676 225.6568,163.081 C231.9548,160.424 237.0958,156.404 240.3318,150.244 C244.0178,143.232 243.3318,134.542 238.1788,129.207 C235.7258,126.667 232.6728,124.523 229.5398,122.864 C225.1818,120.555 220.5878,118.594 215.9268,116.966 C199.2508,111.144 181.9038,108.221 164.5258,105.488 C163.5678,105.337 162.5598,105.496 161.1948,105.518 C161.7208,107.591 162.1278,109.277 162.5768,110.951 C164.7238,118.98 166.9018,127 169.0228,135.035 C169.6738,137.502 169.6158,137.637 167.4108,138.844 C164.1168,140.647 160.7688,142.353 157.4508,144.114 C156.6968,144.513 155.9718,144.967 155.2188,145.406 C155.9128,148.152 156.5528,150.677 157.2548,153.454 C159.3908,152.901 161.2788,152.41 163.3818,151.865 C162.9088,149.873 162.4388,148.111 162.0778,146.326 C161.6918,144.415 161.8518,144.109 163.6668,143.491 C172.4438,140.501 181.2278,137.537 190.0168,134.587 C191.8338,133.977 193.6798,133.448 195.5218,132.916 C196.3398,132.681 197.1518,132.673 197.5118,133.662 C197.8038,134.462 197.2698,135.176 196.1288,135.522 C195.3658,135.752 194.5678,135.872 193.8128,136.124 C184.8638,139.1 175.9178,142.087 166.9758,145.085 C166.2508,145.327 165.5598,145.67 164.8788,145.954 C166.8328,155.582 168.7318,164.933 170.6598,174.43 M184.5698,72.493 C184.6248,72.502 184.6798,72.51 184.7358,72.518 C184.8328,74.113 184.9088,75.708 185.0338,77.3 C185.4198,82.235 185.7588,87.175 186.2498,92.099 C186.5508,95.114 186.9818,98.127 187.5678,101.099 C188.2488,104.562 189.4158,105.496 192.9738,105.652 C197.3188,105.84 201.3508,104.642 205.1388,102.583 C210.4508,99.698 214.2158,95.316 216.9608,90.031 C220.2148,83.768 223.9298,77.835 228.5098,72.435 C231.1438,69.33 233.5818,66.055 236.0328,62.8 C238.3568,59.714 239.4298,56.149 239.7768,52.33 C239.9668,50.227 239.2648,48.764 237.4258,47.519 C233.2608,44.699 229.2318,41.673 225.2138,38.642 C224.1928,37.871 223.3278,37.782 222.4458,38.583 C220.9758,39.917 219.3298,41.159 218.2118,42.756 C216.3878,45.363 214.8938,48.206 213.3238,50.985 C211.3598,54.46 209.7698,58.221 206.7998,60.977 C204.7408,62.888 202.6838,64.717 201.3038,67.216 C201.0718,67.637 200.2328,68.049 199.7798,67.954 C198.9168,67.775 198.8828,66.912 199.1068,66.183 C199.2908,65.58 199.5378,64.956 199.9128,64.459 C200.8248,63.251 201.7238,62.003 202.8198,60.976 C203.8868,59.976 204.2888,58.943 203.8388,57.577 C202.8158,54.476 201.8368,51.358 200.7378,48.284 C199.9858,46.183 198.9378,44.186 198.2368,42.072 C197.0308,38.433 195.9598,34.748 194.8898,31.066 C192.4948,22.826 186.7058,18.434 178.5278,17.236 C174.1308,16.592 169.6108,16.816 165.1508,16.57 C163.2078,16.463 161.9128,17.166 160.7448,18.771 C158.3688,22.036 155.2468,24.287 151.0938,24.873 C144.1708,25.849 138.3758,23.315 133.2518,19.007 C131.8648,17.841 130.6288,17.433 128.9288,17.77 C126.3448,18.281 123.7308,18.636 121.1388,19.11 C116.3478,19.987 111.5598,20.884 106.7788,21.81 C104.8898,22.176 103.3418,23.199 102.3058,24.798 C100.8898,26.983 98.8868,28.465 96.9178,30.098 C93.7968,32.687 90.8838,35.571 88.1638,38.584 C83.8278,43.39 79.8098,48.457 76.6108,54.14 C73.8098,59.114 71.8278,64.427 69.8748,69.749 C66.9178,77.805 63.4258,85.59 58.6458,92.743 C54.8428,98.435 51.8548,104.497 49.9778,111.09 C48.9488,114.705 47.8098,118.332 48.0578,122.133 C48.1818,124.024 47.8988,125.751 47.4148,127.542 C46.7108,130.157 45.9438,132.796 45.6648,135.473 C44.8128,143.66 47.6858,151.213 50.0038,158.845 C50.2908,159.791 50.9408,160.205 51.8958,160.425 C56.8778,161.576 61.8398,162.809 66.8208,163.962 C68.4598,164.342 68.7738,164.023 68.9258,162.358 C69.2318,159.02 69.4878,155.675 69.9028,152.351 C71.1318,142.511 72.7778,132.748 75.6858,123.24 C75.9418,122.404 76.1608,121.534 76.5648,120.769 C78.9578,116.252 81.4688,111.797 83.8168,107.257 C90.9888,93.393 99.1438,80.126 107.9768,67.269 C112.1108,61.252 116.8228,55.721 122.2458,50.828 C123.9608,49.281 125.7748,47.803 127.7068,46.546 C132.1518,43.656 136.4738,44.155 140.3988,47.746 C142.8618,50 144.5428,52.785 146.1028,55.685 C149.9628,62.87 152.0018,70.687 154.0388,78.497 C155.8728,85.529 157.6628,92.574 159.2988,99.654 C159.7838,101.752 160.9198,102.47 162.8568,102.767 C169.0138,103.712 175.1578,104.743 181.2988,105.789 C184.5138,106.336 184.8208,106.235 184.6638,102.907 C184.5188,99.809 184.0048,96.728 183.6648,93.638 C182.8358,86.093 182.0978,78.542 182.1788,70.935 C182.1868,70.171 182.0168,69.329 181.6758,68.651 C180.2438,65.803 180.3968,65.436 183.4338,65.095 C184.9038,64.929 185.3198,65.365 185.1558,66.813 C184.9398,68.704 184.7628,70.6 184.5698,72.493 M245.264796,40.368 C243.9848,42.067 243.1538,44.124 242.2608,46.083 C241.9558,46.753 241.9128,47.662 242.0608,48.4 C243.1108,53.641 241.9698,58.498 239.0568,62.8 C236.2848,66.894 233.1468,70.753 230.0108,74.585 C226.1438,79.311 222.8388,84.368 220.0378,89.791 C217.6778,94.362 214.7778,98.538 210.7018,101.829 C207.0788,104.755 203.0418,106.715 198.5148,107.715 C197.6058,107.916 196.6968,108.118 195.3388,108.419 C199.0288,109.344 202.2818,110.131 205.5188,110.978 C211.9338,112.655 218.3738,114.221 224.4458,117.024 C228.8248,119.044 232.8868,121.501 236.8108,124.305 C246.3018,131.086 247.4798,144.058 241.9528,152.815 C237.9898,159.096 232.3268,163.159 225.5318,165.839 C218.3478,168.673 210.8358,170.163 203.2528,171.425 C196.3998,172.565 189.5768,173.887 182.7378,175.114 C180.2218,175.565 177.6968,175.962 175.1788,176.405 C174.2598,176.566 173.3508,176.785 172.0428,177.061 C172.8108,177.593 173.2188,177.923 173.6688,178.18 C179.1878,181.337 185.1278,183.451 191.1948,185.255 C192.5718,185.665 193.9968,185.984 195.2948,186.576 C198.2318,187.914 198.8768,192.856 196.3988,194.949 C195.9078,195.363 195.0828,195.565 194.4148,195.558 C185.5448,195.465 176.6738,195.348 167.8048,195.169 C163.4918,195.082 159.1818,194.859 154.8698,194.691 C153.2558,194.628 151.5838,194.695 150.8898,192.89 C149.5348,193.633 148.5088,194.432 147.3488,194.765 C146.2298,195.086 144.9728,194.953 143.7758,194.973 C140.9778,195.017 138.1778,195.086 135.3808,195.044 C132.4328,194.999 131.9358,194.229 132.6608,191.291 C133.5568,187.652 134.4198,184.003 135.2738,180.353 C136.0768,176.923 135.2738,173.512 135.1208,170.092 C135.0828,169.234 135.2438,168.368 135.2828,167.504 C135.3178,166.733 135.4818,165.915 135.2938,165.195 C134.6928,162.888 133.9348,160.622 133.2798,158.329 C133.0378,157.486 132.7068,156.877 131.6928,156.861 C130.8118,156.846 130.5568,156.189 130.3548,155.43 C128.3938,148.096 126.3398,140.786 124.4458,133.437 C123.0698,128.098 121.8888,122.71 120.6368,117.34 C120.4938,116.724 120.3058,116.055 120.4168,115.462 C120.5008,115.015 120.9798,114.402 121.3738,114.324 C121.7608,114.245 122.4808,114.642 122.6708,115.022 C123.0568,115.792 123.1968,116.688 123.4148,117.538 C126.3208,128.838 129.2198,140.139 132.1318,151.437 C132.2878,152.046 132.5338,152.632 132.7318,153.214 C135.0088,152.83 158.4938,141.042 166.5378,136.259 C166.4268,135.581 166.3678,134.799 166.1668,134.054 C164.1528,126.569 162.0868,119.097 160.0898,111.607 C157.4968,101.883 154.9628,92.145 152.3878,82.417 C150.4458,75.08 148.7528,67.664 145.6758,60.679 C144.0908,57.081 142.2538,53.626 139.5978,50.681 C139.0148,50.034 138.3548,49.439 137.6608,48.911 C134.9108,46.818 132.0158,46.722 129.2188,48.692 C127.0038,50.252 124.8608,51.948 122.8648,53.779 C117.9528,58.285 113.8068,63.473 110.0228,68.937 C101.1368,81.765 93.0648,95.087 85.9318,108.973 C83.9958,112.742 81.6928,116.346 80.0638,120.238 C78.3748,124.271 76.8748,128.478 76.0468,132.754 C74.3178,141.689 72.8778,150.693 71.7238,159.719 C71.0348,165.113 71.4628,170.561 72.9588,175.88 C75.3208,184.275 81.0368,189.102 89.2578,191.062 C92.6538,191.871 96.2008,192.088 99.6908,192.448 C102.2278,192.709 104.7858,192.855 107.3358,192.892 C114.0258,192.989 120.1868,191.653 124.9198,186.362 C126.7238,184.345 128.7438,182.522 130.6798,180.623 C130.8938,180.412 131.1928,180.288 131.6398,180.006 C132.1728,181.272 131.8588,182.309 131.1978,183.187 C127.1318,188.586 122.4488,193.103 115.5348,194.722 C109.5848,196.115 103.6118,195.612 97.6358,195.333 C93.8768,195.158 90.1308,194.688 86.6048,193.276 C80.6378,190.886 75.2728,187.68 72.4078,181.561 C71.3968,179.403 70.7048,177.093 69.9028,174.84 C69.6708,174.192 69.5578,173.501 69.2648,172.327 C68.0758,176.752 67.0118,180.659 65.9778,184.576 C65.4068,186.739 64.7918,188.897 64.3668,191.09 C63.9458,193.252 62.8238,194.433 60.6098,194.792 C55.4848,195.623 50.3818,196.596 45.2628,197.466 C43.2948,197.8 41.3128,198.107 39.3248,198.243 C37.9128,198.341 36.4208,198.362 35.0738,198.005 C33.3298,197.545 33.0528,195.915 34.3808,194.696 C35.0668,194.066 35.8988,193.594 36.6638,193.051 L36.5058,192.591 C31.0028,192.459 25.4968,192.399 19.9968,192.169 C16.4118,192.021 12.8378,191.619 9.2578,191.346 C6.3628,191.124 3.9848,189.548 1.5188,188.286 C-0.5492,187.229 -0.4782,184.993 1.5678,183.689 C3.6518,182.36 6.0408,181.951 8.4608,181.983 C11.7348,182.026 15.0058,182.219 18.2778,182.376 C25.1408,182.705 32.0018,183.055 38.8658,183.391 C39.5028,183.421 40.1438,183.426 40.7838,183.413 C41.6538,183.397 42.3178,183.059 42.6548,182.193 C44.4148,177.656 46.1858,173.122 48.0148,168.429 C45.3668,167.098 45.9008,165.187 46.8038,163.279 C47.6348,161.524 47.6718,159.886 46.9988,158.004 C45.9258,155.001 45.1358,151.891 44.3378,148.797 C42.5888,142.015 42.4098,135.245 44.4098,128.442 C45.0088,126.405 45.2168,124.223 45.3748,122.09 C46.0918,112.404 49.2558,103.53 54.1388,95.215 C55.2718,93.285 56.4928,91.407 57.7058,89.527 C62.4718,82.15 65.7438,74.072 68.6158,65.839 C72.3648,55.096 78.2028,45.654 85.8748,37.326 C88.7378,34.218 91.7078,31.18 94.8818,28.398 C96.9798,26.559 99.1278,24.859 100.8038,22.572 C102.1148,20.782 104.1458,19.824 106.2918,19.355 C110.1158,18.521 113.9568,17.766 117.8088,17.078 C122.3688,16.264 126.9528,15.582 131.5148,14.781 C132.4688,14.613 133.2468,14.598 133.8308,15.479 C136.1428,18.975 139.7528,20.45 143.5108,21.708 C145.8208,22.482 148.1088,22.723 150.5758,22.337 C154.7258,21.688 157.5838,19.393 159.6268,15.938 C160.2578,14.871 160.9488,14.219 162.1858,14.084 C168.5918,13.387 174.9828,13.534 181.2328,15.1 C189.0668,17.064 194.5778,21.774 197.0688,29.642 C198.2978,33.528 199.4578,37.435 200.6538,41.331 C200.9348,42.247 201.1198,43.215 201.5428,44.062 C203.4768,47.933 205.1188,51.91 206.2158,56.103 C206.2688,56.305 206.4788,56.466 206.8358,56.935 C208.0038,54.96 209.0998,53.145 210.1588,51.308 C211.9928,48.127 213.7018,44.869 215.6548,41.763 C217.3298,39.096 219.6708,37.099 222.4208,35.458 C224.8628,34.001 226.6928,31.649 227.1688,28.849" id="Fill-1" fill="#331c55"/><path d="M184.5695,72.4935 C184.7625,70.5995 184.9395,68.7045 185.1555,66.8135 C185.3195,65.3655 184.9035,64.9295 183.4335,65.0945 C180.3965,65.4365 180.2445,65.8025 181.6755,68.6505 C182.0165,69.3295 182.1865,70.1715 182.1785,70.9355 C182.0975,78.5425 182.8365,86.0935 183.6655,93.6385 C184.0055,96.7285 184.5185,99.8085 184.6645,102.9065 C184.8205,106.2345 184.5135,106.3365 181.2985,105.7895 C175.1575,104.7435 169.0135,103.7125 162.8565,102.7665 C160.9205,102.4705 159.7835,101.7525 159.2985,99.6535 C157.6635,92.5735 155.8735,85.5285 154.0395,78.4965 C152.0025,70.6865 149.9635,62.8695 146.1025,55.6855 C144.5435,52.7855 142.8615,50.0005 140.3985,47.7465 C136.4735,44.1545 132.1515,43.6555 127.7075,46.5455 C125.7745,47.8025 123.9615,49.2815 122.2465,50.8275 C116.8225,55.7205 112.1105,61.2525 107.9765,67.2685 C99.1435,80.1265 90.9885,93.3925 83.8165,107.2575 C81.4685,111.7975 78.9585,116.2525 76.5645,120.7685 C76.1605,121.5335 75.9415,122.4035 75.6855,123.2395 C72.7775,132.7485 71.1325,142.5115 69.9025,152.3505 C69.4875,155.6755 69.2315,159.0195 68.9255,162.3575 C68.7735,164.0225 68.4605,164.3425 66.8205,163.9625 C61.8405,162.8085 56.8785,161.5755 51.8955,160.4255 C50.9405,160.2055 50.2915,159.7915 50.0045,158.8455 C47.6855,151.2135 44.8125,143.6605 45.6655,135.4725 C45.9435,132.7965 46.7115,130.1565 47.4155,127.5425 C47.8985,125.7515 48.1815,124.0235 48.0575,122.1335 C47.8095,118.3325 48.9485,114.7055 49.9775,111.0905 C51.8545,104.4975 54.8425,98.4345 58.6455,92.7435 C63.4255,85.5895 66.9185,77.8045 69.8755,69.7485 C71.8285,64.4265 73.8095,59.1145 76.6105,54.1395 C79.8095,48.4575 83.8275,43.3895 88.1645,38.5835 C90.8835,35.5705 93.7975,32.6865 96.9185,30.0985 C98.8865,28.4655 100.8895,26.9835 102.3055,24.7985 C103.3415,23.1985 104.8895,22.1765 106.7785,21.8105 C111.5595,20.8835 116.3475,19.9865 121.1385,19.1095 C123.7305,18.6355 126.3445,18.2805 128.9285,17.7695 C130.6295,17.4335 131.8645,17.8405 133.2525,19.0065 C138.3765,23.3155 144.1715,25.8495 151.0935,24.8735 C155.2475,24.2875 158.3695,22.0355 160.7455,18.7705 C161.9135,17.1665 163.2085,16.4635 165.1505,16.5705 C169.6105,16.8165 174.1315,16.5925 178.5275,17.2365 C186.7065,18.4335 192.4955,22.8255 194.8895,31.0665 C195.9605,34.7485 197.0305,38.4335 198.2365,42.0725 C198.9375,44.1865 199.9855,46.1835 200.7375,48.2835 C201.8375,51.3575 202.8155,54.4755 203.8395,57.5775 C204.2895,58.9435 203.8865,59.9765 202.8195,60.9765 C201.7235,62.0035 200.8245,63.2515 199.9135,64.4585 C199.5385,64.9565 199.2915,65.5795 199.1065,66.1835 C198.8825,66.9125 198.9175,67.7745 199.7795,67.9545 C200.2325,68.0485 201.0715,67.6375 201.3035,67.2165 C202.6835,64.7165 204.7405,62.8885 206.7995,60.9765 C209.7695,58.2205 211.3595,54.4605 213.3235,50.9855 C214.8935,48.2065 216.3875,45.3635 218.2125,42.7565 C219.3305,41.1585 220.9755,39.9175 222.4455,38.5835 C223.3285,37.7825 224.1925,37.8715 225.2145,38.6425 C229.2315,41.6725 233.2605,44.6985 237.4255,47.5185 C239.2645,48.7645 239.9665,50.2275 239.7765,52.3305 C239.4295,56.1495 238.3565,59.7135 236.0325,62.8005 C233.5825,66.0555 231.1435,69.3305 228.5095,72.4355 C223.9295,77.8345 220.2155,83.7685 216.9615,90.0315 C214.2155,95.3165 210.4505,99.6975 205.1385,102.5835 C201.3505,104.6415 197.3185,105.8405 192.9735,105.6515 C189.4165,105.4965 188.2495,104.5615 187.5675,101.0985 C186.9815,98.1275 186.5505,95.1145 186.2505,92.0995 C185.7585,87.1755 185.4205,82.2355 185.0335,77.3005 C184.9085,75.7085 184.8335,74.1125 184.7355,72.5185 C184.6795,72.5105 184.6255,72.5015 184.5695,72.4935" id="Fill-3" fill="#f9fdf3"/><path d="M170.6593,174.43 C168.7313,164.933 166.8333,155.582 164.8793,145.954 C165.5593,145.67 166.2513,145.327 166.9753,145.085 C175.9183,142.087 184.8633,139.1 193.8123,136.124 C194.5673,135.872 195.3653,135.752 196.1293,135.522 C197.2693,135.176 197.8043,134.462 197.5123,133.662 C197.1513,132.673 196.3403,132.681 195.5213,132.916 C193.6803,133.448 191.8343,133.977 190.0163,134.587 C181.2273,137.537 172.4433,140.501 163.6673,143.491 C161.8513,144.109 161.6913,144.415 162.0783,146.326 C162.4383,148.111 162.9083,149.873 163.3823,151.865 C161.2783,152.41 159.3903,152.901 157.2553,153.454 C156.5533,150.677 155.9133,148.152 155.2193,145.406 C155.9713,144.967 156.6963,144.513 157.4503,144.114 C160.7683,142.353 164.1163,140.647 167.4113,138.844 C169.6153,137.637 169.6743,137.502 169.0223,135.035 C166.9013,127 164.7233,118.98 162.5763,110.951 C162.1283,109.277 161.7213,107.591 161.1943,105.518 C162.5593,105.496 163.5673,105.337 164.5253,105.488 C181.9033,108.221 199.2513,111.144 215.9273,116.966 C220.5883,118.594 225.1813,120.555 229.5403,122.864 C232.6733,124.523 235.7253,126.667 238.1793,129.207 C243.3323,134.542 244.0173,143.232 240.3323,150.244 C237.0963,156.404 231.9553,160.424 225.6563,163.081 C219.5093,165.676 213.0583,167.191 206.5103,168.346 C197.7013,169.9 188.8983,171.49 180.0913,173.051 C177.8093,173.455 175.5213,173.823 173.2313,174.179 C172.4593,174.299 171.6723,174.334 170.6593,174.43" id="Fill-5" fill="#f9fdf3"/><path d="M160.1398,159.3372 C160.1398,161.0452 160.1658,162.4512 160.1338,163.8582 C160.0748,166.4532 160.5808,168.9422 161.5118,171.3502 C162.3378,173.4882 163.6488,175.1742 165.6248,176.4732 C173.4428,181.6082 181.8668,185.3522 190.8648,187.8462 C191.7098,188.0802 192.5748,188.2792 193.3848,188.6072 C194.8218,189.1862 195.3198,190.0632 195.0888,191.3802 C194.8788,192.5832 194.3888,192.9512 192.5778,192.9272 C184.7508,192.8222 176.9248,192.7062 169.0998,192.5342 C164.5498,192.4352 160.0018,192.2332 155.4528,192.0532 C153.4518,191.9742 153.4508,191.9482 152.7578,190.0132 C152.4128,189.0522 152.2838,187.8272 150.9558,187.7742 C149.8068,187.7302 149.3338,188.7582 148.9938,189.6272 C148.2078,191.6402 146.7738,192.3392 144.6908,192.2632 C142.0808,192.1672 139.4648,192.2392 136.7598,192.2392 C136.7598,191.7902 136.6748,191.3902 136.7728,191.0412 C138.5498,184.6682 139.1068,178.1752 138.7528,171.5862 C138.7228,171.0282 138.7568,170.4662 138.7158,169.9092 C138.6338,168.7812 139.1908,168.1852 140.1968,167.7412 C145.7508,165.2972 151.2768,162.7842 156.8318,160.3402 C157.7568,159.9332 158.7778,159.7422 160.1398,159.3372" id="Fill-7" fill="#f9fdf3"/><path d="M7.9865,187.9642 C10.2505,187.7822 12.5115,187.4792 14.7785,187.4432 C21.7275,187.3302 28.6795,187.3412 35.6315,187.2562 C37.7035,187.2312 39.7735,186.9692 41.8455,186.9642 C43.2805,186.9612 44.0345,186.3202 44.5045,185.0452 C46.2995,180.1752 48.1325,175.3182 49.9565,170.4582 C50.1205,170.0232 50.3195,169.6012 50.6055,168.9312 C55.8145,170.1282 60.9745,171.3152 66.2895,172.5362 C66.1315,173.5002 66.0725,174.2042 65.8945,174.8772 C64.5675,179.8952 63.1615,184.8922 61.9065,189.9272 C61.5155,191.4942 60.6805,192.2062 59.1655,192.4522 C52.2425,193.5742 45.3255,194.7362 38.4065,195.8852 C38.3415,195.7002 38.2785,195.5162 38.2155,195.3322 C40.3905,194.3492 42.5395,193.2992 44.7485,192.3992 C47.1125,191.4362 49.5365,190.6172 51.9285,189.7252 C52.6875,189.4422 53.5985,189.1202 53.3465,188.1132 C53.0615,186.9742 52.0235,187.1132 51.1635,187.3102 C50.1545,187.5412 49.1245,187.7982 48.1945,188.2362 C44.9935,189.7492 41.5765,190.0072 38.1415,189.9692 C30.3155,189.8822 22.4875,189.7502 14.6665,189.4772 C12.4275,189.3982 10.1135,189.2532 7.9865,187.9642" id="Fill-9" fill="#f9fdf3"/><path d="M138.1506,165.2972 C137.2726,162.4122 136.3576,159.5432 135.5386,156.6472 C135.1616,155.3142 136.2646,154.8322 137.1806,154.3592 C139.8756,152.9712 142.5876,151.6202 145.2926,150.2542 C147.0726,149.3552 148.8456,148.4422 150.6346,147.5592 C151.1906,147.2842 151.7836,147.0862 152.4976,146.7972 C152.7576,147.4002 153.0376,147.8712 153.1716,148.3812 C153.8626,151.0032 154.5166,153.6352 155.1856,156.2632 C155.4456,157.2872 155.3626,158.1432 154.2316,158.6392 C149.1926,160.8472 144.1636,163.0772 139.1276,165.2902 C138.9956,165.3482 138.8156,165.2972 138.1506,165.2972" id="Fill-11" fill="#f9fdf3"/><path d="M239.2961,45.6605 C234.8491,42.4525 230.4841,39.3065 225.9341,36.0235 C226.6921,34.9935 227.2361,34.2525 227.8681,33.3925 C228.5581,33.7285 229.1431,33.9455 229.6561,34.2735 C232.8191,36.2925 235.9691,38.3355 239.1191,40.3735 C241.4931,41.9095 241.5451,42.1005 240.1771,44.5165 C239.9901,44.8475 239.7121,45.1265 239.2961,45.6605" id="Fill-13" fill="#f9fdf3"/><path d="M48.9367,165.8685 C49.5127,163.0005 49.9117,162.6315 51.9237,163.0925 C56.5007,164.1395 61.0607,165.2555 65.6257,166.3515 C66.0097,166.4445 66.3927,166.5745 66.7497,166.7445 C67.5887,167.1425 67.5357,167.8525 67.3147,168.5835 C67.0907,169.3235 66.7287,169.9305 65.7967,169.7185 C60.2267,168.4505 54.6577,167.1765 48.9367,165.8685" id="Fill-15" fill="#f9fdf3"/><path d="M158.3791,156.722 C159.6941,155.213 161.4181,154.847 163.2041,154.931 C163.5911,154.95 164.1611,155.778 164.2691,156.309 C165.1681,160.756 165.9951,165.219 166.8051,169.683 C166.9491,170.481 166.9271,171.354 165.9241,171.646 C164.7761,171.98 164.2481,171.134 164.0401,170.289 C163.5291,168.213 163.0071,166.116 162.8111,163.996 C162.6441,162.194 162.8771,160.346 163.0211,158.525 C163.1771,156.536 162.2821,155.698 160.3321,156.151 C159.6721,156.304 159.0291,156.53 158.3791,156.722" id="Fill-17" fill="#f9fdf3"/><path d="M238.1584,48.0174 C237.8824,46.3634 237.1644,45.1394 235.5884,44.2434 C232.6074,42.5474 229.6864,40.7144 226.9074,38.7084" id="Fill-19" fill="#331c55"/><path d="M258.4885,29.7518 C259.0295,28.6078 259.1345,27.5058 258.3935,26.5448 C257.2915,25.1178 257.2495,23.6428 257.5415,21.9548 C257.8845,19.9758 256.9935,18.6988 255.1025,18.0508 C254.5715,17.8688 254.0035,17.7278 253.4455,17.7018 C250.7655,17.5778 248.0835,17.5078 245.4035,17.3968 C244.9455,17.3778 244.4915,17.2528 243.8385,17.1448 C244.1455,16.3998 244.3835,15.8298 244.6155,15.2568 C245.1995,13.8148 245.8635,12.3998 246.3435,10.9248 C247.4615,7.4978 247.1205,4.2198 245.0515,1.2008 C243.9535,-0.4032 242.4075,-0.3982 241.2805,1.2048 C241.0795,1.4908 240.9555,1.8318 240.8065,2.1518 C240.2705,3.3068 239.7175,4.4538 239.2105,5.6208 C236.1955,12.5588 233.1755,19.4948 230.1985,26.4488 C229.5675,27.9218 229.4005,29.6368 227.6955,30.4498 C227.5455,30.5218 227.4395,30.6938 227.3445,30.8838 C227.3735,30.8988 227.4075,30.9078 227.4345,30.9258 C230.2435,32.6818 239.3195,39.0528 243.4835,41.9038 C243.8125,40.8068 244.6355,40.3108 245.7195,40.0878 C246.8255,39.8598 247.9395,39.6728 249.0545,39.5018 C250.2425,39.3188 251.4615,39.2798 252.6215,38.9968 C256.0675,38.1528 258.0195,35.9578 257.9365,32.3558 C257.9165,31.4868 258.1165,30.5358 258.4885,29.7518" id="Fill-21" fill="#331c55"/><path d="M242.9855,2.7977 C238.7715,12.4107 234.0865,21.3367 231.0485,31.0057 C231.2995,31.2527 231.4695,31.4857 231.6965,31.6317 C235.0145,33.7777 238.3435,35.9067 241.6635,38.0517 C242.7235,38.7377 243.6245,38.4587 244.4955,37.7877 C243.9075,37.4307 242.9815,36.5397 243.9055,35.0377 C243.6655,34.5037 243.2615,34.5867 242.8385,34.2117 C241.2855,32.8387 241.2025,32.2387 242.4955,30.5007 C242.6475,30.2947 242.7235,30.0317 242.8185,29.8297 C240.6115,27.6497 240.6045,27.5247 242.2355,24.7017 C241.8355,23.0687 241.7525,21.6237 241.1315,20.4667 C240.2195,18.7657 241.0335,17.5217 241.6505,16.1107 C242.5265,14.1087 243.4935,12.1197 244.0925,10.0307 C244.7535,7.7317 244.9895,5.3327 242.9855,2.7977" id="Fill-23" fill="#331c55"/><path d="M243.4689,21.5101 C243.4529,22.2671 244.3519,22.3221 244.7139,22.4561 C247.6859,23.5521 250.7699,23.7241 253.8909,23.4541 C254.8449,23.3721 255.1699,22.6871 255.2259,21.8281 C255.2849,20.9221 254.8749,20.2901 253.9929,20.1171 C251.1309,19.5571 248.2479,19.2971 245.4069,20.1691 C244.7579,20.3681 243.4889,20.5761 243.4689,21.5101" id="Fill-25" fill="#331c55"/><path d="M243.4982,27.0506 C244.0662,27.4056 244.3932,27.7686 244.7562,27.8116 C248.1192,28.2116 251.4852,28.5886 254.8592,28.8806 C255.3122,28.9206 256.1702,28.5036 256.2092,28.2146 C256.2792,27.6786 256.0302,26.9296 255.6412,26.5516 C255.2472,26.1716 254.5302,26.0146 253.9382,25.9676 C251.8972,25.8066 249.8512,25.7166 247.8052,25.6386 C246.3252,25.5816 244.8482,25.5976 243.4982,27.0506" id="Fill-27" fill="#331c55"/><path d="M244.7804,32.1976 C247.8794,33.4256 251.1204,33.4186 254.3224,33.6236 C254.6854,33.6466 255.3384,33.0646 255.4234,32.6706 C255.5724,31.9766 255.0314,31.4956 254.3214,31.3766 C251.0864,30.8356 247.9074,31.0706 244.7804,32.1976" id="Fill-29" fill="#331c55"/><path d="M246.9806,35.4354 C248.6196,36.8404 250.9376,36.9444 252.7456,35.9174 C250.7386,35.7494 248.8596,35.5924 246.9806,35.4354" id="Fill-31" fill="#331c55"/><path d="M242.9855,2.7977 C244.9895,5.3327 244.7535,7.7317 244.0925,10.0307 C243.4935,12.1197 242.5265,14.1087 241.6505,16.1107 C241.0335,17.5217 240.2195,18.7657 241.1315,20.4667 C241.7525,21.6237 240.5315,22.9317 242.2355,24.7017 C240.6045,27.5247 240.6115,27.6497 242.8185,29.8297 C242.7235,30.0317 242.6475,30.2947 242.4955,30.5007 C241.2025,32.2387 241.2855,32.8387 242.8385,34.2117 C243.2615,34.5867 243.6655,34.5037 243.9055,35.0377 C243.2715,36.5667 243.7465,37.3827 244.4955,37.7877 C243.6245,38.4587 242.7235,38.7377 241.6635,38.0517 C238.3435,35.9067 235.0145,33.7777 231.6965,31.6317 C231.4695,31.4857 231.2995,31.2527 231.0485,31.0057 C234.0865,21.3367 238.7715,12.4107 242.9855,2.7977" id="Fill-33" fill="#f9fdf3"/><path d="M243.4689,21.5101 C244.2309,20.9681 244.7579,20.3681 245.4069,20.1691 C248.2479,19.2971 251.1309,19.5571 253.9929,20.1171 C254.8749,20.2901 255.2849,20.9221 255.2259,21.8281 C255.1699,22.6871 254.8449,23.3721 253.8909,23.4541 C250.7699,23.7241 247.6859,23.5521 244.7139,22.4561 C244.3519,22.3221 244.0679,21.9741 243.4689,21.5101" id="Fill-35" fill="#f9fdf3"/><path d="M243.4982,27.0506 C243.2372,25.0846 246.3252,25.5816 247.8052,25.6386 C249.8512,25.7166 251.8972,25.8066 253.9382,25.9676 C254.5302,26.0146 255.2472,26.1716 255.6412,26.5516 C256.0302,26.9296 256.2792,27.6786 256.2092,28.2146 C256.1702,28.5036 255.3122,28.9206 254.8592,28.8806 C251.4852,28.5886 248.1192,28.2116 244.7562,27.8116 C244.3932,27.7686 243.5862,27.7156 243.4982,27.0506" id="Fill-37" fill="#f9fdf3"/><path d="M244.7804,32.1976 C245.0354,29.8306 251.0864,30.8356 254.3214,31.3766 C255.0314,31.4956 255.5724,31.9766 255.4234,32.6706 C255.3384,33.0646 254.6854,33.6466 254.3224,33.6236 C251.1204,33.4186 244.6204,33.6846 244.7804,32.1976" id="Fill-39" fill="#f9fdf3"/><path d="M246.9806,35.4354 C248.8596,35.5924 250.7386,35.7494 252.7456,35.9174 C250.9376,36.9444 248.6196,36.8404 246.9806,35.4354" id="Fill-41" fill="#f9fdf3"/></g></g></g><g id="Head" transform="translate(208.000000, 344.000000) scale(1 1)" fill="#331c55"><g id="Head/Curly Bob" stroke="none" stroke-width="1" fill="none" fill-rule="evenodd"><g id="Group-19" transform="translate(-12.000000, 2.000000)" fill="#331c55"><path d="M46.9601,21.1287 C48.1891,22.2707 47.5831,23.6797 46.8811,25.3117 C46.7551,25.6057 46.6281,25.9087 46.5071,26.2157 C46.7961,24.5107 46.5711,22.8837 45.6851,21.2507 C45.1101,20.1927 44.9851,19.0867 45.0331,17.8907 C45.3281,19.0597 45.8981,20.1407 46.9601,21.1287 M48.2421,31.6987 C49.3771,32.2047 50.6631,32.7787 50.9681,33.7187 C51.1191,34.1827 51.0211,34.7057 50.6671,35.3177 C49.7051,36.9877 50.3441,38.6897 50.9661,39.7417 C50.9591,39.7377 50.9521,39.7337 50.9441,39.7317 C49.3471,38.9587 49.2221,38.7027 49.6191,36.9627 C50.3311,33.8397 50.3311,33.8397 47.7291,32.0917 C45.7991,30.7947 45.4051,30.2507 45.9571,28.3127 C45.8951,29.0317 45.9861,29.7647 46.3731,30.4987 C46.6251,30.9767 47.3741,31.3117 48.2421,31.6987 M8.3961,27.5547 C7.9131,27.8367 7.4361,28.1307 6.9701,28.4397 C3.9001,30.4677 3.5131,31.5627 4.6141,35.0547 C5.2871,37.1907 5.2151,38.5387 4.2001,39.8567 C4.6611,38.7207 4.8621,37.5057 4.3961,36.4207 C1.8711,30.5537 4.1811,29.2817 7.3781,27.5207 C8.4811,26.9137 9.6211,26.2857 10.6741,25.4067 C10.8551,25.2557 11.0231,25.1007 11.1811,24.9427 C10.6451,26.0807 9.5861,26.8577 8.3961,27.5547 M40.5081,45.0337 C44.4961,44.0127 48.6181,43.3047 52.2541,40.4247 C52.1291,40.3587 52.0251,40.3027 51.9221,40.2467 C51.4241,39.6157 49.9801,37.5137 51.1011,35.5677 C51.5221,34.8357 51.6381,34.1617 51.4431,33.5637 C51.0701,32.4137 49.6761,31.7907 48.4461,31.2417 C47.7291,30.9217 46.9861,30.5907 46.8141,30.2647 C45.9791,28.6767 46.6711,27.0667 47.3411,25.5087 C48.0521,23.8547 48.7871,22.1447 47.3001,20.7627 C45.4271,19.0217 45.2001,16.9907 45.2541,14.5317 C45.2801,13.9537 45.3031,13.3757 45.3131,12.7957 C45.3641,11.5327 45.4091,10.2257 45.3061,8.7947 C45.2821,8.4677 45.2341,8.1517 45.1681,7.8477 C44.7661,4.2397 42.0761,1.0087 38.4951,0.5957 C35.8471,0.2897 33.0161,0.4627 30.4241,0.6237 C27.7581,0.7887 25.0771,1.5457 22.7281,2.8757 C19.3951,4.7647 17.3361,6.4187 14.6961,13.2987 C14.2361,14.4957 14.0481,15.7767 13.7761,17.0247 C12.3831,17.5137 11.5081,18.8807 11.5791,20.8297 C11.5911,21.1587 11.6311,21.4737 11.6851,21.7807 C11.5921,22.2667 11.5271,22.7157 11.5401,22.8897 C11.5501,23.0247 11.5361,23.1437 11.5351,23.2717 C11.2071,23.8097 10.7751,24.3447 10.1931,24.8307 C9.1961,25.6637 8.0881,26.2737 7.0161,26.8637 C3.8781,28.5917 0.9131,30.2247 3.7061,36.7177 C4.3561,38.2277 3.3731,40.1707 2.3921,41.5787 C1.7031,42.1227 1.0421,42.7387 0.0281,43.6137 C4.4221,46.5977 9.0381,46.7707 13.4121,47.0077 C13.1771,48.2317 12.9451,49.4557 12.6911,50.6777 C12.5141,51.5317 12.6671,52.4557 12.6671,53.4127 C14.2401,53.3577 14.1801,52.3827 14.3571,51.5577 C16.0231,43.8237 17.3001,36.0307 18.0011,28.1477 C18.2201,25.6827 18.1921,25.6087 15.8231,24.3817 C14.0001,23.4377 12.9421,21.4087 13.5931,19.8587 C13.8141,19.3307 14.3561,18.6787 14.8401,18.5947 C15.2711,18.5197 15.8711,19.0997 16.3071,19.4917 C16.5871,19.7427 19.0381,22.4737 19.5371,22.7697 C19.6081,22.6247 19.5761,22.3427 19.5061,22.0177 C19.4471,19.8077 19.6641,16.7507 20.1001,15.5457 C21.2431,12.3857 23.4881,11.4737 26.6261,10.3297 C30.2421,9.0117 33.6161,5.9127 35.8861,4.6977 C36.4991,5.1047 37.1541,5.7167 37.9311,6.0217 C40.3881,6.9837 41.7251,8.8487 42.4451,11.2637 C42.5951,11.7617 42.7231,12.2667 42.8481,12.7737 C42.8171,13.5037 42.7761,14.2327 42.7091,14.9577 C42.1081,21.4887 41.2511,27.9817 38.3041,33.9767 C36.9461,36.7377 35.5231,37.3517 32.5011,36.4207 C30.2761,35.7347 28.1561,34.8267 26.3591,33.2807 C25.8451,32.8387 25.2001,32.0937 24.5541,32.9497 C23.9641,33.7307 24.7181,34.2967 25.2771,34.7087 C26.2371,35.4157 27.2191,36.1237 28.2771,36.6597 C30.9311,38.0037 33.6941,38.9797 36.7191,38.4207 C36.9951,39.2287 37.2281,39.8217 37.4021,40.4307 C38.4601,44.1137 39.4821,47.8067 40.5691,51.4807 C40.8391,52.3927 40.7761,53.5947 42.6721,54.0687 C42.5271,52.9757 42.5131,52.2047 42.3151,51.4847 C41.7241,49.3317 41.1151,47.1827 40.5081,45.0337" id="Fill-17"/></g></g></g><g id="Face" transform="translate(222.000000, 356.000000) scale(1 1)" fill="#331c55"><g id="Face/Shiny Eyes" stroke="none" stroke-width="1" fill="none" fill-rule="evenodd"><g id="Group-26" transform="translate(-1.000000, 0.000000)"><polygon id="Fill-1" fill="#331c55" points="11.3315 5.2702 13.0425 12.0392 10.5475 12.2882"/><polygon id="Stroke-2" stroke="#331c55" stroke-width=".25" stroke-linejoin="round" points="11.3315 5.2702 13.0425 12.0392 10.5475 12.2882"/><g id="Group-25" transform="translate(0.000000, 0.638800)" fill="#331c55"><path d="M11.3373,15.9996 C11.2663,15.9996 11.1973,15.9978834 11.1323,15.993592 C9.2943,15.8845899 7.5583,14.3362443 7.1793,12.4677585 C7.1563,12.3561815 7.2433,12.2506125 7.3723,12.2308719 C7.5023,12.212848 7.6243,12.2866604 7.6473,12.3973792 C7.9833,14.0607349 9.5633,15.4923538 11.1653,15.5876234 C12.1113,15.6425536 13.8753,15.270058 15.0443,12.140752 C15.0843,12.0334665 15.2183,11.9751031 15.3433,12.0094345 C15.4683,12.0437659 15.5363,12.1579177 15.4963,12.264345 C14.3043,15.4563058 12.4553,15.9996 11.3373,15.9996" id="Fill-3"/><path d="M5.9848,6.0611 C3.9828,6.0611 2.7328,7.9601 2.0718,9.4061 C5.2708,8.2691 8.3298,8.5031 9.4608,8.6501 C9.0468,7.8691 7.9528,6.1831 6.1978,6.0681 C6.1258,6.0631 6.0548,6.0611 5.9848,6.0611 M1.6338,10.0631 C1.5728,10.0631 1.5118,10.0391 1.4668,9.9941 C1.3998,9.9261 1.3788,9.8261 1.4148,9.7381 C2.0628,8.1151 3.5548,5.4181 6.2288,5.5941 C7.3018,5.6651 8.3128,6.2561 9.1498,7.3041 C9.7708,8.0821 10.0778,8.8321 10.0898,8.8631 C10.1228,8.9441 10.1088,9.0361 10.0538,9.1021 C9.9988,9.1691 9.9118,9.2021 9.8258,9.1851 C9.7858,9.1771 5.7238,8.4351 1.7228,10.0451 C1.6948,10.0571 1.6648,10.0631 1.6338,10.0631" id="Fill-5"/><path d="M14.519,8.1998 C16.242,8.1998 18.264,8.6128 19.086,8.7998 C18.889,8.0188 18.281,6.2088 16.838,5.9868 C15.898,5.8438 15.072,6.0108 14.446,6.4708 C13.9,6.8718 13.521,7.4938 13.34,8.2818 C13.702,8.2238 14.101,8.1998 14.519,8.1998 M19.399,9.3538 C19.379,9.3538 19.36,9.3518 19.341,9.3468 C19.299,9.3368 15.149,8.3098 13.099,8.8138 C13.022,8.8328 12.941,8.8118 12.882,8.7588 C12.824,8.7048 12.795,8.6268 12.808,8.5478 C12.969,7.4718 13.439,6.6218 14.165,6.0878 C14.894,5.5518 15.843,5.3538 16.911,5.5178 C17.823,5.6588 18.584,6.3268 19.114,7.4508 C19.5,8.2728 19.627,9.0468 19.633,9.0788 C19.646,9.1578 19.618,9.2378 19.559,9.2918 C19.515,9.3328 19.457,9.3538 19.399,9.3538" id="Fill-7"/><path d="M13.5209,7.9879 C13.5209,6.9589 14.192426,6.1249 15.0212527,6.1249 C15.849374,6.1249 16.5209,6.9589 16.5209,7.9879 C16.5209,8.2219 16.4799877,8.6169 16.4165031,8.8239 C15.6977164,8.5509 14.1888991,8.2579 13.6055461,8.4809 C13.5533477,8.3119 13.5209,8.1429 13.5209,7.9879" id="Fill-9"/><path d="M2.683,8.3316 C2.683,7.3026 3.57836798,6.4686 4.68252974,6.4686 C5.78763202,6.4686 6.683,7.5366 6.683,8.5656 C5.30326805,8.8716 3.63479873,9.0056 3.00841735,9.2276 C2.82219586,8.9356 2.683,8.6116 2.683,8.3316" id="Fill-13"/><path d="M9.0238,0.5094 C9.0238,0.5094 9.7458,2.4224 9.3998,2.9524 C7.6008,2.8884 2.1548,2.3554 0.1258,5.3534 C0.8028,0.6464 9.0238,0.5094 9.0238,0.5094" id="Fill-17"/><path d="M9.14074793,0.465261785 L9.02171721,0.384417353 L8.73693786,0.395560116 L8.63217441,0.401426074 C8.3242705,0.419658808 7.98137274,0.448942586 7.61217875,0.491750762 C6.55697579,0.614101922 5.50155428,0.82030905 4.51517951,1.13054541 C1.95220381,1.93665713 0.295665767,3.2943339 0.00207319218,5.33560458 C-0.0168163772,5.4669387 0.154951693,5.53334623 0.229320342,5.42346097 C1.08516401,4.15888762 2.62033271,3.44313445 4.68667249,3.15247384 L5.04803151,3.10611698 C6.01016837,2.99462428 6.97020782,2.97865386 8.16335099,3.02262727 L9.3953559,3.07732097 L9.50446988,3.02073166 C9.65953426,2.78320531 9.64918308,2.35519954 9.52576295,1.77234952 C9.4866326,1.58755695 9.43681935,1.39266971 9.37880775,1.19207554 C9.28966952,0.883850873 9.20055501,0.623725689 9.14074793,0.465261785 Z M9.324,2.824 L8.6337865,2.7921279 C7.05058596,2.71845664 5.87881749,2.73232018 4.6518492,2.90491104 L4.33643273,2.95319941 C2.67572832,3.22873155 1.36101341,3.79371357 0.4749417,4.72222324 L0.363,4.845 L0.389605555,4.75273013 C0.889138585,3.16465993 2.38467182,2.06271045 4.5901874,1.36902773 C5.55992613,1.06402377 6.60034049,0.860748719 7.64097342,0.74008696 C8.00532198,0.697840613 8.34357088,0.668953851 8.64695244,0.650988911 L8.937,0.636 L9.03605268,0.926267599 C9.0689988,1.0281981 9.10382583,1.14111642 9.13864906,1.26152916 C9.19507361,1.45663556 9.24341348,1.6457584 9.28118614,1.82413935 L9.31396708,1.99145071 C9.38169937,2.3695993 9.38782718,2.66010629 9.324,2.824 Z" id="Stroke-19" fill-rule="nonzero"/><path d="M12.4203695,2.9695 C13.9149985,2.7635 18.4181114,1.8025 20.3081316,4.6315 C19.432921,-0.0085 12.5733433,0.5025 12.5733433,0.5025 C12.5733433,0.5025 12.0977036,2.4675 12.4203695,2.9695 Z" id="Fill-21"/><path d="M12.7264382,0.369278924 L12.5640572,0.377845401 L12.4518518,0.473092271 L12.3769145,0.81393341 C12.3578815,0.907611827 12.3377913,1.01183026 12.3177033,1.12375413 C12.2770089,1.35049152 12.243661,1.5714067 12.2202144,1.77985423 C12.1527324,2.37978799 12.1705391,2.81199839 12.3152176,3.03708754 L12.4374365,3.09332939 L13.4060397,2.94893571 C14.586362,2.78169478 15.569867,2.72205416 16.5317528,2.81115922 C18.1804175,2.96388458 19.4372234,3.5529317 20.2041935,4.70093975 C20.2797962,4.81410257 20.4561912,4.74206648 20.4309655,4.60833069 C20.0606447,2.64504447 18.6415841,1.42648857 16.5215016,0.807760443 C15.2181274,0.427381714 13.8603989,0.323143983 12.7264382,0.369278924 Z M16.7026252,1.12503704 C18.3526826,1.65988019 19.5126702,2.5879002 20.0079032,3.99095403 L20.038,4.085 L19.962679,4.00151283 C19.1446048,3.14826806 17.9856766,2.69477422 16.554813,2.56222503 C15.6929269,2.48238352 14.8188659,2.51887398 13.8113059,2.64295273 L13.1158984,2.73897054 L12.492,2.832 L12.4704653,2.76251788 C12.4207277,2.56110536 12.4213658,2.22814843 12.4686477,1.80779859 C12.4914305,1.60525338 12.5239819,1.38961387 12.5637715,1.16791804 L12.5931778,1.0093664 C12.6223168,0.857214861 12.6502556,0.725341571 12.673,0.622 L12.736601,0.619072275 C13.8458325,0.573943433 15.1785532,0.676261219 16.4514629,1.04774916 L16.7026252,1.12503704 Z" id="Stroke-23" fill-rule="nonzero"/></g></g><circle id="Oval" fill="#f9fdf3" cx="4.5" cy="7.5" r="1"/><circle id="Oval-Copy-2" fill="#f9fdf3" cx="15.5" cy="7.5" r="1"/><circle id="Oval-Copy" fill="#f9fdf3" cx="16.5" cy="7.5" r="1"/></g></g><g id="Glasses" transform="translate(219.000000, 361.000000) scale(1 1)"><g id="Glasses/None" stroke="none" stroke-width="1" fill="none" fill-rule="evenodd" fill-opacity="0"/></g></g></svg>