<svg viewBox="215.1434010152285 -7.212500000000034 187.08121827411162 584.2125000000001" xmlns="http://www.w3.org/2000/svg" overflow="visible" xmlns:xlink="http://www.w3.org/1999/xlink" width="187.08121827411162px" height="584.2125000000001px"><g id="Master/Character/Standing" stroke="none" stroke-width="1" fill="none" fill-rule="evenodd"><g id="Standing Body" transform="translate(122.000000, -7.000000) scale(1 1)"><g id="Standing Body/Yoga Color" stroke="none" stroke-width="1" fill="none" fill-rule="evenodd"><g id="Group-3" transform="translate(100.000000, 1.000000)"><path d="M54.2751235,58.3545626 L67.2382717,65.5978692 L62.95497,78.1711496 C53.7589797,96.9826936 48.7261702,108.243909 47.8565412,111.954797 C47.2963909,114.345076 46.4548147,122.919061 46.5520978,135.492154 C46.5879298,140.123177 47.0227443,145.959126 47.8565412,153 L51.3576955,153 C58.0616265,158.118209 63.8625187,160.677314 68.7603722,160.677314 C73.6582256,160.677314 78.8539277,158.118209 84.3474787,153 C92.1767972,147.205803 96.2257351,142.647396 96.4942923,139.324778 C96.9488952,133.700383 98.415294,128.008635 98.3001297,120.497236 C98.2080623,114.492298 96.2257397,108.281591 95.3002149,103.36688 C93.9113906,95.9919613 88.4805689,82.7737191 79.00775,63.7121537 L98.3001297,56 L107.991118,79.3340801 C115.880436,100.566889 119.825096,111.661352 119.825096,112.61747 C119.825096,114.051647 122,126.950715 122,129.318215 C122,131.685715 119.958184,151.378044 118.498968,155.639961 C117.039752,159.901877 112.800299,182.548262 107.991118,191.985118 C107.901939,198.571737 107.901939,204.976441 107.991118,211.19923 L100.634604,248.528503 C81.1179629,249.509501 69.9588637,250 67.1573062,250 C64.3557487,250 52.612223,249.060186 31.926729,247.180557 C24.642243,214.894729 21,193.115886 21,181.84403 C21,170.572173 21.8228731,155.768128 23.4686193,137.431895 C29.920994,107.857492 35.5987414,88.491554 40.5018613,79.3340801 C45.4049812,70.1766062 48.49227,62.6196762 49.7637275,56.6632903 L54.2751235,58.3545626 Z" id="Path-28" fill="#228bee"/><path d="M32.2735296,249 C57.1585655,249.697779 70.7956931,250.046669 73.1849124,250.046669 C75.5741318,250.046669 84.0562312,249.697779 98.6312107,249 L98.6312107,252.551509 L132.592489,286.888208 L168.741885,321.268754 L174.680845,327.43139 L176,329.309162 L168.741885,348.424001 L150.082901,380.900107 L128.143103,418.107375 L84.0282081,359.956302 L110.519932,342.539609 L82.1775175,321.268754 L82.1775175,384.112695 L80.9339096,472.038368 L82.1775175,492 L4,492 C5.45708457,451.982964 7.17476311,425.453372 9.15303561,412.411225 C10.6198427,402.741014 11.0667205,379.679886 14.4056053,343.361633 C15.1817692,334.919019 17.1118144,320.657372 20.1957409,300.576691 L23.9968304,267.260303 L32.2735296,249 Z" id="Path-29" fill="#e0e281"/><path d="M159.033481,364.131135 C153.648275,373.514205 147.791926,382.618138 142.210077,391.886508 C137.87596,399.080128 133.645654,406.33871 129.36444,413.564811 C128.960175,414.24489 128.520974,414.902639 127.950012,415.807044 C126.967799,414.679329 126.080412,413.766805 125.310812,412.759881 C113.90256,397.831623 102.491314,382.905396 91.1349677,367.936536 C89.146584,365.314677 87.4077464,362.494883 85.4283463,359.582721 C86.8058411,358.714858 87.9936807,357.930229 89.2134623,357.199397 C98.4207171,351.682631 107.61799,346.150639 116.85519,340.68564 C119.127058,339.341721 121.53468,338.236338 123.87143,337.004074 C124.433408,336.706666 124.996384,336.385912 125.4825,335.979894 C125.660177,335.831698 125.738035,335.349552 125.63622,335.122182 C125.536402,334.895827 125.123153,334.6309 124.903553,334.674547 C124.291666,334.796353 123.676784,335.007482 123.118799,335.293724 C119.27479,337.262911 115.445754,339.260518 111.34621,341.386021 C109.725158,340.11214 107.93142,338.788522 106.230513,337.351219 C99.707377,331.836483 92.5274352,327.273859 85.4672755,322.544767 C84.0947717,321.625137 83.5647357,320.624303 83.5517593,319.002262 C83.47989,309.997804 83.3321586,300.99436 83.1894182,291.990917 C83.1764418,291.164671 83.0047541,290.340454 82.895952,289.425899 C81.4475861,289.794361 81.392686,290.658163 81.3956805,291.583884 C81.4136478,298.887128 81.1032124,306.207628 81.5054808,313.488541 C82.2321592,326.626261 82.5276219,339.745709 81.9896004,352.897639 C81.7160978,359.541104 82.0964061,366.216036 81.7270778,372.850366 C80.911561,387.46396 82.0305259,402.055223 81.8628309,416.657651 C81.6512158,434.990367 81.457568,453.324099 81.2908711,471.65783 C81.2349728,477.816104 81.2818875,483.974378 81.2818875,490.481828 C68.4821663,490.8645 55.7543144,490.941643 43.0264626,491.076644 C30.3515145,491.21266 17.6765664,491.415669 4.72811576,491.593301 C4.65724465,490.349872 4.50751696,489.321632 4.55542982,488.303543 C4.9067908,481.011464 5.25615541,473.71837 5.69435845,466.432382 C6.02375937,460.927796 6.45497512,455.428286 6.89317816,449.930805 C7.6298384,440.715218 8.4204006,431.504705 9.16903905,422.289117 C9.70706056,415.659862 10.1772055,409.025532 10.7411798,402.398308 C11.4279308,394.31957 12.1845547,386.245907 12.9042458,378.170214 C13.500162,371.465846 14.138002,364.767568 14.6660417,358.058124 C15.7909957,343.749044 16.7023382,329.421693 18.7605949,315.203966 C19.2596872,311.754846 19.674932,308.291514 20.0242966,304.823108 C20.1800134,303.277195 20.8138606,302.429633 22.2622265,301.790155 C27.2701186,299.577358 31.7659421,296.556586 35.8075915,292.768441 C40.184631,288.666646 41.9244668,283.405671 42.8587676,277.699092 C43.9907089,270.79679 44.3241026,263.835616 44.3680227,256.852111 C44.37501,255.736577 44.3690209,254.621043 44.3690209,253.41517 C57.7207381,253.643555 70.7610218,253.866865 84.0039369,254.094235 C84.7386008,256.170001 85.6150068,258.498513 86.3846072,260.862551 C89.5518469,270.601902 96.7747107,275.222384 106.173617,277.015967 C108.356647,277.432135 110.609549,277.501158 112.836499,277.632099 C115.638403,277.795521 118.431324,277.774205 120.931776,275.975547 C126.173244,281.029452 131.12923,285.852943 136.134128,290.623652 C143.061529,297.227531 150.103721,303.710619 156.950269,310.399761 C162.590012,315.909422 167.990191,321.670814 173.55507,327.258633 C174.929571,328.638079 175.093273,329.876433 174.430478,331.758325 C170.432749,343.114641 164.983659,353.762457 159.033481,364.131135 Z M87.1562039,370.54317 C87.9198151,369.866136 88.5556587,369.300756 89.3282536,368.615601 C93.4407741,373.962855 97.4474871,379.174092 101.604926,384.580219 C99.8840557,385.414585 98.4007534,386.134252 96.6968523,386.961513 C93.4846942,381.432566 90.3454037,376.029485 87.1562039,370.54317 Z M88.3160944,367.174238 C86.8188175,368.091838 85.5201793,368.889663 84.1876029,369.707789 C83.5876939,368.022815 83.5747175,363.67944 84.204572,360.989573 C85.6150068,363.11203 86.8637358,364.989862 88.3160944,367.174238 Z M109.614359,342.489374 C100.952113,347.752379 92.5753481,352.841811 83.8392364,358.149478 C83.5038464,352.166807 84.1267136,346.624665 84.1097445,341.082522 C84.0927753,335.497748 84.1067499,329.912974 84.1067499,324.007446 C93.0704476,329.474475 101.378338,335.586057 109.614359,342.489374 Z M93.2820628,397.353537 C90.3354218,399.053736 88.9709035,401.573077 89.0916838,404.9684 C89.439052,414.69354 89.7804312,424.419695 90.157745,434.142805 C90.2435888,436.349512 90.2086524,438.508511 89.3921374,440.603563 C88.7373283,442.278386 87.486603,443.147264 85.8455875,443.547191 C84.3922307,443.899412 83.5198174,443.282265 83.4838827,441.753608 C83.410017,438.670918 83.3960425,435.587213 83.4030298,432.504524 C83.4249898,421.793775 83.5108337,411.084042 83.4868773,400.375324 C83.4729027,394.453555 83.2293456,388.532802 83.2033928,382.611033 C83.1904164,379.531388 83.4289826,376.451743 83.5487647,373.373114 C83.5787102,372.615891 83.6535741,371.910435 84.5319765,371.639418 C85.4552973,371.356221 85.8475838,371.993669 86.2179103,372.626041 C88.6255316,376.735956 91.0281619,380.849931 93.4188141,384.972026 C95.0758005,387.828361 96.7098287,390.698906 98.5275228,393.86686 C96.6050193,395.155966 95.002933,396.361839 93.2820628,397.353537 Z M52.3864396,515.729026 C47.6290918,515.833576 42.8707458,516.353279 37.8878083,515.990908 C37.2399864,508.295857 36.5093153,500.844416 36.6690249,493.022484 L70.4575736,493.022484 C69.6171022,500.555128 68.3903333,508.0289 66.8112053,515.666094 C61.9550372,516.058916 57.1647493,515.624477 52.3864396,515.729026 Z M65.7301714,521.523915 L64.6441465,521.523915 C64.6102082,521.541171 64.5822591,521.569592 64.549319,521.583802 L64.549319,521.523915 L62.3962348,521.523915 L62.3962348,521.583802 L59.1092129,521.583802 L59.1092129,521.523915 L52.3395249,521.523915 L52.3395249,521.573652 C52.1319025,521.556396 51.9302692,521.540155 51.7296341,521.523915 L38.3120367,521.523915 L38.3120367,517.19069 L66.6884286,517.19069 L65.7301714,521.523915 Z M44.7303637,522.861743 C51.0269122,523.102309 57.3244588,523.329679 63.6200091,523.567199 C64.0073047,523.580395 64.392604,523.623027 64.9875548,523.666673 C64.9925129,527.25993 63.8615698,530.56593 63.5301725,534.161217 L39.4260107,534.161217 C39.0566824,530.309124 38.7023269,526.632633 38.3120367,522.564335 C40.6757378,522.67396 42.7030508,522.783585 44.7303637,522.861743 Z M65.7301714,536.162885 C65.1102987,538.857827 64.6421501,541.304084 63.9783574,543.694514 C62.9572145,547.366944 63.0720058,551.078962 63.3614793,554.80722 C63.9254536,562.064787 64.5233662,569.319309 65.0963241,576.575861 C61.8871606,576.761614 58.6839863,576.908796 55.4788155,577.067143 C55.4319008,576.814397 55.3829898,576.560635 55.3380715,576.308904 C55.2372548,575.753675 55.2372548,575.162919 55.0406125,574.647277 C54.9188339,574.330583 54.5225547,573.943851 54.2290884,573.924565 C53.929633,573.905279 53.464479,574.225018 53.3147513,574.522426 C52.8725555,575.405515 52.4722835,576.31601 52.1119388,577.238685 C35.3264666,578.022299 18.5839162,578.479069 1.8733078,578.72268 C1.89626604,577.628462 2.57403339,576.955488 4.1222177,576.452026 C8.36749682,575.073595 12.6586924,573.81291 16.9888172,572.750159 C23.8044217,571.078381 29.9123133,568.156068 34.9571383,563.121448 C38.2371729,559.84996 39.8342682,555.981626 39.1335426,551.26167 C38.5396228,547.258335 37.9756485,543.248909 37.3947051,539.244559 C37.2449774,538.22038 37.0812751,537.199245 36.9225637,536.162885 L65.7301714,536.162885 Z M56.0048588,579.880846 C55.9180167,579.417985 55.8341692,578.972381 55.7503217,578.525761 C58.5023167,578.412076 61.2543116,578.300422 64.0063066,578.191812 C64.403584,578.176586 64.8048542,578.16136 65.2031299,578.1573 C65.2121136,578.687153 65.1861608,579.240353 65.1861608,579.880846 L56.0048588,579.880846 Z M16.4897249,580.804536 C12.1027036,580.918221 7.7136859,581.02074 3.32666458,581.118185 C3.01323461,581.12529 2.69980465,581.039011 2.40833474,580.999425 C2.27757256,580.667505 2.17076681,580.359947 2.08592112,580.071674 C2.88945972,580.044268 3.69399651,580.014831 4.4985333,579.999606 C12.9232113,579.846334 21.3518821,579.789492 29.7725674,579.52355 C36.9964294,579.29415 44.2172968,579.000802 51.4381642,578.702379 C50.8192898,579.635205 49.8869854,579.977275 48.5683835,580.002651 C37.8738337,580.214795 27.1822784,580.529459 16.4897249,580.804536 Z M25.5811903,267.971922 C26.7790118,262.967753 28.9231123,258.354376 31.1700259,253.776526 C31.7040546,252.686369 32.403782,252.333133 33.6535092,252.496555 C35.6259219,252.753361 37.6352675,252.698549 39.627644,252.811219 C40.5619448,252.862986 41.4912547,252.997987 42.4764629,253.101522 C42.4764629,256.477559 42.6022341,259.635362 42.4495119,262.77794 C42.1460638,269.014372 41.741799,275.237609 40.2405294,281.346146 C39.4240144,284.668387 38.0205668,287.574459 35.7457041,290.069438 C31.6691182,294.542738 26.7141298,297.6843 20.702064,300.42086 C20.945621,298.204003 21.0983432,296.52512 21.3199402,294.856387 C22.5157654,285.858019 23.4630426,276.819048 25.5811903,267.971922 Z M21.0354576,169.579611 C21.129287,162.943251 21.7611378,156.311966 22.1943499,149.682711 C23.2424438,133.689672 27.4727501,118.406149 32.3598619,103.288078 C35.6458856,93.1244389 39.0736516,83.0044466 43.4267346,73.2427649 C44.477823,70.888877 45.6057716,68.5725457 46.797604,66.0257994 C52.1528644,69.1978131 57.3424262,72.3454657 63.6319873,73.6548729 C62.613839,76.0026705 61.6625691,78.1921212 60.7142937,80.382587 C56.7934246,89.4337376 52.815659,98.4605272 48.9726483,107.545174 C46.3254627,113.806983 45.3442472,120.463644 44.9679316,127.221809 C44.3720154,137.948798 44.6854454,140.625035 46.7546821,151.200782 C46.8465151,151.665673 46.8075859,152.154924 46.8335387,152.74974 C46.1188385,153.143577 45.397151,153.480572 44.7403455,153.918056 C43.6483316,154.647873 43.558495,155.282276 44.4029592,156.29326 C48.019382,160.616334 51.6507775,164.925197 55.2801768,169.238121 C55.5397048,169.545679 55.811211,169.844102 56.092699,170.12933 C57.7167454,171.775732 58.634077,171.837649 60.3669255,170.215608 C62.126725,168.567176 63.7777223,166.798969 65.5135653,165.123131 C66.479808,164.18929 67.5209145,163.337668 68.9273566,162.097284 C69.4354326,165.176928 69.864652,167.787622 70.3008587,170.397301 C71.8001319,179.380444 72.1694602,196.449865 72.352128,205.538573 C72.6036705,218.028694 72.9310751,230.515769 73.2474996,243.00386 C73.2934161,244.861392 73.4461383,246.714863 73.5609296,248.772357 C72.9859752,248.875892 72.6815289,248.972321 72.3760844,248.978411 C63.1947825,249.140819 54.0234623,249.029164 44.8711077,248.152165 C41.536173,247.832426 38.18926,247.648703 34.8463398,247.405093 C32.3389,247.2234 32.1911687,247.165542 31.592258,244.734511 C28.3581399,231.597807 25.5821885,218.368734 23.6247485,204.962027 C21.9108655,193.225069 20.869759,181.436344 21.0354576,169.579611 Z M66.8760873,66.3851251 C66.1653799,67.9868651 65.3728213,69.7733432 64.4564878,71.8420037 C58.1838958,70.7691018 52.9843522,67.6722014 47.5212878,64.140862 C48.8129387,61.8235157 49.8929745,59.885796 51.0189267,57.8648427 C56.3592143,60.7333581 61.4559449,63.4719478 66.8760873,66.3851251 Z M66.4069405,32.8957663 C68.3314404,28.9807401 69.2198247,24.8281936 69.6899697,20.5487666 C70.070278,17.0894954 70.302855,13.6129684 70.6691888,10.1516671 C70.9666478,7.35318978 71.5276275,4.60952485 72.562745,1.97649976 C74.0640146,1.92777763 74.5181886,2.897145 74.8106567,3.90812919 C75.0072991,4.58922396 75.02327,5.34340193 75.0142864,6.06306839 C74.8595677,18.8617628 74.6649217,31.6594422 74.5491323,44.4581367 C74.5341596,46.2882617 74.2017641,47.9600398 73.4690966,49.6145621 C71.5416021,53.9701175 69.6779915,58.3540941 67.777448,62.722845 C67.6197348,63.087246 67.3861596,63.4161204 67.074726,63.956124 C62.7076684,62.7258902 59.1072165,60.0756093 54.9637522,57.7948046 C55.9469641,55.4723831 56.8203756,53.2352253 57.8285421,51.0630304 C60.6494117,44.9879898 63.4533123,38.9038139 66.4069405,32.8957663 Z M58.0181971,169.818726 C53.9915204,164.924182 50.1754607,160.283399 46.2186569,155.475134 C48.0183838,154.072343 50.1075842,154.112945 52.0091258,153.649069 C55.7503217,158.698915 60.8181049,160.445806 66.7952343,161.203029 C63.7847096,164.157824 61.0277237,166.864947 58.0181971,169.818726 Z M81.2289837,62.1574653 C80.1619243,62.6477318 79.2445927,63.0689752 78.2993119,63.5023991 C77.710383,64.6280833 78.457025,65.5172622 78.889239,66.426742 C82.5405983,74.0893119 86.1340628,81.7823332 89.9131897,89.3799403 C92.4106476,94.4003497 93.3070174,99.8095212 94.2632782,105.238993 C95.8473972,114.228226 95.9012992,123.328099 96.094947,132.404626 C96.2267073,138.599442 92.0243502,143.553199 90.8714469,145.589378 C89.5807943,147.868152 85.0121033,151.765147 82.6903259,152.794402 C82.0674588,153.070494 81.3447731,153.425759 80.987423,153.963733 C78.1745388,158.203573 73.9522179,159.362754 69.3216396,159.443958 C65.2889738,159.515011 61.3361627,158.899894 57.8734604,156.569352 C56.4889783,155.636526 55.0475998,154.655993 53.9895241,153.389218 C52.8336263,152.006727 51.5679282,151.720485 49.9818129,151.95902 C49.6773666,152.004697 49.3639366,151.994547 48.7141184,152.028043 C48.2150261,148.73727 47.5961517,145.493188 47.2497816,142.218655 C46.3174772,133.399949 46.3883483,132.574138 47.0860794,123.728027 C47.657041,116.493805 49.809127,109.74173 52.6579458,103.194694 C57.4991411,92.0677778 62.4910623,81.0098844 67.3931469,69.9103742 C68.1008598,68.3055891 69.1429645,66.7749022 68.8335273,64.8544382 C68.8095709,64.711317 68.8944166,64.5387594 68.9583004,64.392593 C71.043508,59.5762075 73.1327084,54.760837 75.2199124,49.9464816 C75.3965911,49.9292258 75.5732697,49.910955 75.7489502,49.8936993 C77.5476789,53.9193652 79.3464075,57.9450312 81.2289837,62.1574653 Z M76.504576,10.4074583 C76.526536,8.72654481 76.8329787,7.0334508 77.1583869,5.37791344 C77.370002,4.30196641 77.8022159,3.24530522 78.9221791,2.53375912 C80.0251731,3.87564777 80.2068427,5.4296807 80.3495831,6.90555521 C80.6540294,10.0461025 80.8017607,13.2028905 80.9644648,16.3556183 C81.1201816,19.346954 81.1800726,22.34235 81.3397822,25.3336857 C81.5374227,29.0416428 82.8160972,32.4501618 84.3353342,35.7673268 C87.3288898,42.2991373 90.3683619,48.8096319 93.3838776,55.331292 C93.6154564,55.834754 93.7991224,56.3605469 94.1385052,57.2101391 C90.282518,58.7347357 86.6750789,60.1629032 82.8590191,61.6722741 C80.6670058,56.6031426 78.5328871,51.740065 76.4806195,46.8404458 C76.1831605,46.1288997 76.2011278,45.2458111 76.207117,44.4439261 C76.282979,33.0987751 76.3578428,21.7526092 76.504576,10.4074583 Z M99.77725,64.1601479 C94.4798843,66.9109181 89.0527546,68.876044 83.220362,70.6574469 C82.7043005,69.7723282 82.1293462,68.853713 81.6222684,67.8975412 C81.133158,66.975881 80.7149186,66.015649 80.1130133,64.7509037 C85.8974931,62.4366025 91.4184521,60.2268509 97.2448556,57.8963091 C98.0963071,60.0045562 98.8948548,61.9788175 99.77725,64.1601479 Z M82.5346091,154.93513 C83.7593817,155.546187 84.8114682,156.070965 86.070179,156.699278 C82.788148,160.706673 79.6229047,164.572977 76.2640135,168.673756 C74.5431432,166.128025 72.9560297,163.780227 71.1882448,161.166488 C75.9715454,160.517874 79.9053909,158.997338 82.5346091,154.93513 Z M116.445935,106.483438 C118.769708,114.078 119.999472,121.755795 120.548473,129.617314 C120.855914,134.024637 120.252013,138.357861 119.652104,142.698191 C117.898293,155.401471 115.293031,167.917983 111.597752,180.184794 C110.315085,184.442906 108.704015,188.597482 107.345486,192.833262 C106.989134,193.946766 106.821439,195.198316 106.891312,196.365617 C107.243671,202.144264 106.621802,207.859979 106.063817,213.589905 C104.98977,224.595016 102.258737,235.273282 99.9998451,246.047978 C99.7053807,247.451785 99.0196279,247.908555 97.7179951,247.951187 C95.4870525,248.02427 93.2601027,248.224234 91.0281619,248.330813 C86.7249881,248.534837 82.4188197,248.71653 78.1146477,248.896193 C77.332071,248.928674 76.5474979,248.900253 75.4624712,248.900253 C75.3067544,246.236777 75.0971357,243.894054 75.0472264,241.549302 C74.8246313,231.086224 74.7068455,220.621117 74.4313465,210.16007 C74.2576624,203.511529 74.0131072,196.858928 73.535975,190.226628 C73.2045777,185.627462 72.4200046,173.061793 71.8420557,168.479882 C71.7342518,167.63232 71.6464115,166.782728 71.551584,165.934151 C71.6993153,165.873249 71.8480448,165.811331 71.9967743,165.750428 C72.4519465,166.36453 72.9111114,166.976602 73.3622908,167.593749 C73.9801671,168.439281 74.520185,169.358911 75.2249033,170.119179 C76.1522168,171.120013 76.9238135,171.017493 77.8072069,169.947637 C81.1900545,165.848887 84.5748985,161.753183 87.9457679,157.645299 C88.9689071,156.399839 88.8151867,155.810099 87.3658226,155.097538 C86.6720843,154.756483 85.9833369,154.403247 85.3554788,154.087568 C89.8635813,149.950167 92.1752785,147.430291 94.1385052,144.427663 C95.3416179,142.587581 96.7830476,140.998542 97.4335125,137.473757 C97.9855086,134.488512 97.8088299,131.349995 97.8238027,128.280501 C97.8387755,125.444467 97.6790659,122.605388 97.5682674,119.769354 C97.2528411,111.724112 96.1318798,103.782405 94.2223527,95.9787437 C93.5954927,93.4096664 92.4815187,90.9370183 91.3825175,88.5181676 C89.3082899,83.9565582 87.0803418,79.4660019 84.9232649,74.9429642 C84.5798894,74.2243128 84.2714504,73.4884056 83.8671856,72.582986 C89.4460393,70.4209415 94.8951291,68.3076192 100.425072,66.1638455 C100.631696,66.4703889 100.845307,66.7048641 100.971079,66.9819712 C106.807464,79.8740497 112.285501,92.8899637 116.445935,106.483438 Z M51.3084002,251.533278 C46.3643919,251.364781 41.4253745,251.087674 36.4843607,250.854213 C35.6079546,250.812597 34.7165758,250.826807 33.8641261,250.65222 C33.4548704,250.568986 33.1194804,250.107141 32.7501521,249.816838 C32.8180287,249.616874 32.8869034,249.415896 32.9557781,249.215932 C40.2415275,249.448377 47.4893459,250.460376 54.7721008,250.718198 C62.0738212,250.977034 69.383527,251.093764 76.6872437,250.793311 C84.0089278,250.490828 91.3276173,250.127442 98.685236,249.788417 C99.2641831,251.037937 98.8449456,251.57591 97.7179951,251.636813 C96.1258907,251.724107 94.5287953,251.771814 92.9336963,251.806325 C86.6331551,251.941326 80.3306175,252.205238 74.0310745,252.154485 C66.4548534,252.093583 58.8806286,251.792114 51.3084002,251.533278 Z M118.370435,273.231882 C118.69185,273.578012 118.995298,273.941398 119.663084,274.704711 C118.319527,275.124939 117.365263,275.649717 116.390036,275.695394 C108.850748,276.04863 101.58596,275.205128 95.2075609,270.524758 C92.6232609,268.62967 90.5390515,266.383377 89.271357,263.383921 C87.9846971,260.343863 86.7768937,257.279444 85.8765312,253.778556 C86.8727194,253.721714 87.6283452,253.653706 88.3839709,253.63848 C91.6520273,253.574532 94.9240764,253.584683 98.1881401,253.438516 C99.2402267,253.391824 100.059736,253.612089 100.778429,254.343936 C101.4542,255.032136 102.143946,255.707141 102.798755,256.414627 C107.993307,262.016656 113.182869,267.623762 118.370435,273.231882 Z M158.609252,309.395882 C152.400544,303.318812 145.957262,297.491442 139.683672,291.481364 C126.331955,278.69079 113.021163,265.857584 100.918175,251.501812 C101.026977,250.550715 101.078883,249.330632 101.319445,248.15115 C102.000207,244.817745 102.733873,241.494489 103.492493,238.179354 C106.662727,224.319939 108.975521,210.358003 108.618171,196.052983 C108.593216,195.036924 108.891674,193.974172 109.219078,192.994654 C110.498751,189.154742 111.97806,185.378776 113.153922,181.507397 C116.932051,169.087314 119.467439,156.390124 121.475787,143.553873 C122.87624,134.603212 122.439035,125.777401 120.99566,116.928244 C120.079327,111.309974 118.443302,105.906893 116.391034,100.608361 C113.763813,93.8227895 111.387135,86.9357134 108.691038,80.1795781 C106.74358,75.303305 104.453745,70.568123 102.356559,65.8573021 C102.75184,65.0675975 103.079245,64.4169541 103.498482,63.5805575 C102.547212,63.4211956 101.945307,63.3196911 101.280516,63.2080363 C100.668629,61.6946051 99.9768869,60.227866 99.4787928,58.696164 C98.8718965,56.8254373 98.052387,55.423661 95.8154553,56.1534779 C95.5050199,55.6012938 95.2385046,55.1932459 95.0368713,54.7557618 C91.7817913,47.7093238 88.5147331,40.6699911 85.2965859,33.6062973 C83.9440458,30.6372926 83.139509,27.5119709 83.0436833,24.2161219 C82.9598358,21.2988844 82.9498539,18.3745415 82.7212697,15.4684695 C82.4168234,11.5981053 82.1922318,7.68916947 81.4555716,3.89290353 C80.7119241,0.0540057235 79.2156453,-0.32562087 76.0563911,2.26172723 C75.855756,1.95518383 75.6960464,1.55322626 75.4095675,1.29540499 C72.9640152,-0.895060761 71.1882448,-0.278928829 70.2659222,2.92658129 C69.1170117,6.9258561 68.6768123,11.0215601 68.3633823,15.1507606 C67.9042174,21.2258012 67.2264501,27.215578 64.4504987,32.8135477 C60.5775424,40.6263442 56.9681069,48.5731265 53.1530454,56.6569399 C52.9404321,56.5858868 52.707855,56.5331045 52.4942435,56.4336301 C50.5847164,55.5535867 50.4339905,55.5556168 49.4258241,57.2233347 C48.4226485,58.8809021 47.4054984,60.5415147 46.5690197,62.286376 C35.761675,84.8477672 27.8151274,108.415067 22.6405384,132.949705 C21.9228437,136.351118 20.9925357,139.729186 20.5882709,143.171202 C20.0392694,147.83533 19.8575998,152.547166 19.5970736,157.242762 C18.9322827,169.254797 19.1738433,181.244501 20.388634,193.218979 C21.8210289,207.361592 24.3484323,221.308302 27.4797374,235.149447 C28.5338203,239.808501 29.6068688,244.463494 30.7238374,249.107322 C30.9723853,250.143682 30.6699354,250.916131 30.2357251,251.838807 C28.3800999,255.783269 26.4086853,259.700325 24.9393576,263.797044 C22.6615003,270.150207 21.8839145,276.876906 20.994532,283.543717 C19.6020645,293.989539 18.4012484,304.461752 16.9568753,314.900468 C15.2120486,327.520515 14.2258423,340.209584 13.2426304,352.903729 C12.5908159,361.311342 11.7992555,369.708804 11.0635934,378.109311 C10.3558805,386.188049 9.61922031,394.262727 8.93346749,402.343495 C8.38446596,408.808313 7.90733372,415.280236 7.37729769,421.747083 C6.63963927,430.719061 5.85207162,439.686978 5.14535692,448.660985 C4.52648247,456.504233 3.90760802,464.350526 3.44245399,472.204939 C3.08809846,478.196746 2.9104216,484.200733 2.78165578,490.201676 C2.71777197,493.185906 3.07512206,493.436622 5.93492094,493.414291 C14.7169491,493.343238 23.4999754,493.258989 32.2820035,493.181846 C32.9737455,493.175756 33.6654874,493.181846 34.4091349,493.181846 C35.4063213,506.832163 36.3835441,520.222628 37.3637613,533.627304 C34.9102236,534.715431 34.8054142,535.096073 35.2615846,537.795076 C36.0311849,542.34755 36.6640339,546.92337 37.3547777,551.48904 C38.0515105,556.105461 36.2887165,559.693643 32.9318217,562.677874 C28.1964339,566.887263 22.7144041,569.46852 16.6174926,570.946425 C12.2065148,572.016282 7.83147169,573.289147 3.52729968,574.738631 C0.482836644,575.764841 -0.521337066,578.206022 0.247265078,581.336419 C0.517773105,582.445863 1.00887993,583.017333 2.2037069,582.986881 C4.2779345,582.933084 6.35515666,583.040679 8.42938426,582.981806 C21.6752939,582.6103 34.9202054,582.169771 48.1681115,581.862212 C50.4220123,581.810445 52.242701,581.412548 53.2648421,579.17133 C53.3007767,579.091141 53.551321,579.111442 53.7030451,579.084036 C54.6283622,581.633827 54.7142061,581.784054 56.4270909,581.818565 C59.3797209,581.879468 62.3353455,581.894694 65.2879756,581.851047 C66.9709148,581.824656 67.1615681,581.542473 67.025815,579.789492 C66.4318951,572.109666 65.9817139,564.4136 65.1801717,556.75509 C64.5153807,550.417153 65.1691916,544.307601 67.0707333,538.281282 C67.9790813,535.398556 67.9361593,535.333593 65.3708249,533.718658 C66.6405157,526.957447 67.9790813,520.124169 69.1928738,513.268559 C70.4026735,506.432235 71.4877002,499.57155 72.6775362,492.416502 L83.2952258,492.416502 C83.4269862,491.781085 83.5617411,491.471496 83.5427756,491.172058 C83.2842458,486.975865 82.7482207,482.778656 82.7831571,478.585508 C82.8709974,467.956978 83.2113783,457.330479 83.4599263,446.702964 C83.4689099,446.316232 83.5846994,445.931531 83.6595632,445.496077 C84.2345175,445.496077 84.7066588,445.534648 85.1708147,445.489986 C88.6474917,445.154007 90.8095595,443.39595 91.558198,439.930588 C91.9454936,438.132945 92.0473084,436.227706 91.9864191,434.381341 C91.6670001,424.653155 91.2527535,414.92903 90.8714469,405.20389 C90.763643,402.437894 91.8107387,400.358068 94.2542946,398.988774 C95.6467621,398.207189 96.9543839,397.262183 98.2779767,396.356764 C100.839318,394.601752 100.822349,394.596677 99.2971232,391.745417 C98.777069,390.770974 98.3189023,389.763035 97.7319697,388.568328 C99.5047456,387.725841 101.059917,386.985874 102.681967,386.213425 C106.949206,391.779929 111.094667,397.223611 115.279057,402.635828 C119.499381,408.095752 123.511085,413.733308 128.334313,418.952666 C128.900284,418.008675 129.308541,417.32758 129.715801,416.646485 C136.062258,406.045362 142.25799,395.346794 148.793105,384.866461 C157.00517,371.702351 164.936744,358.388014 171.37803,344.222055 C173.349444,339.88883 174.931567,335.370868 176.660423,330.923958 C177.18946,329.562784 177.180477,328.257437 176.054525,327.113482 C170.239101,321.207954 164.529485,315.190771 158.609252,309.395882 Z" id="Fill-1" fill="#632603"/></g></g></g><g id="Head" transform="translate(275.000000, 91.000000) scale(1 1)" fill="#632603"><g id="Head/Half Shave" stroke="none" stroke-width="1" fill="none" fill-rule="evenodd"><g id="Group-3" fill="#632603"><path d="M35.8401,9.568 C35.6171,9.582 35.3941,9.597 35.1701,9.611 C35.1701,11.599 35.1561,13.587 35.1741,15.574 C35.2001,18.598 35.8341,19.368 38.8121,19.874 C41.0921,20.261 43.4221,20.421 45.6641,20.955 C49.0301,21.757 50.2031,23.851 49.4251,27.22 C49.1011,28.619 48.6411,29.99 48.3881,31.401 C48.0821,33.107 48.4801,33.74 50.1351,34.265 C51.3481,34.65 52.6131,34.868 53.8541,35.168 C55.3511,35.53 56.4331,36.385 56.9881,37.849 C57.1761,38.342 57.3501,38.84 57.6351,39.627 C58.3631,36.251 57.6161,34.936 54.8121,34.169 C54.4271,34.064 54.0281,34.003 53.6521,33.873 C51.8501,33.251 51.0601,32.152 51.2531,30.243 C51.3561,29.227 51.6821,28.219 52.0051,27.24 C53.9921,21.228 52.1211,18.641 45.7201,18.614 C44.0441,18.607 42.3591,18.763 40.6961,18.624 C37.6631,18.371 36.4921,17.061 36.2621,14.028 C36.1491,12.539 35.9831,11.054 35.8401,9.568 M58.1871,44.253 C57.2361,44.371 56.2361,44.592 55.2331,44.603 C48.1171,44.679 41.0021,44.706 33.8871,44.762 C32.3941,44.774 30.9021,44.839 29.1281,44.887 C29.8631,47.804 30.5321,50.413 31.1741,53.028 C31.4691,54.228 31.4441,54.234 30.1721,55.269 C29.7911,54.347 29.3681,53.527 29.1111,52.659 C27.9751,48.831 26.8911,44.987 25.7751,41.153 C25.6221,40.63 25.3921,40.13 25.1601,39.52 C21.9051,40.157 19.1111,38.968 16.3981,37.578 C15.3451,37.039 14.4061,36.259 13.4711,35.519 C12.9721,35.125 12.4321,34.467 13.1081,33.942 C13.4421,33.683 14.3081,33.833 14.7841,34.083 C16.4731,34.964 18.0691,36.024 19.7601,36.901 C20.5251,37.299 21.4141,37.509 22.2731,37.664 C24.3821,38.043 25.5471,37.403 26.5521,35.507 C29.3841,30.169 30.1931,24.303 31.0141,18.443 C31.2021,17.099 31.2981,15.739 31.3631,14.383 C31.4211,13.208 31.3751,12.028 31.3751,10.689 C30.1281,10.589 29.0161,10.596 27.9431,10.396 C24.2551,9.708 20.5861,8.926 16.9011,8.23 C16.0531,8.07 14.0501,7.676 13.9431,7.4 C13.0661,7.21 10.4641,8.769 9.5021,10.904 C8.2021,13.788 7.6981,18.937 7.3901,20.665 C7.2931,21.211 7.1961,22.091 6.9031,22.603 C6.4111,22.279 6.0571,21.908 5.7481,21.416 C5.4771,20.984 5.2161,20.401 4.9271,20.172 C4.4761,19.816 3.7101,19.733 3.3151,19.855 C2.8511,19.998 2.3911,20.709 2.2551,21.255 C1.8281,22.964 2.7491,24.758 4.7181,25.386 C6.5341,25.965 6.8781,27.064 6.6771,28.644 C6.0421,33.632 5.4421,38.626 4.7221,43.602 C4.2871,46.603 3.6831,49.58 3.0961,52.556 C2.9521,53.286 2.5781,53.971 2.3061,54.687 C0.8241,54.401 0.8251,53.509 0.9821,52.627 C1.4711,49.877 2.0941,47.149 2.5101,44.388 C3.2731,39.336 3.9301,34.267 4.6141,29.203 C4.6781,28.737 4.6231,28.255 4.6231,27.711 C4.0201,27.384 3.3621,27.192 2.9421,26.766 C2.0591,25.874 1.0821,24.966 0.5411,23.869 C-0.2769,22.211 -0.2139,20.417 1.0461,18.903 C2.3221,17.37 3.9671,17.506 5.9431,18.244 C6.1421,17.089 6.3651,16.034 6.4991,14.968 C7.0931,10.236 9.3471,6.768 13.8581,4.844 C14.9221,4.391 15.8241,3.508 16.7281,2.736 C23.4791,-3.029 34.7111,0.891 36.5181,9.131 C36.7381,10.136 36.7581,11.187 36.8711,12.216 C36.9681,13.088 37.0101,13.969 37.1741,14.828 C37.5701,16.909 38.4221,17.718 40.5621,17.831 C42.4751,17.932 44.4021,17.778 46.3161,17.876 C47.5771,17.941 48.8821,18.089 50.0711,18.486 C52.6201,19.338 53.8941,21.385 53.5751,24.073 C53.4261,25.326 52.9211,26.533 52.6331,27.774 C52.4011,28.776 52.1791,29.791 52.0861,30.813 C51.9781,32.018 52.6731,32.75 53.7791,33.114 C54.0821,33.214 54.3991,33.274 54.7121,33.335 C57.7031,33.913 59.0961,35.541 58.8131,39.289 C58.6991,40.791 58.4411,42.281 58.1871,44.253" id="Fill-1"/></g></g></g><g id="Face" transform="translate(289.000000, 103.000000) scale(1 1)" fill="#632603"><g id="Face/Happy" stroke="none" stroke-width="1" fill="none" fill-rule="evenodd"><g id="Happy" fill="#632603"><polygon id="Fill-1" points="9.6244 5.4505 11.1524 11.4955 8.9234 11.7185"/><g id="Group-22" transform="translate(0.000000, 0.652400)"><path d="M9.6283,4.8567 L8.9363,11.0537 L11.1393,10.8337 L9.6283,4.8567 Z M8.9233,11.0767 C8.9213,11.0767 8.9183,11.0757 8.9163,11.0737 C8.9143,11.0707 8.9133,11.0677 8.9133,11.0647 L9.6133,4.7967 C9.6143,4.7917 9.6183,4.7877 9.6233,4.7877 C9.6283,4.7877 9.6333,4.7907 9.6343,4.7947 L11.1623,10.8397 C11.1633,10.8427 11.1623,10.8467 11.1613,10.8487 C11.1593,10.8517 11.1563,10.8527 11.1533,10.8537 L8.9253,11.0767 L8.9233,11.0767 Z" id="Fill-2"/><path d="M7.8626,0.3586 C7.8626,0.3586 7.9546,2.2096 7.5446,2.5976 C5.8246,2.4076 1.9526,3.0466 0.0106,3.9036 C0.7746,2.1306 7.8626,0.3586 7.8626,0.3586" id="Fill-4"/><g id="Group-8"><path d="M7.8524,0.3713 C7.6894,0.4133 5.9904,0.8483 4.2264,1.4753 C1.8134,2.3353 0.3654,3.1663 0.0314,3.8823 C1.9254,3.0563 5.7694,2.3923 7.5404,2.5873 C7.9214,2.2163 7.8594,0.5363 7.8524,0.3713 M0.0104,3.9143 C0.0074,3.9143 0.0054,3.9123 0.0034,3.9103 C-0.0006,3.9073 -0.0006,3.9033 0.0004,3.8983 C0.3184,3.1613 1.7384,2.3393 4.2194,1.4563 C6.0664,0.7993 7.8424,0.3523 7.8594,0.3483 C7.8634,0.3473 7.8664,0.3483 7.8684,0.3503 C7.8714,0.3513 7.8734,0.3543 7.8734,0.3573 C7.8764,0.4333 7.9614,2.2183 7.5514,2.6053 C7.5494,2.6073 7.5454,2.6093 7.5424,2.6083 C5.7684,2.4113 1.8994,3.0823 0.0154,3.9133 C0.0134,3.9133 0.0124,3.9143 0.0104,3.9143" id="Fill-6"/></g><path d="M4.8997,8.6438 C4.3457,8.6778 3.7937,8.5748 3.2787,8.4048 C3.4687,8.4608 3.6717,8.4918 3.8827,8.4918 C4.9357,8.4918 5.7927,7.7398 5.7927,6.8168 C5.7927,6.4448 5.5037,5.9998 5.2307,5.6918 C6.5807,5.8158 7.7657,6.5188 8.2027,6.8078 C7.8117,7.2718 6.5937,8.5398 4.8997,8.6438 M2.0237,6.3568 C1.9927,6.5158 1.9737,6.6898 1.9737,6.8168 C1.9737,7.4868 2.4247,8.0658 3.0737,8.3328 C2.0807,7.9648 1.2587,7.3728 0.9077,7.0968 C1.1117,6.9228 1.4927,6.6308 2.0237,6.3568 M8.6377,6.5928 C8.5667,6.5398 6.8727,5.2738 4.8837,5.2478 C2.1497,5.2168 0.5007,6.8868 0.4307,6.9578 C0.3907,6.9988 0.3697,7.0558 0.3717,7.1138 C0.3737,7.1708 0.3997,7.2258 0.4427,7.2638 C0.5297,7.3408 2.5167,9.0748 4.6817,9.0748 C4.7627,9.0748 4.8447,9.0718 4.9257,9.0668 C7.1967,8.9258 8.6227,6.9688 8.6827,6.8858 C8.7497,6.7918 8.7297,6.6628 8.6377,6.5928" id="Fill-9"/><path d="M14.221,8.217 C13.735,8.251 13.248,8.132 12.802,7.946 C12.879,7.961 12.957,7.971 13.035,7.971 C13.884,7.971 14.573,7.281 14.573,6.433 C14.573,6.062 14.443,5.714 14.209,5.439 C14.303,5.433 14.399,5.43 14.495,5.43 L14.496,5.43 C15.566,5.43 16.546,6.185 16.889,6.482 C16.584,6.905 15.595,8.118 14.221,8.217 M11.018,6.776 C11.129,6.681 11.296,6.548 11.511,6.402 C11.553,6.758 11.706,7.116 11.948,7.407 C12.013,7.487 12.083,7.556 12.156,7.619 C11.641,7.315 11.231,6.969 11.018,6.776 M17.318,6.298 C17.264,6.245 15.997,5.006 14.496,5.006 L14.495,5.006 C12.172,5.006 10.62,6.558 10.555,6.624 C10.474,6.706 10.474,6.838 10.554,6.921 C10.573,6.94 11.013,7.389 11.684,7.826 C12.519,8.371 13.313,8.647 14.046,8.647 C14.115,8.647 14.183,8.645 14.251,8.64 C16.129,8.505 17.3,6.639 17.349,6.56 C17.401,6.476 17.388,6.367 17.318,6.298" id="Fill-11"/><path d="M10.8109,0.3586 C10.8109,0.3586 10.7179,2.2096 11.1289,2.5976 C12.8479,2.4076 15.6169,2.8636 17.5589,3.7196 C16.7949,1.9476 10.8109,0.3586 10.8109,0.3586" id="Fill-13"/><g id="Group-17" transform="translate(10.000000, 0.000000)"><path d="M1.9872,2.5442 C3.7012,2.5442 5.9272,2.9942 7.5382,3.6992 C7.2082,2.9832 5.9502,2.1842 3.8942,1.3842 C2.3992,0.8032 0.9702,0.4122 0.8202,0.3722 C0.8142,0.5382 0.7522,2.2162 1.1332,2.5872 C1.3972,2.5582 1.6842,2.5442 1.9872,2.5442 M7.5582,3.7312 C7.5572,3.7312 7.5552,3.7312 7.5542,3.7302 C5.6592,2.8952 2.8982,2.4122 1.1302,2.6082 C1.1272,2.6092 1.1242,2.6072 1.1222,2.6062 C0.9492,2.4422 0.8432,2.0152 0.8052,1.3332 C0.7772,0.8272 0.8002,0.3622 0.8002,0.3572 C0.8002,0.3552 0.8022,0.3522 0.8042,0.3502 C0.8072,0.3482 0.8102,0.3472 0.8142,0.3482 C0.8282,0.3522 2.3282,0.7522 3.9022,1.3642 C5.3562,1.9302 7.1722,2.7972 7.5682,3.7162 C7.5702,3.7202 7.56924052,3.7252 7.5662,3.7282 C7.5642,3.7302 7.5612,3.7312 7.5582,3.7312" id="Fill-15"/></g><path d="M5.974,13.3127 C7.031,14.3127 7.89,14.8687 9.322,14.9637 C10.754,15.0597 11.757,14.5357 11.757,14.5357 C11.757,14.5357 10.611,16.4807 9.226,16.8417 C6.362,17.5907 6.497,15.3437 5.974,13.3127" id="Fill-18"/><path d="M5.993,13.3459 C6.075,13.6659 6.14,13.9919 6.203,14.3069 C6.411,15.3389 6.607,16.3149 7.294,16.7429 C7.744,17.0249 8.375,17.0539 9.223,16.8319 C10.493,16.4999 11.575,14.8109 11.729,14.5609 C11.544,14.6489 10.597,15.0589 9.321,14.9749 C7.881,14.8779 7.035,14.3279 5.993,13.3459 M8.224,16.9999 C7.849,16.9999 7.537,16.9199 7.283,16.7609 C6.588,16.3269 6.391,15.3479 6.182,14.3109 C6.117,13.9849 6.049,13.6469 5.964,13.3159 C5.962,13.3109 5.965,13.3069 5.969,13.3039 C5.972,13.3019 5.978,13.3019 5.981,13.3059 C7.033,14.2999 7.876,14.8569 9.323,14.9529 C10.736,15.0479 11.742,14.5319 11.752,14.5269 C11.757,14.5239 11.762,14.5249 11.764,14.5289 C11.768,14.5319 11.768,14.5369 11.766,14.5409 C11.755,14.5609 10.602,16.4929 9.229,16.8529 C8.853,16.9499 8.519,16.9999 8.224,16.9999" id="Fill-20"/></g></g></g></g><g id="Glasses" transform="translate(286.000000, 108.000000) scale(1 1)"><g id="Glasses/Read" stroke="none" stroke-width="1" fill="none" fill-rule="evenodd"><g id="Group-3" fill="#ddd011"><path d="M21.6853283,6.70912951 C21.1497633,7.18018401 20.5187622,7.34890304 19.7530279,7.22434536 C16.7136687,6.73064402 14.9385571,3.7378627 14.2536627,0.988535032 C18.6414779,0.788110403 22.4196249,0.615994338 23.4581942,0.569568294 C23.4469664,1.61019108 23.2942687,5.29030432 21.6853283,6.70912951 L21.6853283,6.70912951 Z M11.6645374,2.30771408 C11.7835518,1.92498231 11.8913385,1.52639774 11.9912657,1.11082803 C12.4370084,1.11875442 13.2229528,1.10063694 13.7091156,1.04062279 C13.797815,1.40070771 13.9022333,1.76305732 14.0257389,2.12427459 L11.6645374,2.30771408 Z M6.71084224,7.43382873 C3.72200803,7.72031139 1.1373738,5.24048125 0.607422729,1.62717622 C3.41548972,1.49129512 7.48668162,1.30106157 11.4332452,1.11875442 C10.9235041,3.17055909 9.56943423,7.15753715 6.71084224,7.43382873 L6.71084224,7.43382873 Z M23.9982503,0.277423921 L23.9903908,0 L23.7164331,0.0124557679 C23.631102,0.016985138 19.2904434,0.212880396 14.1301572,0.449539986 L14.1200522,0.404246285 L13.8775322,0.460863411 C13.1903923,0.492569002 12.489779,0.524274593 11.7835518,0.557112527 L11.5679785,0.542392074 L11.5612418,0.567303609 C7.4271744,0.757537155 3.13591808,0.957961783 0.287431088,1.09723992 L0,1.11196037 L0.0336833306,1.40070771 C0.25262498,3.32002831 1.04306047,5.04911536 2.25790593,6.26978061 C3.37956084,7.39646143 4.77854184,8 6.2448895,8 C6.41667448,8 6.58958225,7.9920736 6.76136723,7.97508846 C8.74980652,7.78372258 10.4193769,5.9527247 11.4826474,2.86822364 L14.2199794,2.65534324 C15.166481,5.07062987 16.9438381,7.31946214 19.666574,7.76220807 C20.5872517,7.91167728 21.3855466,7.69539986 22.040126,7.11790517 C22.9170154,6.3467799 23.5109648,4.95399858 23.8096236,2.98145789 C24.0274425,1.53658882 23.9993731,0.328379335 23.9982503,0.277423921 L23.9982503,0.277423921 Z" id="Fill-1"/></g></g></g></g></svg>